<?xml version="1.0" standalone="no"?>
 <!DOCTYPE svg PUBLIC "-//W3C//DTD SVG 1.1//EN" 
 "http://www.w3.org/Graphics/SVG/1.1/DTD/svg11.dtd"> 
<svg
  xmlns:svg="http://www.w3.org/2000/svg"
  xmlns="http://www.w3.org/2000/svg"
  xmlns:xlink="http://www.w3.org/1999/xlink"
  version="1.1"
  width="54.6354mm" height="87.0966mm" viewBox="0.0000 0.0000 54.6354 87.0966">
<title>SVG Image created as dalmierz-B_Cu.svg date 2024/12/19 21:21:28 </title>
  <desc>Image generated by PCBNEW </desc>
<g style="fill:#000000; fill-opacity:1.0000;stroke:#000000; stroke-opacity:1.0000;
stroke-linecap:round; stroke-linejoin:round;"
 transform="translate(0 0) scale(1 1)">
</g>
<g style="fill:#000000; fill-opacity:0.0; 
stroke:#000000; stroke-width:0.0000; stroke-opacity:1; 
stroke-linecap:round; stroke-linejoin:round;">
<g >
</g>
<g >
</g>
<g >
</g>
<g >
</g>
<g >
</g>
<g >
</g>
<g >
</g>
<g >
</g>
<g >
</g>
<g >
</g>
<g >
</g>
<g >
</g>
<g >
</g>
<g >
</g>
<g >
</g>
<g >
</g>
<g >
</g>
<g >
</g>
<g style="fill:#4D7FC4; fill-opacity:0.0; 
stroke:#4D7FC4; stroke-width:0.0000; stroke-opacity:1; 
stroke-linecap:round; stroke-linejoin:round;">
</g>
<g style="fill:#4D7FC4; fill-opacity:0.0; 
stroke:#4D7FC4; stroke-width:0.0000; stroke-opacity:1; 
stroke-linecap:round; stroke-linejoin:round;">
</g>
<g style="fill:#4D7FC4; fill-opacity:1.0000; 
stroke:#4D7FC4; stroke-width:0.0000; stroke-opacity:1; 
stroke-linecap:round; stroke-linejoin:round;">
<path style="fill:#4D7FC4; fill-opacity:1.0000; 
stroke:#4D7FC4; stroke-width:0.0000; stroke-opacity:1; 
stroke-linecap:round; stroke-linejoin:round;fill-rule:evenodd;"
d="M 6.5360,42.4190
6.5360,41.1810
7.7740,41.1810
7.7740,42.4190
Z" /> 
<circle cx="5.6550" cy="41.8000" r="0.6190" /> 
</g>
<g style="fill:#4D7FC4; fill-opacity:1.0000; 
stroke:#4D7FC4; stroke-width:0.0212; stroke-opacity:1; 
stroke-linecap:round; stroke-linejoin:round;">
</g>
<g style="fill:#4D7FC4; fill-opacity:1.0000; 
stroke:#4D7FC4; stroke-width:0.0000; stroke-opacity:1; 
stroke-linecap:round; stroke-linejoin:round;">
<circle cx="4.1550" cy="41.8000" r="0.6190" /> 
</g>
<g style="fill:#4D7FC4; fill-opacity:1.0000; 
stroke:#4D7FC4; stroke-width:0.0212; stroke-opacity:1; 
stroke-linecap:round; stroke-linejoin:round;">
</g>
<g style="fill:#4D7FC4; fill-opacity:1.0000; 
stroke:#4D7FC4; stroke-width:0.0000; stroke-opacity:1; 
stroke-linecap:round; stroke-linejoin:round;">
<circle cx="2.6550" cy="41.8000" r="0.6190" /> 
</g>
<g style="fill:#4D7FC4; fill-opacity:1.0000; 
stroke:#4D7FC4; stroke-width:0.0212; stroke-opacity:1; 
stroke-linecap:round; stroke-linejoin:round;">
</g>
<g >
</g>
<g >
</g>
<g >
</g>
<g style="fill:#4D7FC4; fill-opacity:1.0000; 
stroke:#4D7FC4; stroke-width:0.0212; stroke-opacity:1; 
stroke-linecap:round; stroke-linejoin:round;">
</g>
<g style="fill:#4D7FC4; fill-opacity:1.0000; 
stroke:#4D7FC4; stroke-width:1.3500; stroke-opacity:1; 
stroke-linecap:round; stroke-linejoin:round;">
</g>
<g style="fill:#4D7FC4; fill-opacity:0.0; 
stroke:#4D7FC4; stroke-width:1.3500; stroke-opacity:1; 
stroke-linecap:round; stroke-linejoin:round;">
<path d="M2.3150 21.4950
L2.6650 21.4950
" />
</g>
<g style="fill:#4D7FC4; fill-opacity:0.0; 
stroke:#4D7FC4; stroke-width:1.1000; stroke-opacity:1; 
stroke-linecap:round; stroke-linejoin:round;">
<path d="M5.2900 21.8050
L5.6900 21.8050
" />
<path d="M5.2900 26.6450
L5.6900 26.6450
" />
</g>
<g style="fill:#4D7FC4; fill-opacity:0.0; 
stroke:#4D7FC4; stroke-width:1.3500; stroke-opacity:1; 
stroke-linecap:round; stroke-linejoin:round;">
<path d="M2.3150 26.9550
L2.6650 26.9550
" />
</g>
<g >
</g>
<g style="fill:#4D7FC4; fill-opacity:0.0; 
stroke:#4D7FC4; stroke-width:1.3500; stroke-opacity:1; 
stroke-linecap:round; stroke-linejoin:round;">
</g>
<g style="fill:#4D7FC4; fill-opacity:0.0; 
stroke:#4D7FC4; stroke-width:0.0000; stroke-opacity:1; 
stroke-linecap:round; stroke-linejoin:round;">
</g>
<g style="fill:#4D7FC4; fill-opacity:1.0000; 
stroke:#4D7FC4; stroke-width:0.0000; stroke-opacity:1; 
stroke-linecap:round; stroke-linejoin:round;">
<path style="fill:#4D7FC4; fill-opacity:1.0000; 
stroke:#4D7FC4; stroke-width:0.0000; stroke-opacity:1; 
stroke-linecap:round; stroke-linejoin:round;fill-rule:evenodd;"
d="M 11.3882,6.8490
11.3882,5.3510
12.8862,5.3510
12.8862,6.8490
Z" /> 
<circle cx="18.6372" cy="6.1000" r="0.7490" /> 
</g>
<g style="fill:#4D7FC4; fill-opacity:1.0000; 
stroke:#4D7FC4; stroke-width:0.0212; stroke-opacity:1; 
stroke-linecap:round; stroke-linejoin:round;">
</g>
<g style="fill:#4D7FC4; fill-opacity:1.0000; 
stroke:#4D7FC4; stroke-width:0.0000; stroke-opacity:1; 
stroke-linecap:round; stroke-linejoin:round;">
<circle cx="12.1372" cy="10.6000" r="0.7490" /> 
</g>
<g style="fill:#4D7FC4; fill-opacity:1.0000; 
stroke:#4D7FC4; stroke-width:0.0212; stroke-opacity:1; 
stroke-linecap:round; stroke-linejoin:round;">
</g>
<g style="fill:#4D7FC4; fill-opacity:1.0000; 
stroke:#4D7FC4; stroke-width:0.0000; stroke-opacity:1; 
stroke-linecap:round; stroke-linejoin:round;">
<circle cx="18.6372" cy="10.6000" r="0.7490" /> 
</g>
<g style="fill:#4D7FC4; fill-opacity:1.0000; 
stroke:#4D7FC4; stroke-width:0.0212; stroke-opacity:1; 
stroke-linecap:round; stroke-linejoin:round;">
</g>
<g >
</g>
<g >
</g>
<g style="fill:#4D7FC4; fill-opacity:1.0000; 
stroke:#4D7FC4; stroke-width:0.0212; stroke-opacity:1; 
stroke-linecap:round; stroke-linejoin:round;">
</g>
<g style="fill:#4D7FC4; fill-opacity:1.0000; 
stroke:#4D7FC4; stroke-width:0.0000; stroke-opacity:1; 
stroke-linecap:round; stroke-linejoin:round;">
<path style="fill:#4D7FC4; fill-opacity:1.0000; 
stroke:#4D7FC4; stroke-width:0.0000; stroke-opacity:1; 
stroke-linecap:round; stroke-linejoin:round;fill-rule:evenodd;"
d="M 20.7705,6.8490
20.7705,5.3510
22.2685,5.3510
22.2685,6.8490
Z" /> 
<circle cx="28.0195" cy="6.1000" r="0.7490" /> 
</g>
<g style="fill:#4D7FC4; fill-opacity:1.0000; 
stroke:#4D7FC4; stroke-width:0.0212; stroke-opacity:1; 
stroke-linecap:round; stroke-linejoin:round;">
</g>
<g style="fill:#4D7FC4; fill-opacity:1.0000; 
stroke:#4D7FC4; stroke-width:0.0000; stroke-opacity:1; 
stroke-linecap:round; stroke-linejoin:round;">
<circle cx="21.5195" cy="10.6000" r="0.7490" /> 
</g>
<g style="fill:#4D7FC4; fill-opacity:1.0000; 
stroke:#4D7FC4; stroke-width:0.0212; stroke-opacity:1; 
stroke-linecap:round; stroke-linejoin:round;">
</g>
<g style="fill:#4D7FC4; fill-opacity:1.0000; 
stroke:#4D7FC4; stroke-width:0.0000; stroke-opacity:1; 
stroke-linecap:round; stroke-linejoin:round;">
<circle cx="28.0195" cy="10.6000" r="0.7490" /> 
</g>
<g style="fill:#4D7FC4; fill-opacity:1.0000; 
stroke:#4D7FC4; stroke-width:0.0212; stroke-opacity:1; 
stroke-linecap:round; stroke-linejoin:round;">
</g>
<g >
</g>
<g >
</g>
<g style="fill:#4D7FC4; fill-opacity:1.0000; 
stroke:#4D7FC4; stroke-width:0.0212; stroke-opacity:1; 
stroke-linecap:round; stroke-linejoin:round;">
</g>
<g style="fill:#4D7FC4; fill-opacity:1.0000; 
stroke:#4D7FC4; stroke-width:0.0000; stroke-opacity:1; 
stroke-linecap:round; stroke-linejoin:round;">
<path style="fill:#4D7FC4; fill-opacity:1.0000; 
stroke:#4D7FC4; stroke-width:0.0000; stroke-opacity:1; 
stroke-linecap:round; stroke-linejoin:round;fill-rule:evenodd;"
d="M 11.3882,14.7990
11.3882,13.3010
12.8862,13.3010
12.8862,14.7990
Z" /> 
<circle cx="18.6372" cy="14.0500" r="0.7490" /> 
</g>
<g style="fill:#4D7FC4; fill-opacity:1.0000; 
stroke:#4D7FC4; stroke-width:0.0212; stroke-opacity:1; 
stroke-linecap:round; stroke-linejoin:round;">
</g>
<g style="fill:#4D7FC4; fill-opacity:1.0000; 
stroke:#4D7FC4; stroke-width:0.0000; stroke-opacity:1; 
stroke-linecap:round; stroke-linejoin:round;">
<circle cx="12.1372" cy="18.5500" r="0.7490" /> 
</g>
<g style="fill:#4D7FC4; fill-opacity:1.0000; 
stroke:#4D7FC4; stroke-width:0.0212; stroke-opacity:1; 
stroke-linecap:round; stroke-linejoin:round;">
</g>
<g style="fill:#4D7FC4; fill-opacity:1.0000; 
stroke:#4D7FC4; stroke-width:0.0000; stroke-opacity:1; 
stroke-linecap:round; stroke-linejoin:round;">
<circle cx="18.6372" cy="18.5500" r="0.7490" /> 
</g>
<g style="fill:#4D7FC4; fill-opacity:1.0000; 
stroke:#4D7FC4; stroke-width:0.0212; stroke-opacity:1; 
stroke-linecap:round; stroke-linejoin:round;">
</g>
<g >
</g>
<g style="fill:#4D7FC4; fill-opacity:1.0000; 
stroke:#4D7FC4; stroke-width:0.0212; stroke-opacity:1; 
stroke-linecap:round; stroke-linejoin:round;">
</g>
<g style="fill:#4D7FC4; fill-opacity:1.0000; 
stroke:#4D7FC4; stroke-width:0.0000; stroke-opacity:1; 
stroke-linecap:round; stroke-linejoin:round;">
<path style="fill:#4D7FC4; fill-opacity:1.0000; 
stroke:#4D7FC4; stroke-width:0.0000; stroke-opacity:1; 
stroke-linecap:round; stroke-linejoin:round;fill-rule:evenodd;"
d="M 2.0060,6.8490
2.0060,5.3510
3.5040,5.3510
3.5040,6.8490
Z" /> 
<circle cx="9.2550" cy="6.1000" r="0.7490" /> 
</g>
<g style="fill:#4D7FC4; fill-opacity:1.0000; 
stroke:#4D7FC4; stroke-width:0.0212; stroke-opacity:1; 
stroke-linecap:round; stroke-linejoin:round;">
</g>
<g style="fill:#4D7FC4; fill-opacity:1.0000; 
stroke:#4D7FC4; stroke-width:0.0000; stroke-opacity:1; 
stroke-linecap:round; stroke-linejoin:round;">
<circle cx="2.7550" cy="10.6000" r="0.7490" /> 
</g>
<g style="fill:#4D7FC4; fill-opacity:1.0000; 
stroke:#4D7FC4; stroke-width:0.0212; stroke-opacity:1; 
stroke-linecap:round; stroke-linejoin:round;">
</g>
<g style="fill:#4D7FC4; fill-opacity:1.0000; 
stroke:#4D7FC4; stroke-width:0.0000; stroke-opacity:1; 
stroke-linecap:round; stroke-linejoin:round;">
<circle cx="9.2550" cy="10.6000" r="0.7490" /> 
</g>
<g style="fill:#4D7FC4; fill-opacity:1.0000; 
stroke:#4D7FC4; stroke-width:0.0212; stroke-opacity:1; 
stroke-linecap:round; stroke-linejoin:round;">
</g>
<g >
</g>
<g style="fill:#4D7FC4; fill-opacity:1.0000; 
stroke:#4D7FC4; stroke-width:0.0212; stroke-opacity:1; 
stroke-linecap:round; stroke-linejoin:round;">
</g>
<g style="fill:#4D7FC4; fill-opacity:1.0000; 
stroke:#4D7FC4; stroke-width:0.0000; stroke-opacity:1; 
stroke-linecap:round; stroke-linejoin:round;">
<path style="fill:#4D7FC4; fill-opacity:1.0000; 
stroke:#4D7FC4; stroke-width:0.0000; stroke-opacity:1; 
stroke-linecap:round; stroke-linejoin:round;fill-rule:evenodd;"
d="M 2.0060,14.7990
2.0060,13.3010
3.5040,13.3010
3.5040,14.7990
Z" /> 
<circle cx="9.2550" cy="14.0500" r="0.7490" /> 
</g>
<g style="fill:#4D7FC4; fill-opacity:1.0000; 
stroke:#4D7FC4; stroke-width:0.0212; stroke-opacity:1; 
stroke-linecap:round; stroke-linejoin:round;">
</g>
<g style="fill:#4D7FC4; fill-opacity:1.0000; 
stroke:#4D7FC4; stroke-width:0.0000; stroke-opacity:1; 
stroke-linecap:round; stroke-linejoin:round;">
<circle cx="2.7550" cy="18.5500" r="0.7490" /> 
</g>
<g style="fill:#4D7FC4; fill-opacity:1.0000; 
stroke:#4D7FC4; stroke-width:0.0212; stroke-opacity:1; 
stroke-linecap:round; stroke-linejoin:round;">
</g>
<g style="fill:#4D7FC4; fill-opacity:1.0000; 
stroke:#4D7FC4; stroke-width:0.0000; stroke-opacity:1; 
stroke-linecap:round; stroke-linejoin:round;">
<circle cx="9.2550" cy="18.5500" r="0.7490" /> 
</g>
<g style="fill:#4D7FC4; fill-opacity:1.0000; 
stroke:#4D7FC4; stroke-width:0.0212; stroke-opacity:1; 
stroke-linecap:round; stroke-linejoin:round;">
</g>
<g >
</g>
<g style="fill:#4D7FC4; fill-opacity:1.0000; 
stroke:#4D7FC4; stroke-width:0.0212; stroke-opacity:1; 
stroke-linecap:round; stroke-linejoin:round;">
</g>
<g style="fill:#4D7FC4; fill-opacity:1.0000; 
stroke:#4D7FC4; stroke-width:0.0000; stroke-opacity:1; 
stroke-linecap:round; stroke-linejoin:round;">
<path style="fill:#4D7FC4; fill-opacity:1.0000; 
stroke:#4D7FC4; stroke-width:0.0000; stroke-opacity:1; 
stroke-linecap:round; stroke-linejoin:round;fill-rule:evenodd;"
d="M 6.5360,33.9690
6.5360,32.7310
7.7740,32.7310
7.7740,33.9690
Z" /> 
<circle cx="5.6550" cy="33.3500" r="0.6190" /> 
</g>
<g style="fill:#4D7FC4; fill-opacity:1.0000; 
stroke:#4D7FC4; stroke-width:0.0212; stroke-opacity:1; 
stroke-linecap:round; stroke-linejoin:round;">
</g>
<g style="fill:#4D7FC4; fill-opacity:1.0000; 
stroke:#4D7FC4; stroke-width:0.0000; stroke-opacity:1; 
stroke-linecap:round; stroke-linejoin:round;">
<circle cx="4.1550" cy="33.3500" r="0.6190" /> 
</g>
<g style="fill:#4D7FC4; fill-opacity:1.0000; 
stroke:#4D7FC4; stroke-width:0.0212; stroke-opacity:1; 
stroke-linecap:round; stroke-linejoin:round;">
</g>
<g style="fill:#4D7FC4; fill-opacity:1.0000; 
stroke:#4D7FC4; stroke-width:0.0000; stroke-opacity:1; 
stroke-linecap:round; stroke-linejoin:round;">
<circle cx="2.6550" cy="33.3500" r="0.6190" /> 
</g>
<g style="fill:#4D7FC4; fill-opacity:1.0000; 
stroke:#4D7FC4; stroke-width:0.0212; stroke-opacity:1; 
stroke-linecap:round; stroke-linejoin:round;">
</g>
<g >
</g>
<g style="fill:#4D7FC4; fill-opacity:1.0000; 
stroke:#4D7FC4; stroke-width:0.0212; stroke-opacity:1; 
stroke-linecap:round; stroke-linejoin:round;">
</g>
<g style="fill:#4D7FC4; fill-opacity:1.0000; 
stroke:#4D7FC4; stroke-width:2.0700; stroke-opacity:1; 
stroke-linecap:round; stroke-linejoin:round;">
</g>
<g style="fill:#4D7FC4; fill-opacity:0.0; 
stroke:#4D7FC4; stroke-width:2.0700; stroke-opacity:1; 
stroke-linecap:round; stroke-linejoin:round;">
<path d="M39.6700 80.1500
L41.7400 80.1500
" />
<path d="M39.6700 7.2500
L41.7400 7.2500
" />
</g>
<g >
</g>
<g >
</g>
<g >
</g>
<g >
</g>
<g style="fill:#4D7FC4; fill-opacity:0.0; 
stroke:#4D7FC4; stroke-width:2.0700; stroke-opacity:1; 
stroke-linecap:round; stroke-linejoin:round;">
</g>
<g style="fill:#4D7FC4; fill-opacity:0.0; 
stroke:#4D7FC4; stroke-width:0.0000; stroke-opacity:1; 
stroke-linecap:round; stroke-linejoin:round;">
</g>
<g style="fill:#4D7FC4; fill-opacity:1.0000; 
stroke:#4D7FC4; stroke-width:0.0000; stroke-opacity:1; 
stroke-linecap:round; stroke-linejoin:round;">
<path style="fill:#4D7FC4; fill-opacity:1.0000; 
stroke:#4D7FC4; stroke-width:0.0000; stroke-opacity:1; 
stroke-linecap:round; stroke-linejoin:round;fill-rule:evenodd;"
d="M 20.7705,14.7990
20.7705,13.3010
22.2685,13.3010
22.2685,14.7990
Z" /> 
<circle cx="28.0195" cy="14.0500" r="0.7490" /> 
</g>
<g style="fill:#4D7FC4; fill-opacity:1.0000; 
stroke:#4D7FC4; stroke-width:0.0212; stroke-opacity:1; 
stroke-linecap:round; stroke-linejoin:round;">
</g>
<g style="fill:#4D7FC4; fill-opacity:1.0000; 
stroke:#4D7FC4; stroke-width:0.0000; stroke-opacity:1; 
stroke-linecap:round; stroke-linejoin:round;">
<circle cx="21.5195" cy="18.5500" r="0.7490" /> 
</g>
<g style="fill:#4D7FC4; fill-opacity:1.0000; 
stroke:#4D7FC4; stroke-width:0.0212; stroke-opacity:1; 
stroke-linecap:round; stroke-linejoin:round;">
</g>
<g style="fill:#4D7FC4; fill-opacity:1.0000; 
stroke:#4D7FC4; stroke-width:0.0000; stroke-opacity:1; 
stroke-linecap:round; stroke-linejoin:round;">
<circle cx="28.0195" cy="18.5500" r="0.7490" /> 
</g>
<g style="fill:#4D7FC4; fill-opacity:1.0000; 
stroke:#4D7FC4; stroke-width:0.0212; stroke-opacity:1; 
stroke-linecap:round; stroke-linejoin:round;">
</g>
<g >
</g>
<g >
</g>
<g >
</g>
<g style="fill:#4D7FC4; fill-opacity:1.0000; 
stroke:#4D7FC4; stroke-width:0.0212; stroke-opacity:1; 
stroke-linecap:round; stroke-linejoin:round;">
</g>
<g style="fill:#4D7FC4; fill-opacity:1.0000; 
stroke:#4D7FC4; stroke-width:0.0000; stroke-opacity:1; 
stroke-linecap:round; stroke-linejoin:round;">
<path style="fill:#4D7FC4; fill-opacity:1.0000; 
stroke:#4D7FC4; stroke-width:0.0000; stroke-opacity:1; 
stroke-linecap:round; stroke-linejoin:round;fill-rule:evenodd;"
d="M 6.5360,38.2190
6.5360,36.9810
7.7740,36.9810
7.7740,38.2190
Z" /> 
<circle cx="5.6550" cy="37.6000" r="0.6190" /> 
</g>
<g style="fill:#4D7FC4; fill-opacity:1.0000; 
stroke:#4D7FC4; stroke-width:0.0212; stroke-opacity:1; 
stroke-linecap:round; stroke-linejoin:round;">
</g>
<g style="fill:#4D7FC4; fill-opacity:1.0000; 
stroke:#4D7FC4; stroke-width:0.0000; stroke-opacity:1; 
stroke-linecap:round; stroke-linejoin:round;">
<circle cx="4.1550" cy="37.6000" r="0.6190" /> 
</g>
<g style="fill:#4D7FC4; fill-opacity:1.0000; 
stroke:#4D7FC4; stroke-width:0.0212; stroke-opacity:1; 
stroke-linecap:round; stroke-linejoin:round;">
</g>
<g style="fill:#4D7FC4; fill-opacity:1.0000; 
stroke:#4D7FC4; stroke-width:0.0000; stroke-opacity:1; 
stroke-linecap:round; stroke-linejoin:round;">
<circle cx="2.6550" cy="37.6000" r="0.6190" /> 
</g>
<g style="fill:#4D7FC4; fill-opacity:1.0000; 
stroke:#4D7FC4; stroke-width:0.0212; stroke-opacity:1; 
stroke-linecap:round; stroke-linejoin:round;">
</g>
<g >
</g>
<g >
</g>
<g >
</g>
<g >
</g>
<g >
</g>
<g style="fill:#4D7FC4; fill-opacity:1.0000; 
stroke:#4D7FC4; stroke-width:0.0212; stroke-opacity:1; 
stroke-linecap:round; stroke-linejoin:round;">
</g>
<g style="fill:#4D7FC4; fill-opacity:1.0000; 
stroke:#4D7FC4; stroke-width:0.0000; stroke-opacity:1; 
stroke-linecap:round; stroke-linejoin:round;">
<path style="fill:#4D7FC4; fill-opacity:1.0000; 
stroke:#4D7FC4; stroke-width:0.0000; stroke-opacity:1; 
stroke-linecap:round; stroke-linejoin:round;fill-rule:evenodd;"
d="M 20.7705,22.7490
20.7705,21.2510
22.2685,21.2510
22.2685,22.7490
Z" /> 
<circle cx="28.0195" cy="22.0000" r="0.7490" /> 
</g>
<g style="fill:#4D7FC4; fill-opacity:1.0000; 
stroke:#4D7FC4; stroke-width:0.0212; stroke-opacity:1; 
stroke-linecap:round; stroke-linejoin:round;">
</g>
<g style="fill:#4D7FC4; fill-opacity:1.0000; 
stroke:#4D7FC4; stroke-width:0.0000; stroke-opacity:1; 
stroke-linecap:round; stroke-linejoin:round;">
<circle cx="21.5195" cy="26.5000" r="0.7490" /> 
</g>
<g style="fill:#4D7FC4; fill-opacity:1.0000; 
stroke:#4D7FC4; stroke-width:0.0212; stroke-opacity:1; 
stroke-linecap:round; stroke-linejoin:round;">
</g>
<g style="fill:#4D7FC4; fill-opacity:1.0000; 
stroke:#4D7FC4; stroke-width:0.0000; stroke-opacity:1; 
stroke-linecap:round; stroke-linejoin:round;">
<circle cx="28.0195" cy="26.5000" r="0.7490" /> 
</g>
<g style="fill:#4D7FC4; fill-opacity:1.0000; 
stroke:#4D7FC4; stroke-width:0.0212; stroke-opacity:1; 
stroke-linecap:round; stroke-linejoin:round;">
</g>
<g >
</g>
<g >
</g>
<g >
</g>
<g >
</g>
<g >
</g>
<g >
</g>
<g >
</g>
<g >
</g>
<g >
</g>
<g >
</g>
<g >
</g>
<g style="fill:#ECECEC; fill-opacity:1.0000; 
stroke:#ECECEC; stroke-width:0.0212; stroke-opacity:1; 
stroke-linecap:round; stroke-linejoin:round;">
</g>
<g style="fill:#ECECEC; fill-opacity:1.0000; 
stroke:#ECECEC; stroke-width:0.0000; stroke-opacity:1; 
stroke-linecap:round; stroke-linejoin:round;">
<circle cx="3.6050" cy="64.7500" r="0.3750" /> 
</g>
<g style="fill:#ECECEC; fill-opacity:1.0000; 
stroke:#ECECEC; stroke-width:0.0212; stroke-opacity:1; 
stroke-linecap:round; stroke-linejoin:round;">
</g>
<g style="fill:#ECECEC; fill-opacity:1.0000; 
stroke:#ECECEC; stroke-width:0.0000; stroke-opacity:1; 
stroke-linecap:round; stroke-linejoin:round;">
<circle cx="14.3403" cy="44.6270" r="0.3750" /> 
</g>
<g style="fill:#ECECEC; fill-opacity:1.0000; 
stroke:#ECECEC; stroke-width:0.0212; stroke-opacity:1; 
stroke-linecap:round; stroke-linejoin:round;">
</g>
<g style="fill:#ECECEC; fill-opacity:1.0000; 
stroke:#ECECEC; stroke-width:0.0000; stroke-opacity:1; 
stroke-linecap:round; stroke-linejoin:round;">
<circle cx="28.1050" cy="53.9500" r="0.3750" /> 
</g>
<g style="fill:#ECECEC; fill-opacity:1.0000; 
stroke:#ECECEC; stroke-width:0.0212; stroke-opacity:1; 
stroke-linecap:round; stroke-linejoin:round;">
</g>
<g style="fill:#ECECEC; fill-opacity:1.0000; 
stroke:#ECECEC; stroke-width:0.0000; stroke-opacity:1; 
stroke-linecap:round; stroke-linejoin:round;">
<circle cx="4.1050" cy="25.5500" r="0.3750" /> 
</g>
<g style="fill:#ECECEC; fill-opacity:1.0000; 
stroke:#ECECEC; stroke-width:0.0212; stroke-opacity:1; 
stroke-linecap:round; stroke-linejoin:round;">
</g>
<g style="fill:#ECECEC; fill-opacity:1.0000; 
stroke:#ECECEC; stroke-width:0.0000; stroke-opacity:1; 
stroke-linecap:round; stroke-linejoin:round;">
<circle cx="5.7050" cy="56.3500" r="0.3750" /> 
</g>
<g style="fill:#ECECEC; fill-opacity:1.0000; 
stroke:#ECECEC; stroke-width:0.0212; stroke-opacity:1; 
stroke-linecap:round; stroke-linejoin:round;">
</g>
<g style="fill:#ECECEC; fill-opacity:1.0000; 
stroke:#ECECEC; stroke-width:0.0000; stroke-opacity:1; 
stroke-linecap:round; stroke-linejoin:round;">
<circle cx="17.8050" cy="29.3500" r="0.3750" /> 
</g>
<g style="fill:#ECECEC; fill-opacity:1.0000; 
stroke:#ECECEC; stroke-width:0.0212; stroke-opacity:1; 
stroke-linecap:round; stroke-linejoin:round;">
</g>
<g style="fill:#ECECEC; fill-opacity:1.0000; 
stroke:#ECECEC; stroke-width:0.0000; stroke-opacity:1; 
stroke-linecap:round; stroke-linejoin:round;">
<circle cx="13.3050" cy="35.2500" r="0.3750" /> 
</g>
<g style="fill:#ECECEC; fill-opacity:1.0000; 
stroke:#ECECEC; stroke-width:0.0212; stroke-opacity:1; 
stroke-linecap:round; stroke-linejoin:round;">
</g>
<g style="fill:#ECECEC; fill-opacity:1.0000; 
stroke:#ECECEC; stroke-width:0.0000; stroke-opacity:1; 
stroke-linecap:round; stroke-linejoin:round;">
<circle cx="21.0050" cy="30.7500" r="0.3750" /> 
</g>
<g style="fill:#ECECEC; fill-opacity:1.0000; 
stroke:#ECECEC; stroke-width:0.0212; stroke-opacity:1; 
stroke-linecap:round; stroke-linejoin:round;">
</g>
<g style="fill:#ECECEC; fill-opacity:1.0000; 
stroke:#ECECEC; stroke-width:0.0000; stroke-opacity:1; 
stroke-linecap:round; stroke-linejoin:round;">
<circle cx="20.1050" cy="42.4500" r="0.3750" /> 
</g>
<g style="fill:#ECECEC; fill-opacity:1.0000; 
stroke:#ECECEC; stroke-width:0.0212; stroke-opacity:1; 
stroke-linecap:round; stroke-linejoin:round;">
</g>
<g style="fill:#ECECEC; fill-opacity:1.0000; 
stroke:#ECECEC; stroke-width:0.0000; stroke-opacity:1; 
stroke-linecap:round; stroke-linejoin:round;">
<circle cx="11.5050" cy="41.4500" r="0.3750" /> 
</g>
<g style="fill:#ECECEC; fill-opacity:1.0000; 
stroke:#ECECEC; stroke-width:0.0212; stroke-opacity:1; 
stroke-linecap:round; stroke-linejoin:round;">
</g>
<g style="fill:#ECECEC; fill-opacity:1.0000; 
stroke:#ECECEC; stroke-width:0.0000; stroke-opacity:1; 
stroke-linecap:round; stroke-linejoin:round;">
<circle cx="28.7050" cy="39.0500" r="0.3750" /> 
</g>
<g style="fill:#ECECEC; fill-opacity:1.0000; 
stroke:#ECECEC; stroke-width:0.0212; stroke-opacity:1; 
stroke-linecap:round; stroke-linejoin:round;">
</g>
<g style="fill:#ECECEC; fill-opacity:1.0000; 
stroke:#ECECEC; stroke-width:0.0000; stroke-opacity:1; 
stroke-linecap:round; stroke-linejoin:round;">
<circle cx="19.3050" cy="44.9500" r="0.3750" /> 
</g>
<g style="fill:#ECECEC; fill-opacity:1.0000; 
stroke:#ECECEC; stroke-width:0.0212; stroke-opacity:1; 
stroke-linecap:round; stroke-linejoin:round;">
</g>
<g style="fill:#ECECEC; fill-opacity:1.0000; 
stroke:#ECECEC; stroke-width:0.0000; stroke-opacity:1; 
stroke-linecap:round; stroke-linejoin:round;">
<circle cx="17.2050" cy="49.2500" r="0.3750" /> 
</g>
<g style="fill:#ECECEC; fill-opacity:1.0000; 
stroke:#ECECEC; stroke-width:0.0212; stroke-opacity:1; 
stroke-linecap:round; stroke-linejoin:round;">
</g>
<g style="fill:#ECECEC; fill-opacity:1.0000; 
stroke:#ECECEC; stroke-width:0.0000; stroke-opacity:1; 
stroke-linecap:round; stroke-linejoin:round;">
<circle cx="23.4050" cy="30.7500" r="0.3750" /> 
</g>
<g style="fill:#ECECEC; fill-opacity:1.0000; 
stroke:#ECECEC; stroke-width:0.0212; stroke-opacity:1; 
stroke-linecap:round; stroke-linejoin:round;">
</g>
<g style="fill:#ECECEC; fill-opacity:1.0000; 
stroke:#ECECEC; stroke-width:0.0000; stroke-opacity:1; 
stroke-linecap:round; stroke-linejoin:round;">
<circle cx="13.4050" cy="64.7500" r="0.3750" /> 
</g>
<g style="fill:#ECECEC; fill-opacity:1.0000; 
stroke:#ECECEC; stroke-width:0.0212; stroke-opacity:1; 
stroke-linecap:round; stroke-linejoin:round;">
</g>
<g style="fill:#ECECEC; fill-opacity:1.0000; 
stroke:#ECECEC; stroke-width:0.0000; stroke-opacity:1; 
stroke-linecap:round; stroke-linejoin:round;">
<circle cx="26.7050" cy="59.8500" r="0.3750" /> 
</g>
<g style="fill:#ECECEC; fill-opacity:1.0000; 
stroke:#ECECEC; stroke-width:0.0212; stroke-opacity:1; 
stroke-linecap:round; stroke-linejoin:round;">
</g>
<g style="fill:#ECECEC; fill-opacity:1.0000; 
stroke:#ECECEC; stroke-width:0.0000; stroke-opacity:1; 
stroke-linecap:round; stroke-linejoin:round;">
<circle cx="3.5050" cy="62.7500" r="0.3750" /> 
</g>
<g style="fill:#ECECEC; fill-opacity:1.0000; 
stroke:#ECECEC; stroke-width:0.0212; stroke-opacity:1; 
stroke-linecap:round; stroke-linejoin:round;">
</g>
<g style="fill:#ECECEC; fill-opacity:1.0000; 
stroke:#ECECEC; stroke-width:0.0000; stroke-opacity:1; 
stroke-linecap:round; stroke-linejoin:round;">
<circle cx="27.4050" cy="30.5500" r="0.3750" /> 
</g>
<g style="fill:#ECECEC; fill-opacity:1.0000; 
stroke:#ECECEC; stroke-width:0.0212; stroke-opacity:1; 
stroke-linecap:round; stroke-linejoin:round;">
</g>
<g style="fill:#ECECEC; fill-opacity:1.0000; 
stroke:#ECECEC; stroke-width:0.0000; stroke-opacity:1; 
stroke-linecap:round; stroke-linejoin:round;">
<circle cx="27.0300" cy="47.0500" r="0.3750" /> 
</g>
<g style="fill:#ECECEC; fill-opacity:1.0000; 
stroke:#ECECEC; stroke-width:0.0212; stroke-opacity:1; 
stroke-linecap:round; stroke-linejoin:round;">
</g>
<g style="fill:#ECECEC; fill-opacity:1.0000; 
stroke:#ECECEC; stroke-width:0.0000; stroke-opacity:1; 
stroke-linecap:round; stroke-linejoin:round;">
<circle cx="16.7050" cy="23.6500" r="0.3750" /> 
</g>
<g style="fill:#ECECEC; fill-opacity:1.0000; 
stroke:#ECECEC; stroke-width:0.0212; stroke-opacity:1; 
stroke-linecap:round; stroke-linejoin:round;">
</g>
<g style="fill:#ECECEC; fill-opacity:1.0000; 
stroke:#ECECEC; stroke-width:0.0000; stroke-opacity:1; 
stroke-linecap:round; stroke-linejoin:round;">
<circle cx="2.9050" cy="52.2500" r="0.3750" /> 
</g>
<g style="fill:#ECECEC; fill-opacity:1.0000; 
stroke:#ECECEC; stroke-width:0.0212; stroke-opacity:1; 
stroke-linecap:round; stroke-linejoin:round;">
</g>
<g style="fill:#ECECEC; fill-opacity:1.0000; 
stroke:#ECECEC; stroke-width:0.0000; stroke-opacity:1; 
stroke-linecap:round; stroke-linejoin:round;">
<circle cx="8.7050" cy="55.7500" r="0.3750" /> 
</g>
<g style="fill:#ECECEC; fill-opacity:1.0000; 
stroke:#ECECEC; stroke-width:0.0212; stroke-opacity:1; 
stroke-linecap:round; stroke-linejoin:round;">
</g>
<g style="fill:#ECECEC; fill-opacity:1.0000; 
stroke:#ECECEC; stroke-width:0.0000; stroke-opacity:1; 
stroke-linecap:round; stroke-linejoin:round;">
<circle cx="3.6050" cy="61.2500" r="0.3750" /> 
</g>
<g style="fill:#ECECEC; fill-opacity:1.0000; 
stroke:#ECECEC; stroke-width:0.0212; stroke-opacity:1; 
stroke-linecap:round; stroke-linejoin:round;">
</g>
<g style="fill:#ECECEC; fill-opacity:1.0000; 
stroke:#ECECEC; stroke-width:0.0000; stroke-opacity:1; 
stroke-linecap:round; stroke-linejoin:round;">
<circle cx="11.8050" cy="21.9500" r="0.3750" /> 
</g>
<g style="fill:#ECECEC; fill-opacity:1.0000; 
stroke:#ECECEC; stroke-width:0.0212; stroke-opacity:1; 
stroke-linecap:round; stroke-linejoin:round;">
</g>
<g style="fill:#ECECEC; fill-opacity:1.0000; 
stroke:#ECECEC; stroke-width:0.0000; stroke-opacity:1; 
stroke-linecap:round; stroke-linejoin:round;">
<circle cx="7.3050" cy="48.0500" r="0.3750" /> 
</g>
<g style="fill:#ECECEC; fill-opacity:1.0000; 
stroke:#ECECEC; stroke-width:0.0212; stroke-opacity:1; 
stroke-linecap:round; stroke-linejoin:round;">
</g>
<g style="fill:#ECECEC; fill-opacity:1.0000; 
stroke:#ECECEC; stroke-width:0.0000; stroke-opacity:1; 
stroke-linecap:round; stroke-linejoin:round;">
<circle cx="13.5050" cy="66.7500" r="0.3750" /> 
</g>
<g style="fill:#ECECEC; fill-opacity:1.0000; 
stroke:#ECECEC; stroke-width:0.0212; stroke-opacity:1; 
stroke-linecap:round; stroke-linejoin:round;">
</g>
<g style="fill:#ECECEC; fill-opacity:1.0000; 
stroke:#ECECEC; stroke-width:0.0000; stroke-opacity:1; 
stroke-linecap:round; stroke-linejoin:round;">
<circle cx="22.5050" cy="50.8500" r="0.3750" /> 
</g>
<g style="fill:#ECECEC; fill-opacity:1.0000; 
stroke:#ECECEC; stroke-width:0.0212; stroke-opacity:1; 
stroke-linecap:round; stroke-linejoin:round;">
</g>
<g style="fill:#ECECEC; fill-opacity:1.0000; 
stroke:#ECECEC; stroke-width:0.0000; stroke-opacity:1; 
stroke-linecap:round; stroke-linejoin:round;">
<circle cx="7.7050" cy="59.1500" r="0.3750" /> 
</g>
<g style="fill:#ECECEC; fill-opacity:1.0000; 
stroke:#ECECEC; stroke-width:0.0212; stroke-opacity:1; 
stroke-linecap:round; stroke-linejoin:round;">
</g>
<g style="fill:#ECECEC; fill-opacity:1.0000; 
stroke:#ECECEC; stroke-width:0.0000; stroke-opacity:1; 
stroke-linecap:round; stroke-linejoin:round;">
<circle cx="13.4948" cy="45.0602" r="0.3750" /> 
</g>
<g style="fill:#ECECEC; fill-opacity:1.0000; 
stroke:#ECECEC; stroke-width:0.0212; stroke-opacity:1; 
stroke-linecap:round; stroke-linejoin:round;">
</g>
<g style="fill:#ECECEC; fill-opacity:1.0000; 
stroke:#ECECEC; stroke-width:0.0000; stroke-opacity:1; 
stroke-linecap:round; stroke-linejoin:round;">
<circle cx="9.7050" cy="59.0500" r="0.3750" /> 
</g>
<g style="fill:#ECECEC; fill-opacity:1.0000; 
stroke:#ECECEC; stroke-width:0.0212; stroke-opacity:1; 
stroke-linecap:round; stroke-linejoin:round;">
</g>
<g style="fill:#ECECEC; fill-opacity:1.0000; 
stroke:#ECECEC; stroke-width:0.0000; stroke-opacity:1; 
stroke-linecap:round; stroke-linejoin:round;">
<circle cx="13.8300" cy="46.3500" r="0.3750" /> 
</g>
<g style="fill:#ECECEC; fill-opacity:1.0000; 
stroke:#ECECEC; stroke-width:0.0212; stroke-opacity:1; 
stroke-linecap:round; stroke-linejoin:round;">
</g>
<g style="fill:#ECECEC; fill-opacity:1.0000; 
stroke:#ECECEC; stroke-width:0.0000; stroke-opacity:1; 
stroke-linecap:round; stroke-linejoin:round;">
<circle cx="16.4050" cy="30.9500" r="0.3750" /> 
</g>
<g style="fill:#ECECEC; fill-opacity:1.0000; 
stroke:#ECECEC; stroke-width:0.0212; stroke-opacity:1; 
stroke-linecap:round; stroke-linejoin:round;">
</g>
<g style="fill:#ECECEC; fill-opacity:1.0000; 
stroke:#ECECEC; stroke-width:0.0000; stroke-opacity:1; 
stroke-linecap:round; stroke-linejoin:round;">
<circle cx="17.3463" cy="35.4087" r="0.3750" /> 
</g>
<g style="fill:#ECECEC; fill-opacity:1.0000; 
stroke:#ECECEC; stroke-width:0.0212; stroke-opacity:1; 
stroke-linecap:round; stroke-linejoin:round;">
</g>
<g style="fill:#ECECEC; fill-opacity:1.0000; 
stroke:#ECECEC; stroke-width:0.0000; stroke-opacity:1; 
stroke-linecap:round; stroke-linejoin:round;">
<circle cx="1.2300" cy="44.0500" r="0.3750" /> 
</g>
<g style="fill:#ECECEC; fill-opacity:1.0000; 
stroke:#ECECEC; stroke-width:0.0212; stroke-opacity:1; 
stroke-linecap:round; stroke-linejoin:round;">
</g>
<g style="fill:#ECECEC; fill-opacity:1.0000; 
stroke:#ECECEC; stroke-width:0.0000; stroke-opacity:1; 
stroke-linecap:round; stroke-linejoin:round;">
<circle cx="15.2911" cy="44.6233" r="0.3750" /> 
</g>
<g style="fill:#ECECEC; fill-opacity:1.0000; 
stroke:#ECECEC; stroke-width:0.0212; stroke-opacity:1; 
stroke-linecap:round; stroke-linejoin:round;">
</g>
<g style="fill:#ECECEC; fill-opacity:1.0000; 
stroke:#ECECEC; stroke-width:0.0000; stroke-opacity:1; 
stroke-linecap:round; stroke-linejoin:round;">
<circle cx="15.0050" cy="59.7500" r="0.3750" /> 
</g>
<g style="fill:#ECECEC; fill-opacity:1.0000; 
stroke:#ECECEC; stroke-width:0.0212; stroke-opacity:1; 
stroke-linecap:round; stroke-linejoin:round;">
</g>
<g style="fill:#ECECEC; fill-opacity:1.0000; 
stroke:#ECECEC; stroke-width:0.0000; stroke-opacity:1; 
stroke-linecap:round; stroke-linejoin:round;">
<circle cx="16.0050" cy="45.2500" r="0.3750" /> 
</g>
<g style="fill:#ECECEC; fill-opacity:1.0000; 
stroke:#ECECEC; stroke-width:0.0212; stroke-opacity:1; 
stroke-linecap:round; stroke-linejoin:round;">
</g>
<g style="fill:#ECECEC; fill-opacity:1.0000; 
stroke:#ECECEC; stroke-width:0.0000; stroke-opacity:1; 
stroke-linecap:round; stroke-linejoin:round;">
<circle cx="16.0050" cy="62.6500" r="0.3750" /> 
</g>
<g style="fill:#ECECEC; fill-opacity:1.0000; 
stroke:#ECECEC; stroke-width:0.0212; stroke-opacity:1; 
stroke-linecap:round; stroke-linejoin:round;">
</g>
<g style="fill:#ECECEC; fill-opacity:1.0000; 
stroke:#ECECEC; stroke-width:0.0000; stroke-opacity:1; 
stroke-linecap:round; stroke-linejoin:round;">
<circle cx="15.3400" cy="34.1264" r="0.3750" /> 
</g>
<g style="fill:#ECECEC; fill-opacity:1.0000; 
stroke:#ECECEC; stroke-width:0.0212; stroke-opacity:1; 
stroke-linecap:round; stroke-linejoin:round;">
</g>
<g style="fill:#ECECEC; fill-opacity:1.0000; 
stroke:#ECECEC; stroke-width:0.0000; stroke-opacity:1; 
stroke-linecap:round; stroke-linejoin:round;">
<circle cx="15.0550" cy="25.1500" r="0.3750" /> 
</g>
<g style="fill:#ECECEC; fill-opacity:1.0000; 
stroke:#ECECEC; stroke-width:0.0212; stroke-opacity:1; 
stroke-linecap:round; stroke-linejoin:round;">
</g>
<g style="fill:#ECECEC; fill-opacity:1.0000; 
stroke:#ECECEC; stroke-width:0.0000; stroke-opacity:1; 
stroke-linecap:round; stroke-linejoin:round;">
<circle cx="14.4789" cy="33.7250" r="0.3750" /> 
</g>
<g style="fill:#ECECEC; fill-opacity:1.0000; 
stroke:#ECECEC; stroke-width:0.0212; stroke-opacity:1; 
stroke-linecap:round; stroke-linejoin:round;">
</g>
<g style="fill:#ECECEC; fill-opacity:1.0000; 
stroke:#ECECEC; stroke-width:0.0000; stroke-opacity:1; 
stroke-linecap:round; stroke-linejoin:round;">
<circle cx="14.1050" cy="25.1500" r="0.3750" /> 
</g>
<g style="fill:#ECECEC; fill-opacity:1.0000; 
stroke:#ECECEC; stroke-width:0.0212; stroke-opacity:1; 
stroke-linecap:round; stroke-linejoin:round;">
</g>
<g style="fill:#ECECEC; fill-opacity:1.0000; 
stroke:#ECECEC; stroke-width:0.0000; stroke-opacity:1; 
stroke-linecap:round; stroke-linejoin:round;">
<circle cx="13.6050" cy="33.3250" r="0.3750" /> 
</g>
<g style="fill:#ECECEC; fill-opacity:1.0000; 
stroke:#ECECEC; stroke-width:0.0212; stroke-opacity:1; 
stroke-linecap:round; stroke-linejoin:round;">
</g>
<g style="fill:#ECECEC; fill-opacity:1.0000; 
stroke:#ECECEC; stroke-width:0.0000; stroke-opacity:1; 
stroke-linecap:round; stroke-linejoin:round;">
<circle cx="13.1550" cy="25.1500" r="0.3750" /> 
</g>
<g style="fill:#ECECEC; fill-opacity:1.0000; 
stroke:#ECECEC; stroke-width:0.0212; stroke-opacity:1; 
stroke-linecap:round; stroke-linejoin:round;">
</g>
<g style="fill:#ECECEC; fill-opacity:1.0000; 
stroke:#ECECEC; stroke-width:0.0000; stroke-opacity:1; 
stroke-linecap:round; stroke-linejoin:round;">
<circle cx="4.2050" cy="31.7560" r="0.3750" /> 
</g>
<g style="fill:#ECECEC; fill-opacity:1.0000; 
stroke:#ECECEC; stroke-width:0.0212; stroke-opacity:1; 
stroke-linecap:round; stroke-linejoin:round;">
</g>
<g style="fill:#ECECEC; fill-opacity:1.0000; 
stroke:#ECECEC; stroke-width:0.0000; stroke-opacity:1; 
stroke-linecap:round; stroke-linejoin:round;">
<circle cx="14.8800" cy="28.1500" r="0.3750" /> 
</g>
<g style="fill:#ECECEC; fill-opacity:1.0000; 
stroke:#ECECEC; stroke-width:0.0212; stroke-opacity:1; 
stroke-linecap:round; stroke-linejoin:round;">
</g>
<g style="fill:#ECECEC; fill-opacity:1.0000; 
stroke:#ECECEC; stroke-width:0.0000; stroke-opacity:1; 
stroke-linecap:round; stroke-linejoin:round;">
<circle cx="21.5800" cy="34.9500" r="0.3750" /> 
</g>
<g style="fill:#ECECEC; fill-opacity:1.0000; 
stroke:#ECECEC; stroke-width:0.0212; stroke-opacity:1; 
stroke-linecap:round; stroke-linejoin:round;">
</g>
<g style="fill:#ECECEC; fill-opacity:1.0000; 
stroke:#ECECEC; stroke-width:0.0000; stroke-opacity:1; 
stroke-linecap:round; stroke-linejoin:round;">
<circle cx="22.8620" cy="34.7070" r="0.3750" /> 
</g>
<g style="fill:#ECECEC; fill-opacity:1.0000; 
stroke:#ECECEC; stroke-width:0.0212; stroke-opacity:1; 
stroke-linecap:round; stroke-linejoin:round;">
</g>
<g style="fill:#ECECEC; fill-opacity:1.0000; 
stroke:#ECECEC; stroke-width:0.0000; stroke-opacity:1; 
stroke-linecap:round; stroke-linejoin:round;">
<circle cx="14.8800" cy="27.2000" r="0.3750" /> 
</g>
<g style="fill:#ECECEC; fill-opacity:1.0000; 
stroke:#ECECEC; stroke-width:0.0212; stroke-opacity:1; 
stroke-linecap:round; stroke-linejoin:round;">
</g>
<g style="fill:#ECECEC; fill-opacity:1.0000; 
stroke:#ECECEC; stroke-width:0.0000; stroke-opacity:1; 
stroke-linecap:round; stroke-linejoin:round;">
<circle cx="11.6752" cy="39.6418" r="0.3750" /> 
</g>
<g style="fill:#ECECEC; fill-opacity:1.0000; 
stroke:#ECECEC; stroke-width:0.0212; stroke-opacity:1; 
stroke-linecap:round; stroke-linejoin:round;">
</g>
<g style="fill:#ECECEC; fill-opacity:1.0000; 
stroke:#ECECEC; stroke-width:0.0000; stroke-opacity:1; 
stroke-linecap:round; stroke-linejoin:round;">
<circle cx="12.4630" cy="39.1109" r="0.3750" /> 
</g>
<g style="fill:#ECECEC; fill-opacity:1.0000; 
stroke:#ECECEC; stroke-width:0.0212; stroke-opacity:1; 
stroke-linecap:round; stroke-linejoin:round;">
</g>
<g style="fill:#ECECEC; fill-opacity:1.0000; 
stroke:#ECECEC; stroke-width:0.0000; stroke-opacity:1; 
stroke-linecap:round; stroke-linejoin:round;">
<circle cx="13.3050" cy="38.5500" r="0.3750" /> 
</g>
<g style="fill:#ECECEC; fill-opacity:1.0000; 
stroke:#ECECEC; stroke-width:0.0212; stroke-opacity:1; 
stroke-linecap:round; stroke-linejoin:round;">
</g>
<g style="fill:#ECECEC; fill-opacity:1.0000; 
stroke:#ECECEC; stroke-width:0.0000; stroke-opacity:1; 
stroke-linecap:round; stroke-linejoin:round;">
<circle cx="14.1106" cy="39.1465" r="0.3750" /> 
</g>
<g style="fill:#ECECEC; fill-opacity:1.0000; 
stroke:#ECECEC; stroke-width:0.0212; stroke-opacity:1; 
stroke-linecap:round; stroke-linejoin:round;">
</g>
<g style="fill:#ECECEC; fill-opacity:1.0000; 
stroke:#ECECEC; stroke-width:0.0000; stroke-opacity:1; 
stroke-linecap:round; stroke-linejoin:round;">
<circle cx="13.3050" cy="39.6500" r="0.3750" /> 
</g>
<g style="fill:#ECECEC; fill-opacity:1.0000; 
stroke:#ECECEC; stroke-width:0.0212; stroke-opacity:1; 
stroke-linecap:round; stroke-linejoin:round;">
</g>
<g style="fill:#ECECEC; fill-opacity:1.0000; 
stroke:#ECECEC; stroke-width:0.0000; stroke-opacity:1; 
stroke-linecap:round; stroke-linejoin:round;">
<circle cx="12.5050" cy="40.3500" r="0.3750" /> 
</g>
<g style="fill:#ECECEC; fill-opacity:1.0000; 
stroke:#ECECEC; stroke-width:0.0212; stroke-opacity:1; 
stroke-linecap:round; stroke-linejoin:round;">
</g>
<g >
</g>
<g style="fill:#4D7FC4; fill-opacity:1.0000; 
stroke:#4D7FC4; stroke-width:0.0212; stroke-opacity:1; 
stroke-linecap:round; stroke-linejoin:round;">
</g>
<g style="fill:#4D7FC4; fill-opacity:1.0000; 
stroke:#4D7FC4; stroke-width:0.2000; stroke-opacity:1; 
stroke-linecap:round; stroke-linejoin:round;">
</g>
<g style="fill:#4D7FC4; fill-opacity:0.0; 
stroke:#4D7FC4; stroke-width:0.2000; stroke-opacity:1; 
stroke-linecap:round; stroke-linejoin:round;">
<path d="M14.9050 58.6500
L8.8050 64.7500
" />
<path d="M14.3403 44.6270
L14.9050 45.1917
" />
<path d="M14.9050 45.1917
L14.9050 58.6500
" />
<path d="M8.8050 64.7500
L3.6050 64.7500
" />
<path d="M13.4948 45.0602
L14.5050 46.0704
" />
<path d="M14.5050 46.0704
L14.5050 54.6843
" />
<path d="M14.5050 54.6843
L14.5050 58.4843
" />
<path d="M7.7050 59.2500
L7.7050 59.1500
" />
<path d="M14.5050 58.4843
L10.7222 62.2672
" />
<path d="M10.7222 62.2672
L7.7050 59.2500
" />
<path d="M14.1050 58.3186
L11.0893 61.3343
" />
<path d="M11.0893 61.3343
L9.7050 59.9500
" />
<path d="M14.1050 54.5186
L14.1050 58.3186
" />
<path d="M9.7050 59.9500
L9.7050 59.0500
" />
<path d="M13.8300 46.3500
L14.1050 46.6250
" />
<path d="M14.1050 46.6250
L14.1050 54.5186
" />
</g>
<g style="fill:#4D7FC4; fill-opacity:0.0; 
stroke:#4D7FC4; stroke-width:0.4000; stroke-opacity:1; 
stroke-linecap:round; stroke-linejoin:round;">
<path d="M2.4740 40.7810
L2.2329 40.7810
" />
<path d="M2.2329 40.7810
L1.2300 41.7839
" />
<path d="M5.6550 37.6000
L2.4740 40.7810
" />
<path d="M1.2300 41.7839
L1.2300 44.0500
" />
<path d="M17.3463 31.8913
L17.3463 35.4087
" />
<path d="M16.4050 30.9500
L17.3463 31.8913
" />
</g>
<g style="fill:#4D7FC4; fill-opacity:0.0; 
stroke:#4D7FC4; stroke-width:0.2000; stroke-opacity:1; 
stroke-linecap:round; stroke-linejoin:round;">
<path d="M15.3050 59.4500
L15.0050 59.7500
" />
<path d="M15.3050 44.6372
L15.3050 56.3750
" />
<path d="M15.3050 56.3750
L15.3050 59.4500
" />
<path d="M15.2911 44.6233
L15.3050 44.6372
" />
<path d="M16.0050 45.2500
L15.7050 45.5500
" />
<path d="M15.7050 45.5500
L15.7050 59.0500
" />
<path d="M16.0050 59.3500
L16.0050 62.6500
" />
<path d="M15.7050 59.0500
L16.0050 59.3500
" />
<path d="M14.2050 26.0046
L15.0550 25.1546
" />
<path d="M15.3400 33.5397
L14.2050 32.4047
" />
<path d="M15.3400 34.1264
L15.3400 33.5397
" />
<path d="M15.0550 25.1546
L15.0550 25.1500
" />
<path d="M14.2050 32.4047
L14.2050 26.0046
" />
<path d="M13.8050 25.8389
L14.1050 25.5389
" />
<path d="M14.4789 33.2443
L13.8050 32.5704
" />
<path d="M14.4789 33.7250
L14.4789 33.2443
" />
<path d="M14.1050 25.5389
L14.1050 25.1500
" />
<path d="M13.8050 32.5704
L13.8050 25.8389
" />
<path d="M13.4050 25.4000
L13.4050 33.1250
" />
<path d="M13.4050 33.1250
L13.6050 33.3250
" />
<path d="M13.1550 25.1500
L13.4050 25.4000
" />
<path d="M4.2050 31.7560
L4.2050 33.3000
" />
<path d="M4.2050 33.3000
L4.1550 33.3500
" />
<path d="M14.8800 28.2500
L21.5800 34.9500
" />
<path d="M14.8800 28.1500
L14.8800 28.2500
" />
<path d="M21.4707 34.2750
L15.5550 28.3593
" />
<path d="M22.2550 34.6704
L21.8596 34.2750
" />
<path d="M21.8596 34.2750
L21.4707 34.2750
" />
<path d="M14.8846 27.2000
L14.8800 27.2000
" />
<path d="M15.5550 27.8704
L14.8846 27.2000
" />
<path d="M22.2550 34.7070
L22.2550 34.6704
" />
<path d="M15.5550 28.3593
L15.5550 27.8704
" />
<path d="M22.8620 34.7070
L22.2550 34.7070
" />
<path d="M8.4050 32.7620
L7.6050 31.9620
" />
<path d="M26.5705 9.1510
L28.0195 10.6000
" />
<path d="M7.6050 20.9980
L5.8050 19.1980
" />
<path d="M8.4050 35.8500
L8.4050 32.7620
" />
<path d="M7.6050 31.9620
L7.6050 20.9980
" />
<path d="M11.6752 39.1202
L8.4050 35.8500
" />
<path d="M5.8050 12.0008
L8.6548 9.1510
" />
<path d="M11.6752 39.6418
L11.6752 39.1202
" />
<path d="M8.6548 9.1510
L26.5705 9.1510
" />
<path d="M5.8050 19.1980
L5.8050 12.0008
" />
<path d="M12.1846 38.6750
L11.7957 38.6750
" />
<path d="M8.0050 20.8323
L6.2050 19.0323
" />
<path d="M6.2050 19.0323
L6.2050 12.1665
" />
<path d="M8.8050 35.6843
L8.8050 32.5963
" />
<path d="M11.7957 38.6750
L8.8050 35.6843
" />
<path d="M12.4630 39.1109
L12.4630 38.9534
" />
<path d="M6.2050 12.1665
L8.8205 9.5510
" />
<path d="M8.0050 31.7963
L8.0050 20.8323
" />
<path d="M12.4630 38.9534
L12.1846 38.6750
" />
<path d="M17.5882 9.5510
L18.6372 10.6000
" />
<path d="M8.8050 32.5963
L8.0050 31.7963
" />
<path d="M8.8205 9.5510
L17.5882 9.5510
" />
<path d="M9.2050 32.4306
L8.4050 31.6306
" />
<path d="M8.4050 31.6306
L8.4050 20.6666
" />
<path d="M9.2050 35.5186
L9.2050 32.4306
" />
<path d="M12.7989 38.0439
L11.7302 38.0439
" />
<path d="M6.6050 18.8666
L6.6050 13.2500
" />
<path d="M6.6050 13.2500
L9.2550 10.6000
" />
<path d="M13.3050 38.5500
L12.7989 38.0439
" />
<path d="M8.4050 20.6666
L6.6050 18.8666
" />
<path d="M11.7302 38.0439
L9.2050 35.5186
" />
<path d="M8.7058 17.0500
L26.5195 17.0500
" />
<path d="M8.8050 20.5009
L7.8060 19.5019
" />
<path d="M14.1106 39.1465
L14.1541 39.1030
" />
<path d="M7.8060 17.9498
L8.7058 17.0500
" />
<path d="M9.6050 35.3529
L9.6050 32.2649
" />
<path d="M14.1541 39.1030
L14.1541 38.0445
" />
<path d="M9.6050 32.2649
L8.8050 31.4649
" />
<path d="M7.8060 19.5019
L7.8060 17.9498
" />
<path d="M13.7535 37.6439
L11.8959 37.6439
" />
<path d="M26.5195 17.0500
L28.0195 18.5500
" />
<path d="M11.8959 37.6439
L9.6050 35.3529
" />
<path d="M8.8050 31.4649
L8.8050 20.5009
" />
<path d="M14.1541 38.0445
L13.7535 37.6439
" />
<path d="M10.0050 35.1873
L10.0050 32.0993
" />
<path d="M13.9192 37.2439
L12.0616 37.2439
" />
<path d="M13.3050 39.6500
L13.5050 39.8500
" />
<path d="M9.2050 20.3353
L8.2060 19.3363
" />
<path d="M13.5050 39.8500
L14.5393 39.8500
" />
<path d="M14.5393 39.8500
L14.9630 39.4263
" />
<path d="M10.0050 32.0993
L9.2050 31.2993
" />
<path d="M8.2060 18.1155
L8.8715 17.4500
" />
<path d="M14.9630 39.4263
L14.9630 38.2877
" />
<path d="M14.9630 38.2877
L13.9192 37.2439
" />
<path d="M9.2050 31.2993
L9.2050 20.3353
" />
<path d="M12.0616 37.2439
L10.0050 35.1873
" />
<path d="M17.5373 17.4500
L18.6372 18.5500
" />
<path d="M8.2060 19.3363
L8.2060 18.1155
" />
<path d="M8.8715 17.4500
L17.5373 17.4500
" />
<path d="M10.4050 31.9336
L9.6050 31.1336
" />
<path d="M15.3630 39.5920
L15.3630 38.1220
" />
<path d="M9.6050 31.1336
L9.6050 20.1696
" />
<path d="M10.4050 35.0216
L10.4050 31.9336
" />
<path d="M9.6050 20.1696
L8.9050 19.4696
" />
<path d="M8.9050 19.4696
L8.9050 18.9000
" />
<path d="M12.2273 36.8439
L10.4050 35.0216
" />
<path d="M14.0849 36.8439
L12.2273 36.8439
" />
<path d="M15.3630 38.1220
L14.0849 36.8439
" />
<path d="M12.5050 40.3500
L14.6050 40.3500
" />
<path d="M8.9050 18.9000
L9.2550 18.5500
" />
<path d="M14.6050 40.3500
L15.3630 39.5920
" />
</g>
<g >
</g>
<g style="fill:#4D7FC4; fill-opacity:0.0; 
stroke:#4D7FC4; stroke-width:0.2000; stroke-opacity:1; 
stroke-linecap:round; stroke-linejoin:round;">
<g >
</g>
<g style="fill:#4D7FC4; fill-opacity:1.0000; 
stroke:#4D7FC4; stroke-width:0.0000; stroke-opacity:1; 
stroke-linecap:round; stroke-linejoin:round;">
<path style="fill:#4D7FC4; fill-opacity:1.0000; 
stroke:#4D7FC4; stroke-width:0.0000; stroke-opacity:1; 
stroke-linecap:round; stroke-linejoin:round;fill-rule:evenodd;"
d="M 45.4146,3.0519
45.4622,3.0614
45.4979,3.0762
45.5300,3.0976
45.5574,3.1249
45.5734,3.1490
45.5788,3.1571
45.5936,3.1928
45.6031,3.2404
45.6050,3.2598
45.6050,9.8402
45.6031,9.8596
45.5936,9.9072
45.5788,9.9429
45.5574,9.9750
45.5300,10.0024
45.4979,10.0238
45.4622,10.0386
45.4146,10.0481
45.3952,10.0500
31.6050,10.0500
31.6050,10.2500
31.6050,67.8402
31.6031,67.8596
31.5936,67.9072
31.5788,67.9429
31.5574,67.9750
31.5300,68.0024
31.4979,68.0238
31.4622,68.0386
31.4146,68.0481
31.3952,68.0500
28.9417,68.0500
28.8835,68.0311
28.8475,67.9816
28.8446,67.9703
28.8410,67.9523
28.8410,67.9523
28.8347,67.9429
28.7856,67.8694
28.7856,67.8694
28.7027,67.8140
28.7027,67.8140
28.7027,67.8140
28.6297,67.7995
28.6297,67.7995
28.6050,67.7946
28.5899,67.7976
28.5706,67.7995
17.2040,67.7995
17.1458,67.7806
17.1098,67.7311
17.1050,67.7005
17.1050,63.1500
17.1050,63.1500
17.1050,63.1500
16.5475,63.1500
16.4893,63.1311
16.4533,63.0816
16.4533,63.0204
16.4689,62.9907
16.5077,62.9402
16.5657,62.8002
16.5855,62.6500
16.5657,62.4998
16.5077,62.3598
16.4155,62.2395
16.4154,62.2395
16.4154,62.2395
16.3442,62.1849
16.3096,62.1345
16.3055,62.1064
16.3055,59.4152
16.3077,59.4015
16.3065,59.4013
16.3078,59.3922
16.3056,59.3454
16.3055,59.3408
16.3055,59.3222
16.3055,59.3222
16.3055,59.3220
16.3039,59.3084
16.3026,59.2800
16.2986,59.2710
16.2919,59.2492
16.2901,59.2396
16.2901,59.2396
16.2751,59.2154
16.2687,59.2033
16.2572,59.1772
16.2572,59.1772
16.2503,59.1703
16.2361,59.1524
16.2309,59.1440
16.2082,59.1269
16.1979,59.1179
16.0345,58.9545
16.0067,58.9000
16.0055,58.8845
16.0055,45.9172
16.0244,45.8590
16.0739,45.8231
16.0916,45.8191
16.1552,45.8107
16.2952,45.7527
16.4155,45.6605
16.5077,45.5402
16.5657,45.4002
16.5855,45.2500
16.5657,45.0998
16.5077,44.9598
16.4155,44.8395
16.2952,44.7473
16.1552,44.6893
16.1552,44.6893
16.1552,44.6893
16.0050,44.6695
16.0050,44.6695
15.9779,44.6731
15.9178,44.6619
15.8757,44.6176
15.8669,44.5879
15.8648,44.5718
15.8517,44.4730
15.7938,44.3330
15.7015,44.2128
15.5813,44.1206
15.4413,44.0626
15.4413,44.0626
15.4413,44.0626
15.2911,44.0428
15.2911,44.0428
15.1408,44.0626
15.1408,44.0626
15.0008,44.1206
15.0008,44.1206
14.8806,44.2128
14.8806,44.2128
14.8755,44.2168
14.8739,44.2148
14.8290,44.2377
14.7685,44.2281
14.7532,44.2184
14.7507,44.2165
14.7507,44.2165
14.6305,44.1243
14.4905,44.0663
14.4905,44.0663
14.4905,44.0663
14.3403,44.0465
14.3403,44.0465
14.1900,44.0663
14.1900,44.0663
14.0500,44.1243
13.9298,44.2165
13.9298,44.2165
13.8376,44.3367
13.7897,44.4523
13.7500,44.4988
13.6905,44.5131
13.6603,44.5059
13.6450,44.4995
13.6450,44.4995
13.4948,44.4797
13.4948,44.4797
13.3446,44.4995
13.3446,44.4995
13.2046,44.5575
13.0843,44.6497
13.0843,44.6498
12.9921,44.7700
12.9341,44.9100
12.9341,44.9100
12.9143,45.0602
12.9143,45.0602
12.9324,45.1976
12.9341,45.2104
12.9921,45.3504
13.0843,45.4707
13.2046,45.5629
13.3446,45.6209
13.4948,45.6407
13.5465,45.6339
13.6066,45.6450
13.6487,45.6894
13.6567,45.7501
13.6275,45.8038
13.5973,45.8235
13.5398,45.8473
13.4196,45.9395
13.4195,45.9396
13.3273,46.0598
13.2693,46.1998
13.2693,46.1998
13.2495,46.3500
13.2495,46.3500
13.2693,46.5002
13.3273,46.6402
13.4195,46.7605
13.5398,46.8527
13.6798,46.9107
13.7184,46.9158
13.7736,46.9421
13.8028,46.9959
13.8045,47.0139
13.8045,58.1531
13.7856,58.2113
13.7755,58.2232
11.1593,60.8393
11.1048,60.8671
11.0444,60.8575
11.0193,60.8393
10.0345,59.8545
10.0067,59.8000
10.0055,59.7845
10.0055,59.5936
10.0244,59.5354
10.0442,59.5151
10.1155,59.4605
10.2077,59.3402
10.2657,59.2002
10.2855,59.0500
10.2657,58.8998
10.2077,58.7598
10.1155,58.6395
9.9952,58.5473
9.8552,58.4893
9.8552,58.4893
9.8552,58.4893
9.7050,58.4695
9.7050,58.4695
9.5548,58.4893
9.5548,58.4893
9.4148,58.5473
9.2946,58.6395
9.2945,58.6396
9.2023,58.7598
9.1443,58.8998
9.1443,58.8998
9.1245,59.0500
9.1245,59.0500
9.1443,59.2002
9.1443,59.2002
9.1948,59.3221
9.2023,59.3402
9.2945,59.4605
9.3541,59.5062
9.3658,59.5151
9.4004,59.5655
9.4045,59.5936
9.4045,59.8848
9.4023,59.8985
9.4035,59.8987
9.4022,59.9078
9.4044,59.9546
9.4045,59.9592
9.4045,59.9778
9.4045,59.9780
9.4061,59.9916
9.4074,60.0200
9.4074,60.0200
9.4114,60.0290
9.4181,60.0508
9.4199,60.0604
9.4214,60.0628
9.4349,60.0846
9.4413,60.0967
9.4528,60.1228
9.4597,60.1297
9.4739,60.1476
9.4791,60.1560
9.5018,60.1731
9.5121,60.1821
10.8374,61.5074
10.8539,61.5292
10.8541,61.5296
10.8692,61.5422
10.9019,61.5939
10.8980,61.6549
10.8760,61.6883
10.7922,61.7722
10.7376,61.8000
10.6772,61.7904
10.6522,61.7722
8.2874,59.4075
8.2596,59.3529
8.2651,59.3068
8.2640,59.3065
8.2657,59.3002
8.2855,59.1500
8.2855,59.1500
8.2805,59.1124
8.2657,58.9998
8.2077,58.8598
8.1155,58.7395
7.9952,58.6473
7.8552,58.5893
7.8552,58.5893
7.8552,58.5893
7.7050,58.5695
7.7050,58.5695
7.5548,58.5893
7.5548,58.5893
7.4148,58.6473
7.2946,58.7395
7.2945,58.7396
7.2023,58.8598
7.1443,58.9998
7.1443,58.9998
7.1245,59.1500
7.1245,59.1500
7.1416,59.2800
7.1443,59.3002
7.2023,59.4402
7.2945,59.5605
7.4148,59.6527
7.5548,59.7107
7.7050,59.7305
7.7056,59.7304
7.7061,59.7305
7.7115,59.7305
7.7115,59.7315
7.7658,59.7415
7.7886,59.7585
10.4703,62.4402
10.4867,62.4621
10.4870,62.4625
10.4870,62.4625
10.4870,62.4625
10.5021,62.4750
10.5348,62.5267
10.5308,62.5878
10.5088,62.6212
8.7095,64.4205
8.6550,64.4483
8.6395,64.4495
4.1486,64.4495
4.0904,64.4306
4.0701,64.4108
4.0155,64.3395
3.8952,64.2473
3.7552,64.1893
3.7552,64.1893
3.7552,64.1893
3.6050,64.1695
3.6050,64.1695
3.4548,64.1893
3.4548,64.1893
3.3148,64.2473
3.1946,64.3395
3.1945,64.3396
3.1023,64.4598
3.0443,64.5998
3.0443,64.5998
3.0245,64.7500
3.0245,64.7500
3.0443,64.9002
3.1023,65.0402
3.1945,65.1605
3.3148,65.2527
3.4548,65.3107
3.5674,65.3255
3.6050,65.3305
3.6050,65.3305
3.6050,65.3305
3.6350,65.3265
3.7552,65.3107
3.8952,65.2527
4.0155,65.1605
4.0701,65.0892
4.1205,65.0546
4.1486,65.0505
8.7398,65.0505
8.7535,65.0527
8.7537,65.0515
8.7628,65.0528
8.7628,65.0528
8.7628,65.0528
8.7628,65.0528
8.8096,65.0506
8.8142,65.0505
8.8328,65.0505
8.8328,65.0505
8.8329,65.0505
8.8466,65.0489
8.8750,65.0476
8.8840,65.0436
8.9058,65.0369
8.9154,65.0351
8.9396,65.0201
8.9517,65.0137
8.9778,65.0022
8.9847,64.9953
9.0026,64.9811
9.0110,64.9759
9.0281,64.9532
9.0371,64.9429
14.2599,59.7200
14.3145,59.6922
14.3749,59.7018
14.4182,59.7451
14.4281,59.7771
14.4443,59.9002
14.4443,59.9002
14.4443,59.9002
14.5023,60.0402
14.5945,60.1605
14.7148,60.2527
14.8548,60.3107
14.9674,60.3255
15.0050,60.3305
15.0050,60.3305
15.0050,60.3305
15.0350,60.3265
15.1552,60.3107
15.2952,60.2527
15.4155,60.1605
15.5077,60.0402
15.5098,60.0352
15.5140,60.0249
15.5538,59.9784
15.6133,59.9641
15.6698,59.9875
15.7018,60.0397
15.7045,60.0628
15.7045,62.1064
15.6856,62.1645
15.6658,62.1849
15.5946,62.2395
15.5945,62.2396
15.5023,62.3598
15.4443,62.4998
15.4443,62.4998
15.4392,62.5388
15.4245,62.6500
15.4443,62.8002
15.5023,62.9402
15.5851,63.0482
15.6055,63.1058
15.6046,63.1090
15.6050,63.1090
15.6050,67.7005
15.5861,67.7587
15.5366,67.7947
15.5060,67.7995
0.9545,67.7995
0.8963,67.7806
0.8603,67.7311
0.8555,67.7005
0.8555,44.6660
0.8744,44.6078
0.9239,44.5718
0.9851,44.5718
0.9924,44.5745
1.0798,44.6107
1.1753,44.6233
1.2300,44.6305
1.2300,44.6305
1.2300,44.6305
1.2847,44.6233
1.3802,44.6107
1.5202,44.5527
1.6405,44.4605
1.7327,44.3402
1.7907,44.2002
1.8105,44.0500
1.7907,43.8998
1.7327,43.7598
1.6510,43.6532
1.6305,43.5956
1.6305,43.5930
1.6305,41.9908
1.6494,41.9326
1.6595,41.9208
1.6799,41.9004
1.7344,41.8726
1.7948,41.8822
1.8381,41.9255
1.8483,41.9593
1.8510,41.9835
1.8510,41.9835
1.9120,42.1578
2.0102,42.3142
2.0102,42.3142
2.1408,42.4448
2.1408,42.4448
2.1408,42.4448
2.2972,42.5430
2.4715,42.6040
2.4715,42.6040
2.4715,42.6040
2.4715,42.6040
2.4715,42.6040
2.6550,42.6247
2.6550,42.6247
2.6550,42.6247
2.8385,42.6040
2.8385,42.6040
2.8385,42.6040
3.0128,42.5430
3.1692,42.4448
3.2998,42.3142
3.3212,42.2801
3.3681,42.2409
3.4292,42.2368
3.4810,42.2693
3.4888,42.2801
3.5102,42.3142
3.5102,42.3142
3.5102,42.3142
3.6408,42.4448
3.6408,42.4448
3.6408,42.4448
3.7972,42.5430
3.9715,42.6040
3.9715,42.6040
3.9715,42.6040
3.9715,42.6040
3.9715,42.6040
4.1550,42.6247
4.1550,42.6247
4.1550,42.6247
4.3385,42.6040
4.3385,42.6040
4.3385,42.6040
4.5128,42.5430
4.6692,42.4448
4.7998,42.3142
4.8212,42.2801
4.8681,42.2409
4.9292,42.2368
4.9810,42.2693
4.9888,42.2801
5.0102,42.3142
5.0102,42.3142
5.0102,42.3142
5.1408,42.4448
5.1408,42.4448
5.1408,42.4448
5.2972,42.5430
5.4715,42.6040
5.4715,42.6040
5.4715,42.6040
5.4715,42.6040
5.4715,42.6040
5.6550,42.6247
5.6550,42.6247
5.6550,42.6247
5.8385,42.6040
5.8385,42.6040
5.8385,42.6040
6.0128,42.5430
6.1692,42.4448
6.2998,42.3142
6.3980,42.1578
6.4590,41.9835
6.4617,41.9593
6.4797,41.8000
6.4797,41.8000
6.4590,41.6165
6.4590,41.6165
6.3980,41.4422
6.2998,41.2858
6.2998,41.2858
6.2998,41.2858
6.1692,41.1552
6.1692,41.1552
6.1692,41.1552
6.1692,41.1552
6.0128,41.0570
5.8385,40.9960
5.8385,40.9960
5.6550,40.9753
5.6550,40.9753
5.4715,40.9960
5.4715,40.9960
5.2972,41.0570
5.1408,41.1552
5.0102,41.2858
4.9888,41.3199
4.9419,41.3591
4.8808,41.3632
4.8290,41.3307
4.8212,41.3199
4.7998,41.2858
4.7998,41.2858
4.7998,41.2858
4.6692,41.1552
4.6692,41.1552
4.6692,41.1552
4.6692,41.1552
4.5128,41.0570
4.3385,40.9960
4.3385,40.9960
4.1550,40.9753
4.1550,40.9753
3.9715,40.9960
3.9715,40.9960
3.7972,41.0570
3.6408,41.1552
3.5102,41.2858
3.4888,41.3199
3.4419,41.3591
3.3808,41.3632
3.3290,41.3307
3.3212,41.3199
3.2998,41.2858
3.2998,41.2858
3.2998,41.2858
3.1692,41.1552
3.1692,41.1552
3.1692,41.1552
3.1692,41.1552
3.0128,41.0570
2.9775,41.0446
2.9288,41.0076
2.9112,40.9490
2.9314,40.8912
2.9402,40.8812
5.3892,38.4322
5.4437,38.4045
5.4702,38.4039
5.6550,38.4247
5.6550,38.4247
5.6550,38.4247
5.8385,38.4040
5.8385,38.4040
5.8385,38.4040
6.0128,38.3430
6.1692,38.2448
6.2998,38.1142
6.3980,37.9578
6.4590,37.7835
6.4797,37.6000
6.4797,37.6000
6.4590,37.4165
6.4590,37.4165
6.3980,37.2422
6.2998,37.0858
6.2998,37.0858
6.2998,37.0858
6.1692,36.9552
6.1692,36.9552
6.1692,36.9552
6.1692,36.9552
6.0128,36.8570
5.8385,36.7960
5.8385,36.7960
5.6550,36.7753
5.6550,36.7753
5.4715,36.7960
5.4715,36.7960
5.2972,36.8570
5.1408,36.9552
5.0102,37.0858
4.9888,37.1199
4.9419,37.1591
4.8808,37.1632
4.8290,37.1307
4.8212,37.1199
4.7998,37.0858
4.7998,37.0858
4.7998,37.0858
4.6692,36.9552
4.6692,36.9552
4.6692,36.9552
4.6692,36.9552
4.5128,36.8570
4.3385,36.7960
4.3385,36.7960
4.1550,36.7753
4.1550,36.7753
3.9715,36.7960
3.9715,36.7960
3.7972,36.8570
3.6408,36.9552
3.5102,37.0858
3.4888,37.1199
3.4419,37.1591
3.3808,37.1632
3.3290,37.1307
3.3212,37.1199
3.2998,37.0858
3.2998,37.0858
3.2998,37.0858
3.1692,36.9552
3.1692,36.9552
3.1692,36.9552
3.1692,36.9552
3.0128,36.8570
2.8385,36.7960
2.8385,36.7960
2.6550,36.7753
2.6550,36.7753
2.4715,36.7960
2.4715,36.7960
2.2972,36.8570
2.1408,36.9552
2.0102,37.0858
1.9120,37.2422
1.8510,37.4165
1.8510,37.4165
1.8303,37.6000
1.8303,37.6000
1.8510,37.7835
1.8510,37.7835
1.9120,37.9578
2.0102,38.1142
2.0102,38.1142
2.1408,38.2448
2.1408,38.2448
2.1408,38.2448
2.2972,38.3430
2.4715,38.4040
2.4715,38.4040
2.4715,38.4040
2.4715,38.4040
2.4715,38.4040
2.6550,38.4247
2.6550,38.4247
2.6550,38.4247
2.8385,38.4040
2.8385,38.4040
2.8385,38.4040
3.0128,38.3430
3.1692,38.2448
3.2998,38.1142
3.3212,38.0801
3.3681,38.0409
3.4292,38.0368
3.4810,38.0693
3.4888,38.0801
3.5102,38.1142
3.5102,38.1142
3.5102,38.1142
3.6408,38.2448
3.6408,38.2448
3.6408,38.2448
3.7972,38.3430
3.9715,38.4040
3.9715,38.4040
3.9715,38.4040
4.0486,38.4127
4.1043,38.4380
4.1345,38.4912
4.1277,38.5520
4.1075,38.5811
2.3371,40.3515
2.2826,40.3793
2.2671,40.3805
2.1973,40.3805
2.1973,40.3805
2.1695,40.3805
2.1465,40.3880
2.1314,40.3916
2.1076,40.3954
2.0861,40.4063
2.0718,40.4122
2.0488,40.4197
2.0293,40.4339
2.0161,40.4420
1.9946,40.4530
1.9946,40.4530
1.9720,40.4755
1.9720,40.4755
1.0245,41.4230
0.9700,41.4508
0.9096,41.4412
0.8663,41.3980
0.8555,41.3530
0.8555,33.3500
1.8303,33.3500
1.8510,33.5335
1.8510,33.5335
1.9120,33.7078
2.0102,33.8642
2.0102,33.8642
2.1408,33.9948
2.1408,33.9948
2.1408,33.9948
2.2972,34.0930
2.4715,34.1540
2.4715,34.1540
2.4715,34.1540
2.4715,34.1540
2.4715,34.1540
2.6550,34.1747
2.6550,34.1747
2.6550,34.1747
2.8385,34.1540
2.8385,34.1540
2.8385,34.1540
2.8605,34.1463
2.8771,34.1405
3.0128,34.0930
3.1692,33.9948
3.2998,33.8642
3.3212,33.8301
3.3681,33.7909
3.4292,33.7868
3.4810,33.8193
3.4888,33.8301
3.5102,33.8642
3.5102,33.8642
3.5102,33.8642
3.6408,33.9948
3.6408,33.9948
3.6408,33.9948
3.7972,34.0930
3.9715,34.1540
3.9715,34.1540
3.9715,34.1540
3.9715,34.1540
3.9715,34.1540
4.1550,34.1747
4.1550,34.1747
4.1550,34.1747
4.3385,34.1540
4.3385,34.1540
4.3385,34.1540
4.3605,34.1463
4.3771,34.1405
4.5128,34.0930
4.6692,33.9948
4.7998,33.8642
4.8212,33.8301
4.8681,33.7909
4.9292,33.7868
4.9810,33.8193
4.9888,33.8301
5.0102,33.8642
5.0102,33.8642
5.0102,33.8642
5.1408,33.9948
5.1408,33.9948
5.1408,33.9948
5.2972,34.0930
5.4715,34.1540
5.4715,34.1540
5.4715,34.1540
5.4715,34.1540
5.4715,34.1540
5.6550,34.1747
5.6550,34.1747
5.6550,34.1747
5.8385,34.1540
5.8385,34.1540
5.8385,34.1540
5.8605,34.1463
5.8771,34.1405
6.0128,34.0930
6.1692,33.9948
6.2998,33.8642
6.3980,33.7078
6.4590,33.5335
6.4656,33.4752
6.4797,33.3500
6.4797,33.3500
6.4590,33.1665
6.4590,33.1665
6.3980,32.9922
6.2998,32.8358
6.2998,32.8358
6.2998,32.8358
6.1692,32.7052
6.1692,32.7052
6.1692,32.7052
6.1692,32.7052
6.0128,32.6070
5.8385,32.5460
5.8385,32.5460
5.6550,32.5253
5.6550,32.5253
5.4715,32.5460
5.4715,32.5460
5.2972,32.6070
5.1408,32.7052
5.0102,32.8358
4.9888,32.8699
4.9419,32.9091
4.8808,32.9132
4.8290,32.8807
4.8212,32.8699
4.7998,32.8358
4.7998,32.8358
4.7998,32.8358
4.6692,32.7052
4.6692,32.7052
4.6692,32.7052
4.5518,32.6315
4.5126,32.5845
4.5055,32.5477
4.5055,32.2996
4.5244,32.2414
4.5442,32.2211
4.6155,32.1665
4.7077,32.0462
4.7657,31.9062
4.7855,31.7560
4.7828,31.7360
4.7783,31.7015
4.7657,31.6058
4.7077,31.4658
4.6155,31.3455
4.4952,31.2533
4.3552,31.1953
4.3552,31.1953
4.3552,31.1953
4.2050,31.1755
4.2050,31.1755
4.0548,31.1953
4.0548,31.1953
3.9148,31.2533
3.7946,31.3455
3.7945,31.3456
3.7023,31.4658
3.6443,31.6058
3.6443,31.6058
3.6245,31.7560
3.6245,31.7560
3.6442,31.9057
3.6443,31.9062
3.6693,31.9666
3.6948,32.0282
3.7023,32.0462
3.7945,32.1665
3.8306,32.1941
3.8658,32.2211
3.9004,32.2715
3.9045,32.2996
3.9045,32.4992
3.8856,32.5574
3.8382,32.5926
3.7972,32.6070
3.7972,32.6070
3.6408,32.7052
3.5102,32.8358
3.4888,32.8699
3.4419,32.9091
3.3808,32.9132
3.3290,32.8807
3.3212,32.8699
3.2998,32.8358
3.2998,32.8358
3.2998,32.8358
3.1692,32.7052
3.1692,32.7052
3.1692,32.7052
3.1692,32.7052
3.0128,32.6070
2.8385,32.5460
2.8385,32.5460
2.6550,32.5253
2.6550,32.5253
2.4715,32.5460
2.4715,32.5460
2.2972,32.6070
2.1408,32.7052
2.0102,32.8358
1.9120,32.9922
1.8510,33.1665
1.8510,33.1665
1.8303,33.3500
1.8303,33.3500
0.8555,33.3500
0.8555,18.5500
1.8009,18.5500
1.8192,18.7361
1.8192,18.7361
1.8735,18.9151
1.9617,19.0801
2.0803,19.2246
2.0804,19.2247
2.1825,19.3084
2.2249,19.3433
2.3899,19.4315
2.4837,19.4599
2.5689,19.4858
2.5689,19.4858
2.7550,19.5041
2.7550,19.5041
2.7550,19.5041
2.9411,19.4858
2.9411,19.4858
3.1201,19.4315
3.2851,19.3433
3.4296,19.2246
3.5483,19.0801
3.6365,18.9151
3.6908,18.7361
3.6908,18.7361
3.7091,18.5500
3.7091,18.5500
3.6908,18.3639
3.6908,18.3639
3.6743,18.3096
3.6365,18.1849
3.5483,18.0199
3.4296,17.8754
3.4296,17.8753
3.2851,17.7567
3.1201,17.6685
2.9411,17.6142
2.9411,17.6142
2.7550,17.5959
2.7550,17.5959
2.5689,17.6142
2.5689,17.6142
2.3899,17.6685
2.2249,17.7567
2.0804,17.8753
2.0803,17.8754
1.9617,18.0199
1.8735,18.1849
1.8192,18.3639
1.8192,18.3639
1.8009,18.5500
1.8009,18.5500
0.8555,18.5500
0.8555,11.9867
5.4996,11.9867
5.5036,12.0149
5.5045,12.0285
5.5045,19.1328
5.5023,19.1465
5.5035,19.1467
5.5022,19.1558
5.5044,19.2026
5.5045,19.2072
5.5045,19.2258
5.5045,19.2260
5.5061,19.2396
5.5074,19.2680
5.5074,19.2680
5.5114,19.2770
5.5181,19.2988
5.5199,19.3084
5.5199,19.3084
5.5349,19.3326
5.5413,19.3447
5.5528,19.3708
5.5528,19.3708
5.5528,19.3708
5.5597,19.3777
5.5739,19.3956
5.5791,19.4040
5.6018,19.4211
5.6121,19.4301
7.2755,21.0935
7.3033,21.1480
7.3045,21.1635
7.3045,31.8968
7.3023,31.9105
7.3035,31.9107
7.3022,31.9198
7.3044,31.9666
7.3045,31.9712
7.3045,31.9898
7.3045,31.9900
7.3061,32.0036
7.3074,32.0320
7.3074,32.0320
7.3114,32.0410
7.3181,32.0628
7.3199,32.0724
7.3263,32.0827
7.3349,32.0966
7.3413,32.1087
7.3528,32.1348
7.3597,32.1417
7.3739,32.1596
7.3791,32.1680
7.4018,32.1851
7.4121,32.1941
8.0755,32.8575
8.1033,32.9120
8.1045,32.9275
8.1045,35.7848
8.1023,35.7985
8.1035,35.7987
8.1022,35.8078
8.1044,35.8546
8.1045,35.8592
8.1045,35.8778
8.1045,35.8780
8.1061,35.8916
8.1074,35.9200
8.1074,35.9200
8.1114,35.9290
8.1181,35.9508
8.1199,35.9604
8.1255,35.9694
8.1349,35.9846
8.1413,35.9967
8.1528,36.0228
8.1597,36.0297
8.1739,36.0476
8.1791,36.0560
8.2018,36.0731
8.2121,36.0821
11.2453,39.1153
11.2731,39.1698
11.2635,39.2302
11.2539,39.2456
11.1725,39.3516
11.1725,39.3516
11.1145,39.4916
11.1145,39.4916
11.0947,39.6418
11.0947,39.6418
11.1135,39.7848
11.1145,39.7921
11.1725,39.9321
11.2647,40.0523
11.3850,40.1445
11.5250,40.2025
11.6752,40.2223
11.8181,40.2035
11.8783,40.2146
11.9204,40.2590
11.9292,40.3145
11.9245,40.3500
11.9245,40.3500
11.9411,40.4755
11.9443,40.5002
12.0023,40.6402
12.0945,40.7605
12.2148,40.8527
12.3548,40.9107
12.4674,40.9255
12.5050,40.9305
12.5050,40.9305
12.5050,40.9305
12.5350,40.9265
12.6552,40.9107
12.7952,40.8527
12.9155,40.7605
12.9701,40.6892
13.0205,40.6546
13.0486,40.6505
14.5398,40.6505
14.5535,40.6527
14.5537,40.6515
14.5628,40.6528
14.5628,40.6528
14.5628,40.6528
14.5628,40.6528
14.6096,40.6506
14.6142,40.6505
14.6328,40.6505
14.6328,40.6505
14.6329,40.6505
14.6466,40.6489
14.6750,40.6476
14.6840,40.6436
14.7058,40.6369
14.7154,40.6351
14.7396,40.6201
14.7517,40.6137
14.7778,40.6022
14.7847,40.5953
14.8026,40.5811
14.8110,40.5759
14.8281,40.5532
14.8371,40.5429
15.5294,39.8506
15.5407,39.8425
15.5399,39.8415
15.5472,39.8360
15.5472,39.8359
15.5789,39.8012
15.5820,39.7980
15.5952,39.7848
15.5952,39.7847
15.6038,39.7739
15.6229,39.7529
15.6265,39.7438
15.6371,39.7236
15.6427,39.7155
15.6492,39.6878
15.6532,39.6747
15.6635,39.6482
15.6635,39.6383
15.6661,39.6157
15.6684,39.6061
15.6645,39.5779
15.6635,39.5643
15.6635,38.1871
15.6657,38.1735
15.6645,38.1733
15.6658,38.1642
15.6636,38.1173
15.6635,38.1128
15.6635,38.0941
15.6635,38.0941
15.6635,38.0940
15.6619,38.0804
15.6606,38.0520
15.6566,38.0430
15.6499,38.0212
15.6481,38.0115
15.6481,38.0115
15.6331,37.9874
15.6267,37.9752
15.6152,37.9492
15.6152,37.9492
15.6083,37.9423
15.5941,37.9244
15.5889,37.9160
15.5662,37.8989
15.5559,37.8899
14.3435,36.6774
14.3354,36.6662
14.3344,36.6669
14.3288,36.6596
14.2942,36.6280
14.2909,36.6248
14.2777,36.6117
14.2777,36.6117
14.2776,36.6116
14.2669,36.6031
14.2458,36.5839
14.2458,36.5839
14.2458,36.5839
14.2367,36.5804
14.2165,36.5697
14.2084,36.5642
14.1807,36.5577
14.1676,36.5536
14.1411,36.5434
14.1312,36.5434
14.1086,36.5407
14.0990,36.5385
14.0990,36.5385
14.0708,36.5424
14.0572,36.5434
12.3928,36.5434
12.3346,36.5244
12.3228,36.5144
10.7345,34.9261
10.7067,34.8716
10.7055,34.8561
10.7055,31.9987
10.7077,31.9851
10.7065,31.9849
10.7078,31.9758
10.7056,31.9289
10.7055,31.9244
10.7055,31.9057
10.7055,31.9057
10.7055,31.9056
10.7039,31.8920
10.7026,31.8636
10.6986,31.8546
10.6919,31.8328
10.6901,31.8231
10.6751,31.7990
10.6687,31.7868
10.6572,31.7608
10.6503,31.7539
10.6361,31.7360
10.6309,31.7276
10.6309,31.7276
10.6082,31.7105
10.5979,31.7015
9.9345,31.0381
9.9067,30.9836
9.9055,30.9681
9.9055,25.1500
12.5745,25.1500
12.5943,25.3002
12.6523,25.4402
12.7445,25.5605
12.8648,25.6527
13.0048,25.7107
13.0184,25.7125
13.0736,25.7388
13.1028,25.7926
13.1045,25.8106
13.1045,33.0098
13.0970,33.0477
13.0443,33.1748
13.0443,33.1748
13.0245,33.3250
13.0245,33.3250
13.0443,33.4752
13.0443,33.4752
13.1013,33.6128
13.1023,33.6152
13.1945,33.7355
13.3148,33.8277
13.4548,33.8857
13.5674,33.9005
13.6050,33.9055
13.6050,33.9055
13.6050,33.9055
13.6350,33.9015
13.7552,33.8857
13.8066,33.8644
13.8676,33.8596
13.9197,33.8916
13.9359,33.9180
13.9762,34.0152
14.0685,34.1355
14.1887,34.2277
14.3287,34.2857
14.4319,34.2993
14.4789,34.3055
14.4789,34.3055
14.4789,34.3055
14.5090,34.3015
14.6291,34.2857
14.6690,34.2692
14.7300,34.2644
14.7822,34.2963
14.7984,34.3227
14.8373,34.4166
14.8373,34.4166
14.8373,34.4166
14.9295,34.5368
15.0497,34.6291
15.1897,34.6871
15.3024,34.7019
15.3400,34.7069
15.3400,34.7069
15.3400,34.7069
15.3700,34.7029
15.4902,34.6871
15.6302,34.6291
15.7504,34.5368
15.8427,34.4166
15.9006,34.2766
15.9204,34.1264
15.9006,33.9761
15.8427,33.8362
15.7504,33.7159
15.7504,33.7159
15.7504,33.7159
15.6817,33.6632
15.6470,33.6128
15.6431,33.5892
15.6406,33.5350
15.6405,33.5305
15.6405,33.5118
15.6405,33.5118
15.6404,33.5117
15.6389,33.4981
15.6375,33.4697
15.6336,33.4607
15.6268,33.4389
15.6250,33.4292
15.6100,33.4051
15.6036,33.3929
15.5922,33.3669
15.5852,33.3600
15.5710,33.3421
15.5659,33.3337
15.5659,33.3337
15.5432,33.3166
15.5328,33.3076
14.5345,32.3092
14.5067,32.2547
14.5055,32.2392
14.5055,28.7660
14.5244,28.7078
14.5739,28.6718
14.6351,28.6718
14.6424,28.6745
14.7298,28.7107
14.8800,28.7305
14.8806,28.7304
14.8811,28.7305
14.8865,28.7305
14.8865,28.7315
14.9408,28.7415
14.9636,28.7585
16.4129,30.2079
16.4407,30.2624
16.4311,30.3228
16.3878,30.3661
16.3558,30.3760
16.2548,30.3893
16.2548,30.3893
16.1148,30.4473
15.9946,30.5395
15.9945,30.5396
15.9023,30.6598
15.8443,30.7998
15.8443,30.7998
15.8245,30.9500
15.8245,30.9500
15.8323,31.0091
15.8443,31.1002
15.9023,31.2402
15.9945,31.3605
16.1148,31.4527
16.2548,31.5107
16.3879,31.5282
16.4431,31.5546
16.4450,31.5564
16.9168,32.0282
16.9446,32.0827
16.9458,32.0982
16.9458,34.9516
16.9269,35.0098
16.9254,35.0119
16.8436,35.1184
16.7856,35.2584
16.7856,35.2584
16.7659,35.4087
16.7659,35.4087
16.7819,35.5305
16.7856,35.5589
16.8436,35.6989
16.9359,35.8191
17.0561,35.9114
17.1961,35.9694
17.3088,35.9842
17.3463,35.9891
17.3463,35.9891
17.3463,35.9891
17.3807,35.9846
17.4966,35.9694
17.6366,35.9114
17.7568,35.8191
17.8490,35.6989
17.9070,35.5589
17.9268,35.4087
17.9070,35.2584
17.8490,35.1184
17.7673,35.0119
17.7469,34.9542
17.7468,34.9516
17.7468,31.8279
17.7468,31.8279
17.7394,31.8049
17.7357,31.7898
17.7346,31.7829
17.7442,31.7225
17.7875,31.6792
17.8479,31.6696
17.9024,31.6974
20.9831,34.7781
21.0109,34.8326
21.0113,34.8610
20.9995,34.9500
20.9995,34.9500
21.0193,35.1002
21.0193,35.1002
21.0647,35.2097
21.0773,35.2402
21.1695,35.3605
21.2898,35.4527
21.4298,35.5107
21.5424,35.5255
21.5800,35.5305
21.5800,35.5305
21.5800,35.5305
21.6100,35.5265
21.7302,35.5107
21.8702,35.4527
21.9905,35.3605
22.0827,35.2402
22.1407,35.1002
22.1411,35.0968
22.1422,35.0945
22.1424,35.0940
22.1425,35.0940
22.1675,35.0415
22.2212,35.0123
22.2301,35.0111
22.2643,35.0079
22.2735,35.0075
22.3184,35.0075
22.3766,35.0264
22.3969,35.0462
22.4516,35.1175
22.5718,35.2097
22.7118,35.2677
22.8245,35.2825
22.8620,35.2875
22.8620,35.2875
22.8620,35.2875
22.8921,35.2835
23.0123,35.2677
23.1522,35.2097
23.2725,35.1175
23.3647,34.9972
23.4227,34.8573
23.4425,34.7070
23.4425,34.7069
23.4227,34.5568
23.4227,34.5568
23.3647,34.4168
23.2725,34.2966
23.1522,34.2043
23.0123,34.1463
23.0122,34.1463
23.0122,34.1463
22.8620,34.1266
22.8620,34.1266
22.7118,34.1463
22.7118,34.1463
22.5718,34.2043
22.5718,34.2043
22.4519,34.2963
22.4516,34.2966
22.4488,34.2993
22.3943,34.3271
22.3339,34.3175
22.3088,34.2993
22.1182,34.1086
22.1101,34.0973
22.1091,34.0981
22.1036,34.0908
22.0689,34.0592
22.0656,34.0560
22.0524,34.0428
22.0524,34.0428
22.0523,34.0428
22.0416,34.0343
22.0205,34.0151
22.0114,34.0115
21.9912,34.0009
21.9831,33.9953
21.9831,33.9953
21.9554,33.9888
21.9423,33.9848
21.9158,33.9745
21.9158,33.9745
21.9059,33.9745
21.8833,33.9719
21.8737,33.9696
21.8737,33.9696
21.8455,33.9736
21.8319,33.9745
21.6362,33.9745
21.5780,33.9556
21.5662,33.9455
15.8845,28.2638
15.8567,28.2093
15.8555,28.1938
15.8555,27.9356
15.8577,27.9219
15.8565,27.9217
15.8578,27.9126
15.8556,27.8658
15.8555,27.8612
15.8555,27.8426
15.8555,27.8426
15.8555,27.8424
15.8539,27.8288
15.8526,27.8004
15.8486,27.7914
15.8419,27.7696
15.8401,27.7600
15.8401,27.7600
15.8251,27.7358
15.8187,27.7237
15.8072,27.6976
15.8072,27.6976
15.8003,27.6907
15.7861,27.6728
15.7809,27.6645
15.7582,27.6473
15.7479,27.6383
15.4774,27.3679
15.4497,27.3133
15.4493,27.2849
15.4605,27.2000
15.4407,27.0498
15.3827,26.9098
15.2905,26.7895
15.1702,26.6973
15.0302,26.6393
15.0302,26.6393
15.0302,26.6393
14.8800,26.6195
14.8800,26.6195
14.7298,26.6393
14.7298,26.6393
14.6424,26.6755
14.5814,26.6803
14.5292,26.6483
14.5058,26.5918
14.5055,26.5840
14.5055,26.5000
20.5654,26.5000
20.5837,26.6861
20.5837,26.6861
20.6380,26.8651
20.7262,27.0301
20.8448,27.1746
20.8449,27.1746
20.8757,27.2000
20.9894,27.2933
21.1544,27.3815
21.2791,27.4193
21.3334,27.4358
21.3334,27.4358
21.5195,27.4541
21.5195,27.4541
21.5195,27.4541
21.7056,27.4358
21.7056,27.4358
21.8846,27.3815
22.0496,27.2933
22.1941,27.1746
22.3128,27.0301
22.4010,26.8651
22.4553,26.6861
22.4553,26.6861
22.4736,26.5000
27.0654,26.5000
27.0837,26.6861
27.0837,26.6861
27.1380,26.8651
27.2262,27.0301
27.3448,27.1746
27.3449,27.1746
27.3757,27.2000
27.4894,27.2933
27.6544,27.3815
27.7791,27.4193
27.8334,27.4358
27.8334,27.4358
28.0195,27.4541
28.0195,27.4541
28.0195,27.4541
28.2056,27.4358
28.2056,27.4358
28.3846,27.3815
28.5496,27.2933
28.6941,27.1746
28.8128,27.0301
28.9010,26.8651
28.9553,26.6861
28.9553,26.6861
28.9736,26.5000
28.9736,26.5000
28.9553,26.3139
28.9553,26.3139
28.9116,26.1701
28.9010,26.1349
28.8128,25.9699
28.6941,25.8254
28.6941,25.8253
28.5496,25.7067
28.3846,25.6185
28.2056,25.5642
28.2056,25.5642
28.0195,25.5459
28.0195,25.5459
27.8334,25.5642
27.8334,25.5642
27.6544,25.6185
27.4894,25.7067
27.3449,25.8253
27.3448,25.8254
27.2262,25.9699
27.1380,26.1349
27.0837,26.3139
27.0837,26.3139
27.0654,26.5000
27.0654,26.5000
22.4736,26.5000
22.4736,26.5000
22.4553,26.3139
22.4553,26.3139
22.4116,26.1701
22.4010,26.1349
22.3128,25.9699
22.1942,25.8254
22.1941,25.8253
22.0496,25.7067
21.8846,25.6185
21.7056,25.5642
21.7056,25.5642
21.5195,25.5459
21.5195,25.5459
21.3334,25.5642
21.3334,25.5642
21.1544,25.6185
20.9894,25.7067
20.8449,25.8253
20.8448,25.8254
20.7262,25.9699
20.6380,26.1349
20.5837,26.3139
20.5837,26.3139
20.5654,26.5000
20.5654,26.5000
14.5055,26.5000
14.5055,26.1701
14.5244,26.1119
14.5345,26.1001
14.8871,25.7474
14.9416,25.7197
14.9701,25.7193
15.0550,25.7305
15.2052,25.7107
15.3452,25.6527
15.4655,25.5605
15.5577,25.4402
15.6157,25.3002
15.6355,25.1500
15.6157,24.9998
15.5577,24.8598
15.4655,24.7395
15.3452,24.6473
15.2052,24.5893
15.2052,24.5893
15.2052,24.5893
15.0550,24.5695
15.0550,24.5695
14.9048,24.5893
14.9048,24.5893
14.7648,24.6473
14.7648,24.6473
14.6403,24.7428
14.5826,24.7633
14.5239,24.7459
14.5197,24.7428
14.5154,24.7395
14.3952,24.6473
14.2552,24.5893
14.2552,24.5893
14.2552,24.5893
14.1050,24.5695
14.1050,24.5695
13.9548,24.5893
13.9548,24.5893
13.8148,24.6473
13.8148,24.6473
13.6903,24.7428
13.6326,24.7633
13.5739,24.7459
13.5697,24.7428
13.5654,24.7395
13.4452,24.6473
13.3052,24.5893
13.3052,24.5893
13.3052,24.5893
13.1550,24.5695
13.1550,24.5695
13.0048,24.5893
13.0048,24.5893
12.8648,24.6473
12.7445,24.7395
12.7445,24.7396
12.6523,24.8598
12.5943,24.9998
12.5943,24.9998
12.5745,25.1500
12.5745,25.1500
9.9055,25.1500
9.9055,22.0000
27.0654,22.0000
27.0837,22.1861
27.0837,22.1861
27.1380,22.3651
27.2262,22.5301
27.3448,22.6746
27.3449,22.6746
27.4894,22.7933
27.6544,22.8815
27.7791,22.9193
27.8334,22.9358
27.8334,22.9358
28.0195,22.9541
28.0195,22.9541
28.0195,22.9541
28.2056,22.9358
28.2056,22.9358
28.3846,22.8815
28.5496,22.7933
28.6941,22.6746
28.8128,22.5301
28.9010,22.3651
28.9553,22.1861
28.9553,22.1861
28.9736,22.0000
28.9736,22.0000
28.9553,21.8139
28.9553,21.8139
28.9388,21.7596
28.9010,21.6349
28.8128,21.4699
28.6941,21.3254
28.6941,21.3253
28.5496,21.2067
28.3846,21.1185
28.2056,21.0642
28.2056,21.0642
28.0195,21.0459
28.0195,21.0459
27.8334,21.0642
27.8334,21.0642
27.6544,21.1185
27.4894,21.2067
27.3449,21.3253
27.3448,21.3254
27.2262,21.4699
27.1380,21.6349
27.0837,21.8139
27.0837,21.8139
27.0654,22.0000
27.0654,22.0000
9.9055,22.0000
9.9055,20.2347
9.9077,20.2211
9.9065,20.2209
9.9078,20.2118
9.9056,20.1649
9.9055,20.1604
9.9055,20.1417
9.9055,20.1417
9.9055,20.1416
9.9039,20.1280
9.9026,20.0996
9.8986,20.0906
9.8919,20.0688
9.8901,20.0591
9.8901,20.0591
9.8751,20.0350
9.8687,20.0228
9.8572,19.9968
9.8572,19.9968
9.8572,19.9968
9.8503,19.9899
9.8361,19.9720
9.8309,19.9636
9.8309,19.9636
9.8309,19.9636
9.8082,19.9465
9.7979,19.9375
9.4851,19.6247
9.4573,19.5701
9.4669,19.5097
9.5101,19.4664
9.5263,19.4599
9.6201,19.4315
9.7851,19.3433
9.9296,19.2246
10.0483,19.0801
10.1365,18.9151
10.1908,18.7361
10.1908,18.7361
10.2091,18.5500
10.2091,18.5500
10.1908,18.3639
10.1908,18.3639
10.1743,18.3096
10.1365,18.1849
10.0483,18.0199
9.9792,17.9357
9.9600,17.9123
9.9377,17.8553
9.9531,17.7961
10.0004,17.7573
10.0365,17.7505
11.3558,17.7505
11.4139,17.7694
11.4499,17.8189
11.4499,17.8801
11.4323,17.9123
11.3439,18.0199
11.2558,18.1849
11.2015,18.3639
11.2015,18.3639
11.1832,18.5500
11.1832,18.5500
11.2015,18.7361
11.2015,18.7361
11.2558,18.9151
11.3439,19.0801
11.4626,19.2246
11.4626,19.2247
11.5647,19.3084
11.6072,19.3433
11.7721,19.4315
11.8659,19.4599
11.9511,19.4858
11.9511,19.4858
12.1372,19.5041
12.1372,19.5041
12.1373,19.5041
12.3234,19.4858
12.3234,19.4858
12.5024,19.4315
12.6673,19.3433
12.8119,19.2246
12.9306,19.0801
13.0187,18.9151
13.0730,18.7361
13.0730,18.7361
13.0913,18.5500
13.0913,18.5500
13.0730,18.3639
13.0730,18.3639
13.0565,18.3096
13.0187,18.1849
12.9306,18.0199
12.8614,17.9357
12.8422,17.9123
12.8199,17.8553
12.8354,17.7961
12.8827,17.7573
12.9187,17.7505
17.3718,17.7505
17.4300,17.7694
17.4418,17.7795
17.7358,18.0735
17.7635,18.1280
17.7572,18.1814
17.7558,18.1849
17.7015,18.3639
17.7015,18.3639
17.6832,18.5500
17.6832,18.5500
17.7015,18.7361
17.7015,18.7361
17.7558,18.9151
17.8439,19.0801
17.9626,19.2246
17.9626,19.2247
18.0647,19.3084
18.1072,19.3433
18.2721,19.4315
18.3659,19.4599
18.4511,19.4858
18.4511,19.4858
18.6372,19.5041
18.6372,19.5041
18.6373,19.5041
18.8234,19.4858
18.8234,19.4858
19.0024,19.4315
19.1673,19.3433
19.3119,19.2246
19.4306,19.0801
19.5187,18.9151
19.5730,18.7361
19.5730,18.7361
19.5913,18.5500
20.5654,18.5500
20.5837,18.7361
20.5837,18.7361
20.6380,18.9151
20.7262,19.0801
20.8448,19.2246
20.8449,19.2247
20.9470,19.3084
20.9894,19.3433
21.1544,19.4315
21.2482,19.4599
21.3334,19.4858
21.3334,19.4858
21.5195,19.5041
21.5195,19.5041
21.5195,19.5041
21.7056,19.4858
21.7056,19.4858
21.8846,19.4315
22.0496,19.3433
22.1941,19.2246
22.3128,19.0801
22.4010,18.9151
22.4553,18.7361
22.4553,18.7361
22.4736,18.5500
22.4736,18.5500
22.4553,18.3639
22.4553,18.3639
22.4388,18.3096
22.4010,18.1849
22.3128,18.0199
22.1942,17.8754
22.1941,17.8753
22.0496,17.7567
21.8846,17.6685
21.7056,17.6142
21.7056,17.6142
21.5195,17.5959
21.5195,17.5959
21.3334,17.6142
21.3334,17.6142
21.1544,17.6685
20.9894,17.7567
20.8449,17.8753
20.8448,17.8754
20.7262,18.0199
20.6380,18.1849
20.5837,18.3639
20.5837,18.3639
20.5654,18.5500
20.5654,18.5500
19.5913,18.5500
19.5913,18.5500
19.5730,18.3639
19.5730,18.3639
19.5565,18.3096
19.5187,18.1849
19.4306,18.0199
19.3119,17.8754
19.3119,17.8753
19.1673,17.7567
19.0024,17.6685
18.8234,17.6142
18.8234,17.6142
18.6373,17.5959
18.6372,17.5959
18.4511,17.6142
18.4511,17.6142
18.2721,17.6685
18.2686,17.6700
18.2076,17.6748
18.1607,17.6485
18.0317,17.5195
18.0039,17.4650
18.0135,17.4046
18.0568,17.3613
18.1017,17.3505
26.3540,17.3505
26.4122,17.3694
26.4240,17.3795
27.1180,18.0735
27.1458,18.1280
27.1395,18.1814
27.1380,18.1849
27.0837,18.3639
27.0837,18.3639
27.0654,18.5500
27.0654,18.5500
27.0837,18.7361
27.0837,18.7361
27.1380,18.9151
27.2262,19.0801
27.3448,19.2246
27.3449,19.2247
27.4470,19.3084
27.4894,19.3433
27.6544,19.4315
27.7482,19.4599
27.8334,19.4858
27.8334,19.4858
28.0195,19.5041
28.0195,19.5041
28.0195,19.5041
28.2056,19.4858
28.2056,19.4858
28.3846,19.4315
28.5496,19.3433
28.6941,19.2246
28.8128,19.0801
28.9010,18.9151
28.9553,18.7361
28.9553,18.7361
28.9736,18.5500
28.9736,18.5500
28.9553,18.3639
28.9553,18.3639
28.9388,18.3096
28.9010,18.1849
28.8128,18.0199
28.6941,17.8754
28.6941,17.8753
28.5496,17.7567
28.3846,17.6685
28.2056,17.6142
28.2056,17.6142
28.0195,17.5959
28.0195,17.5959
27.8334,17.6142
27.8334,17.6142
27.6544,17.6685
27.6509,17.6700
27.5899,17.6748
27.5430,17.6485
26.7781,16.8836
26.7700,16.8723
26.7690,16.8731
26.7635,16.8658
26.7288,16.8342
26.7255,16.8310
26.7123,16.8178
26.7123,16.8178
26.7122,16.8178
26.7015,16.8093
26.6804,16.7901
26.6713,16.7865
26.6511,16.7759
26.6430,16.7703
26.6430,16.7703
26.6153,16.7638
26.6022,16.7598
26.5757,16.7495
26.5757,16.7495
26.5658,16.7495
26.5432,16.7469
26.5336,16.7446
26.5336,16.7446
26.5054,16.7486
26.4918,16.7495
8.7710,16.7495
8.7573,16.7473
8.7571,16.7485
8.7480,16.7472
8.7012,16.7494
8.6966,16.7495
8.6780,16.7495
8.6778,16.7495
8.6642,16.7511
8.6358,16.7524
8.6358,16.7524
8.6268,16.7564
8.6050,16.7631
8.5954,16.7649
8.5954,16.7649
8.5712,16.7799
8.5591,16.7863
8.5330,16.7978
8.5330,16.7978
8.5261,16.8047
8.5082,16.8189
8.4999,16.8241
8.4827,16.8468
8.4737,16.8571
7.6396,17.6912
7.6284,17.6994
7.6291,17.7003
7.6218,17.7058
7.5901,17.7405
7.5870,17.7438
7.5738,17.7570
7.5738,17.7570
7.5737,17.7571
7.5653,17.7678
7.5461,17.7889
7.5461,17.7889
7.5425,17.7980
7.5319,17.8182
7.5263,17.8263
7.5263,17.8263
7.5198,17.8540
7.5158,17.8671
7.5055,17.8936
7.5055,17.8936
7.5055,17.9035
7.5029,17.9261
7.5006,17.9357
7.5046,17.9639
7.5055,17.9775
7.5055,19.1031
7.4866,19.1613
7.4371,19.1973
7.3759,19.1973
7.3365,19.1732
6.9345,18.7712
6.9067,18.7166
6.9055,18.7011
6.9055,14.0500
8.3009,14.0500
8.3192,14.2361
8.3192,14.2361
8.3735,14.4151
8.4617,14.5801
8.5803,14.7246
8.5804,14.7246
8.6139,14.7522
8.7249,14.8433
8.8899,14.9315
8.9852,14.9604
9.0689,14.9858
9.0689,14.9858
9.2550,15.0041
9.2550,15.0041
9.2550,15.0041
9.4411,14.9858
9.4411,14.9858
9.6201,14.9315
9.7851,14.8433
9.9296,14.7246
10.0483,14.5801
10.1365,14.4151
10.1908,14.2361
10.1908,14.2361
10.2091,14.0500
17.6832,14.0500
17.7015,14.2361
17.7015,14.2361
17.7558,14.4151
17.8439,14.5801
17.9626,14.7246
17.9626,14.7246
17.9962,14.7522
18.1072,14.8433
18.2721,14.9315
18.3675,14.9604
18.4511,14.9858
18.4511,14.9858
18.6372,15.0041
18.6372,15.0041
18.6373,15.0041
18.8234,14.9858
18.8234,14.9858
19.0024,14.9315
19.1673,14.8433
19.3119,14.7246
19.4306,14.5801
19.5187,14.4151
19.5730,14.2361
19.5730,14.2361
19.5913,14.0500
27.0654,14.0500
27.0837,14.2361
27.0837,14.2361
27.1380,14.4151
27.2262,14.5801
27.3448,14.7246
27.3449,14.7246
27.3784,14.7522
27.4894,14.8433
27.6544,14.9315
27.7497,14.9604
27.8334,14.9858
27.8334,14.9858
28.0195,15.0041
28.0195,15.0041
28.0195,15.0041
28.2056,14.9858
28.2056,14.9858
28.3846,14.9315
28.5496,14.8433
28.6941,14.7246
28.8128,14.5801
28.9010,14.4151
28.9553,14.2361
28.9553,14.2361
28.9736,14.0500
28.9736,14.0500
28.9553,13.8639
28.9553,13.8639
28.9388,13.8096
28.9010,13.6849
28.8128,13.5199
28.6941,13.3754
28.6941,13.3753
28.5496,13.2567
28.3846,13.1685
28.2056,13.1142
28.2056,13.1142
28.0195,13.0959
28.0195,13.0959
27.8334,13.1142
27.8334,13.1142
27.6544,13.1685
27.4894,13.2567
27.3449,13.3753
27.3448,13.3754
27.2262,13.5199
27.1380,13.6849
27.0837,13.8639
27.0837,13.8639
27.0654,14.0500
27.0654,14.0500
19.5913,14.0500
19.5913,14.0500
19.5730,13.8639
19.5730,13.8639
19.5565,13.8096
19.5187,13.6849
19.4306,13.5199
19.3119,13.3754
19.3119,13.3753
19.1673,13.2567
19.0024,13.1685
18.8234,13.1142
18.8234,13.1142
18.6373,13.0959
18.6372,13.0959
18.4511,13.1142
18.4511,13.1142
18.2721,13.1685
18.1072,13.2567
17.9626,13.3753
17.9626,13.3754
17.8439,13.5199
17.7558,13.6849
17.7015,13.8639
17.7015,13.8639
17.6832,14.0500
17.6832,14.0500
10.2091,14.0500
10.2091,14.0500
10.1908,13.8639
10.1908,13.8639
10.1743,13.8096
10.1365,13.6849
10.0483,13.5199
9.9296,13.3754
9.9296,13.3753
9.7851,13.2567
9.6201,13.1685
9.4411,13.1142
9.4411,13.1142
9.2550,13.0959
9.2550,13.0959
9.0689,13.1142
9.0689,13.1142
8.8899,13.1685
8.7249,13.2567
8.5804,13.3753
8.5803,13.3754
8.4617,13.5199
8.3735,13.6849
8.3192,13.8639
8.3192,13.8639
8.3009,14.0500
8.3009,14.0500
6.9055,14.0500
6.9055,13.4155
6.9244,13.3573
6.9345,13.3455
8.7785,11.5015
8.8330,11.4737
8.8864,11.4800
8.8899,11.4815
8.8899,11.4815
8.9909,11.5121
9.0689,11.5358
9.0689,11.5358
9.2550,11.5541
9.2550,11.5541
9.2550,11.5541
9.4411,11.5358
9.4411,11.5358
9.6201,11.4815
9.7851,11.3933
9.9296,11.2746
10.0483,11.1301
10.1365,10.9651
10.1908,10.7861
10.1908,10.7861
10.2091,10.6000
10.2091,10.6000
10.1908,10.4139
10.1908,10.4139
10.1743,10.3596
10.1365,10.2349
10.0483,10.0699
10.0018,10.0133
9.9795,9.9563
9.9950,9.8971
10.0423,9.8583
10.0784,9.8515
11.3139,9.8515
11.3721,9.8704
11.4081,9.9199
11.4081,9.9811
11.3904,10.0133
11.3439,10.0699
11.2558,10.2349
11.2015,10.4139
11.2015,10.4139
11.1832,10.6000
11.1832,10.6000
11.2015,10.7861
11.2015,10.7861
11.2558,10.9651
11.3439,11.1301
11.4626,11.2746
11.4626,11.2746
11.6072,11.3933
11.7721,11.4815
11.8968,11.5193
11.9511,11.5358
11.9511,11.5358
12.1372,11.5541
12.1372,11.5541
12.1373,11.5541
12.3234,11.5358
12.3234,11.5358
12.5024,11.4815
12.6673,11.3933
12.8119,11.2746
12.9306,11.1301
13.0187,10.9651
13.0730,10.7861
13.0730,10.7861
13.0913,10.6000
13.0913,10.6000
13.0730,10.4139
13.0730,10.4139
13.0565,10.3596
13.0187,10.2349
12.9306,10.0699
12.8841,10.0133
12.8618,9.9563
12.8772,9.8971
12.9245,9.8583
12.9606,9.8515
17.4228,9.8515
17.4810,9.8704
17.4928,9.8805
17.7358,10.1235
17.7635,10.1780
17.7572,10.2314
17.7558,10.2349
17.7015,10.4139
17.7015,10.4139
17.6832,10.6000
17.6832,10.6000
17.7015,10.7861
17.7015,10.7861
17.7558,10.9651
17.8439,11.1301
17.9626,11.2746
17.9626,11.2746
18.1072,11.3933
18.2721,11.4815
18.3968,11.5193
18.4511,11.5358
18.4511,11.5358
18.6372,11.5541
18.6372,11.5541
18.6373,11.5541
18.8234,11.5358
18.8234,11.5358
19.0024,11.4815
19.1673,11.3933
19.3119,11.2746
19.4306,11.1301
19.5187,10.9651
19.5730,10.7861
19.5730,10.7861
19.5913,10.6000
20.5654,10.6000
20.5837,10.7861
20.5837,10.7861
20.6380,10.9651
20.7262,11.1301
20.8448,11.2746
20.8449,11.2746
20.9894,11.3933
21.1544,11.4815
21.2791,11.5193
21.3334,11.5358
21.3334,11.5358
21.5195,11.5541
21.5195,11.5541
21.5195,11.5541
21.7056,11.5358
21.7056,11.5358
21.8846,11.4815
22.0496,11.3933
22.1941,11.2746
22.3128,11.1301
22.4010,10.9651
22.4553,10.7861
22.4553,10.7861
22.4736,10.6000
22.4736,10.6000
22.4553,10.4139
22.4553,10.4139
22.4388,10.3596
22.4010,10.2349
22.3128,10.0699
22.2871,10.0386
22.1942,9.9254
22.1941,9.9253
22.0496,9.8067
21.8846,9.7185
21.7056,9.6642
21.7056,9.6642
21.5512,9.6490
21.5217,9.6361
21.4878,9.6490
21.3334,9.6642
21.3334,9.6642
21.1544,9.7185
20.9894,9.8067
20.8449,9.9253
20.8448,9.9254
20.7262,10.0699
20.6380,10.2349
20.5837,10.4139
20.5837,10.4139
20.5654,10.6000
20.5654,10.6000
19.5913,10.6000
19.5913,10.6000
19.5730,10.4139
19.5730,10.4139
19.5565,10.3596
19.5187,10.2349
19.4306,10.0699
19.4048,10.0386
19.3119,9.9254
19.3119,9.9253
19.1673,9.8067
19.0024,9.7185
18.8234,9.6642
18.8234,9.6642
18.6689,9.6490
18.6395,9.6361
18.6056,9.6490
18.4511,9.6642
18.4511,9.6642
18.2721,9.7185
18.2686,9.7200
18.2076,9.7248
18.1607,9.6985
18.0827,9.6205
18.0549,9.5660
18.0645,9.5056
18.1078,9.4623
18.1527,9.4515
18.5959,9.4515
18.6335,9.4637
18.6786,9.4515
21.4781,9.4515
21.5158,9.4637
21.5609,9.4515
26.4050,9.4515
26.4632,9.4704
26.4750,9.4805
27.1180,10.1235
27.1458,10.1780
27.1395,10.2314
27.1380,10.2349
27.0837,10.4139
27.0837,10.4139
27.0654,10.6000
27.0654,10.6000
27.0837,10.7861
27.0837,10.7861
27.1380,10.9651
27.2262,11.1301
27.3448,11.2746
27.3449,11.2746
27.4894,11.3933
27.6544,11.4815
27.7791,11.5193
27.8334,11.5358
27.8334,11.5358
28.0195,11.5541
28.0195,11.5541
28.0195,11.5541
28.2056,11.5358
28.2056,11.5358
28.3846,11.4815
28.5496,11.3933
28.6941,11.2746
28.8128,11.1301
28.9010,10.9651
28.9553,10.7861
28.9553,10.7861
28.9736,10.6000
28.9736,10.6000
28.9553,10.4139
28.9553,10.4139
28.9388,10.3596
28.9010,10.2349
28.8128,10.0699
28.7871,10.0386
28.6941,9.9254
28.6941,9.9253
28.5496,9.8067
28.3846,9.7185
28.2056,9.6642
28.2056,9.6642
28.0195,9.6459
28.0195,9.6459
27.8334,9.6642
27.8334,9.6642
27.6544,9.7185
27.6509,9.7200
27.5899,9.7248
27.5430,9.6985
26.8291,8.9846
26.8210,8.9733
26.8200,8.9741
26.8145,8.9668
26.7798,8.9352
26.7765,8.9320
26.7633,8.9188
26.7633,8.9188
26.7632,8.9188
26.7525,8.9103
26.7314,8.8911
26.7223,8.8875
26.7021,8.8769
26.6940,8.8713
26.6940,8.8713
26.6663,8.8648
26.6532,8.8608
26.6267,8.8505
26.6267,8.8505
26.6168,8.8505
26.5942,8.8479
26.5846,8.8456
26.5846,8.8456
26.5564,8.8496
26.5428,8.8505
8.7200,8.8505
8.7063,8.8483
8.7061,8.8495
8.6970,8.8482
8.6502,8.8504
8.6456,8.8505
8.6270,8.8505
8.6268,8.8505
8.6132,8.8521
8.5848,8.8534
8.5848,8.8534
8.5758,8.8574
8.5540,8.8641
8.5444,8.8659
8.5444,8.8659
8.5202,8.8809
8.5081,8.8873
8.4820,8.8988
8.4820,8.8988
8.4751,8.9057
8.4572,8.9199
8.4489,8.9251
8.4317,8.9478
8.4227,8.9581
5.6386,11.7422
5.6274,11.7504
5.6281,11.7513
5.6208,11.7568
5.5891,11.7915
5.5860,11.7948
5.5728,11.8080
5.5728,11.8080
5.5727,11.8081
5.5643,11.8188
5.5451,11.8399
5.5451,11.8399
5.5415,11.8490
5.5309,11.8692
5.5253,11.8773
5.5253,11.8773
5.5188,11.9050
5.5148,11.9181
5.5045,11.9446
5.5045,11.9446
5.5045,11.9545
5.5019,11.9771
5.4996,11.9867
0.8555,11.9867
0.8555,10.6000
1.8009,10.6000
1.8192,10.7861
1.8192,10.7861
1.8735,10.9651
1.9617,11.1301
2.0803,11.2746
2.0804,11.2746
2.2249,11.3933
2.3899,11.4815
2.5146,11.5193
2.5689,11.5358
2.5689,11.5358
2.7550,11.5541
2.7550,11.5541
2.7550,11.5541
2.9411,11.5358
2.9411,11.5358
3.1201,11.4815
3.2851,11.3933
3.4296,11.2746
3.5483,11.1301
3.6365,10.9651
3.6908,10.7861
3.6908,10.7861
3.7091,10.6000
3.7091,10.6000
3.6908,10.4139
3.6908,10.4139
3.6743,10.3596
3.6365,10.2349
3.5483,10.0699
3.5226,10.0386
3.4296,9.9254
3.4296,9.9253
3.2851,9.8067
3.1201,9.7185
2.9411,9.6642
2.9411,9.6642
2.7550,9.6459
2.7550,9.6459
2.5689,9.6642
2.5689,9.6642
2.3899,9.7185
2.2249,9.8067
2.0804,9.9253
2.0803,9.9254
1.9617,10.0699
1.8735,10.2349
1.8192,10.4139
1.8192,10.4139
1.8009,10.6000
1.8009,10.6000
0.8555,10.6000
0.8555,6.1000
8.3009,6.1000
8.3192,6.2861
8.3192,6.2861
8.3735,6.4651
8.4617,6.6301
8.5803,6.7746
8.5804,6.7746
8.7249,6.8933
8.8899,6.9815
9.0146,7.0193
9.0689,7.0358
9.0689,7.0358
9.2550,7.0541
9.2550,7.0541
9.2550,7.0541
9.4411,7.0358
9.4411,7.0358
9.6201,6.9815
9.7851,6.8933
9.9296,6.7746
10.0483,6.6301
10.1365,6.4651
10.1908,6.2861
10.1908,6.2861
10.2091,6.1000
17.6832,6.1000
17.7015,6.2861
17.7015,6.2861
17.7558,6.4651
17.8439,6.6301
17.9626,6.7746
17.9626,6.7746
18.1072,6.8933
18.2721,6.9815
18.3968,7.0193
18.4511,7.0358
18.4511,7.0358
18.6372,7.0541
18.6372,7.0541
18.6373,7.0541
18.8234,7.0358
18.8234,7.0358
19.0024,6.9815
19.1673,6.8933
19.3119,6.7746
19.4306,6.6301
19.5187,6.4651
19.5730,6.2861
19.5730,6.2861
19.5913,6.1000
27.0654,6.1000
27.0837,6.2861
27.0837,6.2861
27.1380,6.4651
27.2262,6.6301
27.3448,6.7746
27.3449,6.7746
27.4894,6.8933
27.6544,6.9815
27.7791,7.0193
27.8334,7.0358
27.8334,7.0358
28.0195,7.0541
28.0195,7.0541
28.0195,7.0541
28.2056,7.0358
28.2056,7.0358
28.3846,6.9815
28.5496,6.8933
28.6941,6.7746
28.8128,6.6301
28.9010,6.4651
28.9553,6.2861
28.9553,6.2861
28.9736,6.1000
28.9736,6.1000
28.9553,5.9139
28.9553,5.9139
28.9388,5.8596
28.9010,5.7349
28.8128,5.5699
28.6941,5.4254
28.6941,5.4253
28.5496,5.3067
28.3846,5.2185
28.2056,5.1642
28.2056,5.1642
28.0195,5.1459
28.0195,5.1459
27.8334,5.1642
27.8334,5.1642
27.6544,5.2185
27.4894,5.3067
27.3449,5.4253
27.3448,5.4254
27.2262,5.5699
27.1380,5.7349
27.0837,5.9139
27.0837,5.9139
27.0654,6.1000
27.0654,6.1000
19.5913,6.1000
19.5913,6.1000
19.5730,5.9139
19.5730,5.9139
19.5565,5.8596
19.5187,5.7349
19.4306,5.5699
19.3119,5.4254
19.3119,5.4253
19.1673,5.3067
19.0024,5.2185
18.8234,5.1642
18.8234,5.1642
18.6373,5.1459
18.6372,5.1459
18.4511,5.1642
18.4511,5.1642
18.2721,5.2185
18.1072,5.3067
17.9626,5.4253
17.9626,5.4254
17.8439,5.5699
17.7558,5.7349
17.7015,5.9139
17.7015,5.9139
17.6832,6.1000
17.6832,6.1000
10.2091,6.1000
10.2091,6.1000
10.1908,5.9139
10.1908,5.9139
10.1743,5.8596
10.1365,5.7349
10.0483,5.5699
9.9296,5.4254
9.9296,5.4253
9.7851,5.3067
9.6201,5.2185
9.4411,5.1642
9.4411,5.1642
9.2550,5.1459
9.2550,5.1459
9.0689,5.1642
9.0689,5.1642
8.8899,5.2185
8.7249,5.3067
8.5804,5.4253
8.5803,5.4254
8.4617,5.5699
8.3735,5.7349
8.3192,5.9139
8.3192,5.9139
8.3009,6.1000
8.3009,6.1000
0.8555,6.1000
0.8555,3.1490
0.8744,3.0908
0.9239,3.0548
0.9545,3.0500
45.3952,3.0500
Z" /> 
</g>
</g>
</g>
<g style="fill:#000000; fill-opacity:1.0000; 
stroke:#000000; stroke-width:0.0000; stroke-opacity:1; 
stroke-linecap:round; stroke-linejoin:round;">
</g>
<g style="fill:#D0D2CD; fill-opacity:1.0000; 
stroke:#D0D2CD; stroke-width:0.0000; stroke-opacity:1; 
stroke-linecap:round; stroke-linejoin:round;">
</g>
<g style="fill:#D0D2CD; fill-opacity:1.0000; 
stroke:#D0D2CD; stroke-width:0.1000; stroke-opacity:1; 
stroke-linecap:round; stroke-linejoin:round;">
</g>
<g style="fill:#D0D2CD; fill-opacity:0.0; 
stroke:#D0D2CD; stroke-width:0.1000; stroke-opacity:1; 
stroke-linecap:round; stroke-linejoin:round;">
<path style="fill:#D0D2CD; fill-opacity:0.0; 
stroke:#D0D2CD; stroke-width:0.1000; stroke-opacity:1; 
stroke-linecap:round; stroke-linejoin:round;fill:none"
d="M 54.6050,87.0500
28.6050,87.0500
28.6050,68.0500
12.6050,68.0500
0.6050,68.0500
0.6050,62.0500
0.6050,0.0500
54.6050,0.0500
Z" /> 
<g >
</g>
<g >
</g>
<g >
</g>
<g >
</g>
<g >
</g>
<g >
</g>
<g >
</g>
<g >
</g>
<g >
</g>
<g >
</g>
<g >
</g>
<g >
</g>
<g >
</g>
<g >
</g>
<g >
</g>
<g >
</g>
<g >
</g>
<g >
</g>
<g >
</g>
<g >
</g>
<g >
</g>
<g >
</g>
<g >
</g>
<g >
</g>
<g >
</g>
<g >
</g>
<g >
</g>
<g >
</g>
<g >
</g>
<g >
</g>
<g >
</g>
<g >
</g>
<g >
</g>
<g >
</g>
<g >
</g>
<g >
</g>
<g >
</g>
<g >
</g>
<g >
</g>
<g >
</g>
<g >
</g>
<g >
</g>
<g >
</g>
<g >
</g>
<g >
</g>
<g >
</g>
<g >
</g>
<g >
</g>
<g >
</g>
<g >
</g>
<g >
</g>
<g >
</g>
<g >
</g>
<g >
</g>
<g >
</g>
</g> 
</svg>
