<?xml version="1.0" standalone="no"?>
 <!DOCTYPE svg PUBLIC "-//W3C//DTD SVG 1.1//EN" 
 "http://www.w3.org/Graphics/SVG/1.1/DTD/svg11.dtd"> 
<svg
  xmlns:svg="http://www.w3.org/2000/svg"
  xmlns="http://www.w3.org/2000/svg"
  xmlns:xlink="http://www.w3.org/1999/xlink"
  version="1.1"
  width="54.6354mm" height="87.0966mm" viewBox="0.0000 0.0000 54.6354 87.0966">
<title>SVG Image created as dalmierz-User_Drawings.svg date 2024/12/19 21:21:28 </title>
  <desc>Image generated by PCBNEW </desc>
<g style="fill:#000000; fill-opacity:1.0000;stroke:#000000; stroke-opacity:1.0000;
stroke-linecap:round; stroke-linejoin:round;"
 transform="translate(0 0) scale(1 1)">
</g>
<g style="fill:#000000; fill-opacity:0.0; 
stroke:#000000; stroke-width:0.0000; stroke-opacity:1; 
stroke-linecap:round; stroke-linejoin:round;">
</g>
<g style="fill:#C2C2C2; fill-opacity:0.0; 
stroke:#C2C2C2; stroke-width:0.0000; stroke-opacity:1; 
stroke-linecap:round; stroke-linejoin:round;">
</g>
<g style="fill:#C2C2C2; fill-opacity:0.0; 
stroke:#C2C2C2; stroke-width:0.0750; stroke-opacity:1; 
stroke-linecap:round; stroke-linejoin:round;">
<g transform="rotate(-90.000000 1.3700 24.2250)">
<text x="1.3700" y="24.4750"
textLength="3.7679" font-size="0.6667" lengthAdjust="spacingAndGlyphs"
text-anchor="middle" opacity="0">PCB edge</text>
</g>
<g class="stroked-text"><desc>PCB edge</desc>
<path d="M1.5974 25.9274
L1.0974 25.9274
" />
<path d="M1.0974 25.9274
L1.0974 25.7369
" />
<path d="M1.0974 25.7369
L1.1212 25.6893
" />
<path d="M1.1212 25.6893
L1.1450 25.6655
" />
<path d="M1.1450 25.6655
L1.1926 25.6417
" />
<path d="M1.1926 25.6417
L1.2641 25.6417
" />
<path d="M1.2641 25.6417
L1.3117 25.6655
" />
<path d="M1.3117 25.6655
L1.3355 25.6893
" />
<path d="M1.3355 25.6893
L1.3593 25.7369
" />
<path d="M1.3593 25.7369
L1.3593 25.9274
" />
<path d="M1.5498 25.1417
L1.5736 25.1655
" />
<path d="M1.5736 25.1655
L1.5974 25.2369
" />
<path d="M1.5974 25.2369
L1.5974 25.2845
" />
<path d="M1.5974 25.2845
L1.5736 25.3560
" />
<path d="M1.5736 25.3560
L1.5260 25.4036
" />
<path d="M1.5260 25.4036
L1.4784 25.4274
" />
<path d="M1.4784 25.4274
L1.3831 25.4512
" />
<path d="M1.3831 25.4512
L1.3117 25.4512
" />
<path d="M1.3117 25.4512
L1.2165 25.4274
" />
<path d="M1.2165 25.4274
L1.1688 25.4036
" />
<path d="M1.1688 25.4036
L1.1212 25.3560
" />
<path d="M1.1212 25.3560
L1.0974 25.2845
" />
<path d="M1.0974 25.2845
L1.0974 25.2369
" />
<path d="M1.0974 25.2369
L1.1212 25.1655
" />
<path d="M1.1212 25.1655
L1.1450 25.1417
" />
<path d="M1.3355 24.7607
L1.3593 24.6893
" />
<path d="M1.3593 24.6893
L1.3831 24.6655
" />
<path d="M1.3831 24.6655
L1.4307 24.6417
" />
<path d="M1.4307 24.6417
L1.5022 24.6417
" />
<path d="M1.5022 24.6417
L1.5498 24.6655
" />
<path d="M1.5498 24.6655
L1.5736 24.6893
" />
<path d="M1.5736 24.6893
L1.5974 24.7369
" />
<path d="M1.5974 24.7369
L1.5974 24.9274
" />
<path d="M1.5974 24.9274
L1.0974 24.9274
" />
<path d="M1.0974 24.9274
L1.0974 24.7607
" />
<path d="M1.0974 24.7607
L1.1212 24.7131
" />
<path d="M1.1212 24.7131
L1.1450 24.6893
" />
<path d="M1.1450 24.6893
L1.1926 24.6655
" />
<path d="M1.1926 24.6655
L1.2403 24.6655
" />
<path d="M1.2403 24.6655
L1.2879 24.6893
" />
<path d="M1.2879 24.6893
L1.3117 24.7131
" />
<path d="M1.3117 24.7131
L1.3355 24.7607
" />
<path d="M1.3355 24.7607
L1.3355 24.9274
" />
<path d="M1.5736 23.8560
L1.5974 23.9036
" />
<path d="M1.5974 23.9036
L1.5974 23.9988
" />
<path d="M1.5974 23.9988
L1.5736 24.0464
" />
<path d="M1.5736 24.0464
L1.5260 24.0702
" />
<path d="M1.5260 24.0702
L1.3355 24.0702
" />
<path d="M1.3355 24.0702
L1.2879 24.0464
" />
<path d="M1.2879 24.0464
L1.2641 23.9988
" />
<path d="M1.2641 23.9988
L1.2641 23.9036
" />
<path d="M1.2641 23.9036
L1.2879 23.8560
" />
<path d="M1.2879 23.8560
L1.3355 23.8321
" />
<path d="M1.3355 23.8321
L1.3831 23.8321
" />
<path d="M1.3831 23.8321
L1.4307 24.0702
" />
<path d="M1.5974 23.4036
L1.0974 23.4036
" />
<path d="M1.5736 23.4036
L1.5974 23.4512
" />
<path d="M1.5974 23.4512
L1.5974 23.5464
" />
<path d="M1.5974 23.5464
L1.5736 23.5940
" />
<path d="M1.5736 23.5940
L1.5498 23.6179
" />
<path d="M1.5498 23.6179
L1.5022 23.6417
" />
<path d="M1.5022 23.6417
L1.3593 23.6417
" />
<path d="M1.3593 23.6417
L1.3117 23.6179
" />
<path d="M1.3117 23.6179
L1.2879 23.5940
" />
<path d="M1.2879 23.5940
L1.2641 23.5464
" />
<path d="M1.2641 23.5464
L1.2641 23.4512
" />
<path d="M1.2641 23.4512
L1.2879 23.4036
" />
<path d="M1.2641 22.9512
L1.6688 22.9512
" />
<path d="M1.6688 22.9512
L1.7165 22.9750
" />
<path d="M1.7165 22.9750
L1.7403 22.9988
" />
<path d="M1.7403 22.9988
L1.7641 23.0464
" />
<path d="M1.7641 23.0464
L1.7641 23.1179
" />
<path d="M1.7641 23.1179
L1.7403 23.1655
" />
<path d="M1.5736 22.9512
L1.5974 22.9988
" />
<path d="M1.5974 22.9988
L1.5974 23.0940
" />
<path d="M1.5974 23.0940
L1.5736 23.1417
" />
<path d="M1.5736 23.1417
L1.5498 23.1655
" />
<path d="M1.5498 23.1655
L1.5022 23.1893
" />
<path d="M1.5022 23.1893
L1.3593 23.1893
" />
<path d="M1.3593 23.1893
L1.3117 23.1655
" />
<path d="M1.3117 23.1655
L1.2879 23.1417
" />
<path d="M1.2879 23.1417
L1.2641 23.0940
" />
<path d="M1.2641 23.0940
L1.2641 22.9988
" />
<path d="M1.2641 22.9988
L1.2879 22.9512
" />
<path d="M1.5736 22.5226
L1.5974 22.5702
" />
<path d="M1.5974 22.5702
L1.5974 22.6655
" />
<path d="M1.5974 22.6655
L1.5736 22.7131
" />
<path d="M1.5736 22.7131
L1.5260 22.7369
" />
<path d="M1.5260 22.7369
L1.3355 22.7369
" />
<path d="M1.3355 22.7369
L1.2879 22.7131
" />
<path d="M1.2879 22.7131
L1.2641 22.6655
" />
<path d="M1.2641 22.6655
L1.2641 22.5702
" />
<path d="M1.2641 22.5702
L1.2879 22.5226
" />
<path d="M1.2879 22.5226
L1.3355 22.4988
" />
<path d="M1.3355 22.4988
L1.3831 22.4988
" />
<path d="M1.3831 22.4988
L1.4307 22.7369
" />
</g></g>
<g style="fill:#C2C2C2; fill-opacity:0.0; 
stroke:#C2C2C2; stroke-width:0.1000; stroke-opacity:1; 
stroke-linecap:round; stroke-linejoin:round;">
<path d="M0.7700 20.2250
L0.7700 28.2250
" />
<g >
</g>
<g >
</g>
<g >
</g>
<g >
</g>
<g >
</g>
<g >
</g>
<g >
</g>
<g >
</g>
<g >
</g>
<g >
</g>
<g >
</g>
<g >
</g>
<g >
</g>
<g >
</g>
<g >
</g>
<g >
</g>
<g >
</g>
<g >
</g>
<g >
</g>
<g >
</g>
<g >
</g>
<g >
</g>
<g >
</g>
<g >
</g>
<g >
</g>
<g >
</g>
<g >
</g>
<g >
</g>
<g >
</g>
<g >
</g>
<g >
</g>
<g >
</g>
<g >
</g>
<g >
</g>
<g >
</g>
<g >
</g>
<g >
</g>
<g >
</g>
<g >
</g>
<g >
</g>
<g >
</g>
<g >
</g>
<g >
</g>
<g >
</g>
<g >
</g>
<g >
</g>
<g >
</g>
<g >
</g>
<g >
</g>
<g >
</g>
<g >
</g>
<g >
</g>
<g >
</g>
<g >
</g>
<g >
</g>
</g>
<g style="fill:#000000; fill-opacity:0.0; 
stroke:#000000; stroke-width:0.1000; stroke-opacity:1; 
stroke-linecap:round; stroke-linejoin:round;">
</g>
<g style="fill:#D0D2CD; fill-opacity:0.0; 
stroke:#D0D2CD; stroke-width:0.1000; stroke-opacity:1; 
stroke-linecap:round; stroke-linejoin:round;">
<path style="fill:#D0D2CD; fill-opacity:0.0; 
stroke:#D0D2CD; stroke-width:0.1000; stroke-opacity:1; 
stroke-linecap:round; stroke-linejoin:round;fill:none"
d="M 54.6050,87.0500
28.6050,87.0500
28.6050,68.0500
12.6050,68.0500
0.6050,68.0500
0.6050,62.0500
0.6050,0.0500
54.6050,0.0500
Z" /> 
<g >
</g>
<g >
</g>
<g >
</g>
<g >
</g>
<g >
</g>
<g >
</g>
<g >
</g>
<g >
</g>
<g >
</g>
<g >
</g>
<g >
</g>
<g >
</g>
<g >
</g>
<g >
</g>
<g >
</g>
<g >
</g>
<g >
</g>
<g >
</g>
<g >
</g>
<g >
</g>
<g >
</g>
<g >
</g>
<g >
</g>
<g >
</g>
<g >
</g>
<g >
</g>
<g >
</g>
<g >
</g>
<g >
</g>
<g >
</g>
<g >
</g>
<g >
</g>
<g >
</g>
<g >
</g>
<g >
</g>
<g >
</g>
<g >
</g>
<g >
</g>
<g >
</g>
<g >
</g>
<g >
</g>
<g >
</g>
<g >
</g>
<g >
</g>
<g >
</g>
<g >
</g>
<g >
</g>
<g >
</g>
<g >
</g>
<g >
</g>
<g >
</g>
<g >
</g>
<g >
</g>
<g >
</g>
<g >
</g>
</g> 
</svg>
