<?xml version="1.0" standalone="no"?>
 <!DOCTYPE svg PUBLIC "-//W3C//DTD SVG 1.1//EN" 
 "http://www.w3.org/Graphics/SVG/1.1/DTD/svg11.dtd"> 
<svg
  xmlns:svg="http://www.w3.org/2000/svg"
  xmlns="http://www.w3.org/2000/svg"
  xmlns:xlink="http://www.w3.org/1999/xlink"
  version="1.1"
  width="54.6354mm" height="87.0966mm" viewBox="0.0000 0.0000 54.6354 87.0966">
<title>SVG Image created as dalmierz-F_Silkscreen.svg date 2024/12/19 21:21:28 </title>
  <desc>Image generated by PCBNEW </desc>
<g style="fill:#000000; fill-opacity:1.0000;stroke:#000000; stroke-opacity:1.0000;
stroke-linecap:round; stroke-linejoin:round;"
 transform="translate(0 0) scale(1 1)">
</g>
<g style="fill:#000000; fill-opacity:0.0; 
stroke:#000000; stroke-width:0.0000; stroke-opacity:1; 
stroke-linecap:round; stroke-linejoin:round;">
</g>
<g style="fill:#F2EDA1; fill-opacity:0.0; 
stroke:#F2EDA1; stroke-width:0.0000; stroke-opacity:1; 
stroke-linecap:round; stroke-linejoin:round;">
</g>
<g style="fill:#F2EDA1; fill-opacity:0.0; 
stroke:#F2EDA1; stroke-width:0.1500; stroke-opacity:1; 
stroke-linecap:round; stroke-linejoin:round;">
<g transform="rotate(-90.000000 28.2050 54.7500)">
<text x="28.2050" y="55.2500"
textLength="2.2024" font-size="1.3333" lengthAdjust="spacingAndGlyphs"
text-anchor="middle" opacity="0">C1</text>
</g>
<g class="stroked-text"><desc>C1</desc>
<path d="M28.5646 54.9167
L28.6122 54.9643
" />
<path d="M28.6122 54.9643
L28.6598 55.1071
" />
<path d="M28.6598 55.1071
L28.6598 55.2024
" />
<path d="M28.6598 55.2024
L28.6122 55.3452
" />
<path d="M28.6122 55.3452
L28.5170 55.4405
" />
<path d="M28.5170 55.4405
L28.4217 55.4881
" />
<path d="M28.4217 55.4881
L28.2312 55.5357
" />
<path d="M28.2312 55.5357
L28.0884 55.5357
" />
<path d="M28.0884 55.5357
L27.8979 55.4881
" />
<path d="M27.8979 55.4881
L27.8027 55.4405
" />
<path d="M27.8027 55.4405
L27.7074 55.3452
" />
<path d="M27.7074 55.3452
L27.6598 55.2024
" />
<path d="M27.6598 55.2024
L27.6598 55.1071
" />
<path d="M27.6598 55.1071
L27.7074 54.9643
" />
<path d="M27.7074 54.9643
L27.7551 54.9167
" />
<path d="M28.6598 53.9643
L28.6598 54.5357
" />
<path d="M28.6598 54.2500
L27.6598 54.2500
" />
<path d="M27.6598 54.2500
L27.8027 54.3452
" />
<path d="M27.8027 54.3452
L27.8979 54.4405
" />
<path d="M27.8979 54.4405
L27.9455 54.5357
" />
</g><text x="24.3050" y="66.0500"
textLength="3.1548" font-size="1.3333" lengthAdjust="spacingAndGlyphs"
text-anchor="middle" opacity="0">C21</text>
<g class="stroked-text"><desc>C21</desc>
<path d="M23.6621 65.9096
L23.6145 65.9572
" />
<path d="M23.6145 65.9572
L23.4717 66.0048
" />
<path d="M23.4717 66.0048
L23.3764 66.0048
" />
<path d="M23.3764 66.0048
L23.2336 65.9572
" />
<path d="M23.2336 65.9572
L23.1383 65.8620
" />
<path d="M23.1383 65.8620
L23.0907 65.7667
" />
<path d="M23.0907 65.7667
L23.0431 65.5762
" />
<path d="M23.0431 65.5762
L23.0431 65.4334
" />
<path d="M23.0431 65.4334
L23.0907 65.2429
" />
<path d="M23.0907 65.2429
L23.1383 65.1477
" />
<path d="M23.1383 65.1477
L23.2336 65.0524
" />
<path d="M23.2336 65.0524
L23.3764 65.0048
" />
<path d="M23.3764 65.0048
L23.4717 65.0048
" />
<path d="M23.4717 65.0048
L23.6145 65.0524
" />
<path d="M23.6145 65.0524
L23.6621 65.1001
" />
<path d="M24.0431 65.1001
L24.0907 65.0524
" />
<path d="M24.0907 65.0524
L24.1860 65.0048
" />
<path d="M24.1860 65.0048
L24.4240 65.0048
" />
<path d="M24.4240 65.0048
L24.5193 65.0524
" />
<path d="M24.5193 65.0524
L24.5669 65.1001
" />
<path d="M24.5669 65.1001
L24.6145 65.1953
" />
<path d="M24.6145 65.1953
L24.6145 65.2905
" />
<path d="M24.6145 65.2905
L24.5669 65.4334
" />
<path d="M24.5669 65.4334
L23.9955 66.0048
" />
<path d="M23.9955 66.0048
L24.6145 66.0048
" />
<path d="M25.5669 66.0048
L24.9955 66.0048
" />
<path d="M25.2812 66.0048
L25.2812 65.0048
" />
<path d="M25.2812 65.0048
L25.1860 65.1477
" />
<path d="M25.1860 65.1477
L25.0907 65.2429
" />
<path d="M25.0907 65.2429
L24.9955 65.2905
" />
</g><g transform="rotate(-90.000000 25.8050 49.0500)">
<text x="25.8050" y="49.5500"
textLength="2.2024" font-size="1.3333" lengthAdjust="spacingAndGlyphs"
text-anchor="middle" opacity="0">C9</text>
</g>
<g class="stroked-text"><desc>C9</desc>
<path d="M26.1646 49.2167
L26.2122 49.2643
" />
<path d="M26.2122 49.2643
L26.2598 49.4071
" />
<path d="M26.2598 49.4071
L26.2598 49.5024
" />
<path d="M26.2598 49.5024
L26.2122 49.6452
" />
<path d="M26.2122 49.6452
L26.1170 49.7405
" />
<path d="M26.1170 49.7405
L26.0217 49.7881
" />
<path d="M26.0217 49.7881
L25.8312 49.8357
" />
<path d="M25.8312 49.8357
L25.6884 49.8357
" />
<path d="M25.6884 49.8357
L25.4979 49.7881
" />
<path d="M25.4979 49.7881
L25.4027 49.7405
" />
<path d="M25.4027 49.7405
L25.3074 49.6452
" />
<path d="M25.3074 49.6452
L25.2598 49.5024
" />
<path d="M25.2598 49.5024
L25.2598 49.4071
" />
<path d="M25.2598 49.4071
L25.3074 49.2643
" />
<path d="M25.3074 49.2643
L25.3551 49.2167
" />
<path d="M26.2598 48.7405
L26.2598 48.5500
" />
<path d="M26.2598 48.5500
L26.2122 48.4548
" />
<path d="M26.2122 48.4548
L26.1646 48.4071
" />
<path d="M26.1646 48.4071
L26.0217 48.3119
" />
<path d="M26.0217 48.3119
L25.8312 48.2643
" />
<path d="M25.8312 48.2643
L25.4503 48.2643
" />
<path d="M25.4503 48.2643
L25.3551 48.3119
" />
<path d="M25.3551 48.3119
L25.3074 48.3595
" />
<path d="M25.3074 48.3595
L25.2598 48.4548
" />
<path d="M25.2598 48.4548
L25.2598 48.6452
" />
<path d="M25.2598 48.6452
L25.3074 48.7405
" />
<path d="M25.3074 48.7405
L25.3551 48.7881
" />
<path d="M25.3551 48.7881
L25.4503 48.8357
" />
<path d="M25.4503 48.8357
L25.6884 48.8357
" />
<path d="M25.6884 48.8357
L25.7836 48.7881
" />
<path d="M25.7836 48.7881
L25.8312 48.7405
" />
<path d="M25.8312 48.7405
L25.8789 48.6452
" />
<path d="M25.8789 48.6452
L25.8789 48.4548
" />
<path d="M25.8789 48.4548
L25.8312 48.3595
" />
<path d="M25.8312 48.3595
L25.7836 48.3119
" />
<path d="M25.7836 48.3119
L25.6884 48.2643
" />
</g><text x="25.8050" y="44.3500"
textLength="2.2500" font-size="1.3333" lengthAdjust="spacingAndGlyphs"
text-anchor="middle" opacity="0">U1</text>
<g class="stroked-text"><desc>U1</desc>
<path d="M25.0431 43.3048
L25.0431 44.1143
" />
<path d="M25.0431 44.1143
L25.0907 44.2096
" />
<path d="M25.0907 44.2096
L25.1383 44.2572
" />
<path d="M25.1383 44.2572
L25.2336 44.3048
" />
<path d="M25.2336 44.3048
L25.4240 44.3048
" />
<path d="M25.4240 44.3048
L25.5193 44.2572
" />
<path d="M25.5193 44.2572
L25.5669 44.2096
" />
<path d="M25.5669 44.2096
L25.6145 44.1143
" />
<path d="M25.6145 44.1143
L25.6145 43.3048
" />
<path d="M26.6145 44.3048
L26.0431 44.3048
" />
<path d="M26.3288 44.3048
L26.3288 43.3048
" />
<path d="M26.3288 43.3048
L26.2336 43.4477
" />
<path d="M26.2336 43.4477
L26.1383 43.5429
" />
<path d="M26.1383 43.5429
L26.0431 43.5905
" />
</g><g transform="rotate(-90.000000 9.3050 22.1500)">
<text x="9.3050" y="22.6500"
textLength="3.1548" font-size="1.3333" lengthAdjust="spacingAndGlyphs"
text-anchor="middle" opacity="0">R13</text>
</g>
<g class="stroked-text"><desc>R13</desc>
<path d="M9.7598 22.7929
L9.2836 23.1262
" />
<path d="M9.7598 23.3643
L8.7598 23.3643
" />
<path d="M8.7598 23.3643
L8.7598 22.9833
" />
<path d="M8.7598 22.9833
L8.8074 22.8881
" />
<path d="M8.8074 22.8881
L8.8551 22.8405
" />
<path d="M8.8551 22.8405
L8.9503 22.7929
" />
<path d="M8.9503 22.7929
L9.0932 22.7929
" />
<path d="M9.0932 22.7929
L9.1884 22.8405
" />
<path d="M9.1884 22.8405
L9.2360 22.8881
" />
<path d="M9.2360 22.8881
L9.2836 22.9833
" />
<path d="M9.2836 22.9833
L9.2836 23.3643
" />
<path d="M9.7598 21.8405
L9.7598 22.4119
" />
<path d="M9.7598 22.1262
L8.7598 22.1262
" />
<path d="M8.7598 22.1262
L8.9027 22.2214
" />
<path d="M8.9027 22.2214
L8.9979 22.3167
" />
<path d="M8.9979 22.3167
L9.0455 22.4119
" />
<path d="M8.7598 21.5071
L8.7598 20.8881
" />
<path d="M8.7598 20.8881
L9.1408 21.2214
" />
<path d="M9.1408 21.2214
L9.1408 21.0786
" />
<path d="M9.1408 21.0786
L9.1884 20.9833
" />
<path d="M9.1884 20.9833
L9.2360 20.9357
" />
<path d="M9.2360 20.9357
L9.3312 20.8881
" />
<path d="M9.3312 20.8881
L9.5693 20.8881
" />
<path d="M9.5693 20.8881
L9.6646 20.9357
" />
<path d="M9.6646 20.9357
L9.7122 20.9833
" />
<path d="M9.7122 20.9833
L9.7598 21.0786
" />
<path d="M9.7598 21.0786
L9.7598 21.3643
" />
<path d="M9.7598 21.3643
L9.7122 21.4595
" />
<path d="M9.7122 21.4595
L9.6646 21.5071
" />
</g><text x="22.0050" y="51.4500"
textLength="3.1548" font-size="1.3333" lengthAdjust="spacingAndGlyphs"
text-anchor="middle" opacity="0">C17</text>
<g class="stroked-text"><desc>C17</desc>
<path d="M21.3621 51.3096
L21.3145 51.3572
" />
<path d="M21.3145 51.3572
L21.1717 51.4048
" />
<path d="M21.1717 51.4048
L21.0764 51.4048
" />
<path d="M21.0764 51.4048
L20.9336 51.3572
" />
<path d="M20.9336 51.3572
L20.8383 51.2620
" />
<path d="M20.8383 51.2620
L20.7907 51.1667
" />
<path d="M20.7907 51.1667
L20.7431 50.9762
" />
<path d="M20.7431 50.9762
L20.7431 50.8334
" />
<path d="M20.7431 50.8334
L20.7907 50.6429
" />
<path d="M20.7907 50.6429
L20.8383 50.5477
" />
<path d="M20.8383 50.5477
L20.9336 50.4524
" />
<path d="M20.9336 50.4524
L21.0764 50.4048
" />
<path d="M21.0764 50.4048
L21.1717 50.4048
" />
<path d="M21.1717 50.4048
L21.3145 50.4524
" />
<path d="M21.3145 50.4524
L21.3621 50.5001
" />
<path d="M22.3145 51.4048
L21.7431 51.4048
" />
<path d="M22.0288 51.4048
L22.0288 50.4048
" />
<path d="M22.0288 50.4048
L21.9336 50.5477
" />
<path d="M21.9336 50.5477
L21.8383 50.6429
" />
<path d="M21.8383 50.6429
L21.7431 50.6905
" />
<path d="M22.6479 50.4048
L23.3145 50.4048
" />
<path d="M23.3145 50.4048
L22.8860 51.4048
" />
</g><text x="21.9050" y="57.5500"
textLength="2.2500" font-size="1.3333" lengthAdjust="spacingAndGlyphs"
text-anchor="middle" opacity="0">U2</text>
<g class="stroked-text"><desc>U2</desc>
<path d="M21.1431 56.5048
L21.1431 57.3143
" />
<path d="M21.1431 57.3143
L21.1907 57.4096
" />
<path d="M21.1907 57.4096
L21.2383 57.4572
" />
<path d="M21.2383 57.4572
L21.3336 57.5048
" />
<path d="M21.3336 57.5048
L21.5240 57.5048
" />
<path d="M21.5240 57.5048
L21.6193 57.4572
" />
<path d="M21.6193 57.4572
L21.6669 57.4096
" />
<path d="M21.6669 57.4096
L21.7145 57.3143
" />
<path d="M21.7145 57.3143
L21.7145 56.5048
" />
<path d="M22.1431 56.6001
L22.1907 56.5524
" />
<path d="M22.1907 56.5524
L22.2860 56.5048
" />
<path d="M22.2860 56.5048
L22.5240 56.5048
" />
<path d="M22.5240 56.5048
L22.6193 56.5524
" />
<path d="M22.6193 56.5524
L22.6669 56.6001
" />
<path d="M22.6669 56.6001
L22.7145 56.6953
" />
<path d="M22.7145 56.6953
L22.7145 56.7905
" />
<path d="M22.7145 56.7905
L22.6669 56.9334
" />
<path d="M22.6669 56.9334
L22.0955 57.5048
" />
<path d="M22.0955 57.5048
L22.7145 57.5048
" />
</g><text x="28.9550" y="37.1500"
textLength="2.2024" font-size="1.3333" lengthAdjust="spacingAndGlyphs"
text-anchor="middle" opacity="0">R7</text>
<g class="stroked-text"><desc>R7</desc>
<path d="M28.7883 37.1048
L28.4550 36.6286
" />
<path d="M28.2169 37.1048
L28.2169 36.1048
" />
<path d="M28.2169 36.1048
L28.5979 36.1048
" />
<path d="M28.5979 36.1048
L28.6931 36.1524
" />
<path d="M28.6931 36.1524
L28.7407 36.2001
" />
<path d="M28.7407 36.2001
L28.7883 36.2953
" />
<path d="M28.7883 36.2953
L28.7883 36.4382
" />
<path d="M28.7883 36.4382
L28.7407 36.5334
" />
<path d="M28.7407 36.5334
L28.6931 36.5810
" />
<path d="M28.6931 36.5810
L28.5979 36.6286
" />
<path d="M28.5979 36.6286
L28.2169 36.6286
" />
<path d="M29.1217 36.1048
L29.7883 36.1048
" />
<path d="M29.7883 36.1048
L29.3598 37.1048
" />
</g><g transform="rotate(-90.000000 27.4050 29.7500)">
<text x="27.4050" y="30.2500"
textLength="3.1548" font-size="1.3333" lengthAdjust="spacingAndGlyphs"
text-anchor="middle" opacity="0">C14</text>
</g>
<g class="stroked-text"><desc>C14</desc>
<path d="M27.7646 30.3929
L27.8122 30.4405
" />
<path d="M27.8122 30.4405
L27.8598 30.5833
" />
<path d="M27.8598 30.5833
L27.8598 30.6786
" />
<path d="M27.8598 30.6786
L27.8122 30.8214
" />
<path d="M27.8122 30.8214
L27.7170 30.9167
" />
<path d="M27.7170 30.9167
L27.6217 30.9643
" />
<path d="M27.6217 30.9643
L27.4312 31.0119
" />
<path d="M27.4312 31.0119
L27.2884 31.0119
" />
<path d="M27.2884 31.0119
L27.0979 30.9643
" />
<path d="M27.0979 30.9643
L27.0027 30.9167
" />
<path d="M27.0027 30.9167
L26.9074 30.8214
" />
<path d="M26.9074 30.8214
L26.8598 30.6786
" />
<path d="M26.8598 30.6786
L26.8598 30.5833
" />
<path d="M26.8598 30.5833
L26.9074 30.4405
" />
<path d="M26.9074 30.4405
L26.9551 30.3929
" />
<path d="M27.8598 29.4405
L27.8598 30.0119
" />
<path d="M27.8598 29.7262
L26.8598 29.7262
" />
<path d="M26.8598 29.7262
L27.0027 29.8214
" />
<path d="M27.0027 29.8214
L27.0979 29.9167
" />
<path d="M27.0979 29.9167
L27.1455 30.0119
" />
<path d="M27.1932 28.5833
L27.8598 28.5833
" />
<path d="M26.8122 28.8214
L27.5265 29.0595
" />
<path d="M27.5265 29.0595
L27.5265 28.4405
" />
</g><g transform="rotate(-90.000000 19.2050 27.3500)">
<text x="19.2050" y="27.8500"
textLength="3.1548" font-size="1.3333" lengthAdjust="spacingAndGlyphs"
text-anchor="middle" opacity="0">C15</text>
</g>
<g class="stroked-text"><desc>C15</desc>
<path d="M19.5646 27.9929
L19.6122 28.0405
" />
<path d="M19.6122 28.0405
L19.6598 28.1833
" />
<path d="M19.6598 28.1833
L19.6598 28.2786
" />
<path d="M19.6598 28.2786
L19.6122 28.4214
" />
<path d="M19.6122 28.4214
L19.5170 28.5167
" />
<path d="M19.5170 28.5167
L19.4217 28.5643
" />
<path d="M19.4217 28.5643
L19.2312 28.6119
" />
<path d="M19.2312 28.6119
L19.0884 28.6119
" />
<path d="M19.0884 28.6119
L18.8979 28.5643
" />
<path d="M18.8979 28.5643
L18.8027 28.5167
" />
<path d="M18.8027 28.5167
L18.7074 28.4214
" />
<path d="M18.7074 28.4214
L18.6598 28.2786
" />
<path d="M18.6598 28.2786
L18.6598 28.1833
" />
<path d="M18.6598 28.1833
L18.7074 28.0405
" />
<path d="M18.7074 28.0405
L18.7551 27.9929
" />
<path d="M19.6598 27.0405
L19.6598 27.6119
" />
<path d="M19.6598 27.3262
L18.6598 27.3262
" />
<path d="M18.6598 27.3262
L18.8027 27.4214
" />
<path d="M18.8027 27.4214
L18.8979 27.5167
" />
<path d="M18.8979 27.5167
L18.9455 27.6119
" />
<path d="M18.6598 26.1357
L18.6598 26.6119
" />
<path d="M18.6598 26.6119
L19.1360 26.6595
" />
<path d="M19.1360 26.6595
L19.0884 26.6119
" />
<path d="M19.0884 26.6119
L19.0408 26.5167
" />
<path d="M19.0408 26.5167
L19.0408 26.2786
" />
<path d="M19.0408 26.2786
L19.0884 26.1833
" />
<path d="M19.0884 26.1833
L19.1360 26.1357
" />
<path d="M19.1360 26.1357
L19.2312 26.0881
" />
<path d="M19.2312 26.0881
L19.4693 26.0881
" />
<path d="M19.4693 26.0881
L19.5646 26.1357
" />
<path d="M19.5646 26.1357
L19.6122 26.1833
" />
<path d="M19.6122 26.1833
L19.6598 26.2786
" />
<path d="M19.6598 26.2786
L19.6598 26.5167
" />
<path d="M19.6598 26.5167
L19.6122 26.6119
" />
<path d="M19.6122 26.6119
L19.5646 26.6595
" />
</g><text x="5.5050" y="44.8500"
textLength="2.2024" font-size="1.3333" lengthAdjust="spacingAndGlyphs"
text-anchor="middle" opacity="0">R3</text>
<g class="stroked-text"><desc>R3</desc>
<path d="M5.3383 44.8048
L5.0050 44.3286
" />
<path d="M4.7669 44.8048
L4.7669 43.8048
" />
<path d="M4.7669 43.8048
L5.1479 43.8048
" />
<path d="M5.1479 43.8048
L5.2431 43.8524
" />
<path d="M5.2431 43.8524
L5.2907 43.9001
" />
<path d="M5.2907 43.9001
L5.3383 43.9953
" />
<path d="M5.3383 43.9953
L5.3383 44.1382
" />
<path d="M5.3383 44.1382
L5.2907 44.2334
" />
<path d="M5.2907 44.2334
L5.2431 44.2810
" />
<path d="M5.2431 44.2810
L5.1479 44.3286
" />
<path d="M5.1479 44.3286
L4.7669 44.3286
" />
<path d="M5.6717 43.8048
L6.2907 43.8048
" />
<path d="M6.2907 43.8048
L5.9574 44.1858
" />
<path d="M5.9574 44.1858
L6.1002 44.1858
" />
<path d="M6.1002 44.1858
L6.1955 44.2334
" />
<path d="M6.1955 44.2334
L6.2431 44.2810
" />
<path d="M6.2431 44.2810
L6.2907 44.3762
" />
<path d="M6.2907 44.3762
L6.2907 44.6143
" />
<path d="M6.2907 44.6143
L6.2431 44.7096
" />
<path d="M6.2431 44.7096
L6.1955 44.7572
" />
<path d="M6.1955 44.7572
L6.1002 44.8048
" />
<path d="M6.1002 44.8048
L5.8145 44.8048
" />
<path d="M5.8145 44.8048
L5.7193 44.7572
" />
<path d="M5.7193 44.7572
L5.6717 44.7096
" />
</g><g transform="rotate(-90.000000 22.8050 47.2500)">
<text x="22.8050" y="47.7500"
textLength="3.1548" font-size="1.3333" lengthAdjust="spacingAndGlyphs"
text-anchor="middle" opacity="0">R14</text>
</g>
<g class="stroked-text"><desc>R14</desc>
<path d="M23.2598 47.8929
L22.7836 48.2262
" />
<path d="M23.2598 48.4643
L22.2598 48.4643
" />
<path d="M22.2598 48.4643
L22.2598 48.0833
" />
<path d="M22.2598 48.0833
L22.3074 47.9881
" />
<path d="M22.3074 47.9881
L22.3551 47.9405
" />
<path d="M22.3551 47.9405
L22.4503 47.8929
" />
<path d="M22.4503 47.8929
L22.5932 47.8929
" />
<path d="M22.5932 47.8929
L22.6884 47.9405
" />
<path d="M22.6884 47.9405
L22.7360 47.9881
" />
<path d="M22.7360 47.9881
L22.7836 48.0833
" />
<path d="M22.7836 48.0833
L22.7836 48.4643
" />
<path d="M23.2598 46.9405
L23.2598 47.5119
" />
<path d="M23.2598 47.2262
L22.2598 47.2262
" />
<path d="M22.2598 47.2262
L22.4027 47.3214
" />
<path d="M22.4027 47.3214
L22.4979 47.4167
" />
<path d="M22.4979 47.4167
L22.5455 47.5119
" />
<path d="M22.5932 46.0833
L23.2598 46.0833
" />
<path d="M22.2122 46.3214
L22.9265 46.5595
" />
<path d="M22.9265 46.5595
L22.9265 45.9405
" />
</g><text x="11.5050" y="33.1500"
textLength="2.2500" font-size="1.3333" lengthAdjust="spacingAndGlyphs"
text-anchor="middle" opacity="0">U4</text>
<g class="stroked-text"><desc>U4</desc>
<path d="M10.7431 32.1048
L10.7431 32.9143
" />
<path d="M10.7431 32.9143
L10.7907 33.0096
" />
<path d="M10.7907 33.0096
L10.8383 33.0572
" />
<path d="M10.8383 33.0572
L10.9336 33.1048
" />
<path d="M10.9336 33.1048
L11.1240 33.1048
" />
<path d="M11.1240 33.1048
L11.2193 33.0572
" />
<path d="M11.2193 33.0572
L11.2669 33.0096
" />
<path d="M11.2669 33.0096
L11.3145 32.9143
" />
<path d="M11.3145 32.9143
L11.3145 32.1048
" />
<path d="M12.2193 32.4382
L12.2193 33.1048
" />
<path d="M11.9812 32.0572
L11.7431 32.7715
" />
<path d="M11.7431 32.7715
L12.3621 32.7715
" />
</g><text x="26.3050" y="64.4500"
textLength="2.2500" font-size="1.3333" lengthAdjust="spacingAndGlyphs"
text-anchor="middle" opacity="0">U6</text>
<g class="stroked-text"><desc>U6</desc>
<path d="M25.5431 63.4048
L25.5431 64.2143
" />
<path d="M25.5431 64.2143
L25.5907 64.3096
" />
<path d="M25.5907 64.3096
L25.6383 64.3572
" />
<path d="M25.6383 64.3572
L25.7336 64.4048
" />
<path d="M25.7336 64.4048
L25.9240 64.4048
" />
<path d="M25.9240 64.4048
L26.0193 64.3572
" />
<path d="M26.0193 64.3572
L26.0669 64.3096
" />
<path d="M26.0669 64.3096
L26.1145 64.2143
" />
<path d="M26.1145 64.2143
L26.1145 63.4048
" />
<path d="M27.0193 63.4048
L26.8288 63.4048
" />
<path d="M26.8288 63.4048
L26.7336 63.4524
" />
<path d="M26.7336 63.4524
L26.6860 63.5001
" />
<path d="M26.6860 63.5001
L26.5907 63.6429
" />
<path d="M26.5907 63.6429
L26.5431 63.8334
" />
<path d="M26.5431 63.8334
L26.5431 64.2143
" />
<path d="M26.5431 64.2143
L26.5907 64.3096
" />
<path d="M26.5907 64.3096
L26.6383 64.3572
" />
<path d="M26.6383 64.3572
L26.7336 64.4048
" />
<path d="M26.7336 64.4048
L26.9240 64.4048
" />
<path d="M26.9240 64.4048
L27.0193 64.3572
" />
<path d="M27.0193 64.3572
L27.0669 64.3096
" />
<path d="M27.0669 64.3096
L27.1145 64.2143
" />
<path d="M27.1145 64.2143
L27.1145 63.9762
" />
<path d="M27.1145 63.9762
L27.0669 63.8810
" />
<path d="M27.0669 63.8810
L27.0193 63.8334
" />
<path d="M27.0193 63.8334
L26.9240 63.7858
" />
<path d="M26.9240 63.7858
L26.7336 63.7858
" />
<path d="M26.7336 63.7858
L26.6383 63.8334
" />
<path d="M26.6383 63.8334
L26.5907 63.8810
" />
<path d="M26.5907 63.8810
L26.5431 63.9762
" />
</g><text x="18.9050" y="50.6500"
textLength="2.0595" font-size="1.3333" lengthAdjust="spacingAndGlyphs"
text-anchor="middle" opacity="0">Y1</text>
<g class="stroked-text"><desc>Y1</desc>
<path d="M18.4288 50.1286
L18.4288 50.6048
" />
<path d="M18.0955 49.6048
L18.4288 50.1286
" />
<path d="M18.4288 50.1286
L18.7621 49.6048
" />
<path d="M19.6193 50.6048
L19.0479 50.6048
" />
<path d="M19.3336 50.6048
L19.3336 49.6048
" />
<path d="M19.3336 49.6048
L19.2383 49.7477
" />
<path d="M19.2383 49.7477
L19.1431 49.8429
" />
<path d="M19.1431 49.8429
L19.0479 49.8905
" />
</g><text x="10.2050" y="54.8200"
textLength="2.2024" font-size="1.3333" lengthAdjust="spacingAndGlyphs"
text-anchor="middle" opacity="0">C3</text>
<g class="stroked-text"><desc>C3</desc>
<path d="M10.0383 54.6796
L9.9907 54.7272
" />
<path d="M9.9907 54.7272
L9.8479 54.7748
" />
<path d="M9.8479 54.7748
L9.7526 54.7748
" />
<path d="M9.7526 54.7748
L9.6098 54.7272
" />
<path d="M9.6098 54.7272
L9.5145 54.6320
" />
<path d="M9.5145 54.6320
L9.4669 54.5367
" />
<path d="M9.4669 54.5367
L9.4193 54.3462
" />
<path d="M9.4193 54.3462
L9.4193 54.2034
" />
<path d="M9.4193 54.2034
L9.4669 54.0129
" />
<path d="M9.4669 54.0129
L9.5145 53.9177
" />
<path d="M9.5145 53.9177
L9.6098 53.8224
" />
<path d="M9.6098 53.8224
L9.7526 53.7748
" />
<path d="M9.7526 53.7748
L9.8479 53.7748
" />
<path d="M9.8479 53.7748
L9.9907 53.8224
" />
<path d="M9.9907 53.8224
L10.0383 53.8701
" />
<path d="M10.3717 53.7748
L10.9907 53.7748
" />
<path d="M10.9907 53.7748
L10.6574 54.1558
" />
<path d="M10.6574 54.1558
L10.8002 54.1558
" />
<path d="M10.8002 54.1558
L10.8955 54.2034
" />
<path d="M10.8955 54.2034
L10.9431 54.2510
" />
<path d="M10.9431 54.2510
L10.9907 54.3462
" />
<path d="M10.9907 54.3462
L10.9907 54.5843
" />
<path d="M10.9907 54.5843
L10.9431 54.6796
" />
<path d="M10.9431 54.6796
L10.8955 54.7272
" />
<path d="M10.8955 54.7272
L10.8002 54.7748
" />
<path d="M10.8002 54.7748
L10.5145 54.7748
" />
<path d="M10.5145 54.7748
L10.4193 54.7272
" />
<path d="M10.4193 54.7272
L10.3717 54.6796
" />
</g><g transform="rotate(-90.000000 19.3050 21.3500)">
<text x="19.3050" y="21.8500"
textLength="3.1548" font-size="1.3333" lengthAdjust="spacingAndGlyphs"
text-anchor="middle" opacity="0">R11</text>
</g>
<g class="stroked-text"><desc>R11</desc>
<path d="M19.7598 21.9929
L19.2836 22.3262
" />
<path d="M19.7598 22.5643
L18.7598 22.5643
" />
<path d="M18.7598 22.5643
L18.7598 22.1833
" />
<path d="M18.7598 22.1833
L18.8074 22.0881
" />
<path d="M18.8074 22.0881
L18.8551 22.0405
" />
<path d="M18.8551 22.0405
L18.9503 21.9929
" />
<path d="M18.9503 21.9929
L19.0932 21.9929
" />
<path d="M19.0932 21.9929
L19.1884 22.0405
" />
<path d="M19.1884 22.0405
L19.2360 22.0881
" />
<path d="M19.2360 22.0881
L19.2836 22.1833
" />
<path d="M19.2836 22.1833
L19.2836 22.5643
" />
<path d="M19.7598 21.0405
L19.7598 21.6119
" />
<path d="M19.7598 21.3262
L18.7598 21.3262
" />
<path d="M18.7598 21.3262
L18.9027 21.4214
" />
<path d="M18.9027 21.4214
L18.9979 21.5167
" />
<path d="M18.9979 21.5167
L19.0455 21.6119
" />
<path d="M19.7598 20.0881
L19.7598 20.6595
" />
<path d="M19.7598 20.3738
L18.7598 20.3738
" />
<path d="M18.7598 20.3738
L18.9027 20.4690
" />
<path d="M18.9027 20.4690
L18.9979 20.5643
" />
<path d="M18.9979 20.5643
L19.0455 20.6595
" />
</g><text x="9.5050" y="43.6500"
textLength="1.9643" font-size="1.3333" lengthAdjust="spacingAndGlyphs"
text-anchor="middle" opacity="0">J2</text>
<g class="stroked-text"><desc>J2</desc>
<path d="M9.1717 42.6048
L9.1717 43.3191
" />
<path d="M9.1717 43.3191
L9.1240 43.4620
" />
<path d="M9.1240 43.4620
L9.0288 43.5572
" />
<path d="M9.0288 43.5572
L8.8860 43.6048
" />
<path d="M8.8860 43.6048
L8.7907 43.6048
" />
<path d="M9.6002 42.7001
L9.6479 42.6524
" />
<path d="M9.6479 42.6524
L9.7431 42.6048
" />
<path d="M9.7431 42.6048
L9.9812 42.6048
" />
<path d="M9.9812 42.6048
L10.0764 42.6524
" />
<path d="M10.0764 42.6524
L10.1240 42.7001
" />
<path d="M10.1240 42.7001
L10.1717 42.7953
" />
<path d="M10.1717 42.7953
L10.1717 42.8905
" />
<path d="M10.1717 42.8905
L10.1240 43.0334
" />
<path d="M10.1240 43.0334
L9.5526 43.6048
" />
<path d="M9.5526 43.6048
L10.1717 43.6048
" />
</g><g transform="rotate(-90.000000 28.6050 64.6500)">
<text x="28.6050" y="65.1500"
textLength="3.1548" font-size="1.3333" lengthAdjust="spacingAndGlyphs"
text-anchor="middle" opacity="0">C20</text>
</g>
<g class="stroked-text"><desc>C20</desc>
<path d="M28.9646 65.2929
L29.0122 65.3405
" />
<path d="M29.0122 65.3405
L29.0598 65.4833
" />
<path d="M29.0598 65.4833
L29.0598 65.5786
" />
<path d="M29.0598 65.5786
L29.0122 65.7214
" />
<path d="M29.0122 65.7214
L28.9170 65.8167
" />
<path d="M28.9170 65.8167
L28.8217 65.8643
" />
<path d="M28.8217 65.8643
L28.6312 65.9119
" />
<path d="M28.6312 65.9119
L28.4884 65.9119
" />
<path d="M28.4884 65.9119
L28.2979 65.8643
" />
<path d="M28.2979 65.8643
L28.2027 65.8167
" />
<path d="M28.2027 65.8167
L28.1074 65.7214
" />
<path d="M28.1074 65.7214
L28.0598 65.5786
" />
<path d="M28.0598 65.5786
L28.0598 65.4833
" />
<path d="M28.0598 65.4833
L28.1074 65.3405
" />
<path d="M28.1074 65.3405
L28.1551 65.2929
" />
<path d="M28.1551 64.9119
L28.1074 64.8643
" />
<path d="M28.1074 64.8643
L28.0598 64.7690
" />
<path d="M28.0598 64.7690
L28.0598 64.5310
" />
<path d="M28.0598 64.5310
L28.1074 64.4357
" />
<path d="M28.1074 64.4357
L28.1551 64.3881
" />
<path d="M28.1551 64.3881
L28.2503 64.3405
" />
<path d="M28.2503 64.3405
L28.3455 64.3405
" />
<path d="M28.3455 64.3405
L28.4884 64.3881
" />
<path d="M28.4884 64.3881
L29.0598 64.9595
" />
<path d="M29.0598 64.9595
L29.0598 64.3405
" />
<path d="M28.0598 63.7214
L28.0598 63.6262
" />
<path d="M28.0598 63.6262
L28.1074 63.5310
" />
<path d="M28.1074 63.5310
L28.1551 63.4833
" />
<path d="M28.1551 63.4833
L28.2503 63.4357
" />
<path d="M28.2503 63.4357
L28.4408 63.3881
" />
<path d="M28.4408 63.3881
L28.6789 63.3881
" />
<path d="M28.6789 63.3881
L28.8693 63.4357
" />
<path d="M28.8693 63.4357
L28.9646 63.4833
" />
<path d="M28.9646 63.4833
L29.0122 63.5310
" />
<path d="M29.0122 63.5310
L29.0598 63.6262
" />
<path d="M29.0598 63.6262
L29.0598 63.7214
" />
<path d="M29.0598 63.7214
L29.0122 63.8167
" />
<path d="M29.0122 63.8167
L28.9646 63.8643
" />
<path d="M28.9646 63.8643
L28.8693 63.9119
" />
<path d="M28.8693 63.9119
L28.6789 63.9595
" />
<path d="M28.6789 63.9595
L28.4408 63.9595
" />
<path d="M28.4408 63.9595
L28.2503 63.9119
" />
<path d="M28.2503 63.9119
L28.1551 63.8643
" />
<path d="M28.1551 63.8643
L28.1074 63.8167
" />
<path d="M28.1074 63.8167
L28.0598 63.7214
" />
</g><text x="28.9050" y="41.1500"
textLength="2.2024" font-size="1.3333" lengthAdjust="spacingAndGlyphs"
text-anchor="middle" opacity="0">C6</text>
<g class="stroked-text"><desc>C6</desc>
<path d="M28.7383 41.0096
L28.6907 41.0572
" />
<path d="M28.6907 41.0572
L28.5479 41.1048
" />
<path d="M28.5479 41.1048
L28.4526 41.1048
" />
<path d="M28.4526 41.1048
L28.3098 41.0572
" />
<path d="M28.3098 41.0572
L28.2145 40.9620
" />
<path d="M28.2145 40.9620
L28.1669 40.8667
" />
<path d="M28.1669 40.8667
L28.1193 40.6762
" />
<path d="M28.1193 40.6762
L28.1193 40.5334
" />
<path d="M28.1193 40.5334
L28.1669 40.3429
" />
<path d="M28.1669 40.3429
L28.2145 40.2477
" />
<path d="M28.2145 40.2477
L28.3098 40.1524
" />
<path d="M28.3098 40.1524
L28.4526 40.1048
" />
<path d="M28.4526 40.1048
L28.5479 40.1048
" />
<path d="M28.5479 40.1048
L28.6907 40.1524
" />
<path d="M28.6907 40.1524
L28.7383 40.2001
" />
<path d="M29.5955 40.1048
L29.4050 40.1048
" />
<path d="M29.4050 40.1048
L29.3098 40.1524
" />
<path d="M29.3098 40.1524
L29.2621 40.2001
" />
<path d="M29.2621 40.2001
L29.1669 40.3429
" />
<path d="M29.1669 40.3429
L29.1193 40.5334
" />
<path d="M29.1193 40.5334
L29.1193 40.9143
" />
<path d="M29.1193 40.9143
L29.1669 41.0096
" />
<path d="M29.1669 41.0096
L29.2145 41.0572
" />
<path d="M29.2145 41.0572
L29.3098 41.1048
" />
<path d="M29.3098 41.1048
L29.5002 41.1048
" />
<path d="M29.5002 41.1048
L29.5955 41.0572
" />
<path d="M29.5955 41.0572
L29.6431 41.0096
" />
<path d="M29.6431 41.0096
L29.6907 40.9143
" />
<path d="M29.6907 40.9143
L29.6907 40.6762
" />
<path d="M29.6907 40.6762
L29.6431 40.5810
" />
<path d="M29.6431 40.5810
L29.5955 40.5334
" />
<path d="M29.5955 40.5334
L29.5002 40.4858
" />
<path d="M29.5002 40.4858
L29.3098 40.4858
" />
<path d="M29.3098 40.4858
L29.2145 40.5334
" />
<path d="M29.2145 40.5334
L29.1669 40.5810
" />
<path d="M29.1669 40.5810
L29.1193 40.6762
" />
</g><text x="1.4050" y="29.6500"
textLength="1.9643" font-size="1.3333" lengthAdjust="spacingAndGlyphs"
text-anchor="middle" opacity="0">J1</text>
<g class="stroked-text"><desc>J1</desc>
<path d="M1.0717 28.6048
L1.0717 29.3191
" />
<path d="M1.0717 29.3191
L1.0240 29.4620
" />
<path d="M1.0240 29.4620
L0.9288 29.5572
" />
<path d="M0.9288 29.5572
L0.7860 29.6048
" />
<path d="M0.7860 29.6048
L0.6907 29.6048
" />
<path d="M2.0717 29.6048
L1.5002 29.6048
" />
<path d="M1.7860 29.6048
L1.7860 28.6048
" />
<path d="M1.7860 28.6048
L1.6907 28.7477
" />
<path d="M1.6907 28.7477
L1.5955 28.8429
" />
<path d="M1.5955 28.8429
L1.5002 28.8905
" />
</g><text x="13.0327" y="5.0000"
textLength="3.2976" font-size="1.3333" lengthAdjust="spacingAndGlyphs"
text-anchor="middle" opacity="0">SW2</text>
<g class="stroked-text"><desc>SW2</desc>
<path d="M11.6994 4.9072
L11.8422 4.9548
" />
<path d="M11.8422 4.9548
L12.0803 4.9548
" />
<path d="M12.0803 4.9548
L12.1755 4.9072
" />
<path d="M12.1755 4.9072
L12.2232 4.8596
" />
<path d="M12.2232 4.8596
L12.2708 4.7643
" />
<path d="M12.2708 4.7643
L12.2708 4.6691
" />
<path d="M12.2708 4.6691
L12.2232 4.5739
" />
<path d="M12.2232 4.5739
L12.1755 4.5262
" />
<path d="M12.1755 4.5262
L12.0803 4.4786
" />
<path d="M12.0803 4.4786
L11.8898 4.4310
" />
<path d="M11.8898 4.4310
L11.7946 4.3834
" />
<path d="M11.7946 4.3834
L11.7470 4.3358
" />
<path d="M11.7470 4.3358
L11.6994 4.2405
" />
<path d="M11.6994 4.2405
L11.6994 4.1453
" />
<path d="M11.6994 4.1453
L11.7470 4.0501
" />
<path d="M11.7470 4.0501
L11.7946 4.0024
" />
<path d="M11.7946 4.0024
L11.8898 3.9548
" />
<path d="M11.8898 3.9548
L12.1279 3.9548
" />
<path d="M12.1279 3.9548
L12.2708 4.0024
" />
<path d="M12.6041 3.9548
L12.8422 4.9548
" />
<path d="M12.8422 4.9548
L13.0327 4.2405
" />
<path d="M13.0327 4.2405
L13.2232 4.9548
" />
<path d="M13.2232 4.9548
L13.4613 3.9548
" />
<path d="M13.7946 4.0501
L13.8422 4.0024
" />
<path d="M13.8422 4.0024
L13.9374 3.9548
" />
<path d="M13.9374 3.9548
L14.1755 3.9548
" />
<path d="M14.1755 3.9548
L14.2708 4.0024
" />
<path d="M14.2708 4.0024
L14.3184 4.0501
" />
<path d="M14.3184 4.0501
L14.3660 4.1453
" />
<path d="M14.3660 4.1453
L14.3660 4.2405
" />
<path d="M14.3660 4.2405
L14.3184 4.3834
" />
<path d="M14.3184 4.3834
L13.7470 4.9548
" />
<path d="M13.7470 4.9548
L14.3660 4.9548
" />
</g><text x="28.9550" y="35.5500"
textLength="2.2024" font-size="1.3333" lengthAdjust="spacingAndGlyphs"
text-anchor="middle" opacity="0">R9</text>
<g class="stroked-text"><desc>R9</desc>
<path d="M28.7883 35.5048
L28.4550 35.0286
" />
<path d="M28.2169 35.5048
L28.2169 34.5048
" />
<path d="M28.2169 34.5048
L28.5979 34.5048
" />
<path d="M28.5979 34.5048
L28.6931 34.5524
" />
<path d="M28.6931 34.5524
L28.7407 34.6001
" />
<path d="M28.7407 34.6001
L28.7883 34.6953
" />
<path d="M28.7883 34.6953
L28.7883 34.8382
" />
<path d="M28.7883 34.8382
L28.7407 34.9334
" />
<path d="M28.7407 34.9334
L28.6931 34.9810
" />
<path d="M28.6931 34.9810
L28.5979 35.0286
" />
<path d="M28.5979 35.0286
L28.2169 35.0286
" />
<path d="M29.2645 35.5048
L29.4550 35.5048
" />
<path d="M29.4550 35.5048
L29.5502 35.4572
" />
<path d="M29.5502 35.4572
L29.5979 35.4096
" />
<path d="M29.5979 35.4096
L29.6931 35.2667
" />
<path d="M29.6931 35.2667
L29.7407 35.0762
" />
<path d="M29.7407 35.0762
L29.7407 34.6953
" />
<path d="M29.7407 34.6953
L29.6931 34.6001
" />
<path d="M29.6931 34.6001
L29.6455 34.5524
" />
<path d="M29.6455 34.5524
L29.5502 34.5048
" />
<path d="M29.5502 34.5048
L29.3598 34.5048
" />
<path d="M29.3598 34.5048
L29.2645 34.5524
" />
<path d="M29.2645 34.5524
L29.2169 34.6001
" />
<path d="M29.2169 34.6001
L29.1693 34.6953
" />
<path d="M29.1693 34.6953
L29.1693 34.9334
" />
<path d="M29.1693 34.9334
L29.2169 35.0286
" />
<path d="M29.2169 35.0286
L29.2645 35.0762
" />
<path d="M29.2645 35.0762
L29.3598 35.1239
" />
<path d="M29.3598 35.1239
L29.5502 35.1239
" />
<path d="M29.5502 35.1239
L29.6455 35.0762
" />
<path d="M29.6455 35.0762
L29.6931 35.0286
" />
<path d="M29.6931 35.0286
L29.7407 34.9334
" />
</g><text x="22.4149" y="5.0000"
textLength="3.2976" font-size="1.3333" lengthAdjust="spacingAndGlyphs"
text-anchor="middle" opacity="0">SW1</text>
<g class="stroked-text"><desc>SW1</desc>
<path d="M21.0816 4.9072
L21.2245 4.9548
" />
<path d="M21.2245 4.9548
L21.4626 4.9548
" />
<path d="M21.4626 4.9548
L21.5578 4.9072
" />
<path d="M21.5578 4.9072
L21.6054 4.8596
" />
<path d="M21.6054 4.8596
L21.6530 4.7643
" />
<path d="M21.6530 4.7643
L21.6530 4.6691
" />
<path d="M21.6530 4.6691
L21.6054 4.5739
" />
<path d="M21.6054 4.5739
L21.5578 4.5262
" />
<path d="M21.5578 4.5262
L21.4626 4.4786
" />
<path d="M21.4626 4.4786
L21.2721 4.4310
" />
<path d="M21.2721 4.4310
L21.1768 4.3834
" />
<path d="M21.1768 4.3834
L21.1292 4.3358
" />
<path d="M21.1292 4.3358
L21.0816 4.2405
" />
<path d="M21.0816 4.2405
L21.0816 4.1453
" />
<path d="M21.0816 4.1453
L21.1292 4.0501
" />
<path d="M21.1292 4.0501
L21.1768 4.0024
" />
<path d="M21.1768 4.0024
L21.2721 3.9548
" />
<path d="M21.2721 3.9548
L21.5102 3.9548
" />
<path d="M21.5102 3.9548
L21.6530 4.0024
" />
<path d="M21.9864 3.9548
L22.2245 4.9548
" />
<path d="M22.2245 4.9548
L22.4149 4.2405
" />
<path d="M22.4149 4.2405
L22.6054 4.9548
" />
<path d="M22.6054 4.9548
L22.8435 3.9548
" />
<path d="M23.7483 4.9548
L23.1768 4.9548
" />
<path d="M23.4626 4.9548
L23.4626 3.9548
" />
<path d="M23.4626 3.9548
L23.3673 4.0977
" />
<path d="M23.3673 4.0977
L23.2721 4.1929
" />
<path d="M23.2721 4.1929
L23.1768 4.2405
" />
</g><text x="13.1050" y="35.7500"
textLength="2.2024" font-size="1.3333" lengthAdjust="spacingAndGlyphs"
text-anchor="middle" opacity="0">C4</text>
<g class="stroked-text"><desc>C4</desc>
<path d="M12.9383 35.6096
L12.8907 35.6572
" />
<path d="M12.8907 35.6572
L12.7479 35.7048
" />
<path d="M12.7479 35.7048
L12.6526 35.7048
" />
<path d="M12.6526 35.7048
L12.5098 35.6572
" />
<path d="M12.5098 35.6572
L12.4145 35.5620
" />
<path d="M12.4145 35.5620
L12.3669 35.4667
" />
<path d="M12.3669 35.4667
L12.3193 35.2762
" />
<path d="M12.3193 35.2762
L12.3193 35.1334
" />
<path d="M12.3193 35.1334
L12.3669 34.9429
" />
<path d="M12.3669 34.9429
L12.4145 34.8477
" />
<path d="M12.4145 34.8477
L12.5098 34.7524
" />
<path d="M12.5098 34.7524
L12.6526 34.7048
" />
<path d="M12.6526 34.7048
L12.7479 34.7048
" />
<path d="M12.7479 34.7048
L12.8907 34.7524
" />
<path d="M12.8907 34.7524
L12.9383 34.8001
" />
<path d="M13.7955 35.0382
L13.7955 35.7048
" />
<path d="M13.5574 34.6572
L13.3193 35.3715
" />
<path d="M13.3193 35.3715
L13.9383 35.3715
" />
</g><text x="13.0327" y="12.9500"
textLength="3.2976" font-size="1.3333" lengthAdjust="spacingAndGlyphs"
text-anchor="middle" opacity="0">SW5</text>
<g class="stroked-text"><desc>SW5</desc>
<path d="M11.6994 12.8572
L11.8422 12.9048
" />
<path d="M11.8422 12.9048
L12.0803 12.9048
" />
<path d="M12.0803 12.9048
L12.1755 12.8572
" />
<path d="M12.1755 12.8572
L12.2232 12.8096
" />
<path d="M12.2232 12.8096
L12.2708 12.7143
" />
<path d="M12.2708 12.7143
L12.2708 12.6191
" />
<path d="M12.2708 12.6191
L12.2232 12.5239
" />
<path d="M12.2232 12.5239
L12.1755 12.4762
" />
<path d="M12.1755 12.4762
L12.0803 12.4286
" />
<path d="M12.0803 12.4286
L11.8898 12.3810
" />
<path d="M11.8898 12.3810
L11.7946 12.3334
" />
<path d="M11.7946 12.3334
L11.7470 12.2858
" />
<path d="M11.7470 12.2858
L11.6994 12.1905
" />
<path d="M11.6994 12.1905
L11.6994 12.0953
" />
<path d="M11.6994 12.0953
L11.7470 12.0001
" />
<path d="M11.7470 12.0001
L11.7946 11.9524
" />
<path d="M11.7946 11.9524
L11.8898 11.9048
" />
<path d="M11.8898 11.9048
L12.1279 11.9048
" />
<path d="M12.1279 11.9048
L12.2708 11.9524
" />
<path d="M12.6041 11.9048
L12.8422 12.9048
" />
<path d="M12.8422 12.9048
L13.0327 12.1905
" />
<path d="M13.0327 12.1905
L13.2232 12.9048
" />
<path d="M13.2232 12.9048
L13.4613 11.9048
" />
<path d="M14.3184 11.9048
L13.8422 11.9048
" />
<path d="M13.8422 11.9048
L13.7946 12.3810
" />
<path d="M13.7946 12.3810
L13.8422 12.3334
" />
<path d="M13.8422 12.3334
L13.9374 12.2858
" />
<path d="M13.9374 12.2858
L14.1755 12.2858
" />
<path d="M14.1755 12.2858
L14.2708 12.3334
" />
<path d="M14.2708 12.3334
L14.3184 12.3810
" />
<path d="M14.3184 12.3810
L14.3660 12.4762
" />
<path d="M14.3660 12.4762
L14.3660 12.7143
" />
<path d="M14.3660 12.7143
L14.3184 12.8096
" />
<path d="M14.3184 12.8096
L14.2708 12.8572
" />
<path d="M14.2708 12.8572
L14.1755 12.9048
" />
<path d="M14.1755 12.9048
L13.9374 12.9048
" />
<path d="M13.9374 12.9048
L13.8422 12.8572
" />
<path d="M13.8422 12.8572
L13.7946 12.8096
" />
</g><text x="3.6504" y="5.0000"
textLength="3.2976" font-size="1.3333" lengthAdjust="spacingAndGlyphs"
text-anchor="middle" opacity="0">SW3</text>
<g class="stroked-text"><desc>SW3</desc>
<path d="M2.3171 4.9072
L2.4600 4.9548
" />
<path d="M2.4600 4.9548
L2.6981 4.9548
" />
<path d="M2.6981 4.9548
L2.7933 4.9072
" />
<path d="M2.7933 4.9072
L2.8409 4.8596
" />
<path d="M2.8409 4.8596
L2.8885 4.7643
" />
<path d="M2.8885 4.7643
L2.8885 4.6691
" />
<path d="M2.8885 4.6691
L2.8409 4.5739
" />
<path d="M2.8409 4.5739
L2.7933 4.5262
" />
<path d="M2.7933 4.5262
L2.6981 4.4786
" />
<path d="M2.6981 4.4786
L2.5076 4.4310
" />
<path d="M2.5076 4.4310
L2.4123 4.3834
" />
<path d="M2.4123 4.3834
L2.3647 4.3358
" />
<path d="M2.3647 4.3358
L2.3171 4.2405
" />
<path d="M2.3171 4.2405
L2.3171 4.1453
" />
<path d="M2.3171 4.1453
L2.3647 4.0501
" />
<path d="M2.3647 4.0501
L2.4123 4.0024
" />
<path d="M2.4123 4.0024
L2.5076 3.9548
" />
<path d="M2.5076 3.9548
L2.7457 3.9548
" />
<path d="M2.7457 3.9548
L2.8885 4.0024
" />
<path d="M3.2219 3.9548
L3.4600 4.9548
" />
<path d="M3.4600 4.9548
L3.6504 4.2405
" />
<path d="M3.6504 4.2405
L3.8409 4.9548
" />
<path d="M3.8409 4.9548
L4.0790 3.9548
" />
<path d="M4.3647 3.9548
L4.9838 3.9548
" />
<path d="M4.9838 3.9548
L4.6504 4.3358
" />
<path d="M4.6504 4.3358
L4.7933 4.3358
" />
<path d="M4.7933 4.3358
L4.8885 4.3834
" />
<path d="M4.8885 4.3834
L4.9362 4.4310
" />
<path d="M4.9362 4.4310
L4.9838 4.5262
" />
<path d="M4.9838 4.5262
L4.9838 4.7643
" />
<path d="M4.9838 4.7643
L4.9362 4.8596
" />
<path d="M4.9362 4.8596
L4.8885 4.9072
" />
<path d="M4.8885 4.9072
L4.7933 4.9548
" />
<path d="M4.7933 4.9548
L4.5076 4.9548
" />
<path d="M4.5076 4.9548
L4.4123 4.9072
" />
<path d="M4.4123 4.9072
L4.3647 4.8596
" />
</g><text x="3.6504" y="12.9000"
textLength="3.2976" font-size="1.3333" lengthAdjust="spacingAndGlyphs"
text-anchor="middle" opacity="0">SW6</text>
<g class="stroked-text"><desc>SW6</desc>
<path d="M2.3171 12.8072
L2.4600 12.8548
" />
<path d="M2.4600 12.8548
L2.6981 12.8548
" />
<path d="M2.6981 12.8548
L2.7933 12.8072
" />
<path d="M2.7933 12.8072
L2.8409 12.7596
" />
<path d="M2.8409 12.7596
L2.8885 12.6643
" />
<path d="M2.8885 12.6643
L2.8885 12.5691
" />
<path d="M2.8885 12.5691
L2.8409 12.4739
" />
<path d="M2.8409 12.4739
L2.7933 12.4262
" />
<path d="M2.7933 12.4262
L2.6981 12.3786
" />
<path d="M2.6981 12.3786
L2.5076 12.3310
" />
<path d="M2.5076 12.3310
L2.4123 12.2834
" />
<path d="M2.4123 12.2834
L2.3647 12.2358
" />
<path d="M2.3647 12.2358
L2.3171 12.1405
" />
<path d="M2.3171 12.1405
L2.3171 12.0453
" />
<path d="M2.3171 12.0453
L2.3647 11.9501
" />
<path d="M2.3647 11.9501
L2.4123 11.9024
" />
<path d="M2.4123 11.9024
L2.5076 11.8548
" />
<path d="M2.5076 11.8548
L2.7457 11.8548
" />
<path d="M2.7457 11.8548
L2.8885 11.9024
" />
<path d="M3.2219 11.8548
L3.4600 12.8548
" />
<path d="M3.4600 12.8548
L3.6504 12.1405
" />
<path d="M3.6504 12.1405
L3.8409 12.8548
" />
<path d="M3.8409 12.8548
L4.0790 11.8548
" />
<path d="M4.8885 11.8548
L4.6981 11.8548
" />
<path d="M4.6981 11.8548
L4.6028 11.9024
" />
<path d="M4.6028 11.9024
L4.5552 11.9501
" />
<path d="M4.5552 11.9501
L4.4600 12.0929
" />
<path d="M4.4600 12.0929
L4.4123 12.2834
" />
<path d="M4.4123 12.2834
L4.4123 12.6643
" />
<path d="M4.4123 12.6643
L4.4600 12.7596
" />
<path d="M4.4600 12.7596
L4.5076 12.8072
" />
<path d="M4.5076 12.8072
L4.6028 12.8548
" />
<path d="M4.6028 12.8548
L4.7933 12.8548
" />
<path d="M4.7933 12.8548
L4.8885 12.8072
" />
<path d="M4.8885 12.8072
L4.9362 12.7596
" />
<path d="M4.9362 12.7596
L4.9838 12.6643
" />
<path d="M4.9838 12.6643
L4.9838 12.4262
" />
<path d="M4.9838 12.4262
L4.9362 12.3310
" />
<path d="M4.9362 12.3310
L4.8885 12.2834
" />
<path d="M4.8885 12.2834
L4.7933 12.2358
" />
<path d="M4.7933 12.2358
L4.6028 12.2358
" />
<path d="M4.6028 12.2358
L4.5076 12.2834
" />
<path d="M4.5076 12.2834
L4.4600 12.3310
" />
<path d="M4.4600 12.3310
L4.4123 12.4262
" />
</g><text x="4.6050" y="30.6500"
textLength="1.9643" font-size="1.3333" lengthAdjust="spacingAndGlyphs"
text-anchor="middle" opacity="0">J7</text>
<g class="stroked-text"><desc>J7</desc>
<path d="M4.2717 29.6048
L4.2717 30.3191
" />
<path d="M4.2717 30.3191
L4.2240 30.4620
" />
<path d="M4.2240 30.4620
L4.1288 30.5572
" />
<path d="M4.1288 30.5572
L3.9860 30.6048
" />
<path d="M3.9860 30.6048
L3.8907 30.6048
" />
<path d="M4.6526 29.6048
L5.3193 29.6048
" />
<path d="M5.3193 29.6048
L4.8907 30.6048
" />
</g><g transform="rotate(-90.000000 29.2750 79.3050)">
<text x="29.2750" y="79.8050"
textLength="2.9643" font-size="1.3333" lengthAdjust="spacingAndGlyphs"
text-anchor="middle" opacity="0">BT1</text>
</g>
<g class="stroked-text"><desc>BT1</desc>
<path d="M29.2060 80.0907
L29.2536 79.9479
" />
<path d="M29.2536 79.9479
L29.3012 79.9002
" />
<path d="M29.3012 79.9002
L29.3965 79.8526
" />
<path d="M29.3965 79.8526
L29.5393 79.8526
" />
<path d="M29.5393 79.8526
L29.6346 79.9002
" />
<path d="M29.6346 79.9002
L29.6822 79.9479
" />
<path d="M29.6822 79.9479
L29.7298 80.0431
" />
<path d="M29.7298 80.0431
L29.7298 80.4240
" />
<path d="M29.7298 80.4240
L28.7298 80.4240
" />
<path d="M28.7298 80.4240
L28.7298 80.0907
" />
<path d="M28.7298 80.0907
L28.7774 79.9955
" />
<path d="M28.7774 79.9955
L28.8251 79.9479
" />
<path d="M28.8251 79.9479
L28.9203 79.9002
" />
<path d="M28.9203 79.9002
L29.0155 79.9002
" />
<path d="M29.0155 79.9002
L29.1108 79.9479
" />
<path d="M29.1108 79.9479
L29.1584 79.9955
" />
<path d="M29.1584 79.9955
L29.2060 80.0907
" />
<path d="M29.2060 80.0907
L29.2060 80.4240
" />
<path d="M28.7298 79.5669
L28.7298 78.9955
" />
<path d="M29.7298 79.2812
L28.7298 79.2812
" />
<path d="M29.7298 78.1383
L29.7298 78.7098
" />
<path d="M29.7298 78.4240
L28.7298 78.4240
" />
<path d="M28.7298 78.4240
L28.8727 78.5193
" />
<path d="M28.8727 78.5193
L28.9679 78.6145
" />
<path d="M28.9679 78.6145
L29.0155 78.7098
" />
</g><text x="27.4050" y="59.8500"
textLength="2.2024" font-size="1.3333" lengthAdjust="spacingAndGlyphs"
text-anchor="middle" opacity="0">D1</text>
<g class="stroked-text"><desc>D1</desc>
<path d="M26.6669 59.8048
L26.6669 58.8048
" />
<path d="M26.6669 58.8048
L26.9050 58.8048
" />
<path d="M26.9050 58.8048
L27.0479 58.8524
" />
<path d="M27.0479 58.8524
L27.1431 58.9477
" />
<path d="M27.1431 58.9477
L27.1907 59.0429
" />
<path d="M27.1907 59.0429
L27.2383 59.2334
" />
<path d="M27.2383 59.2334
L27.2383 59.3762
" />
<path d="M27.2383 59.3762
L27.1907 59.5667
" />
<path d="M27.1907 59.5667
L27.1431 59.6620
" />
<path d="M27.1431 59.6620
L27.0479 59.7572
" />
<path d="M27.0479 59.7572
L26.9050 59.8048
" />
<path d="M26.9050 59.8048
L26.6669 59.8048
" />
<path d="M28.1907 59.8048
L27.6193 59.8048
" />
<path d="M27.9050 59.8048
L27.9050 58.8048
" />
<path d="M27.9050 58.8048
L27.8098 58.9477
" />
<path d="M27.8098 58.9477
L27.7145 59.0429
" />
<path d="M27.7145 59.0429
L27.6193 59.0905
" />
</g><g transform="rotate(-90.000000 21.0050 29.7500)">
<text x="21.0050" y="30.2500"
textLength="3.1548" font-size="1.3333" lengthAdjust="spacingAndGlyphs"
text-anchor="middle" opacity="0">C11</text>
</g>
<g class="stroked-text"><desc>C11</desc>
<path d="M21.3646 30.3929
L21.4122 30.4405
" />
<path d="M21.4122 30.4405
L21.4598 30.5833
" />
<path d="M21.4598 30.5833
L21.4598 30.6786
" />
<path d="M21.4598 30.6786
L21.4122 30.8214
" />
<path d="M21.4122 30.8214
L21.3170 30.9167
" />
<path d="M21.3170 30.9167
L21.2217 30.9643
" />
<path d="M21.2217 30.9643
L21.0312 31.0119
" />
<path d="M21.0312 31.0119
L20.8884 31.0119
" />
<path d="M20.8884 31.0119
L20.6979 30.9643
" />
<path d="M20.6979 30.9643
L20.6027 30.9167
" />
<path d="M20.6027 30.9167
L20.5074 30.8214
" />
<path d="M20.5074 30.8214
L20.4598 30.6786
" />
<path d="M20.4598 30.6786
L20.4598 30.5833
" />
<path d="M20.4598 30.5833
L20.5074 30.4405
" />
<path d="M20.5074 30.4405
L20.5551 30.3929
" />
<path d="M21.4598 29.4405
L21.4598 30.0119
" />
<path d="M21.4598 29.7262
L20.4598 29.7262
" />
<path d="M20.4598 29.7262
L20.6027 29.8214
" />
<path d="M20.6027 29.8214
L20.6979 29.9167
" />
<path d="M20.6979 29.9167
L20.7455 30.0119
" />
<path d="M21.4598 28.4881
L21.4598 29.0595
" />
<path d="M21.4598 28.7738
L20.4598 28.7738
" />
<path d="M20.4598 28.7738
L20.6027 28.8690
" />
<path d="M20.6027 28.8690
L20.6979 28.9643
" />
<path d="M20.6979 28.9643
L20.7455 29.0595
" />
</g><g transform="rotate(-90.000000 25.0050 29.7500)">
<text x="25.0050" y="30.2500"
textLength="3.1548" font-size="1.3333" lengthAdjust="spacingAndGlyphs"
text-anchor="middle" opacity="0">C12</text>
</g>
<g class="stroked-text"><desc>C12</desc>
<path d="M25.3646 30.3929
L25.4122 30.4405
" />
<path d="M25.4122 30.4405
L25.4598 30.5833
" />
<path d="M25.4598 30.5833
L25.4598 30.6786
" />
<path d="M25.4598 30.6786
L25.4122 30.8214
" />
<path d="M25.4122 30.8214
L25.3170 30.9167
" />
<path d="M25.3170 30.9167
L25.2217 30.9643
" />
<path d="M25.2217 30.9643
L25.0312 31.0119
" />
<path d="M25.0312 31.0119
L24.8884 31.0119
" />
<path d="M24.8884 31.0119
L24.6979 30.9643
" />
<path d="M24.6979 30.9643
L24.6027 30.9167
" />
<path d="M24.6027 30.9167
L24.5074 30.8214
" />
<path d="M24.5074 30.8214
L24.4598 30.6786
" />
<path d="M24.4598 30.6786
L24.4598 30.5833
" />
<path d="M24.4598 30.5833
L24.5074 30.4405
" />
<path d="M24.5074 30.4405
L24.5551 30.3929
" />
<path d="M25.4598 29.4405
L25.4598 30.0119
" />
<path d="M25.4598 29.7262
L24.4598 29.7262
" />
<path d="M24.4598 29.7262
L24.6027 29.8214
" />
<path d="M24.6027 29.8214
L24.6979 29.9167
" />
<path d="M24.6979 29.9167
L24.7455 30.0119
" />
<path d="M24.5551 29.0595
L24.5074 29.0119
" />
<path d="M24.5074 29.0119
L24.4598 28.9167
" />
<path d="M24.4598 28.9167
L24.4598 28.6786
" />
<path d="M24.4598 28.6786
L24.5074 28.5833
" />
<path d="M24.5074 28.5833
L24.5551 28.5357
" />
<path d="M24.5551 28.5357
L24.6503 28.4881
" />
<path d="M24.6503 28.4881
L24.7455 28.4881
" />
<path d="M24.7455 28.4881
L24.8884 28.5357
" />
<path d="M24.8884 28.5357
L25.4598 29.1071
" />
<path d="M25.4598 29.1071
L25.4598 28.4881
" />
</g><text x="22.4149" y="12.9500"
textLength="3.2976" font-size="1.3333" lengthAdjust="spacingAndGlyphs"
text-anchor="middle" opacity="0">SW4</text>
<g class="stroked-text"><desc>SW4</desc>
<path d="M21.0816 12.8572
L21.2245 12.9048
" />
<path d="M21.2245 12.9048
L21.4626 12.9048
" />
<path d="M21.4626 12.9048
L21.5578 12.8572
" />
<path d="M21.5578 12.8572
L21.6054 12.8096
" />
<path d="M21.6054 12.8096
L21.6530 12.7143
" />
<path d="M21.6530 12.7143
L21.6530 12.6191
" />
<path d="M21.6530 12.6191
L21.6054 12.5239
" />
<path d="M21.6054 12.5239
L21.5578 12.4762
" />
<path d="M21.5578 12.4762
L21.4626 12.4286
" />
<path d="M21.4626 12.4286
L21.2721 12.3810
" />
<path d="M21.2721 12.3810
L21.1768 12.3334
" />
<path d="M21.1768 12.3334
L21.1292 12.2858
" />
<path d="M21.1292 12.2858
L21.0816 12.1905
" />
<path d="M21.0816 12.1905
L21.0816 12.0953
" />
<path d="M21.0816 12.0953
L21.1292 12.0001
" />
<path d="M21.1292 12.0001
L21.1768 11.9524
" />
<path d="M21.1768 11.9524
L21.2721 11.9048
" />
<path d="M21.2721 11.9048
L21.5102 11.9048
" />
<path d="M21.5102 11.9048
L21.6530 11.9524
" />
<path d="M21.9864 11.9048
L22.2245 12.9048
" />
<path d="M22.2245 12.9048
L22.4149 12.1905
" />
<path d="M22.4149 12.1905
L22.6054 12.9048
" />
<path d="M22.6054 12.9048
L22.8435 11.9048
" />
<path d="M23.6530 12.2382
L23.6530 12.9048
" />
<path d="M23.4149 11.8572
L23.1768 12.5715
" />
<path d="M23.1768 12.5715
L23.7959 12.5715
" />
</g><text x="11.2050" y="41.9500"
textLength="2.2024" font-size="1.3333" lengthAdjust="spacingAndGlyphs"
text-anchor="middle" opacity="0">C5</text>
<g class="stroked-text"><desc>C5</desc>
<path d="M11.0383 41.8096
L10.9907 41.8572
" />
<path d="M10.9907 41.8572
L10.8479 41.9048
" />
<path d="M10.8479 41.9048
L10.7526 41.9048
" />
<path d="M10.7526 41.9048
L10.6098 41.8572
" />
<path d="M10.6098 41.8572
L10.5145 41.7620
" />
<path d="M10.5145 41.7620
L10.4669 41.6667
" />
<path d="M10.4669 41.6667
L10.4193 41.4762
" />
<path d="M10.4193 41.4762
L10.4193 41.3334
" />
<path d="M10.4193 41.3334
L10.4669 41.1429
" />
<path d="M10.4669 41.1429
L10.5145 41.0477
" />
<path d="M10.5145 41.0477
L10.6098 40.9524
" />
<path d="M10.6098 40.9524
L10.7526 40.9048
" />
<path d="M10.7526 40.9048
L10.8479 40.9048
" />
<path d="M10.8479 40.9048
L10.9907 40.9524
" />
<path d="M10.9907 40.9524
L11.0383 41.0001
" />
<path d="M11.9431 40.9048
L11.4669 40.9048
" />
<path d="M11.4669 40.9048
L11.4193 41.3810
" />
<path d="M11.4193 41.3810
L11.4669 41.3334
" />
<path d="M11.4669 41.3334
L11.5621 41.2858
" />
<path d="M11.5621 41.2858
L11.8002 41.2858
" />
<path d="M11.8002 41.2858
L11.8955 41.3334
" />
<path d="M11.8955 41.3334
L11.9431 41.3810
" />
<path d="M11.9431 41.3810
L11.9907 41.4762
" />
<path d="M11.9907 41.4762
L11.9907 41.7143
" />
<path d="M11.9907 41.7143
L11.9431 41.8096
" />
<path d="M11.9431 41.8096
L11.8955 41.8572
" />
<path d="M11.8955 41.8572
L11.8002 41.9048
" />
<path d="M11.8002 41.9048
L11.5621 41.9048
" />
<path d="M11.5621 41.9048
L11.4669 41.8572
" />
<path d="M11.4669 41.8572
L11.4193 41.8096
" />
</g><text x="28.9050" y="39.5500"
textLength="2.2024" font-size="1.3333" lengthAdjust="spacingAndGlyphs"
text-anchor="middle" opacity="0">C7</text>
<g class="stroked-text"><desc>C7</desc>
<path d="M28.7383 39.4096
L28.6907 39.4572
" />
<path d="M28.6907 39.4572
L28.5479 39.5048
" />
<path d="M28.5479 39.5048
L28.4526 39.5048
" />
<path d="M28.4526 39.5048
L28.3098 39.4572
" />
<path d="M28.3098 39.4572
L28.2145 39.3620
" />
<path d="M28.2145 39.3620
L28.1669 39.2667
" />
<path d="M28.1669 39.2667
L28.1193 39.0762
" />
<path d="M28.1193 39.0762
L28.1193 38.9334
" />
<path d="M28.1193 38.9334
L28.1669 38.7429
" />
<path d="M28.1669 38.7429
L28.2145 38.6477
" />
<path d="M28.2145 38.6477
L28.3098 38.5524
" />
<path d="M28.3098 38.5524
L28.4526 38.5048
" />
<path d="M28.4526 38.5048
L28.5479 38.5048
" />
<path d="M28.5479 38.5048
L28.6907 38.5524
" />
<path d="M28.6907 38.5524
L28.7383 38.6001
" />
<path d="M29.0717 38.5048
L29.7383 38.5048
" />
<path d="M29.7383 38.5048
L29.3098 39.5048
" />
</g><text x="9.7050" y="36.5500"
textLength="1.9643" font-size="1.3333" lengthAdjust="spacingAndGlyphs"
text-anchor="middle" opacity="0">J3</text>
<g class="stroked-text"><desc>J3</desc>
<path d="M9.3717 35.5048
L9.3717 36.2191
" />
<path d="M9.3717 36.2191
L9.3240 36.3620
" />
<path d="M9.3240 36.3620
L9.2288 36.4572
" />
<path d="M9.2288 36.4572
L9.0860 36.5048
" />
<path d="M9.0860 36.5048
L8.9907 36.5048
" />
<path d="M9.7526 35.5048
L10.3717 35.5048
" />
<path d="M10.3717 35.5048
L10.0383 35.8858
" />
<path d="M10.0383 35.8858
L10.1812 35.8858
" />
<path d="M10.1812 35.8858
L10.2764 35.9334
" />
<path d="M10.2764 35.9334
L10.3240 35.9810
" />
<path d="M10.3240 35.9810
L10.3717 36.0762
" />
<path d="M10.3717 36.0762
L10.3717 36.3143
" />
<path d="M10.3717 36.3143
L10.3240 36.4096
" />
<path d="M10.3240 36.4096
L10.2764 36.4572
" />
<path d="M10.2764 36.4572
L10.1812 36.5048
" />
<path d="M10.1812 36.5048
L9.8955 36.5048
" />
<path d="M9.8955 36.5048
L9.8002 36.4572
" />
<path d="M9.8002 36.4572
L9.7526 36.4096
" />
</g><text x="1.5050" y="47.7500"
textLength="2.2024" font-size="1.3333" lengthAdjust="spacingAndGlyphs"
text-anchor="middle" opacity="0">R2</text>
<g class="stroked-text"><desc>R2</desc>
<path d="M1.3383 47.7048
L1.0050 47.2286
" />
<path d="M0.7669 47.7048
L0.7669 46.7048
" />
<path d="M0.7669 46.7048
L1.1479 46.7048
" />
<path d="M1.1479 46.7048
L1.2431 46.7524
" />
<path d="M1.2431 46.7524
L1.2907 46.8001
" />
<path d="M1.2907 46.8001
L1.3383 46.8953
" />
<path d="M1.3383 46.8953
L1.3383 47.0382
" />
<path d="M1.3383 47.0382
L1.2907 47.1334
" />
<path d="M1.2907 47.1334
L1.2431 47.1810
" />
<path d="M1.2431 47.1810
L1.1479 47.2286
" />
<path d="M1.1479 47.2286
L0.7669 47.2286
" />
<path d="M1.7193 46.8001
L1.7669 46.7524
" />
<path d="M1.7669 46.7524
L1.8621 46.7048
" />
<path d="M1.8621 46.7048
L2.1002 46.7048
" />
<path d="M2.1002 46.7048
L2.1955 46.7524
" />
<path d="M2.1955 46.7524
L2.2431 46.8001
" />
<path d="M2.2431 46.8001
L2.2907 46.8953
" />
<path d="M2.2907 46.8953
L2.2907 46.9905
" />
<path d="M2.2907 46.9905
L2.2431 47.1334
" />
<path d="M2.2431 47.1334
L1.6717 47.7048
" />
<path d="M1.6717 47.7048
L2.2907 47.7048
" />
</g><g transform="rotate(-90.000000 8.7050 50.2500)">
<text x="8.7050" y="50.7500"
textLength="3.1548" font-size="1.3333" lengthAdjust="spacingAndGlyphs"
text-anchor="middle" opacity="0">C19</text>
</g>
<g class="stroked-text"><desc>C19</desc>
<path d="M9.0646 50.8929
L9.1122 50.9405
" />
<path d="M9.1122 50.9405
L9.1598 51.0833
" />
<path d="M9.1598 51.0833
L9.1598 51.1786
" />
<path d="M9.1598 51.1786
L9.1122 51.3214
" />
<path d="M9.1122 51.3214
L9.0170 51.4167
" />
<path d="M9.0170 51.4167
L8.9217 51.4643
" />
<path d="M8.9217 51.4643
L8.7312 51.5119
" />
<path d="M8.7312 51.5119
L8.5884 51.5119
" />
<path d="M8.5884 51.5119
L8.3979 51.4643
" />
<path d="M8.3979 51.4643
L8.3027 51.4167
" />
<path d="M8.3027 51.4167
L8.2074 51.3214
" />
<path d="M8.2074 51.3214
L8.1598 51.1786
" />
<path d="M8.1598 51.1786
L8.1598 51.0833
" />
<path d="M8.1598 51.0833
L8.2074 50.9405
" />
<path d="M8.2074 50.9405
L8.2551 50.8929
" />
<path d="M9.1598 49.9405
L9.1598 50.5119
" />
<path d="M9.1598 50.2262
L8.1598 50.2262
" />
<path d="M8.1598 50.2262
L8.3027 50.3214
" />
<path d="M8.3027 50.3214
L8.3979 50.4167
" />
<path d="M8.3979 50.4167
L8.4455 50.5119
" />
<path d="M9.1598 49.4643
L9.1598 49.2738
" />
<path d="M9.1598 49.2738
L9.1122 49.1786
" />
<path d="M9.1122 49.1786
L9.0646 49.1310
" />
<path d="M9.0646 49.1310
L8.9217 49.0357
" />
<path d="M8.9217 49.0357
L8.7312 48.9881
" />
<path d="M8.7312 48.9881
L8.3503 48.9881
" />
<path d="M8.3503 48.9881
L8.2551 49.0357
" />
<path d="M8.2551 49.0357
L8.2074 49.0833
" />
<path d="M8.2074 49.0833
L8.1598 49.1786
" />
<path d="M8.1598 49.1786
L8.1598 49.3690
" />
<path d="M8.1598 49.3690
L8.2074 49.4643
" />
<path d="M8.2074 49.4643
L8.2551 49.5119
" />
<path d="M8.2551 49.5119
L8.3503 49.5595
" />
<path d="M8.3503 49.5595
L8.5884 49.5595
" />
<path d="M8.5884 49.5595
L8.6836 49.5119
" />
<path d="M8.6836 49.5119
L8.7312 49.4643
" />
<path d="M8.7312 49.4643
L8.7789 49.3690
" />
<path d="M8.7789 49.3690
L8.7789 49.1786
" />
<path d="M8.7789 49.1786
L8.7312 49.0833
" />
<path d="M8.7312 49.0833
L8.6836 49.0357
" />
<path d="M8.6836 49.0357
L8.5884 48.9881
" />
</g><g transform="rotate(-90.000000 20.1050 62.3625)">
<text x="20.1050" y="62.8625"
textLength="2.2024" font-size="1.3333" lengthAdjust="spacingAndGlyphs"
text-anchor="middle" opacity="0">D3</text>
</g>
<g class="stroked-text"><desc>D3</desc>
<path d="M20.5598 63.1006
L19.5598 63.1006
" />
<path d="M19.5598 63.1006
L19.5598 62.8625
" />
<path d="M19.5598 62.8625
L19.6074 62.7196
" />
<path d="M19.6074 62.7196
L19.7027 62.6244
" />
<path d="M19.7027 62.6244
L19.7979 62.5768
" />
<path d="M19.7979 62.5768
L19.9884 62.5292
" />
<path d="M19.9884 62.5292
L20.1312 62.5292
" />
<path d="M20.1312 62.5292
L20.3217 62.5768
" />
<path d="M20.3217 62.5768
L20.4170 62.6244
" />
<path d="M20.4170 62.6244
L20.5122 62.7196
" />
<path d="M20.5122 62.7196
L20.5598 62.8625
" />
<path d="M20.5598 62.8625
L20.5598 63.1006
" />
<path d="M19.5598 62.1958
L19.5598 61.5768
" />
<path d="M19.5598 61.5768
L19.9408 61.9101
" />
<path d="M19.9408 61.9101
L19.9408 61.7673
" />
<path d="M19.9408 61.7673
L19.9884 61.6720
" />
<path d="M19.9884 61.6720
L20.0360 61.6244
" />
<path d="M20.0360 61.6244
L20.1312 61.5768
" />
<path d="M20.1312 61.5768
L20.3693 61.5768
" />
<path d="M20.3693 61.5768
L20.4646 61.6244
" />
<path d="M20.4646 61.6244
L20.5122 61.6720
" />
<path d="M20.5122 61.6720
L20.5598 61.7673
" />
<path d="M20.5598 61.7673
L20.5598 62.0530
" />
<path d="M20.5598 62.0530
L20.5122 62.1482
" />
<path d="M20.5122 62.1482
L20.4646 62.1958
" />
</g><g transform="rotate(-90.000000 17.8050 21.3500)">
<text x="17.8050" y="21.8500"
textLength="3.1548" font-size="1.3333" lengthAdjust="spacingAndGlyphs"
text-anchor="middle" opacity="0">C18</text>
</g>
<g class="stroked-text"><desc>C18</desc>
<path d="M18.1646 21.9929
L18.2122 22.0405
" />
<path d="M18.2122 22.0405
L18.2598 22.1833
" />
<path d="M18.2598 22.1833
L18.2598 22.2786
" />
<path d="M18.2598 22.2786
L18.2122 22.4214
" />
<path d="M18.2122 22.4214
L18.1170 22.5167
" />
<path d="M18.1170 22.5167
L18.0217 22.5643
" />
<path d="M18.0217 22.5643
L17.8312 22.6119
" />
<path d="M17.8312 22.6119
L17.6884 22.6119
" />
<path d="M17.6884 22.6119
L17.4979 22.5643
" />
<path d="M17.4979 22.5643
L17.4027 22.5167
" />
<path d="M17.4027 22.5167
L17.3074 22.4214
" />
<path d="M17.3074 22.4214
L17.2598 22.2786
" />
<path d="M17.2598 22.2786
L17.2598 22.1833
" />
<path d="M17.2598 22.1833
L17.3074 22.0405
" />
<path d="M17.3074 22.0405
L17.3551 21.9929
" />
<path d="M18.2598 21.0405
L18.2598 21.6119
" />
<path d="M18.2598 21.3262
L17.2598 21.3262
" />
<path d="M17.2598 21.3262
L17.4027 21.4214
" />
<path d="M17.4027 21.4214
L17.4979 21.5167
" />
<path d="M17.4979 21.5167
L17.5455 21.6119
" />
<path d="M17.6884 20.4690
L17.6408 20.5643
" />
<path d="M17.6408 20.5643
L17.5932 20.6119
" />
<path d="M17.5932 20.6119
L17.4979 20.6595
" />
<path d="M17.4979 20.6595
L17.4503 20.6595
" />
<path d="M17.4503 20.6595
L17.3551 20.6119
" />
<path d="M17.3551 20.6119
L17.3074 20.5643
" />
<path d="M17.3074 20.5643
L17.2598 20.4690
" />
<path d="M17.2598 20.4690
L17.2598 20.2786
" />
<path d="M17.2598 20.2786
L17.3074 20.1833
" />
<path d="M17.3074 20.1833
L17.3551 20.1357
" />
<path d="M17.3551 20.1357
L17.4503 20.0881
" />
<path d="M17.4503 20.0881
L17.4979 20.0881
" />
<path d="M17.4979 20.0881
L17.5932 20.1357
" />
<path d="M17.5932 20.1357
L17.6408 20.1833
" />
<path d="M17.6408 20.1833
L17.6884 20.2786
" />
<path d="M17.6884 20.2786
L17.6884 20.4690
" />
<path d="M17.6884 20.4690
L17.7360 20.5643
" />
<path d="M17.7360 20.5643
L17.7836 20.6119
" />
<path d="M17.7836 20.6119
L17.8789 20.6595
" />
<path d="M17.8789 20.6595
L18.0693 20.6595
" />
<path d="M18.0693 20.6595
L18.1646 20.6119
" />
<path d="M18.1646 20.6119
L18.2122 20.5643
" />
<path d="M18.2122 20.5643
L18.2598 20.4690
" />
<path d="M18.2598 20.4690
L18.2598 20.2786
" />
<path d="M18.2598 20.2786
L18.2122 20.1833
" />
<path d="M18.2122 20.1833
L18.1646 20.1357
" />
<path d="M18.1646 20.1357
L18.0693 20.0881
" />
<path d="M18.0693 20.0881
L17.8789 20.0881
" />
<path d="M17.8789 20.0881
L17.7836 20.1357
" />
<path d="M17.7836 20.1357
L17.7360 20.1833
" />
<path d="M17.7360 20.1833
L17.6884 20.2786
" />
</g><text x="22.4149" y="20.8500"
textLength="3.2976" font-size="1.3333" lengthAdjust="spacingAndGlyphs"
text-anchor="middle" opacity="0">SW7</text>
<g class="stroked-text"><desc>SW7</desc>
<path d="M21.0816 20.7572
L21.2245 20.8048
" />
<path d="M21.2245 20.8048
L21.4626 20.8048
" />
<path d="M21.4626 20.8048
L21.5578 20.7572
" />
<path d="M21.5578 20.7572
L21.6054 20.7096
" />
<path d="M21.6054 20.7096
L21.6530 20.6143
" />
<path d="M21.6530 20.6143
L21.6530 20.5191
" />
<path d="M21.6530 20.5191
L21.6054 20.4239
" />
<path d="M21.6054 20.4239
L21.5578 20.3762
" />
<path d="M21.5578 20.3762
L21.4626 20.3286
" />
<path d="M21.4626 20.3286
L21.2721 20.2810
" />
<path d="M21.2721 20.2810
L21.1768 20.2334
" />
<path d="M21.1768 20.2334
L21.1292 20.1858
" />
<path d="M21.1292 20.1858
L21.0816 20.0905
" />
<path d="M21.0816 20.0905
L21.0816 19.9953
" />
<path d="M21.0816 19.9953
L21.1292 19.9001
" />
<path d="M21.1292 19.9001
L21.1768 19.8524
" />
<path d="M21.1768 19.8524
L21.2721 19.8048
" />
<path d="M21.2721 19.8048
L21.5102 19.8048
" />
<path d="M21.5102 19.8048
L21.6530 19.8524
" />
<path d="M21.9864 19.8048
L22.2245 20.8048
" />
<path d="M22.2245 20.8048
L22.4149 20.0905
" />
<path d="M22.4149 20.0905
L22.6054 20.8048
" />
<path d="M22.6054 20.8048
L22.8435 19.8048
" />
<path d="M23.1292 19.8048
L23.7959 19.8048
" />
<path d="M23.7959 19.8048
L23.3673 20.8048
" />
</g><g transform="rotate(-90.000000 24.2050 49.0500)">
<text x="24.2050" y="49.5500"
textLength="2.2024" font-size="1.3333" lengthAdjust="spacingAndGlyphs"
text-anchor="middle" opacity="0">C8</text>
</g>
<g class="stroked-text"><desc>C8</desc>
<path d="M24.5646 49.2167
L24.6122 49.2643
" />
<path d="M24.6122 49.2643
L24.6598 49.4071
" />
<path d="M24.6598 49.4071
L24.6598 49.5024
" />
<path d="M24.6598 49.5024
L24.6122 49.6452
" />
<path d="M24.6122 49.6452
L24.5170 49.7405
" />
<path d="M24.5170 49.7405
L24.4217 49.7881
" />
<path d="M24.4217 49.7881
L24.2312 49.8357
" />
<path d="M24.2312 49.8357
L24.0884 49.8357
" />
<path d="M24.0884 49.8357
L23.8979 49.7881
" />
<path d="M23.8979 49.7881
L23.8027 49.7405
" />
<path d="M23.8027 49.7405
L23.7074 49.6452
" />
<path d="M23.7074 49.6452
L23.6598 49.5024
" />
<path d="M23.6598 49.5024
L23.6598 49.4071
" />
<path d="M23.6598 49.4071
L23.7074 49.2643
" />
<path d="M23.7074 49.2643
L23.7551 49.2167
" />
<path d="M24.0884 48.6452
L24.0408 48.7405
" />
<path d="M24.0408 48.7405
L23.9932 48.7881
" />
<path d="M23.9932 48.7881
L23.8979 48.8357
" />
<path d="M23.8979 48.8357
L23.8503 48.8357
" />
<path d="M23.8503 48.8357
L23.7551 48.7881
" />
<path d="M23.7551 48.7881
L23.7074 48.7405
" />
<path d="M23.7074 48.7405
L23.6598 48.6452
" />
<path d="M23.6598 48.6452
L23.6598 48.4548
" />
<path d="M23.6598 48.4548
L23.7074 48.3595
" />
<path d="M23.7074 48.3595
L23.7551 48.3119
" />
<path d="M23.7551 48.3119
L23.8503 48.2643
" />
<path d="M23.8503 48.2643
L23.8979 48.2643
" />
<path d="M23.8979 48.2643
L23.9932 48.3119
" />
<path d="M23.9932 48.3119
L24.0408 48.3595
" />
<path d="M24.0408 48.3595
L24.0884 48.4548
" />
<path d="M24.0884 48.4548
L24.0884 48.6452
" />
<path d="M24.0884 48.6452
L24.1360 48.7405
" />
<path d="M24.1360 48.7405
L24.1836 48.7881
" />
<path d="M24.1836 48.7881
L24.2789 48.8357
" />
<path d="M24.2789 48.8357
L24.4693 48.8357
" />
<path d="M24.4693 48.8357
L24.5646 48.7881
" />
<path d="M24.5646 48.7881
L24.6122 48.7405
" />
<path d="M24.6122 48.7405
L24.6598 48.6452
" />
<path d="M24.6598 48.6452
L24.6598 48.4548
" />
<path d="M24.6598 48.4548
L24.6122 48.3595
" />
<path d="M24.6122 48.3595
L24.5646 48.3119
" />
<path d="M24.5646 48.3119
L24.4693 48.2643
" />
<path d="M24.4693 48.2643
L24.2789 48.2643
" />
<path d="M24.2789 48.2643
L24.1836 48.3119
" />
<path d="M24.1836 48.3119
L24.1360 48.3595
" />
<path d="M24.1360 48.3595
L24.0884 48.4548
" />
</g><g transform="rotate(-90.000000 15.9050 47.2500)">
<text x="15.9050" y="47.7500"
textLength="3.1548" font-size="1.3333" lengthAdjust="spacingAndGlyphs"
text-anchor="middle" opacity="0">C16</text>
</g>
<g class="stroked-text"><desc>C16</desc>
<path d="M16.2646 47.8929
L16.3122 47.9405
" />
<path d="M16.3122 47.9405
L16.3598 48.0833
" />
<path d="M16.3598 48.0833
L16.3598 48.1786
" />
<path d="M16.3598 48.1786
L16.3122 48.3214
" />
<path d="M16.3122 48.3214
L16.2170 48.4167
" />
<path d="M16.2170 48.4167
L16.1217 48.4643
" />
<path d="M16.1217 48.4643
L15.9312 48.5119
" />
<path d="M15.9312 48.5119
L15.7884 48.5119
" />
<path d="M15.7884 48.5119
L15.5979 48.4643
" />
<path d="M15.5979 48.4643
L15.5027 48.4167
" />
<path d="M15.5027 48.4167
L15.4074 48.3214
" />
<path d="M15.4074 48.3214
L15.3598 48.1786
" />
<path d="M15.3598 48.1786
L15.3598 48.0833
" />
<path d="M15.3598 48.0833
L15.4074 47.9405
" />
<path d="M15.4074 47.9405
L15.4551 47.8929
" />
<path d="M16.3598 46.9405
L16.3598 47.5119
" />
<path d="M16.3598 47.2262
L15.3598 47.2262
" />
<path d="M15.3598 47.2262
L15.5027 47.3214
" />
<path d="M15.5027 47.3214
L15.5979 47.4167
" />
<path d="M15.5979 47.4167
L15.6455 47.5119
" />
<path d="M15.3598 46.0833
L15.3598 46.2738
" />
<path d="M15.3598 46.2738
L15.4074 46.3690
" />
<path d="M15.4074 46.3690
L15.4551 46.4167
" />
<path d="M15.4551 46.4167
L15.5979 46.5119
" />
<path d="M15.5979 46.5119
L15.7884 46.5595
" />
<path d="M15.7884 46.5595
L16.1693 46.5595
" />
<path d="M16.1693 46.5595
L16.2646 46.5119
" />
<path d="M16.2646 46.5119
L16.3122 46.4643
" />
<path d="M16.3122 46.4643
L16.3598 46.3690
" />
<path d="M16.3598 46.3690
L16.3598 46.1786
" />
<path d="M16.3598 46.1786
L16.3122 46.0833
" />
<path d="M16.3122 46.0833
L16.2646 46.0357
" />
<path d="M16.2646 46.0357
L16.1693 45.9881
" />
<path d="M16.1693 45.9881
L15.9312 45.9881
" />
<path d="M15.9312 45.9881
L15.8360 46.0357
" />
<path d="M15.8360 46.0357
L15.7884 46.0833
" />
<path d="M15.7884 46.0833
L15.7408 46.1786
" />
<path d="M15.7408 46.1786
L15.7408 46.3690
" />
<path d="M15.7408 46.3690
L15.7884 46.4643
" />
<path d="M15.7884 46.4643
L15.8360 46.5119
" />
<path d="M15.8360 46.5119
L15.9312 46.5595
" />
</g><text x="21.4050" y="60.3500"
textLength="3.1548" font-size="1.3333" lengthAdjust="spacingAndGlyphs"
text-anchor="middle" opacity="0">C22</text>
<g class="stroked-text"><desc>C22</desc>
<path d="M20.7621 60.2096
L20.7145 60.2572
" />
<path d="M20.7145 60.2572
L20.5717 60.3048
" />
<path d="M20.5717 60.3048
L20.4764 60.3048
" />
<path d="M20.4764 60.3048
L20.3336 60.2572
" />
<path d="M20.3336 60.2572
L20.2383 60.1620
" />
<path d="M20.2383 60.1620
L20.1907 60.0667
" />
<path d="M20.1907 60.0667
L20.1431 59.8762
" />
<path d="M20.1431 59.8762
L20.1431 59.7334
" />
<path d="M20.1431 59.7334
L20.1907 59.5429
" />
<path d="M20.1907 59.5429
L20.2383 59.4477
" />
<path d="M20.2383 59.4477
L20.3336 59.3524
" />
<path d="M20.3336 59.3524
L20.4764 59.3048
" />
<path d="M20.4764 59.3048
L20.5717 59.3048
" />
<path d="M20.5717 59.3048
L20.7145 59.3524
" />
<path d="M20.7145 59.3524
L20.7621 59.4001
" />
<path d="M21.1431 59.4001
L21.1907 59.3524
" />
<path d="M21.1907 59.3524
L21.2860 59.3048
" />
<path d="M21.2860 59.3048
L21.5240 59.3048
" />
<path d="M21.5240 59.3048
L21.6193 59.3524
" />
<path d="M21.6193 59.3524
L21.6669 59.4001
" />
<path d="M21.6669 59.4001
L21.7145 59.4953
" />
<path d="M21.7145 59.4953
L21.7145 59.5905
" />
<path d="M21.7145 59.5905
L21.6669 59.7334
" />
<path d="M21.6669 59.7334
L21.0955 60.3048
" />
<path d="M21.0955 60.3048
L21.7145 60.3048
" />
<path d="M22.0955 59.4001
L22.1431 59.3524
" />
<path d="M22.1431 59.3524
L22.2383 59.3048
" />
<path d="M22.2383 59.3048
L22.4764 59.3048
" />
<path d="M22.4764 59.3048
L22.5717 59.3524
" />
<path d="M22.5717 59.3524
L22.6193 59.4001
" />
<path d="M22.6193 59.4001
L22.6669 59.4953
" />
<path d="M22.6669 59.4953
L22.6669 59.5905
" />
<path d="M22.6669 59.5905
L22.6193 59.7334
" />
<path d="M22.6193 59.7334
L22.0479 60.3048
" />
<path d="M22.0479 60.3048
L22.6669 60.3048
" />
</g><g transform="rotate(-90.000000 20.7050 52.2500)">
<text x="20.7050" y="52.7500"
textLength="2.0119" font-size="1.3333" lengthAdjust="spacingAndGlyphs"
text-anchor="middle" opacity="0">L1</text>
</g>
<g class="stroked-text"><desc>L1</desc>
<path d="M21.1598 52.4167
L21.1598 52.8929
" />
<path d="M21.1598 52.8929
L20.1598 52.8929
" />
<path d="M21.1598 51.5595
L21.1598 52.1310
" />
<path d="M21.1598 51.8452
L20.1598 51.8452
" />
<path d="M20.1598 51.8452
L20.3027 51.9405
" />
<path d="M20.3027 51.9405
L20.3979 52.0357
" />
<path d="M20.3979 52.0357
L20.4455 52.1310
" />
</g></g>
<g style="fill:#F2EDA1; fill-opacity:0.0; 
stroke:#F2EDA1; stroke-width:0.1000; stroke-opacity:1; 
stroke-linecap:round; stroke-linejoin:round;">
<g transform="rotate(-180.000000 10.9500 72.4250)">
<text x="10.9500" y="72.4250"
textLength="5.5762" font-size="1.3333" lengthAdjust="spacingAndGlyphs"
text-anchor="start" opacity="0">ANTENA</text>
</g>
<g class="stroked-text"><desc>ANTENA</desc>
<path d="M10.6937 72.8383
L10.2175 72.8383
" />
<path d="M10.7890 72.5526
L10.4556 73.5526
" />
<path d="M10.4556 73.5526
L10.1223 72.5526
" />
<path d="M9.7890 72.5526
L9.7890 73.5526
" />
<path d="M9.7890 73.5526
L9.2175 72.5526
" />
<path d="M9.2175 72.5526
L9.2175 73.5526
" />
<path d="M8.8842 73.5526
L8.3128 73.5526
" />
<path d="M8.5985 72.5526
L8.5985 73.5526
" />
<path d="M7.9794 73.0764
L7.6461 73.0764
" />
<path d="M7.5033 72.5526
L7.9794 72.5526
" />
<path d="M7.9794 72.5526
L7.9794 73.5526
" />
<path d="M7.9794 73.5526
L7.5033 73.5526
" />
<path d="M7.0747 72.5526
L7.0747 73.5526
" />
<path d="M7.0747 73.5526
L6.5033 72.5526
" />
<path d="M6.5033 72.5526
L6.5033 73.5526
" />
<path d="M6.0747 72.8383
L5.5985 72.8383
" />
<path d="M6.1699 72.5526
L5.8366 73.5526
" />
<path d="M5.8366 73.5526
L5.5033 72.5526
" />
</g></g>
<g style="fill:#F2EDA1; fill-opacity:0.0; 
stroke:#F2EDA1; stroke-width:0.1500; stroke-opacity:1; 
stroke-linecap:round; stroke-linejoin:round;">
<g transform="rotate(-90.000000 7.8050 28.1500)">
<text x="7.8050" y="28.6500"
textLength="3.1548" font-size="1.3333" lengthAdjust="spacingAndGlyphs"
text-anchor="middle" opacity="0">R12</text>
</g>
<g class="stroked-text"><desc>R12</desc>
<path d="M8.2598 28.7929
L7.7836 29.1262
" />
<path d="M8.2598 29.3643
L7.2598 29.3643
" />
<path d="M7.2598 29.3643
L7.2598 28.9833
" />
<path d="M7.2598 28.9833
L7.3074 28.8881
" />
<path d="M7.3074 28.8881
L7.3551 28.8405
" />
<path d="M7.3551 28.8405
L7.4503 28.7929
" />
<path d="M7.4503 28.7929
L7.5932 28.7929
" />
<path d="M7.5932 28.7929
L7.6884 28.8405
" />
<path d="M7.6884 28.8405
L7.7360 28.8881
" />
<path d="M7.7360 28.8881
L7.7836 28.9833
" />
<path d="M7.7836 28.9833
L7.7836 29.3643
" />
<path d="M8.2598 27.8405
L8.2598 28.4119
" />
<path d="M8.2598 28.1262
L7.2598 28.1262
" />
<path d="M7.2598 28.1262
L7.4027 28.2214
" />
<path d="M7.4027 28.2214
L7.4979 28.3167
" />
<path d="M7.4979 28.3167
L7.5455 28.4119
" />
<path d="M7.3551 27.4595
L7.3074 27.4119
" />
<path d="M7.3074 27.4119
L7.2598 27.3167
" />
<path d="M7.2598 27.3167
L7.2598 27.0786
" />
<path d="M7.2598 27.0786
L7.3074 26.9833
" />
<path d="M7.3074 26.9833
L7.3551 26.9357
" />
<path d="M7.3551 26.9357
L7.4503 26.8881
" />
<path d="M7.4503 26.8881
L7.5455 26.8881
" />
<path d="M7.5455 26.8881
L7.6884 26.9357
" />
<path d="M7.6884 26.9357
L8.2598 27.5071
" />
<path d="M8.2598 27.5071
L8.2598 26.8881
" />
</g><g transform="rotate(-90.000000 23.4050 29.7500)">
<text x="23.4050" y="30.2500"
textLength="3.1548" font-size="1.3333" lengthAdjust="spacingAndGlyphs"
text-anchor="middle" opacity="0">C10</text>
</g>
<g class="stroked-text"><desc>C10</desc>
<path d="M23.7646 30.3929
L23.8122 30.4405
" />
<path d="M23.8122 30.4405
L23.8598 30.5833
" />
<path d="M23.8598 30.5833
L23.8598 30.6786
" />
<path d="M23.8598 30.6786
L23.8122 30.8214
" />
<path d="M23.8122 30.8214
L23.7170 30.9167
" />
<path d="M23.7170 30.9167
L23.6217 30.9643
" />
<path d="M23.6217 30.9643
L23.4312 31.0119
" />
<path d="M23.4312 31.0119
L23.2884 31.0119
" />
<path d="M23.2884 31.0119
L23.0979 30.9643
" />
<path d="M23.0979 30.9643
L23.0027 30.9167
" />
<path d="M23.0027 30.9167
L22.9074 30.8214
" />
<path d="M22.9074 30.8214
L22.8598 30.6786
" />
<path d="M22.8598 30.6786
L22.8598 30.5833
" />
<path d="M22.8598 30.5833
L22.9074 30.4405
" />
<path d="M22.9074 30.4405
L22.9551 30.3929
" />
<path d="M23.8598 29.4405
L23.8598 30.0119
" />
<path d="M23.8598 29.7262
L22.8598 29.7262
" />
<path d="M22.8598 29.7262
L23.0027 29.8214
" />
<path d="M23.0027 29.8214
L23.0979 29.9167
" />
<path d="M23.0979 29.9167
L23.1455 30.0119
" />
<path d="M22.8598 28.8214
L22.8598 28.7262
" />
<path d="M22.8598 28.7262
L22.9074 28.6310
" />
<path d="M22.9074 28.6310
L22.9551 28.5833
" />
<path d="M22.9551 28.5833
L23.0503 28.5357
" />
<path d="M23.0503 28.5357
L23.2408 28.4881
" />
<path d="M23.2408 28.4881
L23.4789 28.4881
" />
<path d="M23.4789 28.4881
L23.6693 28.5357
" />
<path d="M23.6693 28.5357
L23.7646 28.5833
" />
<path d="M23.7646 28.5833
L23.8122 28.6310
" />
<path d="M23.8122 28.6310
L23.8598 28.7262
" />
<path d="M23.8598 28.7262
L23.8598 28.8214
" />
<path d="M23.8598 28.8214
L23.8122 28.9167
" />
<path d="M23.8122 28.9167
L23.7646 28.9643
" />
<path d="M23.7646 28.9643
L23.6693 29.0119
" />
<path d="M23.6693 29.0119
L23.4789 29.0595
" />
<path d="M23.4789 29.0595
L23.2408 29.0595
" />
<path d="M23.2408 29.0595
L23.0503 29.0119
" />
<path d="M23.0503 29.0119
L22.9551 28.9643
" />
<path d="M22.9551 28.9643
L22.9074 28.9167
" />
<path d="M22.9074 28.9167
L22.8598 28.8214
" />
</g><text x="25.1050" y="51.5500"
textLength="2.2024" font-size="1.3333" lengthAdjust="spacingAndGlyphs"
text-anchor="middle" opacity="0">C2</text>
<g class="stroked-text"><desc>C2</desc>
<path d="M24.9383 51.4096
L24.8907 51.4572
" />
<path d="M24.8907 51.4572
L24.7479 51.5048
" />
<path d="M24.7479 51.5048
L24.6526 51.5048
" />
<path d="M24.6526 51.5048
L24.5098 51.4572
" />
<path d="M24.5098 51.4572
L24.4145 51.3620
" />
<path d="M24.4145 51.3620
L24.3669 51.2667
" />
<path d="M24.3669 51.2667
L24.3193 51.0762
" />
<path d="M24.3193 51.0762
L24.3193 50.9334
" />
<path d="M24.3193 50.9334
L24.3669 50.7429
" />
<path d="M24.3669 50.7429
L24.4145 50.6477
" />
<path d="M24.4145 50.6477
L24.5098 50.5524
" />
<path d="M24.5098 50.5524
L24.6526 50.5048
" />
<path d="M24.6526 50.5048
L24.7479 50.5048
" />
<path d="M24.7479 50.5048
L24.8907 50.5524
" />
<path d="M24.8907 50.5524
L24.9383 50.6001
" />
<path d="M25.3193 50.6001
L25.3669 50.5524
" />
<path d="M25.3669 50.5524
L25.4621 50.5048
" />
<path d="M25.4621 50.5048
L25.7002 50.5048
" />
<path d="M25.7002 50.5048
L25.7955 50.5524
" />
<path d="M25.7955 50.5524
L25.8431 50.6001
" />
<path d="M25.8431 50.6001
L25.8907 50.6953
" />
<path d="M25.8907 50.6953
L25.8907 50.7905
" />
<path d="M25.8907 50.7905
L25.8431 50.9334
" />
<path d="M25.8431 50.9334
L25.2717 51.5048
" />
<path d="M25.2717 51.5048
L25.8907 51.5048
" />
</g><g transform="rotate(-90.000000 29.0050 29.7500)">
<text x="29.0050" y="30.2500"
textLength="3.1548" font-size="1.3333" lengthAdjust="spacingAndGlyphs"
text-anchor="middle" opacity="0">C13</text>
</g>
<g class="stroked-text"><desc>C13</desc>
<path d="M29.3646 30.3929
L29.4122 30.4405
" />
<path d="M29.4122 30.4405
L29.4598 30.5833
" />
<path d="M29.4598 30.5833
L29.4598 30.6786
" />
<path d="M29.4598 30.6786
L29.4122 30.8214
" />
<path d="M29.4122 30.8214
L29.3170 30.9167
" />
<path d="M29.3170 30.9167
L29.2217 30.9643
" />
<path d="M29.2217 30.9643
L29.0312 31.0119
" />
<path d="M29.0312 31.0119
L28.8884 31.0119
" />
<path d="M28.8884 31.0119
L28.6979 30.9643
" />
<path d="M28.6979 30.9643
L28.6027 30.9167
" />
<path d="M28.6027 30.9167
L28.5074 30.8214
" />
<path d="M28.5074 30.8214
L28.4598 30.6786
" />
<path d="M28.4598 30.6786
L28.4598 30.5833
" />
<path d="M28.4598 30.5833
L28.5074 30.4405
" />
<path d="M28.5074 30.4405
L28.5551 30.3929
" />
<path d="M29.4598 29.4405
L29.4598 30.0119
" />
<path d="M29.4598 29.7262
L28.4598 29.7262
" />
<path d="M28.4598 29.7262
L28.6027 29.8214
" />
<path d="M28.6027 29.8214
L28.6979 29.9167
" />
<path d="M28.6979 29.9167
L28.7455 30.0119
" />
<path d="M28.4598 29.1071
L28.4598 28.4881
" />
<path d="M28.4598 28.4881
L28.8408 28.8214
" />
<path d="M28.8408 28.8214
L28.8408 28.6786
" />
<path d="M28.8408 28.6786
L28.8884 28.5833
" />
<path d="M28.8884 28.5833
L28.9360 28.5357
" />
<path d="M28.9360 28.5357
L29.0312 28.4881
" />
<path d="M29.0312 28.4881
L29.2693 28.4881
" />
<path d="M29.2693 28.4881
L29.3646 28.5357
" />
<path d="M29.3646 28.5357
L29.4122 28.5833
" />
<path d="M29.4122 28.5833
L29.4598 28.6786
" />
<path d="M29.4598 28.6786
L29.4598 28.9643
" />
<path d="M29.4598 28.9643
L29.4122 29.0595
" />
<path d="M29.4122 29.0595
L29.3646 29.1071
" />
</g><text x="1.9050" y="51.6500"
textLength="2.2500" font-size="1.3333" lengthAdjust="spacingAndGlyphs"
text-anchor="middle" opacity="0">U5</text>
<g class="stroked-text"><desc>U5</desc>
<path d="M1.1431 50.6048
L1.1431 51.4143
" />
<path d="M1.1431 51.4143
L1.1907 51.5096
" />
<path d="M1.1907 51.5096
L1.2383 51.5572
" />
<path d="M1.2383 51.5572
L1.3336 51.6048
" />
<path d="M1.3336 51.6048
L1.5240 51.6048
" />
<path d="M1.5240 51.6048
L1.6193 51.5572
" />
<path d="M1.6193 51.5572
L1.6669 51.5096
" />
<path d="M1.6669 51.5096
L1.7145 51.4143
" />
<path d="M1.7145 51.4143
L1.7145 50.6048
" />
<path d="M2.6669 50.6048
L2.1907 50.6048
" />
<path d="M2.1907 50.6048
L2.1431 51.0810
" />
<path d="M2.1431 51.0810
L2.1907 51.0334
" />
<path d="M2.1907 51.0334
L2.2860 50.9858
" />
<path d="M2.2860 50.9858
L2.5240 50.9858
" />
<path d="M2.5240 50.9858
L2.6193 51.0334
" />
<path d="M2.6193 51.0334
L2.6669 51.0810
" />
<path d="M2.6669 51.0810
L2.7145 51.1762
" />
<path d="M2.7145 51.1762
L2.7145 51.4143
" />
<path d="M2.7145 51.4143
L2.6669 51.5096
" />
<path d="M2.6669 51.5096
L2.6193 51.5572
" />
<path d="M2.6193 51.5572
L2.5240 51.6048
" />
<path d="M2.5240 51.6048
L2.2860 51.6048
" />
<path d="M2.2860 51.6048
L2.1907 51.5572
" />
<path d="M2.1907 51.5572
L2.1431 51.5096
" />
</g></g>
<g style="fill:#F2EDA1; fill-opacity:0.0; 
stroke:#F2EDA1; stroke-width:0.1200; stroke-opacity:1; 
stroke-linecap:round; stroke-linejoin:round;">
<path d="M27.3150 54.6094
L27.3150 54.8906
" />
<path d="M26.2950 54.6094
L26.2950 54.8906
" />
<path d="M23.1950 63.3906
L23.1950 63.1094
" />
<path d="M24.2150 63.3906
L24.2150 63.1094
" />
<path d="M26.3150 46.5094
L26.3150 46.7906
" />
<path d="M25.2950 46.5094
L25.2950 46.7906
" />
<path d="M17.0950 43.8600
L17.0950 43.2100
" />
<path d="M17.7450 36.6400
L17.0950 36.6400
" />
<path d="M17.7450 43.8600
L17.0950 43.8600
" />
<path d="M23.6650 36.6400
L24.3150 36.6400
" />
<path d="M23.6650 43.8600
L24.3150 43.8600
" />
<path d="M24.3150 36.6400
L24.3150 37.2900
" />
<path d="M24.3150 43.8600
L24.3150 43.2100
" />
<path d="M7.2825 22.3873
L7.2825 21.9127
" />
<path d="M8.3275 22.3873
L8.3275 21.9127
" />
<path d="M21.8644 49.0400
L22.1456 49.0400
" />
<path d="M21.8644 50.0600
L22.1456 50.0600
" />
</g>
<g style="fill:#F2EDA1; fill-opacity:0.0; 
stroke:#F2EDA1; stroke-width:0.2000; stroke-opacity:1; 
stroke-linecap:round; stroke-linejoin:round;">
<circle cx="21.6800" cy="53.8300" r="0.1000" /> 
</g>
<g style="fill:#F2EDA1; fill-opacity:0.0; 
stroke:#F2EDA1; stroke-width:0.1200; stroke-opacity:1; 
stroke-linecap:round; stroke-linejoin:round;">
<path d="M26.3177 36.1275
L26.7923 36.1275
" />
<path d="M26.3177 37.1725
L26.7923 37.1725
" />
<path d="M26.8950 32.7906
L26.8950 32.5094
" />
<path d="M27.9150 32.7906
L27.9150 32.5094
" />
<path d="M18.3150 27.2094
L18.3150 27.4906
" />
<path d="M17.2950 27.2094
L17.2950 27.4906
" />
<path d="M2.9677 43.7275
L3.4423 43.7275
" />
<path d="M2.9677 44.7725
L3.4423 44.7725
" />
<path d="M21.8275 47.0127
L21.8275 47.4873
" />
<path d="M20.7825 47.0127
L20.7825 47.4873
" />
<path d="M16.2300 24.4250
L15.9700 24.4250
" />
<path d="M15.9700 24.4250
L15.9700 22.7500
" />
<path d="M10.7800 24.4250
L11.0400 24.4250
" />
<path d="M16.2300 27.1500
L16.2300 24.4250
" />
<path d="M16.2300 27.1500
L16.2300 29.8750
" />
<path d="M10.7800 27.1500
L10.7800 24.4250
" />
<path d="M10.7800 27.1500
L10.7800 29.8750
" />
<path d="M16.2300 29.8750
L15.9700 29.8750
" />
<path d="M10.7800 29.8750
L11.0400 29.8750
" />
<path d="M27.6050 63.0700
L25.6050 63.0700
" />
<path d="M25.6050 60.8300
L26.6050 60.8300
" />
</g>
<g style="fill:#F2EDA1; fill-opacity:0.0; 
stroke:#F2EDA1; stroke-width:0.1270; stroke-opacity:1; 
stroke-linecap:round; stroke-linejoin:round;">
<path d="M19.8550 45.9300
L18.5550 45.9300
" />
<path d="M19.8550 49.3700
L18.5550 49.3700
" />
</g>
<g style="fill:#F2EDA1; fill-opacity:0.0; 
stroke:#F2EDA1; stroke-width:0.2000; stroke-opacity:1; 
stroke-linecap:round; stroke-linejoin:round;">
<circle cx="19.2050" cy="45.4300" r="0.1000" /> 
</g>
<g style="fill:#F2EDA1; fill-opacity:0.0; 
stroke:#F2EDA1; stroke-width:0.1200; stroke-opacity:1; 
stroke-linecap:round; stroke-linejoin:round;">
<path d="M10.7644 55.2400
L11.0456 55.2400
" />
<path d="M10.7644 56.2600
L11.0456 56.2600
" />
<path d="M18.8825 24.4873
L18.8825 24.0127
" />
<path d="M19.9275 24.4873
L19.9275 24.0127
" />
</g>
<g style="fill:#F2EDA1; fill-opacity:0.0; 
stroke:#F2EDA1; stroke-width:0.1270; stroke-opacity:1; 
stroke-linecap:round; stroke-linejoin:round;">
<path d="M1.1550 39.6000
L1.1550 43.1000
" />
<path d="M8.6550 39.6000
L1.1550 39.6000
" />
<path d="M8.6550 43.1000
L1.1550 43.1000
" />
<path d="M8.6550 43.1000
L8.6550 39.6000
" />
</g>
<g style="fill:#F2EDA1; fill-opacity:0.0; 
stroke:#F2EDA1; stroke-width:0.1200; stroke-opacity:1; 
stroke-linecap:round; stroke-linejoin:round;">
<path d="M28.0950 61.8606
L28.0950 61.5794
" />
<path d="M29.1150 61.8606
L29.1150 61.5794
" />
<path d="M26.6456 41.1600
L26.3644 41.1600
" />
<path d="M26.6456 40.1400
L26.3644 40.1400
" />
<path d="M3.6700 20.0750
L5.2200 20.0750
" />
<path d="M3.6700 20.0750
L3.6700 20.3750
" />
<path d="M0.8700 20.3750
L3.6700 20.3750
" />
<path d="M6.9200 22.5250
L6.9200 23.3250
" />
<path d="M6.4700 22.9250
L6.9200 22.5250
" />
<path d="M6.9200 23.3250
L6.4700 22.9250
" />
<path d="M3.6700 28.0750
L3.6700 28.3750
" />
<path d="M0.8700 28.0750
L3.6700 28.0750
" />
<path d="M3.6700 28.3750
L5.2200 28.3750
" />
</g>
<g style="fill:#F2EDA1; fill-opacity:0.0; 
stroke:#F2EDA1; stroke-width:0.1270; stroke-opacity:1; 
stroke-linecap:round; stroke-linejoin:round;">
<path d="M12.3872 7.3500
L12.3872 9.3500
" />
<path d="M13.3872 5.3500
L17.3872 5.3500
" />
<path d="M13.3872 11.3500
L17.3872 11.3500
" />
<path d="M18.3872 7.3500
L18.3872 9.3500
" />
</g>
<g style="fill:#F2EDA1; fill-opacity:0.0; 
stroke:#F2EDA1; stroke-width:0.2000; stroke-opacity:1; 
stroke-linecap:round; stroke-linejoin:round;">
<circle cx="10.6542" cy="6.0789" r="0.1000" /> 
</g>
<g style="fill:#F2EDA1; fill-opacity:0.0; 
stroke:#F2EDA1; stroke-width:0.1270; stroke-opacity:1; 
stroke-linecap:round; stroke-linejoin:round;">
<circle cx="15.3872" cy="8.3500" r="1.1180" /> 
</g>
<g style="fill:#F2EDA1; fill-opacity:0.0; 
stroke:#F2EDA1; stroke-width:0.1200; stroke-opacity:1; 
stroke-linecap:round; stroke-linejoin:round;">
<path d="M26.7923 35.5725
L26.3177 35.5725
" />
<path d="M26.7923 34.5275
L26.3177 34.5275
" />
</g>
<g style="fill:#F2EDA1; fill-opacity:0.0; 
stroke:#F2EDA1; stroke-width:0.1270; stroke-opacity:1; 
stroke-linecap:round; stroke-linejoin:round;">
<path d="M21.7695 7.3500
L21.7695 9.3500
" />
<path d="M22.7695 5.3500
L26.7695 5.3500
" />
<path d="M22.7695 11.3500
L26.7695 11.3500
" />
<path d="M27.7695 7.3500
L27.7695 9.3500
" />
</g>
<g style="fill:#F2EDA1; fill-opacity:0.0; 
stroke:#F2EDA1; stroke-width:0.2000; stroke-opacity:1; 
stroke-linecap:round; stroke-linejoin:round;">
<circle cx="20.0365" cy="6.0789" r="0.1000" /> 
</g>
<g style="fill:#F2EDA1; fill-opacity:0.0; 
stroke:#F2EDA1; stroke-width:0.1270; stroke-opacity:1; 
stroke-linecap:round; stroke-linejoin:round;">
<circle cx="24.7695" cy="8.3500" r="1.1180" /> 
</g>
<g style="fill:#F2EDA1; fill-opacity:0.0; 
stroke:#F2EDA1; stroke-width:0.1200; stroke-opacity:1; 
stroke-linecap:round; stroke-linejoin:round;">
<path d="M15.3644 34.7400
L15.6456 34.7400
" />
<path d="M15.3644 35.7600
L15.6456 35.7600
" />
</g>
<g style="fill:#F2EDA1; fill-opacity:0.0; 
stroke:#F2EDA1; stroke-width:0.1270; stroke-opacity:1; 
stroke-linecap:round; stroke-linejoin:round;">
<path d="M12.3872 15.3000
L12.3872 17.3000
" />
<path d="M13.3872 13.3000
L17.3872 13.3000
" />
<path d="M13.3872 19.3000
L17.3872 19.3000
" />
<path d="M18.3872 15.3000
L18.3872 17.3000
" />
</g>
<g style="fill:#F2EDA1; fill-opacity:0.0; 
stroke:#F2EDA1; stroke-width:0.2000; stroke-opacity:1; 
stroke-linecap:round; stroke-linejoin:round;">
<circle cx="10.6542" cy="14.0289" r="0.1000" /> 
</g>
<g style="fill:#F2EDA1; fill-opacity:0.0; 
stroke:#F2EDA1; stroke-width:0.1270; stroke-opacity:1; 
stroke-linecap:round; stroke-linejoin:round;">
<circle cx="15.3872" cy="16.3000" r="1.1180" /> 
<path d="M3.0050 7.3500
L3.0050 9.3500
" />
<path d="M4.0050 5.3500
L8.0050 5.3500
" />
<path d="M4.0050 11.3500
L8.0050 11.3500
" />
<path d="M9.0050 7.3500
L9.0050 9.3500
" />
</g>
<g style="fill:#F2EDA1; fill-opacity:0.0; 
stroke:#F2EDA1; stroke-width:0.2000; stroke-opacity:1; 
stroke-linecap:round; stroke-linejoin:round;">
<circle cx="1.2720" cy="6.0789" r="0.1000" /> 
</g>
<g style="fill:#F2EDA1; fill-opacity:0.0; 
stroke:#F2EDA1; stroke-width:0.1270; stroke-opacity:1; 
stroke-linecap:round; stroke-linejoin:round;">
<circle cx="6.0050" cy="8.3500" r="1.1180" /> 
<path d="M3.0050 15.3000
L3.0050 17.3000
" />
<path d="M4.0050 13.3000
L8.0050 13.3000
" />
<path d="M4.0050 19.3000
L8.0050 19.3000
" />
<path d="M9.0050 15.3000
L9.0050 17.3000
" />
</g>
<g style="fill:#F2EDA1; fill-opacity:0.0; 
stroke:#F2EDA1; stroke-width:0.2000; stroke-opacity:1; 
stroke-linecap:round; stroke-linejoin:round;">
<circle cx="1.2720" cy="14.0289" r="0.1000" /> 
</g>
<g style="fill:#F2EDA1; fill-opacity:0.0; 
stroke:#F2EDA1; stroke-width:0.1270; stroke-opacity:1; 
stroke-linecap:round; stroke-linejoin:round;">
<circle cx="6.0050" cy="16.3000" r="1.1180" /> 
<path d="M1.1550 31.1500
L1.1550 34.6500
" />
<path d="M8.6550 31.1500
L1.1550 31.1500
" />
<path d="M8.6550 34.6500
L1.1550 34.6500
" />
<path d="M8.6550 34.6500
L8.6550 31.1500
" />
<path d="M40.7050 85.4800
L40.7050 83.4800
" />
<path d="M39.7050 84.4800
L41.7050 84.4800
" />
<path d="M30.2150 82.3300
L30.2150 5.3700
" />
<path d="M51.1950 82.3300
L30.2150 82.3300
" />
<path d="M30.2150 5.3700
L51.1950 5.3700
" />
<path d="M51.1950 5.3700
L51.1950 82.3300
" />
<path d="M40.7050 4.2200
L40.7050 2.2200
" />
<path d="M25.6075 56.7250
L26.4275 56.7250
" />
<path d="M25.6075 58.3750
L26.4275 58.3750
" />
</g>
<g style="fill:#F2EDA1; fill-opacity:0.0; 
stroke:#F2EDA1; stroke-width:0.2000; stroke-opacity:1; 
stroke-linecap:round; stroke-linejoin:round;">
<circle cx="23.1075" cy="57.5500" r="0.1000" /> 
</g>
<g style="fill:#F2EDA1; fill-opacity:0.0; 
stroke:#F2EDA1; stroke-width:0.1200; stroke-opacity:1; 
stroke-linecap:round; stroke-linejoin:round;">
<path d="M20.4950 32.7906
L20.4950 32.5094
" />
<path d="M21.5150 32.7906
L21.5150 32.5094
" />
<path d="M24.4950 32.7906
L24.4950 32.5094
" />
<path d="M25.5150 32.7906
L25.5150 32.5094
" />
</g>
<g style="fill:#F2EDA1; fill-opacity:0.0; 
stroke:#F2EDA1; stroke-width:0.1270; stroke-opacity:1; 
stroke-linecap:round; stroke-linejoin:round;">
<path d="M21.7695 15.3000
L21.7695 17.3000
" />
<path d="M22.7695 13.3000
L26.7695 13.3000
" />
<path d="M22.7695 19.3000
L26.7695 19.3000
" />
<path d="M27.7695 15.3000
L27.7695 17.3000
" />
</g>
<g style="fill:#F2EDA1; fill-opacity:0.0; 
stroke:#F2EDA1; stroke-width:0.2000; stroke-opacity:1; 
stroke-linecap:round; stroke-linejoin:round;">
<circle cx="20.0365" cy="14.0289" r="0.1000" /> 
</g>
<g style="fill:#F2EDA1; fill-opacity:0.0; 
stroke:#F2EDA1; stroke-width:0.1270; stroke-opacity:1; 
stroke-linecap:round; stroke-linejoin:round;">
<circle cx="24.7695" cy="16.3000" r="1.1180" /> 
</g>
<g style="fill:#F2EDA1; fill-opacity:0.0; 
stroke:#F2EDA1; stroke-width:0.1200; stroke-opacity:1; 
stroke-linecap:round; stroke-linejoin:round;">
<path d="M13.4644 40.9400
L13.7456 40.9400
" />
<path d="M13.4644 41.9600
L13.7456 41.9600
" />
<path d="M26.6456 39.5600
L26.3644 39.5600
" />
<path d="M26.6456 38.5400
L26.3644 38.5400
" />
</g>
<g style="fill:#F2EDA1; fill-opacity:0.0; 
stroke:#F2EDA1; stroke-width:0.1270; stroke-opacity:1; 
stroke-linecap:round; stroke-linejoin:round;">
<path d="M1.1550 35.4000
L1.1550 38.9000
" />
<path d="M8.6550 35.4000
L1.1550 35.4000
" />
<path d="M8.6550 38.9000
L1.1550 38.9000
" />
<path d="M8.6550 38.9000
L8.6550 35.4000
" />
</g>
<g style="fill:#F2EDA1; fill-opacity:0.0; 
stroke:#F2EDA1; stroke-width:0.1200; stroke-opacity:1; 
stroke-linecap:round; stroke-linejoin:round;">
<path d="M3.4423 46.3725
L2.9677 46.3725
" />
<path d="M3.4423 45.3275
L2.9677 45.3275
" />
<path d="M7.8150 50.1094
L7.8150 50.3906
" />
<path d="M6.7950 50.1094
L6.7950 50.3906
" />
</g>
<g style="fill:#F2EDA1; fill-opacity:0.0; 
stroke:#F2EDA1; stroke-width:0.1270; stroke-opacity:1; 
stroke-linecap:round; stroke-linejoin:round;">
<path d="M22.6300 63.7525
L22.6300 64.5725
" />
<path d="M20.9800 63.7525
L20.9800 64.5725
" />
</g>
<g style="fill:#F2EDA1; fill-opacity:0.0; 
stroke:#F2EDA1; stroke-width:0.2000; stroke-opacity:1; 
stroke-linecap:round; stroke-linejoin:round;">
<circle cx="21.8050" cy="61.2525" r="0.1000" /> 
</g>
<g style="fill:#F2EDA1; fill-opacity:0.0; 
stroke:#F2EDA1; stroke-width:0.1200; stroke-opacity:1; 
stroke-linecap:round; stroke-linejoin:round;">
<path d="M17.2950 24.3906
L17.2950 24.1094
" />
<path d="M18.3150 24.3906
L18.3150 24.1094
" />
</g>
<g style="fill:#F2EDA1; fill-opacity:0.0; 
stroke:#F2EDA1; stroke-width:0.1270; stroke-opacity:1; 
stroke-linecap:round; stroke-linejoin:round;">
<path d="M21.7695 23.2500
L21.7695 25.2500
" />
<path d="M22.7695 21.2500
L26.7695 21.2500
" />
<path d="M22.7695 27.2500
L26.7695 27.2500
" />
<path d="M27.7695 23.2500
L27.7695 25.2500
" />
</g>
<g style="fill:#F2EDA1; fill-opacity:0.0; 
stroke:#F2EDA1; stroke-width:0.2000; stroke-opacity:1; 
stroke-linecap:round; stroke-linejoin:round;">
<circle cx="20.0365" cy="21.9789" r="0.1000" /> 
</g>
<g style="fill:#F2EDA1; fill-opacity:0.0; 
stroke:#F2EDA1; stroke-width:0.1270; stroke-opacity:1; 
stroke-linecap:round; stroke-linejoin:round;">
<circle cx="24.7695" cy="24.2500" r="1.1180" /> 
</g>
<g style="fill:#F2EDA1; fill-opacity:0.0; 
stroke:#F2EDA1; stroke-width:0.1200; stroke-opacity:1; 
stroke-linecap:round; stroke-linejoin:round;">
<path d="M23.6950 46.7906
L23.6950 46.5094
" />
<path d="M24.7150 46.7906
L24.7150 46.5094
" />
<path d="M17.7150 47.1094
L17.7150 47.3906
" />
<path d="M16.6950 47.1094
L16.6950 47.3906
" />
<path d="M24.1644 59.3400
L24.4456 59.3400
" />
<path d="M24.1644 60.3600
L24.4456 60.3600
" />
<path d="M20.1950 55.0128
L20.1950 54.6872
" />
<path d="M21.2150 55.0128
L21.2150 54.6872
" />
</g>
<g style="fill:#F2EDA1; fill-opacity:0.0; 
stroke:#F2EDA1; stroke-width:0.1000; stroke-opacity:1; 
stroke-linecap:round; stroke-linejoin:round;">
<path d="M2.2500 57.6250
L2.2500 60.1250
" />
<path d="M2.2500 65.3250
L2.2500 74.8250
" />
<path d="M2.2500 74.8250
L14.9500 74.8250
" />
<path d="M5.0500 57.6250
L2.2500 57.6250
" />
<path d="M12.2500 57.6250
L14.9500 57.6250
" />
<path d="M14.9500 57.6250
L14.9500 60.1250
" />
<path d="M14.9500 74.8250
L14.9500 67.3250
" />
<path d="M14.6500 74.4250
L2.6500 74.4250
" />
<path d="M2.6500 74.4250
L2.6500 68.9250
" />
<path d="M2.6500 68.9250
L14.6500 68.9250
" />
<path d="M14.6500 68.9250
L14.6500 74.4250
" />
</g>
<g style="fill:#F2EDA1; fill-opacity:0.0; 
stroke:#F2EDA1; stroke-width:0.1200; stroke-opacity:1; 
stroke-linecap:round; stroke-linejoin:round;">
<path d="M8.3275 25.0127
L8.3275 25.4873
" />
<path d="M7.2825 25.0127
L7.2825 25.4873
" />
<path d="M22.8950 32.7906
L22.8950 32.5094
" />
<path d="M23.9150 32.7906
L23.9150 32.5094
" />
<path d="M23.3644 51.9400
L23.6456 51.9400
" />
<path d="M23.3644 52.9600
L23.6456 52.9600
" />
<path d="M28.4950 32.7906
L28.4950 32.5094
" />
<path d="M29.5150 32.7906
L29.5150 32.5094
" />
</g>
<g style="fill:#F2EDA1; fill-opacity:0.0; 
stroke:#F2EDA1; stroke-width:0.1270; stroke-opacity:1; 
stroke-linecap:round; stroke-linejoin:round;">
<path d="M6.2050 51.2500
L6.2050 47.2500
" />
<path d="M3.2050 47.2500
L3.2050 51.2500
" />
</g>
<g style="fill:#F2EDA1; fill-opacity:1.0000; 
stroke:#F2EDA1; stroke-width:0.0000; stroke-opacity:1; 
stroke-linecap:round; stroke-linejoin:round;">
<circle cx="3.3050" cy="51.4500" r="0.1000" /> 
<g >
</g>
<g >
</g>
<g >
</g>
<g >
</g>
<g >
</g>
<g >
</g>
<g >
</g>
<g >
</g>
<g >
</g>
<g >
</g>
<g >
</g>
<g >
</g>
<g >
</g>
<g >
</g>
<g >
</g>
<g >
</g>
<g >
</g>
<g >
</g>
<g >
</g>
<g >
</g>
<g >
</g>
<g >
</g>
<g >
</g>
<g >
</g>
<g >
</g>
<g >
</g>
<g >
</g>
<g >
</g>
<g >
</g>
<g >
</g>
<g >
</g>
<g >
</g>
<g >
</g>
<g >
</g>
<g >
</g>
<g >
</g>
<g >
</g>
<g >
</g>
<g >
</g>
<g >
</g>
<g >
</g>
<g >
</g>
<g >
</g>
<g >
</g>
<g >
</g>
<g >
</g>
<g >
</g>
<g >
</g>
<g >
</g>
<g >
</g>
<g >
</g>
<g >
</g>
<g >
</g>
<g >
</g>
<g >
</g>
</g>
<g style="fill:#000000; fill-opacity:1.0000; 
stroke:#000000; stroke-width:0.0000; stroke-opacity:1; 
stroke-linecap:round; stroke-linejoin:round;">
</g>
<g style="fill:#D0D2CD; fill-opacity:1.0000; 
stroke:#D0D2CD; stroke-width:0.0000; stroke-opacity:1; 
stroke-linecap:round; stroke-linejoin:round;">
</g>
<g style="fill:#D0D2CD; fill-opacity:1.0000; 
stroke:#D0D2CD; stroke-width:0.1000; stroke-opacity:1; 
stroke-linecap:round; stroke-linejoin:round;">
</g>
<g style="fill:#D0D2CD; fill-opacity:0.0; 
stroke:#D0D2CD; stroke-width:0.1000; stroke-opacity:1; 
stroke-linecap:round; stroke-linejoin:round;">
<path style="fill:#D0D2CD; fill-opacity:0.0; 
stroke:#D0D2CD; stroke-width:0.1000; stroke-opacity:1; 
stroke-linecap:round; stroke-linejoin:round;fill:none"
d="M 54.6050,87.0500
28.6050,87.0500
28.6050,68.0500
12.6050,68.0500
0.6050,68.0500
0.6050,62.0500
0.6050,0.0500
54.6050,0.0500
Z" /> 
<g >
</g>
<g >
</g>
<g >
</g>
<g >
</g>
<g >
</g>
<g >
</g>
<g >
</g>
<g >
</g>
<g >
</g>
<g >
</g>
<g >
</g>
<g >
</g>
<g >
</g>
<g >
</g>
<g >
</g>
<g >
</g>
<g >
</g>
<g >
</g>
<g >
</g>
<g >
</g>
<g >
</g>
<g >
</g>
<g >
</g>
<g >
</g>
<g >
</g>
<g >
</g>
<g >
</g>
<g >
</g>
<g >
</g>
<g >
</g>
<g >
</g>
<g >
</g>
<g >
</g>
<g >
</g>
<g >
</g>
<g >
</g>
<g >
</g>
<g >
</g>
<g >
</g>
<g >
</g>
<g >
</g>
<g >
</g>
<g >
</g>
<g >
</g>
<g >
</g>
<g >
</g>
<g >
</g>
<g >
</g>
<g >
</g>
<g >
</g>
<g >
</g>
<g >
</g>
<g >
</g>
<g >
</g>
<g >
</g>
</g> 
</svg>
