M48
; DRILL file {KiCad 7.0.10} date Mon Dec  9 12:22:42 2024
; FORMAT={-:-/ absolute / metric / decimal}
; #@! TF.CreationDate,2024-12-09T12:22:42+01:00
; #@! TF.GenerationSoftware,Kicad,Pcbnew,7.0.10
; #@! TF.FileFunction,Plated,1,2,PTH
FMAT,2
METRIC
; #@! TA.AperFunction,Plated,PTH,ViaDrill
T1C0.500
; #@! TA.AperFunction,Plated,PTH,ComponentDrill
T2C0.650
; #@! TA.AperFunction,Plated,PTH,ComponentDrill
T3C0.700
; #@! TA.AperFunction,Plated,PTH,ComponentDrill
T4C0.730
; #@! TA.AperFunction,Plated,PTH,ComponentDrill
T5C0.990
; #@! TA.AperFunction,Plated,PTH,ComponentDrill
T6C1.380
%
G90
G05
T1
X124.625Y-105.0
X126.3Y-113.2
X126.9Y-123.7
X127.0Y-122.2
X127.0Y-125.7
X127.5Y-86.5
X127.6Y-92.706
X129.1Y-117.3
X130.7Y-109.0
X131.1Y-120.1
X132.1Y-116.7
X133.1Y-120.0
X134.9Y-102.4
X135.07Y-100.592
X135.2Y-82.9
X135.858Y-100.061
X135.9Y-101.3
X136.55Y-86.1
X136.7Y-96.2
X136.7Y-99.5
X136.7Y-100.6
X136.8Y-125.7
X136.89Y-106.01
X136.9Y-127.7
X137.0Y-94.275
X137.225Y-107.3
X137.5Y-86.1
X137.506Y-100.096
X137.735Y-105.577
X137.874Y-94.675
X138.275Y-88.15
X138.275Y-89.1
X138.4Y-120.7
X138.45Y-86.1
X138.686Y-105.573
X138.735Y-95.076
X139.4Y-106.2
X139.4Y-123.6
X139.8Y-91.9
X140.1Y-84.6
X140.6Y-110.2
X140.741Y-96.359
X141.2Y-90.3
X142.7Y-105.9
X143.5Y-103.4
X144.4Y-91.7
X144.975Y-95.9
X145.9Y-111.8
X146.257Y-95.657
X146.8Y-91.7
X150.1Y-120.8
X150.425Y-108.0
X150.8Y-91.5
X151.5Y-114.9
X152.1Y-100.0
T4
X126.05Y-94.3
X126.05Y-98.55
X126.05Y-102.75
X127.55Y-94.3
X127.55Y-98.55
X127.55Y-102.75
X129.05Y-94.3
X129.05Y-98.55
X129.05Y-102.75
X130.55Y-94.3
X130.55Y-98.55
X130.55Y-102.75
T5
X126.15Y-67.05
X126.15Y-71.55
X126.15Y-75.0
X126.15Y-79.5
X132.65Y-67.05
X132.65Y-71.55
X132.65Y-75.0
X132.65Y-79.5
X135.532Y-67.05
X135.532Y-71.55
X135.532Y-75.0
X135.532Y-79.5
X142.032Y-67.05
X142.032Y-71.55
X142.032Y-75.0
X142.032Y-79.5
X144.915Y-67.05
X144.915Y-71.55
X144.915Y-75.0
X144.915Y-79.5
X144.915Y-82.95
X144.915Y-87.45
X151.415Y-67.05
X151.415Y-71.55
X151.415Y-75.0
X151.415Y-79.5
X151.415Y-82.95
X151.415Y-87.45
T2
G00X128.685Y-82.755
M15
G01X129.085Y-82.755
M16
G05
G00X128.685Y-87.595
M15
G01X129.085Y-87.595
M16
G05
T3
G00X125.635Y-82.445
M15
G01X126.135Y-82.445
M16
G05
G00X125.635Y-87.905
M15
G01X126.135Y-87.905
M16
G05
T6
G00X163.59Y-68.2
M15
G01X164.61Y-68.2
M16
G05
G00X163.59Y-141.1
M15
G01X164.61Y-141.1
M16
G05
M30
