%TF.GenerationSoftware,KiCad,Pcbnew,7.0.10*%
%TF.CreationDate,2024-12-09T12:22:18+01:00*%
%TF.ProjectId,dalmierz,64616c6d-6965-4727-9a2e-6b696361645f,rev?*%
%TF.SameCoordinates,Original*%
%TF.FileFunction,Soldermask,Top*%
%TF.FilePolarity,Negative*%
%FSLAX46Y46*%
G04 Gerber Fmt 4.6, Leading zero omitted, Abs format (unit mm)*
G04 Created by KiCad (PCBNEW 7.0.10) date 2024-12-09 12:22:18*
%MOMM*%
%LPD*%
G01*
G04 APERTURE LIST*
G04 Aperture macros list*
%AMRoundRect*
0 Rectangle with rounded corners*
0 $1 Rounding radius*
0 $2 $3 $4 $5 $6 $7 $8 $9 X,Y pos of 4 corners*
0 Add a 4 corners polygon primitive as box body*
4,1,4,$2,$3,$4,$5,$6,$7,$8,$9,$2,$3,0*
0 Add four circle primitives for the rounded corners*
1,1,$1+$1,$2,$3*
1,1,$1+$1,$4,$5*
1,1,$1+$1,$6,$7*
1,1,$1+$1,$8,$9*
0 Add four rect primitives between the rounded corners*
20,1,$1+$1,$2,$3,$4,$5,0*
20,1,$1+$1,$4,$5,$6,$7,0*
20,1,$1+$1,$6,$7,$8,$9,0*
20,1,$1+$1,$8,$9,$2,$3,0*%
G04 Aperture macros list end*
%ADD10C,0.010000*%
%ADD11RoundRect,0.225000X-0.250000X0.225000X-0.250000X-0.225000X0.250000X-0.225000X0.250000X0.225000X0*%
%ADD12RoundRect,0.225000X0.250000X-0.225000X0.250000X0.225000X-0.250000X0.225000X-0.250000X-0.225000X0*%
%ADD13RoundRect,0.050000X-0.387500X-0.050000X0.387500X-0.050000X0.387500X0.050000X-0.387500X0.050000X0*%
%ADD14RoundRect,0.050000X-0.050000X-0.387500X0.050000X-0.387500X0.050000X0.387500X-0.050000X0.387500X0*%
%ADD15R,3.200000X3.200000*%
%ADD16RoundRect,0.200000X0.275000X-0.200000X0.275000X0.200000X-0.275000X0.200000X-0.275000X-0.200000X0*%
%ADD17RoundRect,0.225000X-0.225000X-0.250000X0.225000X-0.250000X0.225000X0.250000X-0.225000X0.250000X0*%
%ADD18RoundRect,0.200000X-0.200000X-0.275000X0.200000X-0.275000X0.200000X0.275000X-0.200000X0.275000X0*%
%ADD19RoundRect,0.200000X-0.275000X0.200000X-0.275000X-0.200000X0.275000X-0.200000X0.275000X0.200000X0*%
%ADD20RoundRect,0.150000X-0.150000X0.650000X-0.150000X-0.650000X0.150000X-0.650000X0.150000X0.650000X0*%
%ADD21R,0.500000X0.250000*%
%ADD22R,0.900000X1.600000*%
%ADD23RoundRect,0.102000X-0.950000X0.200000X-0.950000X-0.200000X0.950000X-0.200000X0.950000X0.200000X0*%
%ADD24RoundRect,0.102000X-0.619000X-0.619000X0.619000X-0.619000X0.619000X0.619000X-0.619000X0.619000X0*%
%ADD25C,1.442000*%
%ADD26RoundRect,0.225000X0.225000X0.250000X-0.225000X0.250000X-0.225000X-0.250000X0.225000X-0.250000X0*%
%ADD27R,1.650000X0.400000*%
%ADD28R,0.700000X1.825000*%
%ADD29R,1.500000X2.000000*%
%ADD30R,2.000000X1.350000*%
%ADD31O,1.700000X1.350000*%
%ADD32O,1.500000X1.100000*%
%ADD33R,2.500000X1.430000*%
%ADD34RoundRect,0.102000X-0.749000X-0.749000X0.749000X-0.749000X0.749000X0.749000X-0.749000X0.749000X0*%
%ADD35C,1.702000*%
%ADD36RoundRect,0.200000X0.200000X0.275000X-0.200000X0.275000X-0.200000X-0.275000X0.200000X-0.275000X0*%
%ADD37C,3.200000*%
%ADD38O,4.344000X2.274000*%
%ADD39RoundRect,0.102000X-0.840000X-0.505000X0.840000X-0.505000X0.840000X0.505000X-0.840000X0.505000X0*%
%ADD40RoundRect,0.102000X-0.505000X0.840000X-0.505000X-0.840000X0.505000X-0.840000X0.505000X0.840000X0*%
%ADD41RoundRect,0.218750X0.256250X-0.218750X0.256250X0.218750X-0.256250X0.218750X-0.256250X-0.218750X0*%
%ADD42R,1.000000X1.000000*%
%ADD43RoundRect,0.125610X0.111390X-0.431390X0.111390X0.431390X-0.111390X0.431390X-0.111390X-0.431390X0*%
%ADD44RoundRect,0.102000X0.900000X-1.200000X0.900000X1.200000X-0.900000X1.200000X-0.900000X-1.200000X0*%
G04 APERTURE END LIST*
%TO.C,U2*%
D10*
X146650000Y-114980000D02*
X145700000Y-114980000D01*
X145700000Y-114580000D01*
X146650000Y-114580000D01*
X146650000Y-114980000D01*
G36*
X146650000Y-114980000D02*
G01*
X145700000Y-114980000D01*
X145700000Y-114580000D01*
X146650000Y-114580000D01*
X146650000Y-114980000D01*
G37*
X146650000Y-115480000D02*
X145700000Y-115480000D01*
X145700000Y-115080000D01*
X146650000Y-115080000D01*
X146650000Y-115480000D01*
G36*
X146650000Y-115480000D02*
G01*
X145700000Y-115480000D01*
X145700000Y-115080000D01*
X146650000Y-115080000D01*
X146650000Y-115480000D01*
G37*
X146650000Y-115980000D02*
X145700000Y-115980000D01*
X145700000Y-115580000D01*
X146650000Y-115580000D01*
X146650000Y-115980000D01*
G36*
X146650000Y-115980000D02*
G01*
X145700000Y-115980000D01*
X145700000Y-115580000D01*
X146650000Y-115580000D01*
X146650000Y-115980000D01*
G37*
X146650000Y-116480000D02*
X145700000Y-116480000D01*
X145700000Y-116080000D01*
X146650000Y-116080000D01*
X146650000Y-116480000D01*
G36*
X146650000Y-116480000D02*
G01*
X145700000Y-116480000D01*
X145700000Y-116080000D01*
X146650000Y-116080000D01*
X146650000Y-116480000D01*
G37*
X146650000Y-116980000D02*
X145700000Y-116980000D01*
X145700000Y-116580000D01*
X146650000Y-116580000D01*
X146650000Y-116980000D01*
G36*
X146650000Y-116980000D02*
G01*
X145700000Y-116980000D01*
X145700000Y-116580000D01*
X146650000Y-116580000D01*
X146650000Y-116980000D01*
G37*
X148050000Y-116830000D02*
X146750000Y-116830000D01*
X146750000Y-114730000D01*
X148050000Y-114730000D01*
X148050000Y-116830000D01*
G36*
X148050000Y-116830000D02*
G01*
X146750000Y-116830000D01*
X146750000Y-114730000D01*
X148050000Y-114730000D01*
X148050000Y-116830000D01*
G37*
X149100000Y-114980000D02*
X148150000Y-114980000D01*
X148150000Y-114580000D01*
X149100000Y-114580000D01*
X149100000Y-114980000D01*
G36*
X149100000Y-114980000D02*
G01*
X148150000Y-114980000D01*
X148150000Y-114580000D01*
X149100000Y-114580000D01*
X149100000Y-114980000D01*
G37*
X149100000Y-115480000D02*
X148150000Y-115480000D01*
X148150000Y-115080000D01*
X149100000Y-115080000D01*
X149100000Y-115480000D01*
G36*
X149100000Y-115480000D02*
G01*
X148150000Y-115480000D01*
X148150000Y-115080000D01*
X149100000Y-115080000D01*
X149100000Y-115480000D01*
G37*
X149100000Y-115980000D02*
X148150000Y-115980000D01*
X148150000Y-115580000D01*
X149100000Y-115580000D01*
X149100000Y-115980000D01*
G36*
X149100000Y-115980000D02*
G01*
X148150000Y-115980000D01*
X148150000Y-115580000D01*
X149100000Y-115580000D01*
X149100000Y-115980000D01*
G37*
X149100000Y-116480000D02*
X148150000Y-116480000D01*
X148150000Y-116080000D01*
X149100000Y-116080000D01*
X149100000Y-116480000D01*
G36*
X149100000Y-116480000D02*
G01*
X148150000Y-116480000D01*
X148150000Y-116080000D01*
X149100000Y-116080000D01*
X149100000Y-116480000D01*
G37*
X149100000Y-116980000D02*
X148150000Y-116980000D01*
X148150000Y-116580000D01*
X149100000Y-116580000D01*
X149100000Y-116980000D01*
G36*
X149100000Y-116980000D02*
G01*
X148150000Y-116980000D01*
X148150000Y-116580000D01*
X149100000Y-116580000D01*
X149100000Y-116980000D01*
G37*
%TD*%
D11*
%TO.C,C1*%
X150200000Y-114925000D03*
X150200000Y-116475000D03*
%TD*%
D12*
%TO.C,C21*%
X147100000Y-124975000D03*
X147100000Y-123425000D03*
%TD*%
D11*
%TO.C,C9*%
X149200000Y-106825000D03*
X149200000Y-108375000D03*
%TD*%
D13*
%TO.C,U1*%
X140662500Y-98600000D03*
X140662500Y-99000000D03*
X140662500Y-99400000D03*
X140662500Y-99800000D03*
X140662500Y-100200000D03*
X140662500Y-100600000D03*
X140662500Y-101000000D03*
X140662500Y-101400000D03*
X140662500Y-101800000D03*
X140662500Y-102200000D03*
X140662500Y-102600000D03*
X140662500Y-103000000D03*
X140662500Y-103400000D03*
X140662500Y-103800000D03*
D14*
X141500000Y-104637500D03*
X141900000Y-104637500D03*
X142300000Y-104637500D03*
X142700000Y-104637500D03*
X143100000Y-104637500D03*
X143500000Y-104637500D03*
X143900000Y-104637500D03*
X144300000Y-104637500D03*
X144700000Y-104637500D03*
X145100000Y-104637500D03*
X145500000Y-104637500D03*
X145900000Y-104637500D03*
X146300000Y-104637500D03*
X146700000Y-104637500D03*
D13*
X147537500Y-103800000D03*
X147537500Y-103400000D03*
X147537500Y-103000000D03*
X147537500Y-102600000D03*
X147537500Y-102200000D03*
X147537500Y-101800000D03*
X147537500Y-101400000D03*
X147537500Y-101000000D03*
X147537500Y-100600000D03*
X147537500Y-100200000D03*
X147537500Y-99800000D03*
X147537500Y-99400000D03*
X147537500Y-99000000D03*
X147537500Y-98600000D03*
D14*
X146700000Y-97762500D03*
X146300000Y-97762500D03*
X145900000Y-97762500D03*
X145500000Y-97762500D03*
X145100000Y-97762500D03*
X144700000Y-97762500D03*
X144300000Y-97762500D03*
X143900000Y-97762500D03*
X143500000Y-97762500D03*
X143100000Y-97762500D03*
X142700000Y-97762500D03*
X142300000Y-97762500D03*
X141900000Y-97762500D03*
X141500000Y-97762500D03*
D15*
X144100000Y-101200000D03*
%TD*%
D16*
%TO.C,R13*%
X131200000Y-83925000D03*
X131200000Y-82275000D03*
%TD*%
D17*
%TO.C,C17*%
X144625000Y-110500000D03*
X146175000Y-110500000D03*
%TD*%
D18*
%TO.C,R7*%
X149125000Y-97600000D03*
X150775000Y-97600000D03*
%TD*%
D12*
%TO.C,C14*%
X150800000Y-94375000D03*
X150800000Y-92825000D03*
%TD*%
D11*
%TO.C,C15*%
X141200000Y-87525000D03*
X141200000Y-89075000D03*
%TD*%
D18*
%TO.C,R3*%
X125775000Y-105200000D03*
X127425000Y-105200000D03*
%TD*%
D19*
%TO.C,R14*%
X144700000Y-107375000D03*
X144700000Y-109025000D03*
%TD*%
D20*
%TO.C,U4*%
X138805000Y-84500000D03*
X137535000Y-84500000D03*
X136265000Y-84500000D03*
X134995000Y-84500000D03*
X134995000Y-91700000D03*
X136265000Y-91700000D03*
X137535000Y-91700000D03*
X138805000Y-91700000D03*
%TD*%
D21*
%TO.C,U6*%
X150450000Y-123650000D03*
X150450000Y-123150000D03*
X150450000Y-122650000D03*
X150450000Y-122150000D03*
X148550000Y-122150000D03*
X148550000Y-122650000D03*
X148550000Y-123150000D03*
X148550000Y-123650000D03*
D22*
X149500000Y-122900000D03*
%TD*%
D23*
%TO.C,Y1*%
X142600000Y-107400000D03*
X142600000Y-108600000D03*
X142600000Y-109800000D03*
%TD*%
D17*
%TO.C,C3*%
X133525000Y-116700000D03*
X135075000Y-116700000D03*
%TD*%
D16*
%TO.C,R11*%
X142800000Y-86025000D03*
X142800000Y-84375000D03*
%TD*%
D24*
%TO.C,J2*%
X130550000Y-102750000D03*
D25*
X129050000Y-102750000D03*
X127550000Y-102750000D03*
X126050000Y-102750000D03*
%TD*%
D12*
%TO.C,C20*%
X152000000Y-123445000D03*
X152000000Y-121895000D03*
%TD*%
D26*
%TO.C,C6*%
X150675000Y-101600000D03*
X149125000Y-101600000D03*
%TD*%
D27*
%TO.C,J1*%
X128765000Y-83875000D03*
X128765000Y-84525000D03*
X128765000Y-85175000D03*
X128765000Y-85825000D03*
X128765000Y-86475000D03*
D28*
X127565000Y-82225000D03*
D29*
X128865000Y-82325000D03*
D30*
X126815000Y-82445000D03*
D31*
X125885000Y-82445000D03*
D32*
X128885000Y-82755000D03*
D33*
X125615000Y-84215000D03*
X125615000Y-86135000D03*
D32*
X128885000Y-87595000D03*
D31*
X125885000Y-87905000D03*
D30*
X126815000Y-87925000D03*
D29*
X128885000Y-88075000D03*
D28*
X127565000Y-88175000D03*
%TD*%
D34*
%TO.C,SW2*%
X135532250Y-67050000D03*
D35*
X142032250Y-67050000D03*
X135532250Y-71550000D03*
X142032250Y-71550000D03*
%TD*%
D36*
%TO.C,R9*%
X150775000Y-96000000D03*
X149125000Y-96000000D03*
%TD*%
D34*
%TO.C,SW1*%
X144914500Y-67050000D03*
D35*
X151414500Y-67050000D03*
X144914500Y-71550000D03*
X151414500Y-71550000D03*
%TD*%
D17*
%TO.C,C4*%
X138125000Y-96200000D03*
X139675000Y-96200000D03*
%TD*%
D34*
%TO.C,SW5*%
X135532250Y-75000000D03*
D35*
X142032250Y-75000000D03*
X135532250Y-79500000D03*
X142032250Y-79500000D03*
%TD*%
D34*
%TO.C,SW3*%
X126150000Y-67050000D03*
D35*
X132650000Y-67050000D03*
X126150000Y-71550000D03*
X132650000Y-71550000D03*
%TD*%
D34*
%TO.C,SW6*%
X126150000Y-75000000D03*
D35*
X132650000Y-75000000D03*
X126150000Y-79500000D03*
X132650000Y-79500000D03*
%TD*%
D24*
%TO.C,J7*%
X130550000Y-94300000D03*
D25*
X129050000Y-94300000D03*
X127550000Y-94300000D03*
X126050000Y-94300000D03*
%TD*%
D37*
%TO.C,BT1*%
X164100000Y-132605000D03*
X164100000Y-76990000D03*
D38*
X164100000Y-141100000D03*
X164100000Y-68200000D03*
%TD*%
D39*
%TO.C,D1*%
X147842500Y-118500000D03*
X150982500Y-118500000D03*
%TD*%
D12*
%TO.C,C11*%
X144400000Y-94375000D03*
X144400000Y-92825000D03*
%TD*%
%TO.C,C12*%
X148400000Y-94375000D03*
X148400000Y-92825000D03*
%TD*%
D34*
%TO.C,SW4*%
X144914500Y-75000000D03*
D35*
X151414500Y-75000000D03*
X144914500Y-79500000D03*
X151414500Y-79500000D03*
%TD*%
D17*
%TO.C,C5*%
X136225000Y-102400000D03*
X137775000Y-102400000D03*
%TD*%
D26*
%TO.C,C7*%
X150675000Y-100000000D03*
X149125000Y-100000000D03*
%TD*%
D24*
%TO.C,J3*%
X130550000Y-98550000D03*
D25*
X129050000Y-98550000D03*
X127550000Y-98550000D03*
X126050000Y-98550000D03*
%TD*%
D36*
%TO.C,R2*%
X127425000Y-106800000D03*
X125775000Y-106800000D03*
%TD*%
D11*
%TO.C,C19*%
X130700000Y-110425000D03*
X130700000Y-111975000D03*
%TD*%
D40*
%TO.C,D3*%
X145200000Y-123542500D03*
X145200000Y-126682500D03*
%TD*%
D12*
%TO.C,C18*%
X141200000Y-85975000D03*
X141200000Y-84425000D03*
%TD*%
D34*
%TO.C,SW7*%
X144914500Y-82950000D03*
D35*
X151414500Y-82950000D03*
X144914500Y-87450000D03*
X151414500Y-87450000D03*
%TD*%
D12*
%TO.C,C8*%
X147600000Y-108375000D03*
X147600000Y-106825000D03*
%TD*%
D11*
%TO.C,C16*%
X140600000Y-107425000D03*
X140600000Y-108975000D03*
%TD*%
D17*
%TO.C,C22*%
X146925000Y-120800000D03*
X148475000Y-120800000D03*
%TD*%
D41*
%TO.C,L1*%
X144100000Y-116587500D03*
X144100000Y-115012500D03*
%TD*%
D42*
%TO.C,B1*%
X125755000Y-125685000D03*
X125755000Y-123685000D03*
X125755000Y-121685000D03*
X129045000Y-118675000D03*
X131045000Y-118675000D03*
X133045000Y-118675000D03*
X135045000Y-118675000D03*
X138245000Y-121675000D03*
X138245000Y-123675000D03*
X138245000Y-125675000D03*
X138245000Y-127675000D03*
%TD*%
D19*
%TO.C,R12*%
X131200000Y-85375000D03*
X131200000Y-87025000D03*
%TD*%
D12*
%TO.C,C10*%
X146800000Y-94375000D03*
X146800000Y-92825000D03*
%TD*%
D17*
%TO.C,C2*%
X146125000Y-113400000D03*
X147675000Y-113400000D03*
%TD*%
D12*
%TO.C,C13*%
X152400000Y-94375000D03*
X152400000Y-92825000D03*
%TD*%
D43*
%TO.C,U5*%
X127125000Y-112100000D03*
X127775000Y-112100000D03*
X128425000Y-112100000D03*
X129075000Y-112100000D03*
X129075000Y-108300000D03*
X128425000Y-108300000D03*
X127775000Y-108300000D03*
X127125000Y-108300000D03*
D44*
X128100000Y-110200000D03*
%TD*%
M02*
