%TF.GenerationSoftware,KiCad,Pcbnew,7.0.10*%
%TF.CreationDate,2024-12-09T12:22:18+01:00*%
%TF.ProjectId,dalmierz,64616c6d-6965-4727-9a2e-6b696361645f,rev?*%
%TF.SameCoordinates,Original*%
%TF.FileFunction,Copper,L1,Top*%
%TF.FilePolarity,Positive*%
%FSLAX46Y46*%
G04 Gerber Fmt 4.6, Leading zero omitted, Abs format (unit mm)*
G04 Created by KiCad (PCBNEW 7.0.10) date 2024-12-09 12:22:18*
%MOMM*%
%LPD*%
G01*
G04 APERTURE LIST*
G04 Aperture macros list*
%AMRoundRect*
0 Rectangle with rounded corners*
0 $1 Rounding radius*
0 $2 $3 $4 $5 $6 $7 $8 $9 X,Y pos of 4 corners*
0 Add a 4 corners polygon primitive as box body*
4,1,4,$2,$3,$4,$5,$6,$7,$8,$9,$2,$3,0*
0 Add four circle primitives for the rounded corners*
1,1,$1+$1,$2,$3*
1,1,$1+$1,$4,$5*
1,1,$1+$1,$6,$7*
1,1,$1+$1,$8,$9*
0 Add four rect primitives between the rounded corners*
20,1,$1+$1,$2,$3,$4,$5,0*
20,1,$1+$1,$4,$5,$6,$7,0*
20,1,$1+$1,$6,$7,$8,$9,0*
20,1,$1+$1,$8,$9,$2,$3,0*%
G04 Aperture macros list end*
%TA.AperFunction,SMDPad,CuDef*%
%ADD10RoundRect,0.225000X-0.250000X0.225000X-0.250000X-0.225000X0.250000X-0.225000X0.250000X0.225000X0*%
%TD*%
%TA.AperFunction,SMDPad,CuDef*%
%ADD11RoundRect,0.225000X0.250000X-0.225000X0.250000X0.225000X-0.250000X0.225000X-0.250000X-0.225000X0*%
%TD*%
%TA.AperFunction,SMDPad,CuDef*%
%ADD12RoundRect,0.050000X-0.387500X-0.050000X0.387500X-0.050000X0.387500X0.050000X-0.387500X0.050000X0*%
%TD*%
%TA.AperFunction,SMDPad,CuDef*%
%ADD13RoundRect,0.050000X-0.050000X-0.387500X0.050000X-0.387500X0.050000X0.387500X-0.050000X0.387500X0*%
%TD*%
%TA.AperFunction,SMDPad,CuDef*%
%ADD14R,3.200000X3.200000*%
%TD*%
%TA.AperFunction,SMDPad,CuDef*%
%ADD15RoundRect,0.200000X0.275000X-0.200000X0.275000X0.200000X-0.275000X0.200000X-0.275000X-0.200000X0*%
%TD*%
%TA.AperFunction,SMDPad,CuDef*%
%ADD16RoundRect,0.225000X-0.225000X-0.250000X0.225000X-0.250000X0.225000X0.250000X-0.225000X0.250000X0*%
%TD*%
%TA.AperFunction,SMDPad,CuDef*%
%ADD17R,0.850000X0.300000*%
%TD*%
%TA.AperFunction,SMDPad,CuDef*%
%ADD18R,1.200000X2.000000*%
%TD*%
%TA.AperFunction,SMDPad,CuDef*%
%ADD19RoundRect,0.200000X-0.200000X-0.275000X0.200000X-0.275000X0.200000X0.275000X-0.200000X0.275000X0*%
%TD*%
%TA.AperFunction,SMDPad,CuDef*%
%ADD20RoundRect,0.200000X-0.275000X0.200000X-0.275000X-0.200000X0.275000X-0.200000X0.275000X0.200000X0*%
%TD*%
%TA.AperFunction,SMDPad,CuDef*%
%ADD21RoundRect,0.150000X-0.150000X0.650000X-0.150000X-0.650000X0.150000X-0.650000X0.150000X0.650000X0*%
%TD*%
%TA.AperFunction,SMDPad,CuDef*%
%ADD22R,0.500000X0.250000*%
%TD*%
%TA.AperFunction,SMDPad,CuDef*%
%ADD23R,0.900000X1.600000*%
%TD*%
%TA.AperFunction,SMDPad,CuDef*%
%ADD24R,1.900000X0.400000*%
%TD*%
%TA.AperFunction,ComponentPad*%
%ADD25R,1.238000X1.238000*%
%TD*%
%TA.AperFunction,ComponentPad*%
%ADD26C,1.238000*%
%TD*%
%TA.AperFunction,SMDPad,CuDef*%
%ADD27RoundRect,0.225000X0.225000X0.250000X-0.225000X0.250000X-0.225000X-0.250000X0.225000X-0.250000X0*%
%TD*%
%TA.AperFunction,SMDPad,CuDef*%
%ADD28R,1.650000X0.400000*%
%TD*%
%TA.AperFunction,SMDPad,CuDef*%
%ADD29R,0.700000X1.825000*%
%TD*%
%TA.AperFunction,SMDPad,CuDef*%
%ADD30R,1.500000X2.000000*%
%TD*%
%TA.AperFunction,SMDPad,CuDef*%
%ADD31R,2.000000X1.350000*%
%TD*%
%TA.AperFunction,ComponentPad*%
%ADD32O,1.700000X1.350000*%
%TD*%
%TA.AperFunction,ComponentPad*%
%ADD33O,1.500000X1.100000*%
%TD*%
%TA.AperFunction,SMDPad,CuDef*%
%ADD34R,2.500000X1.430000*%
%TD*%
%TA.AperFunction,ComponentPad*%
%ADD35R,1.498000X1.498000*%
%TD*%
%TA.AperFunction,ComponentPad*%
%ADD36C,1.498000*%
%TD*%
%TA.AperFunction,SMDPad,CuDef*%
%ADD37RoundRect,0.200000X0.200000X0.275000X-0.200000X0.275000X-0.200000X-0.275000X0.200000X-0.275000X0*%
%TD*%
%TA.AperFunction,ComponentPad*%
%ADD38O,4.140000X2.070000*%
%TD*%
%TA.AperFunction,SMDPad,CuDef*%
%ADD39R,1.680000X1.010000*%
%TD*%
%TA.AperFunction,SMDPad,CuDef*%
%ADD40R,1.010000X1.680000*%
%TD*%
%TA.AperFunction,SMDPad,CuDef*%
%ADD41RoundRect,0.218750X0.256250X-0.218750X0.256250X0.218750X-0.256250X0.218750X-0.256250X-0.218750X0*%
%TD*%
%TA.AperFunction,SMDPad,CuDef*%
%ADD42R,1.000000X1.000000*%
%TD*%
%TA.AperFunction,SMDPad,CuDef*%
%ADD43RoundRect,0.071550X0.063450X-0.383450X0.063450X0.383450X-0.063450X0.383450X-0.063450X-0.383450X0*%
%TD*%
%TA.AperFunction,SMDPad,CuDef*%
%ADD44R,1.800000X2.400000*%
%TD*%
%TA.AperFunction,ViaPad*%
%ADD45C,0.750000*%
%TD*%
%TA.AperFunction,Conductor*%
%ADD46C,0.200000*%
%TD*%
%TA.AperFunction,Conductor*%
%ADD47C,0.400000*%
%TD*%
G04 APERTURE END LIST*
D10*
%TO.P,C1,1*%
%TO.N,GND*%
X150200000Y-114925000D03*
%TO.P,C1,2*%
%TO.N,Net-(U2-VIN)*%
X150200000Y-116475000D03*
%TD*%
D11*
%TO.P,C21,1*%
%TO.N,GND*%
X147100000Y-124975000D03*
%TO.P,C21,2*%
%TO.N,Net-(U6-VIN)*%
X147100000Y-123425000D03*
%TD*%
D10*
%TO.P,C9,1*%
%TO.N,+1V1*%
X149200000Y-106825000D03*
%TO.P,C9,2*%
%TO.N,GND*%
X149200000Y-108375000D03*
%TD*%
D12*
%TO.P,U1,1,IOVDD*%
%TO.N,+3V3*%
X140662500Y-98600000D03*
%TO.P,U1,2,GPIO0*%
%TO.N,/SDA0*%
X140662500Y-99000000D03*
%TO.P,U1,3,GPIO1*%
%TO.N,/SCL0*%
X140662500Y-99400000D03*
%TO.P,U1,4,GPIO2*%
%TO.N,/BTN1*%
X140662500Y-99800000D03*
%TO.P,U1,5,GPIO3*%
%TO.N,/BTN2*%
X140662500Y-100200000D03*
%TO.P,U1,6,GPIO4*%
%TO.N,/BTN3*%
X140662500Y-100600000D03*
%TO.P,U1,7,GPIO5*%
%TO.N,/BTN4*%
X140662500Y-101000000D03*
%TO.P,U1,8,GPIO6*%
%TO.N,/BTN5*%
X140662500Y-101400000D03*
%TO.P,U1,9,GPIO7*%
%TO.N,/BTN6*%
X140662500Y-101800000D03*
%TO.P,U1,10,IOVDD*%
%TO.N,+3V3*%
X140662500Y-102200000D03*
%TO.P,U1,11,GPIO8*%
%TO.N,/BT_LOW_POWER*%
X140662500Y-102600000D03*
%TO.P,U1,12,GPIO9*%
%TO.N,/BT_POWER_DOWN*%
X140662500Y-103000000D03*
%TO.P,U1,13,GPIO10*%
%TO.N,/BT_INTERRUPT*%
X140662500Y-103400000D03*
%TO.P,U1,14,GPIO11*%
%TO.N,unconnected-(U1-GPIO11-Pad14)*%
X140662500Y-103800000D03*
D13*
%TO.P,U1,15,GPIO12*%
%TO.N,/UART0_TX*%
X141500000Y-104637500D03*
%TO.P,U1,16,GPIO13*%
%TO.N,/UART0_RX*%
X141900000Y-104637500D03*
%TO.P,U1,17,GPIO14*%
%TO.N,unconnected-(U1-GPIO14-Pad17)*%
X142300000Y-104637500D03*
%TO.P,U1,18,GPIO15*%
%TO.N,unconnected-(U1-GPIO15-Pad18)*%
X142700000Y-104637500D03*
%TO.P,U1,19,TESTEN*%
%TO.N,GND*%
X143100000Y-104637500D03*
%TO.P,U1,20,XIN*%
%TO.N,/XIN*%
X143500000Y-104637500D03*
%TO.P,U1,21,XOUT*%
%TO.N,/XOUT*%
X143900000Y-104637500D03*
%TO.P,U1,22,IOVDD*%
%TO.N,+3V3*%
X144300000Y-104637500D03*
%TO.P,U1,23,DVDD*%
%TO.N,+1V1*%
X144700000Y-104637500D03*
%TO.P,U1,24,SWCLK*%
%TO.N,unconnected-(U1-SWCLK-Pad24)*%
X145100000Y-104637500D03*
%TO.P,U1,25,SWD*%
%TO.N,unconnected-(U1-SWD-Pad25)*%
X145500000Y-104637500D03*
%TO.P,U1,26,RUN*%
%TO.N,unconnected-(U1-RUN-Pad26)*%
X145900000Y-104637500D03*
%TO.P,U1,27,GPIO16*%
%TO.N,unconnected-(U1-GPIO16-Pad27)*%
X146300000Y-104637500D03*
%TO.P,U1,28,GPIO17*%
%TO.N,unconnected-(U1-GPIO17-Pad28)*%
X146700000Y-104637500D03*
D12*
%TO.P,U1,29,GPIO18*%
%TO.N,unconnected-(U1-GPIO18-Pad29)*%
X147537500Y-103800000D03*
%TO.P,U1,30,GPIO19*%
%TO.N,unconnected-(U1-GPIO19-Pad30)*%
X147537500Y-103400000D03*
%TO.P,U1,31,GPIO20*%
%TO.N,unconnected-(U1-GPIO20-Pad31)*%
X147537500Y-103000000D03*
%TO.P,U1,32,GPIO21*%
%TO.N,unconnected-(U1-GPIO21-Pad32)*%
X147537500Y-102600000D03*
%TO.P,U1,33,IOVDD*%
%TO.N,+3V3*%
X147537500Y-102200000D03*
%TO.P,U1,34,GPIO22*%
%TO.N,unconnected-(U1-GPIO22-Pad34)*%
X147537500Y-101800000D03*
%TO.P,U1,35,GPIO23*%
%TO.N,unconnected-(U1-GPIO23-Pad35)*%
X147537500Y-101400000D03*
%TO.P,U1,36,GPIO24*%
%TO.N,unconnected-(U1-GPIO24-Pad36)*%
X147537500Y-101000000D03*
%TO.P,U1,37,GPIO25*%
%TO.N,unconnected-(U1-GPIO25-Pad37)*%
X147537500Y-100600000D03*
%TO.P,U1,38,GPIO26_ADC0*%
%TO.N,unconnected-(U1-GPIO26_ADC0-Pad38)*%
X147537500Y-100200000D03*
%TO.P,U1,39,GPIO27_ADC1*%
%TO.N,unconnected-(U1-GPIO27_ADC1-Pad39)*%
X147537500Y-99800000D03*
%TO.P,U1,40,GPIO28_ADC2*%
%TO.N,unconnected-(U1-GPIO28_ADC2-Pad40)*%
X147537500Y-99400000D03*
%TO.P,U1,41,GPIO29_ADC3*%
%TO.N,unconnected-(U1-GPIO29_ADC3-Pad41)*%
X147537500Y-99000000D03*
%TO.P,U1,42,IOVDD*%
%TO.N,+3V3*%
X147537500Y-98600000D03*
D13*
%TO.P,U1,43,ADC_AVDD*%
%TO.N,/ADC_AVDD*%
X146700000Y-97762500D03*
%TO.P,U1,44,VREG_IN*%
%TO.N,+3V3*%
X146300000Y-97762500D03*
%TO.P,U1,45,VREG_VOUT*%
%TO.N,+1V1*%
X145900000Y-97762500D03*
%TO.P,U1,46,USB_DM*%
%TO.N,/USB_DMX*%
X145500000Y-97762500D03*
%TO.P,U1,47,USB_DP*%
%TO.N,/USB_DPX*%
X145100000Y-97762500D03*
%TO.P,U1,48,USB_VDD*%
%TO.N,+3V3*%
X144700000Y-97762500D03*
%TO.P,U1,49,IOVDD*%
X144300000Y-97762500D03*
%TO.P,U1,50,DVDD*%
%TO.N,+1V1*%
X143900000Y-97762500D03*
%TO.P,U1,51,QSPI_SD3*%
%TO.N,/QSPI_SD3*%
X143500000Y-97762500D03*
%TO.P,U1,52,QSPI_SCLK*%
%TO.N,/QSPI_SCLK*%
X143100000Y-97762500D03*
%TO.P,U1,53,QSPI_SD0*%
%TO.N,/QSPI_SD0*%
X142700000Y-97762500D03*
%TO.P,U1,54,QSPI_SD2*%
%TO.N,/QSPI_SD2*%
X142300000Y-97762500D03*
%TO.P,U1,55,QSPI_SD1*%
%TO.N,/QSPI_SD1*%
X141900000Y-97762500D03*
%TO.P,U1,56,QSPI_SS*%
%TO.N,/QSPI_SS*%
X141500000Y-97762500D03*
D14*
%TO.P,U1,57,GND*%
%TO.N,GND*%
X144100000Y-101200000D03*
%TD*%
D15*
%TO.P,R13,1*%
%TO.N,/USB_DM*%
X131200000Y-83925000D03*
%TO.P,R13,2*%
%TO.N,/USB_DMX*%
X131200000Y-82275000D03*
%TD*%
D16*
%TO.P,C17,1*%
%TO.N,Net-(Y1-OUT)*%
X144625000Y-110500000D03*
%TO.P,C17,2*%
%TO.N,GND*%
X146175000Y-110500000D03*
%TD*%
D17*
%TO.P,U2,1,VOUT*%
%TO.N,+3V3*%
X146175000Y-114780000D03*
%TO.P,U2,2,LX2*%
%TO.N,Net-(U2-LX2)*%
X146175000Y-115280000D03*
%TO.P,U2,3,GND*%
%TO.N,GND*%
X146175000Y-115780000D03*
%TO.P,U2,4,LX1*%
%TO.N,Net-(U2-LX1)*%
X146175000Y-116280000D03*
%TO.P,U2,5,VIN*%
%TO.N,Net-(U2-VIN)*%
X146175000Y-116780000D03*
%TO.P,U2,6,EN*%
%TO.N,unconnected-(U2-EN-Pad6)*%
X148625000Y-116780000D03*
%TO.P,U2,7,PS*%
%TO.N,unconnected-(U2-PS-Pad7)*%
X148625000Y-116280000D03*
%TO.P,U2,8,VINA*%
%TO.N,Net-(U2-VIN)*%
X148625000Y-115780000D03*
%TO.P,U2,9,GND*%
%TO.N,GND*%
X148625000Y-115280000D03*
%TO.P,U2,10,FB*%
%TO.N,+3V3*%
X148625000Y-114780000D03*
D18*
%TO.P,U2,11,EXP*%
%TO.N,GND*%
X147400000Y-115780000D03*
%TD*%
D19*
%TO.P,R7,1*%
%TO.N,+3V3*%
X149125000Y-97600000D03*
%TO.P,R7,2*%
%TO.N,/ADC_VREF*%
X150775000Y-97600000D03*
%TD*%
D11*
%TO.P,C14,1*%
%TO.N,+3V3*%
X150800000Y-94375000D03*
%TO.P,C14,2*%
%TO.N,GND*%
X150800000Y-92825000D03*
%TD*%
D10*
%TO.P,C15,1*%
%TO.N,+3V3*%
X141200000Y-87525000D03*
%TO.P,C15,2*%
%TO.N,GND*%
X141200000Y-89075000D03*
%TD*%
D19*
%TO.P,R3,1*%
%TO.N,+3V3*%
X125775000Y-105200000D03*
%TO.P,R3,2*%
%TO.N,/SDA0*%
X127425000Y-105200000D03*
%TD*%
D20*
%TO.P,R14,1*%
%TO.N,/XOUT*%
X144700000Y-107375000D03*
%TO.P,R14,2*%
%TO.N,Net-(Y1-OUT)*%
X144700000Y-109025000D03*
%TD*%
D21*
%TO.P,U4,1,~{CS}*%
%TO.N,/QSPI_SS*%
X138805000Y-84500000D03*
%TO.P,U4,2,DO(IO1)*%
%TO.N,/QSPI_SD1*%
X137535000Y-84500000D03*
%TO.P,U4,3,IO2*%
%TO.N,/QSPI_SD2*%
X136265000Y-84500000D03*
%TO.P,U4,4,GND*%
%TO.N,GND*%
X134995000Y-84500000D03*
%TO.P,U4,5,DI(IO0)*%
%TO.N,/QSPI_SD0*%
X134995000Y-91700000D03*
%TO.P,U4,6,CLK*%
%TO.N,/QSPI_SCLK*%
X136265000Y-91700000D03*
%TO.P,U4,7,IO3*%
%TO.N,/QSPI_SD3*%
X137535000Y-91700000D03*
%TO.P,U4,8,VCC*%
%TO.N,+3V3*%
X138805000Y-91700000D03*
%TD*%
D22*
%TO.P,U6,1,PFM*%
%TO.N,unconnected-(U6-PFM-Pad1)*%
X150450000Y-123650000D03*
%TO.P,U6,2,C1-*%
%TO.N,Net-(U6-C1-)*%
X150450000Y-123150000D03*
%TO.P,U6,3,C1+*%
%TO.N,Net-(U6-C1+)*%
X150450000Y-122650000D03*
%TO.P,U6,4,OUTDIS*%
%TO.N,unconnected-(U6-OUTDIS-Pad4)*%
X150450000Y-122150000D03*
%TO.P,U6,5,EN*%
%TO.N,unconnected-(U6-EN-Pad5)*%
X148550000Y-122150000D03*
%TO.P,U6,6,VOUT*%
%TO.N,+5V*%
X148550000Y-122650000D03*
%TO.P,U6,7,VIN*%
%TO.N,Net-(U6-VIN)*%
X148550000Y-123150000D03*
%TO.P,U6,8,GND*%
%TO.N,GND*%
X148550000Y-123650000D03*
D23*
%TO.P,U6,9,GND*%
X149500000Y-122900000D03*
%TD*%
D24*
%TO.P,Y1,1,IN*%
%TO.N,/XIN*%
X142600000Y-107400000D03*
%TO.P,Y1,2,GND*%
%TO.N,GND*%
X142600000Y-108600000D03*
%TO.P,Y1,3,OUT*%
%TO.N,Net-(Y1-OUT)*%
X142600000Y-109800000D03*
%TD*%
D16*
%TO.P,C3,1*%
%TO.N,GND*%
X133525000Y-116700000D03*
%TO.P,C3,2*%
%TO.N,+3V3*%
X135075000Y-116700000D03*
%TD*%
D15*
%TO.P,R11,1*%
%TO.N,Net-(R11-Pad1)*%
X142800000Y-86025000D03*
%TO.P,R11,2*%
%TO.N,/QSPI_SS*%
X142800000Y-84375000D03*
%TD*%
D25*
%TO.P,J2,1,GND*%
%TO.N,GND*%
X130550000Y-102750000D03*
D26*
%TO.P,J2,2,VCC*%
%TO.N,+5V*%
X129050000Y-102750000D03*
%TO.P,J2,3,SDA*%
%TO.N,/SDA0*%
X127550000Y-102750000D03*
%TO.P,J2,4,SCL*%
%TO.N,/SCL0*%
X126050000Y-102750000D03*
%TD*%
D11*
%TO.P,C20,1*%
%TO.N,Net-(U6-C1-)*%
X152000000Y-123445000D03*
%TO.P,C20,2*%
%TO.N,Net-(U6-C1+)*%
X152000000Y-121895000D03*
%TD*%
D27*
%TO.P,C6,1*%
%TO.N,GND*%
X150675000Y-101600000D03*
%TO.P,C6,2*%
%TO.N,+3V3*%
X149125000Y-101600000D03*
%TD*%
D28*
%TO.P,J1,1,VBUS*%
%TO.N,unconnected-(J1-VBUS-Pad1)*%
X128765000Y-83875000D03*
%TO.P,J1,2,D-*%
%TO.N,/USB_DM*%
X128765000Y-84525000D03*
%TO.P,J1,3,D+*%
%TO.N,/USB_DP*%
X128765000Y-85175000D03*
%TO.P,J1,4,ID*%
%TO.N,unconnected-(J1-ID-Pad4)*%
X128765000Y-85825000D03*
%TO.P,J1,5,GND*%
%TO.N,GND*%
X128765000Y-86475000D03*
D29*
%TO.P,J1,6,Shield*%
X127565000Y-82225000D03*
D30*
X128865000Y-82325000D03*
D31*
X126815000Y-82445000D03*
D32*
X125885000Y-82445000D03*
D33*
X128885000Y-82755000D03*
D34*
X125615000Y-84215000D03*
X125615000Y-86135000D03*
D33*
X128885000Y-87595000D03*
D32*
X125885000Y-87905000D03*
D31*
X126815000Y-87925000D03*
D30*
X128885000Y-88075000D03*
D29*
X127565000Y-88175000D03*
%TD*%
D35*
%TO.P,SW2,1*%
%TO.N,GND*%
X135532250Y-67050000D03*
D36*
%TO.P,SW2,2*%
%TO.N,unconnected-(SW2-Pad2)*%
X142032250Y-67050000D03*
%TO.P,SW2,3*%
%TO.N,unconnected-(SW2-Pad3)*%
X135532250Y-71550000D03*
%TO.P,SW2,4*%
%TO.N,/BTN2*%
X142032250Y-71550000D03*
%TD*%
D37*
%TO.P,R9,1*%
%TO.N,/ADC_VREF*%
X150775000Y-96000000D03*
%TO.P,R9,2*%
%TO.N,/ADC_AVDD*%
X149125000Y-96000000D03*
%TD*%
D35*
%TO.P,SW1,1*%
%TO.N,GND*%
X144914500Y-67050000D03*
D36*
%TO.P,SW1,2*%
%TO.N,unconnected-(SW1-Pad2)*%
X151414500Y-67050000D03*
%TO.P,SW1,3*%
%TO.N,unconnected-(SW1-Pad3)*%
X144914500Y-71550000D03*
%TO.P,SW1,4*%
%TO.N,/BTN1*%
X151414500Y-71550000D03*
%TD*%
D16*
%TO.P,C4,1*%
%TO.N,GND*%
X138125000Y-96200000D03*
%TO.P,C4,2*%
%TO.N,+3V3*%
X139675000Y-96200000D03*
%TD*%
D35*
%TO.P,SW5,1*%
%TO.N,GND*%
X135532250Y-75000000D03*
D36*
%TO.P,SW5,2*%
%TO.N,unconnected-(SW5-Pad2)*%
X142032250Y-75000000D03*
%TO.P,SW5,3*%
%TO.N,unconnected-(SW5-Pad3)*%
X135532250Y-79500000D03*
%TO.P,SW5,4*%
%TO.N,/BTN5*%
X142032250Y-79500000D03*
%TD*%
D35*
%TO.P,SW3,1*%
%TO.N,GND*%
X126150000Y-67050000D03*
D36*
%TO.P,SW3,2*%
%TO.N,unconnected-(SW3-Pad2)*%
X132650000Y-67050000D03*
%TO.P,SW3,3*%
%TO.N,unconnected-(SW3-Pad3)*%
X126150000Y-71550000D03*
%TO.P,SW3,4*%
%TO.N,/BTN3*%
X132650000Y-71550000D03*
%TD*%
D35*
%TO.P,SW6,1*%
%TO.N,GND*%
X126150000Y-75000000D03*
D36*
%TO.P,SW6,2*%
%TO.N,unconnected-(SW6-Pad2)*%
X132650000Y-75000000D03*
%TO.P,SW6,3*%
%TO.N,unconnected-(SW6-Pad3)*%
X126150000Y-79500000D03*
%TO.P,SW6,4*%
%TO.N,/BTN6*%
X132650000Y-79500000D03*
%TD*%
D25*
%TO.P,J7,1,GND*%
%TO.N,GND*%
X130550000Y-94300000D03*
D26*
%TO.P,J7,2,VCC*%
%TO.N,+3V3*%
X129050000Y-94300000D03*
%TO.P,J7,3,SDA*%
%TO.N,/SDA0*%
X127550000Y-94300000D03*
%TO.P,J7,4,SCL*%
%TO.N,/SCL0*%
X126050000Y-94300000D03*
%TD*%
D38*
%TO.P,BT1,+*%
%TO.N,VBUS*%
X164100000Y-141100000D03*
%TO.P,BT1,-*%
%TO.N,GND*%
X164100000Y-68200000D03*
%TD*%
D39*
%TO.P,D1,1*%
%TO.N,Net-(U2-VIN)*%
X147842500Y-118500000D03*
%TO.P,D1,2*%
%TO.N,VBUS*%
X150982500Y-118500000D03*
%TD*%
D11*
%TO.P,C11,1*%
%TO.N,+1V1*%
X144400000Y-94375000D03*
%TO.P,C11,2*%
%TO.N,GND*%
X144400000Y-92825000D03*
%TD*%
%TO.P,C12,1*%
%TO.N,+1V1*%
X148400000Y-94375000D03*
%TO.P,C12,2*%
%TO.N,GND*%
X148400000Y-92825000D03*
%TD*%
D35*
%TO.P,SW4,1*%
%TO.N,GND*%
X144914500Y-75000000D03*
D36*
%TO.P,SW4,2*%
%TO.N,unconnected-(SW4-Pad2)*%
X151414500Y-75000000D03*
%TO.P,SW4,3*%
%TO.N,unconnected-(SW4-Pad3)*%
X144914500Y-79500000D03*
%TO.P,SW4,4*%
%TO.N,/BTN4*%
X151414500Y-79500000D03*
%TD*%
D16*
%TO.P,C5,1*%
%TO.N,GND*%
X136225000Y-102400000D03*
%TO.P,C5,2*%
%TO.N,+3V3*%
X137775000Y-102400000D03*
%TD*%
D27*
%TO.P,C7,1*%
%TO.N,GND*%
X150675000Y-100000000D03*
%TO.P,C7,2*%
%TO.N,+3V3*%
X149125000Y-100000000D03*
%TD*%
D25*
%TO.P,J3,1,GND*%
%TO.N,GND*%
X130550000Y-98550000D03*
D26*
%TO.P,J3,2,VCC*%
%TO.N,+3V3*%
X129050000Y-98550000D03*
%TO.P,J3,3,SDA*%
%TO.N,/SDA0*%
X127550000Y-98550000D03*
%TO.P,J3,4,SCL*%
%TO.N,/SCL0*%
X126050000Y-98550000D03*
%TD*%
D37*
%TO.P,R2,1*%
%TO.N,/SCL0*%
X127425000Y-106800000D03*
%TO.P,R2,2*%
%TO.N,+3V3*%
X125775000Y-106800000D03*
%TD*%
D10*
%TO.P,C19,1*%
%TO.N,GND*%
X130700000Y-110425000D03*
%TO.P,C19,2*%
%TO.N,VBUS*%
X130700000Y-111975000D03*
%TD*%
D40*
%TO.P,D3,1*%
%TO.N,Net-(U6-VIN)*%
X145200000Y-123542500D03*
%TO.P,D3,2*%
%TO.N,VBUS*%
X145200000Y-126682500D03*
%TD*%
D11*
%TO.P,C18,1*%
%TO.N,+3V3*%
X141200000Y-85975000D03*
%TO.P,C18,2*%
%TO.N,GND*%
X141200000Y-84425000D03*
%TD*%
D35*
%TO.P,SW7,1*%
%TO.N,GND*%
X144914500Y-82950000D03*
D36*
%TO.P,SW7,2*%
%TO.N,unconnected-(SW7-Pad2)*%
X151414500Y-82950000D03*
%TO.P,SW7,3*%
%TO.N,unconnected-(SW7-Pad3)*%
X144914500Y-87450000D03*
%TO.P,SW7,4*%
%TO.N,Net-(R11-Pad1)*%
X151414500Y-87450000D03*
%TD*%
D11*
%TO.P,C8,1*%
%TO.N,GND*%
X147600000Y-108375000D03*
%TO.P,C8,2*%
%TO.N,+3V3*%
X147600000Y-106825000D03*
%TD*%
D10*
%TO.P,C16,1*%
%TO.N,/XIN*%
X140600000Y-107425000D03*
%TO.P,C16,2*%
%TO.N,GND*%
X140600000Y-108975000D03*
%TD*%
D16*
%TO.P,C22,1*%
%TO.N,+5V*%
X146925000Y-120800000D03*
%TO.P,C22,2*%
%TO.N,GND*%
X148475000Y-120800000D03*
%TD*%
D41*
%TO.P,L1,1,1*%
%TO.N,Net-(U2-LX1)*%
X144100000Y-116587500D03*
%TO.P,L1,2,2*%
%TO.N,Net-(U2-LX2)*%
X144100000Y-115012500D03*
%TD*%
D42*
%TO.P,B1,1,INT*%
%TO.N,/BT_INTERRUPT*%
X125755000Y-125685000D03*
%TO.P,B1,2,GND*%
%TO.N,GND*%
X125755000Y-123685000D03*
%TO.P,B1,3,GND*%
X125755000Y-121685000D03*
%TO.P,B1,4,GND*%
X129045000Y-118675000D03*
%TO.P,B1,5,PDN*%
%TO.N,/BT_POWER_DOWN*%
X131045000Y-118675000D03*
%TO.P,B1,6,WAKEUP*%
%TO.N,/BT_LOW_POWER*%
X133045000Y-118675000D03*
%TO.P,B1,7,VDD*%
%TO.N,+3V3*%
X135045000Y-118675000D03*
%TO.P,B1,8,RXD*%
%TO.N,/UART0_TX*%
X138245000Y-121675000D03*
%TO.P,B1,9,TXD*%
%TO.N,/UART0_RX*%
X138245000Y-123675000D03*
%TO.P,B1,10,GND*%
%TO.N,GND*%
X138245000Y-125675000D03*
%TO.P,B1,11,NC*%
X138245000Y-127675000D03*
%TD*%
D20*
%TO.P,R12,1*%
%TO.N,/USB_DP*%
X131200000Y-85375000D03*
%TO.P,R12,2*%
%TO.N,/USB_DPX*%
X131200000Y-87025000D03*
%TD*%
D11*
%TO.P,C10,1*%
%TO.N,+3V3*%
X146800000Y-94375000D03*
%TO.P,C10,2*%
%TO.N,GND*%
X146800000Y-92825000D03*
%TD*%
D16*
%TO.P,C2,1*%
%TO.N,+3V3*%
X146125000Y-113400000D03*
%TO.P,C2,2*%
%TO.N,GND*%
X147675000Y-113400000D03*
%TD*%
D11*
%TO.P,C13,1*%
%TO.N,/ADC_AVDD*%
X152400000Y-94375000D03*
%TO.P,C13,2*%
%TO.N,GND*%
X152400000Y-92825000D03*
%TD*%
D43*
%TO.P,U5,1,TEST*%
%TO.N,GND*%
X127125000Y-112100000D03*
%TO.P,U5,2,VSS*%
X127775000Y-112100000D03*
%TO.P,U5,3,VDD*%
%TO.N,VBUS*%
X128425000Y-112100000D03*
%TO.P,U5,4,ALARMB*%
%TO.N,GND*%
X129075000Y-112100000D03*
%TO.P,U5,5,TSW*%
%TO.N,unconnected-(U5-TSW-Pad5)*%
X129075000Y-108300000D03*
%TO.P,U5,6,TSENSE*%
%TO.N,unconnected-(U5-TSENSE-Pad6)*%
X128425000Y-108300000D03*
%TO.P,U5,7,SDA*%
%TO.N,/SDA0*%
X127775000Y-108300000D03*
%TO.P,U5,8,SCL*%
%TO.N,/SCL0*%
X127125000Y-108300000D03*
D44*
%TO.P,U5,9,EXP*%
%TO.N,unconnected-(U5-EXP-Pad9)*%
X128100000Y-110200000D03*
%TD*%
D45*
%TO.N,/BT_INTERRUPT*%
X127000000Y-125700000D03*
X137735259Y-105576958D03*
%TO.N,GND*%
X151500000Y-114900000D03*
X127500000Y-86500000D03*
X129100000Y-117300000D03*
X141200000Y-90300000D03*
X136700000Y-96200000D03*
X144400000Y-91700000D03*
X143500000Y-103400000D03*
X134900000Y-102400000D03*
X152100000Y-100000000D03*
X142700000Y-105900000D03*
X140600000Y-110200000D03*
X146800000Y-91700000D03*
X136800000Y-125700000D03*
X150100000Y-120800000D03*
X126900000Y-123700000D03*
X150800000Y-91500000D03*
X150425000Y-108000000D03*
X140100000Y-84600000D03*
X126300000Y-113200000D03*
X132100000Y-116700000D03*
X127000000Y-122200000D03*
X135200000Y-82900000D03*
X130700000Y-109000000D03*
X136900000Y-127700000D03*
X145900000Y-111800000D03*
%TO.N,/BT_POWER_DOWN*%
X131100000Y-120100000D03*
X136889798Y-106010202D03*
%TO.N,/BT_LOW_POWER*%
X133100000Y-120000000D03*
X137225000Y-107300000D03*
%TO.N,+3V3*%
X139800000Y-91900000D03*
X140741330Y-96358670D03*
X124625000Y-105000000D03*
%TO.N,/UART0_TX*%
X138686063Y-105573264D03*
X138400000Y-120700000D03*
%TO.N,/UART0_RX*%
X139400000Y-106200000D03*
X139400000Y-123600000D03*
%TO.N,/QSPI_SS*%
X138734953Y-95076386D03*
X138450003Y-86100000D03*
%TO.N,/QSPI_SD1*%
X137873911Y-94675000D03*
X137500000Y-86100000D03*
%TO.N,/QSPI_SD2*%
X137000000Y-94275000D03*
X136549997Y-86100000D03*
%TO.N,/SDA0*%
X127600000Y-92706000D03*
%TO.N,/USB_DPX*%
X138275000Y-89100000D03*
X144975000Y-95900000D03*
%TO.N,/USB_DMX*%
X146257016Y-95657016D03*
X138275000Y-88149997D03*
%TO.N,/BTN1*%
X135070187Y-100591823D03*
%TO.N,/BTN2*%
X135857996Y-100060916D03*
%TO.N,/BTN3*%
X136700000Y-99500000D03*
%TO.N,/BTN4*%
X137505600Y-100096500D03*
%TO.N,/BTN5*%
X136700000Y-100600000D03*
%TO.N,/BTN6*%
X135900000Y-101300000D03*
%TD*%
D46*
%TO.N,/BT_INTERRUPT*%
X137735259Y-105569473D02*
X137735259Y-105576958D01*
X139904732Y-103400000D02*
X137735259Y-105569473D01*
X125770000Y-125700000D02*
X125755000Y-125685000D01*
X127000000Y-125700000D02*
X125770000Y-125700000D01*
X140662500Y-103400000D02*
X139904732Y-103400000D01*
D47*
%TO.N,GND*%
X133525000Y-116700000D02*
X132100000Y-116700000D01*
X134995000Y-83105000D02*
X135200000Y-82900000D01*
X127500000Y-86500000D02*
X125980000Y-86500000D01*
D46*
X143100000Y-104637500D02*
X143100000Y-105500000D01*
D47*
X138125000Y-96200000D02*
X136700000Y-96200000D01*
X136925000Y-127675000D02*
X136900000Y-127700000D01*
X150050000Y-108375000D02*
X150425000Y-108000000D01*
X147600000Y-108375000D02*
X149200000Y-108375000D01*
X146800000Y-92825000D02*
X146800000Y-91700000D01*
X129045000Y-117355000D02*
X129100000Y-117300000D01*
X126815000Y-87925000D02*
X126815000Y-87335000D01*
X151475000Y-114925000D02*
X151500000Y-114900000D01*
X125755000Y-123685000D02*
X126885000Y-123685000D01*
X152400000Y-92825000D02*
X150800000Y-92825000D01*
X144100000Y-101200000D02*
X144100000Y-102800000D01*
X126885000Y-123685000D02*
X126900000Y-123700000D01*
X149200000Y-108375000D02*
X150050000Y-108375000D01*
X150800000Y-92825000D02*
X150800000Y-91500000D01*
X129045000Y-118675000D02*
X129045000Y-117355000D01*
X146175000Y-111525000D02*
X145900000Y-111800000D01*
X136225000Y-102400000D02*
X134900000Y-102400000D01*
X125885000Y-83945000D02*
X125615000Y-84215000D01*
X141200000Y-84425000D02*
X140275000Y-84425000D01*
X150675000Y-101600000D02*
X150675000Y-100000000D01*
X128885000Y-88075000D02*
X127665000Y-88075000D01*
X126485000Y-121685000D02*
X127000000Y-122200000D01*
X138245000Y-127675000D02*
X136925000Y-127675000D01*
D46*
X143100000Y-105500000D02*
X142700000Y-105900000D01*
D47*
X144100000Y-102800000D02*
X143500000Y-103400000D01*
X146175000Y-110500000D02*
X146175000Y-111525000D01*
X148400000Y-92825000D02*
X146800000Y-92825000D01*
X150200000Y-114925000D02*
X151475000Y-114925000D01*
D46*
X127125000Y-112100000D02*
X127125000Y-112375000D01*
D47*
X150675000Y-100000000D02*
X152100000Y-100000000D01*
X140975000Y-108600000D02*
X140600000Y-108975000D01*
D46*
X130700000Y-110475000D02*
X130700000Y-110425000D01*
X127775000Y-112100000D02*
X127125000Y-112100000D01*
D47*
X127665000Y-88075000D02*
X127565000Y-88175000D01*
X128765000Y-86475000D02*
X127525000Y-86475000D01*
X134995000Y-84500000D02*
X134995000Y-83105000D01*
D46*
X129075000Y-112100000D02*
X130700000Y-110475000D01*
D47*
X141200000Y-89075000D02*
X141200000Y-90300000D01*
X148475000Y-120800000D02*
X150100000Y-120800000D01*
X125615000Y-84215000D02*
X125615000Y-86135000D01*
X136825000Y-125675000D02*
X136800000Y-125700000D01*
X125885000Y-82445000D02*
X125885000Y-83945000D01*
X138245000Y-125675000D02*
X136825000Y-125675000D01*
X142600000Y-108600000D02*
X140975000Y-108600000D01*
X128095000Y-82755000D02*
X127565000Y-82225000D01*
X144400000Y-92825000D02*
X144400000Y-91700000D01*
X126815000Y-87335000D02*
X125615000Y-86135000D01*
D46*
X127125000Y-112375000D02*
X126300000Y-113200000D01*
D47*
X128885000Y-82755000D02*
X128095000Y-82755000D01*
X125755000Y-121685000D02*
X126485000Y-121685000D01*
X127525000Y-86475000D02*
X127500000Y-86500000D01*
X140275000Y-84425000D02*
X140100000Y-84600000D01*
X125980000Y-86500000D02*
X125615000Y-86135000D01*
X140600000Y-108975000D02*
X140600000Y-110200000D01*
X130700000Y-110425000D02*
X130700000Y-109000000D01*
D46*
%TO.N,/BT_POWER_DOWN*%
X137837088Y-104901958D02*
X137455664Y-104901958D01*
X137455664Y-104901958D02*
X136889798Y-105467824D01*
X131100000Y-120100000D02*
X131100000Y-118730000D01*
X131100000Y-118730000D02*
X131045000Y-118675000D01*
X136889798Y-105467824D02*
X136889798Y-106010202D01*
X140662500Y-103000000D02*
X139739046Y-103000000D01*
X139739046Y-103000000D02*
X137837088Y-104901958D01*
%TO.N,/BT_LOW_POWER*%
X140662500Y-102600000D02*
X139573360Y-102600000D01*
X136214798Y-106289798D02*
X137225000Y-107300000D01*
X139573360Y-102600000D02*
X137671402Y-104501958D01*
X136214798Y-105577138D02*
X136214798Y-106289798D01*
X137671402Y-104501958D02*
X137289978Y-104501958D01*
X133100000Y-118730000D02*
X133045000Y-118675000D01*
X133100000Y-120000000D02*
X133100000Y-118730000D01*
X137289978Y-104501958D02*
X136214798Y-105577138D01*
D47*
%TO.N,+3V3*%
X136220000Y-114100000D02*
X132200000Y-110080000D01*
X142275000Y-88600000D02*
X141200000Y-87525000D01*
X149125000Y-98700000D02*
X149125000Y-97600000D01*
X132899602Y-103275000D02*
X136900000Y-103275000D01*
X151004070Y-98700000D02*
X153275000Y-96429070D01*
X151200000Y-108800000D02*
X151200000Y-103490118D01*
D46*
X144700000Y-97762500D02*
X144300000Y-97762500D01*
X150625000Y-94375000D02*
X149775000Y-95225000D01*
X149775000Y-95225000D02*
X148575000Y-95225000D01*
D47*
X139600000Y-91700000D02*
X139800000Y-91900000D01*
X132200000Y-103974602D02*
X132899602Y-103275000D01*
X146125000Y-113400000D02*
X147159882Y-112365118D01*
X145500000Y-88600000D02*
X142275000Y-88600000D01*
X146712500Y-107712500D02*
X146712500Y-108852618D01*
X149754941Y-102045059D02*
X149309882Y-101600000D01*
D46*
X149125000Y-99525000D02*
X148200000Y-98600000D01*
X150800000Y-94375000D02*
X150625000Y-94375000D01*
X140662500Y-98600000D02*
X140662500Y-97187500D01*
D47*
X153275000Y-91075000D02*
X150800000Y-88600000D01*
X125575000Y-105000000D02*
X125775000Y-105200000D01*
D46*
X145723696Y-94375000D02*
X146800000Y-94375000D01*
D47*
X149125000Y-100600000D02*
X149125000Y-100000000D01*
D46*
X146300000Y-97134314D02*
X146300000Y-97762500D01*
D47*
X146125000Y-113400000D02*
X136920000Y-113400000D01*
X135045000Y-115275000D02*
X136220000Y-114100000D01*
X151200000Y-103490118D02*
X149754941Y-102045059D01*
X135045000Y-116730000D02*
X135045000Y-116900000D01*
X149600000Y-88600000D02*
X149600000Y-93175000D01*
D46*
X149125000Y-100000000D02*
X149125000Y-99525000D01*
D47*
X138805000Y-91700000D02*
X139600000Y-91700000D01*
D46*
X140662500Y-102200000D02*
X137975000Y-102200000D01*
D47*
X139833670Y-96358670D02*
X139675000Y-96200000D01*
X138805000Y-91700000D02*
X138805000Y-89920000D01*
X124625000Y-105000000D02*
X125575000Y-105000000D01*
D46*
X140662500Y-97187500D02*
X139675000Y-96200000D01*
D47*
X141200000Y-85975000D02*
X141200000Y-87525000D01*
X149125000Y-98700000D02*
X151004070Y-98700000D01*
D46*
X144300000Y-95225000D02*
X144873696Y-95225000D01*
D47*
X138805000Y-89920000D02*
X141200000Y-87525000D01*
X149754941Y-102045059D02*
X149125000Y-101415118D01*
X135045000Y-118675000D02*
X135045000Y-116900000D01*
X146712500Y-108852618D02*
X147159882Y-109300000D01*
D46*
X149125000Y-101600000D02*
X149125000Y-102075000D01*
D47*
X136920000Y-113400000D02*
X136220000Y-114100000D01*
X125775000Y-105200000D02*
X125775000Y-106800000D01*
X132200000Y-110080000D02*
X132200000Y-103974602D01*
X147159882Y-112365118D02*
X147159882Y-109300000D01*
X140741330Y-96358670D02*
X139833670Y-96358670D01*
X135045000Y-116900000D02*
X135045000Y-115275000D01*
D46*
X144300000Y-104637500D02*
X144300000Y-106409314D01*
D47*
X145500000Y-93075000D02*
X146800000Y-94375000D01*
X135075000Y-116700000D02*
X135045000Y-116730000D01*
X150800000Y-88600000D02*
X149600000Y-88600000D01*
X147159882Y-109300000D02*
X150700000Y-109300000D01*
X150700000Y-109300000D02*
X151200000Y-108800000D01*
D46*
X147834314Y-95600000D02*
X146300000Y-97134314D01*
D47*
X149309882Y-101600000D02*
X149125000Y-101600000D01*
D46*
X144873696Y-95225000D02*
X145723696Y-94375000D01*
D47*
X129050000Y-94300000D02*
X129050000Y-98550000D01*
D46*
X149000000Y-102200000D02*
X147537500Y-102200000D01*
X148200000Y-95600000D02*
X147834314Y-95600000D01*
X137975000Y-102200000D02*
X137775000Y-102400000D01*
D47*
X145500000Y-88600000D02*
X145500000Y-93075000D01*
X146712500Y-107712500D02*
X147600000Y-106825000D01*
D46*
X144300000Y-106409314D02*
X144490686Y-106600000D01*
X148575000Y-95225000D02*
X148200000Y-95600000D01*
X144300000Y-97762500D02*
X144300000Y-95225000D01*
D47*
X149125000Y-100600000D02*
X149125000Y-98700000D01*
D46*
X144490686Y-106600000D02*
X147275000Y-106600000D01*
D47*
X149125000Y-101415118D02*
X149125000Y-100600000D01*
X149600000Y-88600000D02*
X145500000Y-88600000D01*
X153275000Y-96429070D02*
X153275000Y-91075000D01*
X136900000Y-103275000D02*
X137775000Y-102400000D01*
D46*
X147275000Y-106600000D02*
X147500000Y-106825000D01*
D47*
X129050000Y-99425398D02*
X132899602Y-103275000D01*
D46*
X148200000Y-98600000D02*
X147537500Y-98600000D01*
X149125000Y-102075000D02*
X149000000Y-102200000D01*
D47*
X149600000Y-93175000D02*
X150800000Y-94375000D01*
X129050000Y-98550000D02*
X129050000Y-99425398D01*
D46*
%TO.N,/UART0_TX*%
X139621827Y-104637500D02*
X141500000Y-104637500D01*
X138400000Y-121520000D02*
X138245000Y-121675000D01*
X138686063Y-105573264D02*
X139621827Y-104637500D01*
X138400000Y-120700000D02*
X138400000Y-121520000D01*
%TO.N,/UART0_RX*%
X138320000Y-123600000D02*
X138245000Y-123675000D01*
X139400000Y-123600000D02*
X138320000Y-123600000D01*
X141671360Y-105400000D02*
X141900000Y-105171360D01*
X141900000Y-105171360D02*
X141900000Y-104637500D01*
X139400000Y-106200000D02*
X140200000Y-105400000D01*
X140200000Y-105400000D02*
X141671360Y-105400000D01*
D47*
%TO.N,VBUS*%
X153000000Y-126100000D02*
X154150000Y-127250000D01*
X145200000Y-126682500D02*
X132682500Y-126682500D01*
X132682500Y-126682500D02*
X126800000Y-120800000D01*
D46*
X129725000Y-112950000D02*
X130700000Y-111975000D01*
D47*
X154150000Y-121667500D02*
X154150000Y-131150000D01*
X128645000Y-112955000D02*
X129720000Y-112955000D01*
X154150000Y-131150000D02*
X164100000Y-141100000D01*
X126800000Y-114800000D02*
X128645000Y-112955000D01*
X145200000Y-126682500D02*
X145782500Y-126100000D01*
D46*
X128425000Y-112100000D02*
X128425000Y-112554999D01*
D47*
X154150000Y-127250000D02*
X154150000Y-131150000D01*
D46*
X128820001Y-112950000D02*
X129725000Y-112950000D01*
D47*
X129720000Y-112955000D02*
X130700000Y-111975000D01*
D46*
X128425000Y-112554999D02*
X128820001Y-112950000D01*
D47*
X150982500Y-118500000D02*
X154150000Y-121667500D01*
X145782500Y-126100000D02*
X153000000Y-126100000D01*
X126800000Y-120800000D02*
X126800000Y-114800000D01*
D46*
%TO.N,+1V1*%
X144903640Y-103900000D02*
X144700000Y-104103640D01*
X145900000Y-97762500D02*
X145900000Y-96968628D01*
X143900000Y-97762500D02*
X143900000Y-98296360D01*
X145696360Y-98500000D02*
X145900000Y-98296360D01*
X148450000Y-106075000D02*
X149200000Y-106825000D01*
X145100000Y-103900000D02*
X144903640Y-103900000D01*
X144700000Y-104637500D02*
X144700000Y-105171360D01*
X148400000Y-94468628D02*
X148400000Y-94375000D01*
X145603640Y-106075000D02*
X148450000Y-106075000D01*
X143900000Y-97762500D02*
X143900000Y-94875000D01*
X144700000Y-105171360D02*
X145603640Y-106075000D01*
X144700000Y-104103640D02*
X144700000Y-104637500D01*
X145900000Y-98296360D02*
X146000000Y-98396360D01*
X146000000Y-103000000D02*
X145100000Y-103900000D01*
X145900000Y-96968628D02*
X148400000Y-94468628D01*
X146000000Y-98396360D02*
X146000000Y-103000000D01*
X143900000Y-98296360D02*
X144103640Y-98500000D01*
X144103640Y-98500000D02*
X145696360Y-98500000D01*
X143900000Y-94875000D02*
X144400000Y-94375000D01*
X145900000Y-98296360D02*
X145900000Y-97762500D01*
%TO.N,/ADC_AVDD*%
X150075000Y-95512352D02*
X150075000Y-95725000D01*
X152400000Y-94375000D02*
X152400000Y-94700000D01*
X150075000Y-95725000D02*
X149800000Y-96000000D01*
X148000000Y-96000000D02*
X149125000Y-96000000D01*
X152400000Y-94700000D02*
X151875000Y-95225000D01*
X149800000Y-96000000D02*
X149125000Y-96000000D01*
X151875000Y-95225000D02*
X150362352Y-95225000D01*
X146700000Y-97762500D02*
X146700000Y-97300000D01*
X146700000Y-97300000D02*
X148000000Y-96000000D01*
X150362352Y-95225000D02*
X150075000Y-95512352D01*
%TO.N,/XIN*%
X142600000Y-107400000D02*
X140625000Y-107400000D01*
X140625000Y-107400000D02*
X140600000Y-107425000D01*
X143500000Y-107200000D02*
X143300000Y-107400000D01*
X143500000Y-104637500D02*
X143500000Y-107200000D01*
X143300000Y-107400000D02*
X142600000Y-107400000D01*
%TO.N,Net-(Y1-OUT)*%
X144625000Y-110500000D02*
X143925000Y-109800000D01*
X144700000Y-109025000D02*
X143925000Y-109800000D01*
X143925000Y-109800000D02*
X142600000Y-109800000D01*
D47*
%TO.N,+5V*%
X129050000Y-104050000D02*
X129050000Y-102750000D01*
X141822500Y-124775000D02*
X131623528Y-124775000D01*
X130485118Y-113555000D02*
X131575000Y-112465118D01*
X145797500Y-120800000D02*
X141822500Y-124775000D01*
X131575000Y-106575000D02*
X129050000Y-104050000D01*
X127400000Y-115048528D02*
X128893528Y-113555000D01*
X131575000Y-112465118D02*
X131575000Y-106575000D01*
X131623528Y-124775000D02*
X127400000Y-120551472D01*
X128893528Y-113555000D02*
X130485118Y-113555000D01*
X127400000Y-120551472D02*
X127400000Y-115048528D01*
X146925000Y-120800000D02*
X145797500Y-120800000D01*
D46*
%TO.N,/QSPI_SS*%
X138805000Y-84500000D02*
X139630000Y-83675000D01*
X141500000Y-97762500D02*
X141500000Y-96162744D01*
X139630000Y-83675000D02*
X142100000Y-83675000D01*
X141500000Y-96162744D02*
X140137256Y-94800000D01*
X138450003Y-86100000D02*
X138450003Y-84854997D01*
X142100000Y-83675000D02*
X142800000Y-84375000D01*
X138450003Y-84854997D02*
X138805000Y-84500000D01*
X139011339Y-94800000D02*
X138734953Y-95076386D01*
X140137256Y-94800000D02*
X139011339Y-94800000D01*
%TO.N,/QSPI_SD1*%
X137500000Y-86100000D02*
X137500000Y-84535000D01*
X137500000Y-84535000D02*
X137535000Y-84500000D01*
X138148911Y-94400000D02*
X137873911Y-94675000D01*
X141900000Y-97762500D02*
X141900000Y-95997058D01*
X140302942Y-94400000D02*
X138148911Y-94400000D01*
X141900000Y-95997058D02*
X140302942Y-94400000D01*
%TO.N,/QSPI_SD2*%
X142300000Y-95831372D02*
X140468628Y-94000000D01*
X140468628Y-94000000D02*
X137275000Y-94000000D01*
X142300000Y-97762500D02*
X142300000Y-95831372D01*
X137275000Y-94000000D02*
X137000000Y-94275000D01*
X136549997Y-84784997D02*
X136265000Y-84500000D01*
X136549997Y-86100000D02*
X136549997Y-84784997D01*
%TO.N,/QSPI_SD0*%
X142700000Y-95665686D02*
X140634314Y-93600000D01*
X136700000Y-93600000D02*
X134995000Y-91895000D01*
X134995000Y-91895000D02*
X134995000Y-91700000D01*
X140634314Y-93600000D02*
X136700000Y-93600000D01*
X142700000Y-97762500D02*
X142700000Y-95665686D01*
%TO.N,/QSPI_SCLK*%
X136965001Y-93200000D02*
X136265000Y-92499999D01*
X136265000Y-92499999D02*
X136265000Y-91700000D01*
X143100000Y-97762500D02*
X143100000Y-95500000D01*
X140800000Y-93200000D02*
X136965001Y-93200000D01*
X143100000Y-95500000D02*
X140800000Y-93200000D01*
%TO.N,/QSPI_SD3*%
X143500000Y-97762500D02*
X143500000Y-95334314D01*
X137535000Y-92499999D02*
X137535000Y-91700000D01*
X137835001Y-92800000D02*
X137535000Y-92499999D01*
X140965685Y-92800000D02*
X137835001Y-92800000D01*
X143500000Y-95334314D02*
X140965685Y-92800000D01*
%TO.N,/USB_DM*%
X128765000Y-84525000D02*
X130600000Y-84525000D01*
X130600000Y-84525000D02*
X131200000Y-83925000D01*
%TO.N,/USB_DP*%
X131000000Y-85175000D02*
X131200000Y-85375000D01*
X128765000Y-85175000D02*
X131000000Y-85175000D01*
%TO.N,/SDA0*%
X127550000Y-105075000D02*
X127425000Y-105200000D01*
X140128640Y-99000000D02*
X138528639Y-97400000D01*
X131646685Y-92981000D02*
X127875000Y-92981000D01*
X128200000Y-107550664D02*
X127775000Y-107975664D01*
X127550000Y-98550000D02*
X127550000Y-102750000D01*
X127425000Y-105200000D02*
X127425000Y-105612352D01*
X127550000Y-94300000D02*
X127550000Y-98550000D01*
X138528639Y-97400000D02*
X136065685Y-97400000D01*
X140662500Y-99000000D02*
X140128640Y-99000000D01*
X127550000Y-102750000D02*
X127550000Y-105075000D01*
X128200000Y-106387352D02*
X128200000Y-107550664D01*
X127775000Y-107975664D02*
X127775000Y-108300000D01*
X136065685Y-97400000D02*
X131646685Y-92981000D01*
X127875000Y-92981000D02*
X127600000Y-92706000D01*
X127425000Y-105612352D02*
X128200000Y-106387352D01*
%TO.N,/SCL0*%
X126969000Y-93381000D02*
X126050000Y-94300000D01*
X131481000Y-93381000D02*
X126969000Y-93381000D01*
X126669000Y-106044000D02*
X127425000Y-106800000D01*
X135900000Y-97800000D02*
X131481000Y-93381000D01*
X126050000Y-98550000D02*
X126050000Y-102750000D01*
X127125000Y-107100000D02*
X127125000Y-108300000D01*
X126669000Y-103369000D02*
X126669000Y-106044000D01*
X138362954Y-97800000D02*
X135900000Y-97800000D01*
X126050000Y-102750000D02*
X126669000Y-103369000D01*
X127425000Y-106800000D02*
X127125000Y-107100000D01*
X139962954Y-99400000D02*
X138362954Y-97800000D01*
X140662500Y-99400000D02*
X139962954Y-99400000D01*
X126050000Y-94300000D02*
X126050000Y-98550000D01*
%TO.N,Net-(R11-Pad1)*%
X142800000Y-86025000D02*
X149989500Y-86025000D01*
X149989500Y-86025000D02*
X151414500Y-87450000D01*
%TO.N,/ADC_VREF*%
X150775000Y-96000000D02*
X150775000Y-97600000D01*
%TO.N,/USB_DPX*%
X145100000Y-97228640D02*
X145100000Y-97762500D01*
X138075000Y-88900000D02*
X133600000Y-88900000D01*
X131725000Y-87025000D02*
X131200000Y-87025000D01*
X144975000Y-95900000D02*
X145000000Y-95925000D01*
X138275000Y-89100000D02*
X138075000Y-88900000D01*
X145000000Y-97128640D02*
X145100000Y-97228640D01*
X145000000Y-95925000D02*
X145000000Y-97128640D01*
X133600000Y-88900000D02*
X131725000Y-87025000D01*
%TO.N,/USB_DMX*%
X138275000Y-88149997D02*
X137924997Y-88500000D01*
X145500000Y-96802942D02*
X145500000Y-97762500D01*
X131975000Y-83050000D02*
X131200000Y-82275000D01*
X133765686Y-88500000D02*
X131975000Y-86709314D01*
X146257016Y-95657016D02*
X146257016Y-96045926D01*
X146257016Y-96045926D02*
X145500000Y-96802942D01*
X131975000Y-86709314D02*
X131975000Y-83050000D01*
X137924997Y-88500000D02*
X133765686Y-88500000D01*
%TO.N,/XOUT*%
X143900000Y-106575000D02*
X144700000Y-107375000D01*
X143900000Y-104637500D02*
X143900000Y-106575000D01*
%TO.N,/BTN1*%
X135900000Y-98200000D02*
X137870601Y-98200000D01*
X139797268Y-99800000D02*
X140662500Y-99800000D01*
X135070187Y-99029813D02*
X135900000Y-98200000D01*
X137879951Y-98209350D02*
X138206618Y-98209350D01*
X138206618Y-98209350D02*
X139797268Y-99800000D01*
X135070187Y-100591823D02*
X135070187Y-99029813D01*
X137870601Y-98200000D02*
X137879951Y-98209350D01*
%TO.N,/BTN2*%
X135857996Y-98807690D02*
X136065686Y-98600000D01*
X135857996Y-100060916D02*
X135857996Y-98807690D01*
X136065686Y-98600000D02*
X137704915Y-98600000D01*
X138040932Y-98609350D02*
X139631582Y-100200000D01*
X137704915Y-98600000D02*
X137714265Y-98609350D01*
X139631582Y-100200000D02*
X140662500Y-100200000D01*
X137714265Y-98609350D02*
X138040932Y-98609350D01*
%TO.N,/BTN3*%
X136700000Y-99500000D02*
X137200000Y-99000000D01*
X139465896Y-100600000D02*
X140662500Y-100600000D01*
X137200000Y-99000000D02*
X137539229Y-99000000D01*
X137548579Y-99009350D02*
X137875246Y-99009350D01*
X137875246Y-99009350D02*
X139465896Y-100600000D01*
X137539229Y-99000000D02*
X137548579Y-99009350D01*
%TO.N,/BTN4*%
X137505600Y-100096500D02*
X138396710Y-100096500D01*
X138396710Y-100096500D02*
X139300210Y-101000000D01*
X139300210Y-101000000D02*
X140662500Y-101000000D01*
%TO.N,/BTN5*%
X138371500Y-100771500D02*
X139000000Y-101400000D01*
X136700000Y-100600000D02*
X136871500Y-100771500D01*
X139000000Y-101400000D02*
X140662500Y-101400000D01*
X136871500Y-100771500D02*
X138371500Y-100771500D01*
%TO.N,/BTN6*%
X138800000Y-101800000D02*
X140662500Y-101800000D01*
X138300000Y-101300000D02*
X138800000Y-101800000D01*
X135900000Y-101300000D02*
X138300000Y-101300000D01*
%TD*%
%TA.AperFunction,Conductor*%
%TO.N,+3V3*%
G36*
X146825820Y-112603074D02*
G01*
X146885148Y-112618217D01*
X146928124Y-112641686D01*
X146963539Y-112674661D01*
X146990011Y-112715856D01*
X146994636Y-112729756D01*
X146995069Y-112790938D01*
X146973895Y-112827364D01*
X146973998Y-112827452D01*
X146973516Y-112828016D01*
X146973407Y-112828204D01*
X146972732Y-112828933D01*
X146962645Y-112840745D01*
X146962639Y-112840754D01*
X146923464Y-112910706D01*
X146904556Y-112968899D01*
X146894500Y-113032396D01*
X146894500Y-113790243D01*
X146895489Y-113810395D01*
X146895489Y-113810396D01*
X146897389Y-113829689D01*
X146897393Y-113829723D01*
X146900350Y-113849655D01*
X146909467Y-113895489D01*
X146909830Y-113897312D01*
X146909832Y-113897321D01*
X146909833Y-113897322D01*
X146921518Y-113935844D01*
X146921521Y-113935851D01*
X146921524Y-113935861D01*
X146936305Y-113971547D01*
X146955297Y-114007079D01*
X146976774Y-114039221D01*
X147002330Y-114070360D01*
X147029639Y-114097669D01*
X147060777Y-114123224D01*
X147092917Y-114144700D01*
X147116331Y-114157216D01*
X147128438Y-114163688D01*
X147128440Y-114163689D01*
X147128446Y-114163692D01*
X147164132Y-114178474D01*
X147164141Y-114178476D01*
X147164147Y-114178479D01*
X147202678Y-114190167D01*
X147202677Y-114190167D01*
X147211951Y-114192011D01*
X147250346Y-114199649D01*
X147270298Y-114202609D01*
X147289612Y-114204511D01*
X147309752Y-114205500D01*
X148600284Y-114205500D01*
X148613660Y-114206408D01*
X149008876Y-114260301D01*
X149063979Y-114286897D01*
X149092925Y-114340802D01*
X149094500Y-114358393D01*
X149094500Y-114826000D01*
X149075593Y-114884191D01*
X149026093Y-114920155D01*
X148995500Y-114925000D01*
X148299500Y-114925000D01*
X148241309Y-114906093D01*
X148205345Y-114856593D01*
X148200500Y-114826000D01*
X148200500Y-114760253D01*
X148200498Y-114760241D01*
X148193705Y-114726093D01*
X148188867Y-114701769D01*
X148144552Y-114635448D01*
X148078231Y-114591133D01*
X148072592Y-114590011D01*
X148036912Y-114575230D01*
X148007084Y-114555300D01*
X148007081Y-114555298D01*
X148007079Y-114555297D01*
X147971547Y-114536305D01*
X147971545Y-114536304D01*
X147971543Y-114536303D01*
X147962693Y-114532637D01*
X147935861Y-114521524D01*
X147935851Y-114521521D01*
X147935844Y-114521518D01*
X147897322Y-114509833D01*
X147897321Y-114509832D01*
X147897312Y-114509830D01*
X147897302Y-114509828D01*
X147897298Y-114509827D01*
X147849655Y-114500350D01*
X147829723Y-114497393D01*
X147829689Y-114497389D01*
X147810395Y-114495489D01*
X147799403Y-114494949D01*
X147790248Y-114494500D01*
X146899500Y-114494500D01*
X146867356Y-114497030D01*
X146836706Y-114501883D01*
X146832218Y-114502646D01*
X146832213Y-114502647D01*
X146748117Y-114538591D01*
X146698618Y-114574555D01*
X146670872Y-114598797D01*
X146623963Y-114677307D01*
X146621664Y-114682370D01*
X146621173Y-114682147D01*
X146613037Y-114698917D01*
X146611133Y-114701766D01*
X146611133Y-114701767D01*
X146599500Y-114760249D01*
X146599500Y-114762796D01*
X146598281Y-114778283D01*
X146595000Y-114798998D01*
X146595000Y-114826000D01*
X146576093Y-114884191D01*
X146526593Y-114920155D01*
X146496000Y-114925000D01*
X145797847Y-114925000D01*
X145739656Y-114906093D01*
X145726482Y-114894615D01*
X145709047Y-114876481D01*
X145702918Y-114870370D01*
X145624414Y-114823466D01*
X145624406Y-114823462D01*
X145566216Y-114804556D01*
X145566217Y-114804556D01*
X145502720Y-114794499D01*
X145498843Y-114794195D01*
X145498960Y-114792700D01*
X145446309Y-114775593D01*
X145410345Y-114726093D01*
X145405500Y-114695500D01*
X145405500Y-114309765D01*
X145405500Y-114309751D01*
X145404510Y-114289602D01*
X145402607Y-114270287D01*
X145401725Y-114264345D01*
X145399653Y-114250371D01*
X145399650Y-114250357D01*
X145399648Y-114250342D01*
X145390167Y-114202681D01*
X145378474Y-114164136D01*
X145378288Y-114163688D01*
X145363694Y-114128453D01*
X145363693Y-114128450D01*
X145344700Y-114092917D01*
X145323224Y-114060777D01*
X145322471Y-114059860D01*
X145322390Y-114059653D01*
X145321772Y-114058819D01*
X145321998Y-114058651D01*
X145300172Y-114002885D01*
X145300000Y-113997056D01*
X145300000Y-112809751D01*
X145301902Y-112790438D01*
X145311382Y-112742777D01*
X145326162Y-112707092D01*
X145347642Y-112674946D01*
X145374946Y-112647642D01*
X145407092Y-112626162D01*
X145442775Y-112611382D01*
X145468021Y-112606360D01*
X145490439Y-112601902D01*
X145509752Y-112600000D01*
X146801342Y-112600000D01*
X146825820Y-112603074D01*
G37*
%TD.AperFunction*%
%TD*%
%TA.AperFunction,Conductor*%
%TO.N,Net-(U2-LX1)*%
G36*
X145513903Y-115979760D02*
G01*
X145536389Y-115990926D01*
X145540062Y-115993375D01*
X145543734Y-115995823D01*
X145571129Y-116023191D01*
X145603609Y-116071801D01*
X145605448Y-116074552D01*
X145671769Y-116118867D01*
X145716231Y-116127711D01*
X145730241Y-116130498D01*
X145730246Y-116130498D01*
X145730252Y-116130500D01*
X145770803Y-116130500D01*
X145786290Y-116131719D01*
X145807005Y-116135000D01*
X145807007Y-116135000D01*
X146472750Y-116135000D01*
X146530941Y-116153907D01*
X146555064Y-116178997D01*
X146573244Y-116206205D01*
X146573835Y-116207089D01*
X146588616Y-116242773D01*
X146593097Y-116265297D01*
X146595000Y-116284614D01*
X146595000Y-116315385D01*
X146593099Y-116334693D01*
X146590987Y-116345311D01*
X146561093Y-116398695D01*
X146505529Y-116424313D01*
X146493889Y-116425000D01*
X145743753Y-116425000D01*
X145692966Y-116431375D01*
X145692960Y-116431376D01*
X145645553Y-116443468D01*
X145645529Y-116443475D01*
X145623013Y-116450621D01*
X145546980Y-116501448D01*
X145546975Y-116501453D01*
X145504952Y-116545919D01*
X145504950Y-116545921D01*
X145482148Y-116574859D01*
X145464561Y-116622563D01*
X145441677Y-116658321D01*
X144865471Y-117234528D01*
X144850468Y-117246840D01*
X144810067Y-117273835D01*
X144774381Y-117288616D01*
X144726720Y-117298097D01*
X144707405Y-117300000D01*
X143409752Y-117300000D01*
X143390438Y-117298098D01*
X143374470Y-117294921D01*
X143342775Y-117288617D01*
X143307089Y-117273835D01*
X143306330Y-117273328D01*
X143274949Y-117252359D01*
X143247640Y-117225050D01*
X143226163Y-117192908D01*
X143211382Y-117157222D01*
X143201902Y-117109561D01*
X143200000Y-117090248D01*
X143200000Y-116109751D01*
X143201902Y-116090440D01*
X143205609Y-116071801D01*
X143235504Y-116018416D01*
X143291068Y-115992799D01*
X143322022Y-115994014D01*
X143350346Y-115999649D01*
X143370298Y-116002609D01*
X143389612Y-116004511D01*
X143409752Y-116005500D01*
X143409769Y-116005500D01*
X145307391Y-116005500D01*
X145307405Y-116005500D01*
X145327554Y-116004510D01*
X145346869Y-116002607D01*
X145355781Y-116001284D01*
X145366784Y-115999653D01*
X145366794Y-115999650D01*
X145366814Y-115999648D01*
X145414475Y-115990167D01*
X145452732Y-115978561D01*
X145513903Y-115979760D01*
G37*
%TD.AperFunction*%
%TD*%
%TA.AperFunction,Conductor*%
%TO.N,GND*%
G36*
X148251761Y-112600884D02*
G01*
X148284851Y-112605336D01*
X148310313Y-112612314D01*
X148341047Y-112625352D01*
X148352854Y-112631321D01*
X150890869Y-114135331D01*
X150910996Y-114151095D01*
X150955383Y-114196244D01*
X150980485Y-114240296D01*
X150996699Y-114301499D01*
X151000000Y-114326852D01*
X151000000Y-115290248D01*
X150998097Y-115309563D01*
X150988616Y-115357224D01*
X150973835Y-115392910D01*
X150952362Y-115425047D01*
X150925047Y-115452362D01*
X150892910Y-115473835D01*
X150857227Y-115488616D01*
X150837217Y-115492597D01*
X150817899Y-115494500D01*
X149537485Y-115494500D01*
X149513475Y-115491544D01*
X149311830Y-115441132D01*
X149225928Y-115419656D01*
X149225925Y-115419655D01*
X149225923Y-115419655D01*
X149210665Y-115417588D01*
X149181086Y-115413581D01*
X149181075Y-115413580D01*
X149174884Y-115413429D01*
X149137750Y-115412527D01*
X149137748Y-115412527D01*
X149137744Y-115412527D01*
X149092664Y-115416415D01*
X149059067Y-115423098D01*
X149039754Y-115425000D01*
X148330634Y-115425000D01*
X148307457Y-115428432D01*
X148292956Y-115429500D01*
X148180252Y-115429500D01*
X148180251Y-115429500D01*
X148180241Y-115429501D01*
X148121772Y-115441132D01*
X148121766Y-115441134D01*
X148055451Y-115485445D01*
X148055445Y-115485451D01*
X148045724Y-115500000D01*
X148000000Y-115500000D01*
X148000000Y-115607732D01*
X147999501Y-115610241D01*
X147999500Y-115610253D01*
X147999500Y-115749634D01*
X147998428Y-115764166D01*
X147997890Y-115767786D01*
X147997889Y-115767795D01*
X147995989Y-115787088D01*
X147995989Y-115787089D01*
X147995989Y-115787096D01*
X147995000Y-115807237D01*
X147995000Y-115830500D01*
X147996562Y-115850342D01*
X147997530Y-115862646D01*
X147998281Y-115867384D01*
X147999500Y-115882871D01*
X147999500Y-115949744D01*
X147999523Y-115949978D01*
X148000000Y-115959687D01*
X148000000Y-116100310D01*
X147999524Y-116110009D01*
X147999500Y-116110252D01*
X147999500Y-116449744D01*
X147999523Y-116449978D01*
X148000000Y-116459687D01*
X148000000Y-116590248D01*
X147998097Y-116609563D01*
X147988616Y-116657224D01*
X147973834Y-116692911D01*
X147952361Y-116725047D01*
X147925053Y-116752357D01*
X147916142Y-116758312D01*
X147861135Y-116775000D01*
X146938865Y-116775000D01*
X146883862Y-116758315D01*
X146874950Y-116752360D01*
X146847638Y-116725047D01*
X146826165Y-116692911D01*
X146811382Y-116657222D01*
X146801902Y-116609561D01*
X146800000Y-116590248D01*
X146800000Y-116459687D01*
X146800477Y-116449978D01*
X146800500Y-116449744D01*
X146800500Y-116110253D01*
X146800498Y-116110241D01*
X146800000Y-116107737D01*
X146800000Y-116000000D01*
X146754275Y-116000000D01*
X146754040Y-115999649D01*
X146744552Y-115985448D01*
X146711994Y-115963693D01*
X146678233Y-115941134D01*
X146678231Y-115941133D01*
X146678228Y-115941132D01*
X146678227Y-115941132D01*
X146619758Y-115929501D01*
X146619748Y-115929500D01*
X145807007Y-115929500D01*
X145748816Y-115910593D01*
X145712852Y-115861093D01*
X145709910Y-115849818D01*
X145706065Y-115830493D01*
X145703848Y-115819346D01*
X145711037Y-115758587D01*
X145714558Y-115751675D01*
X145726036Y-115731182D01*
X145735060Y-115703407D01*
X145771021Y-115653909D01*
X145829211Y-115635000D01*
X146500493Y-115635000D01*
X146500500Y-115635000D01*
X146532644Y-115632470D01*
X146537397Y-115631717D01*
X146552872Y-115630500D01*
X146619747Y-115630500D01*
X146619748Y-115630500D01*
X146678231Y-115618867D01*
X146744552Y-115574552D01*
X146788867Y-115508231D01*
X146800500Y-115449748D01*
X146800500Y-115366703D01*
X146801719Y-115351214D01*
X146805000Y-115330500D01*
X146805000Y-115229506D01*
X146805000Y-115229500D01*
X146802470Y-115197356D01*
X146801717Y-115192601D01*
X146800500Y-115177125D01*
X146800500Y-115110253D01*
X146800498Y-115110241D01*
X146788379Y-115049315D01*
X146788379Y-115010685D01*
X146800498Y-114949758D01*
X146800500Y-114949746D01*
X146800500Y-114799000D01*
X146819407Y-114740809D01*
X146868907Y-114704845D01*
X146899500Y-114700000D01*
X147790248Y-114700000D01*
X147809561Y-114701902D01*
X147857222Y-114711382D01*
X147892908Y-114726163D01*
X147925050Y-114747640D01*
X147952359Y-114774949D01*
X147968430Y-114799000D01*
X147973835Y-114807089D01*
X147988616Y-114842775D01*
X147997597Y-114887922D01*
X147999500Y-114907237D01*
X147999500Y-114949746D01*
X147999501Y-114949758D01*
X148000000Y-114952266D01*
X148000000Y-115100000D01*
X148093533Y-115100000D01*
X148121769Y-115118867D01*
X148166231Y-115127711D01*
X148180241Y-115130498D01*
X148180246Y-115130498D01*
X148180252Y-115130500D01*
X148180253Y-115130500D01*
X149069747Y-115130500D01*
X149069748Y-115130500D01*
X149128231Y-115118867D01*
X149156467Y-115100000D01*
X149300000Y-115100000D01*
X149300000Y-114000000D01*
X149100000Y-114000000D01*
X147309752Y-114000000D01*
X147290438Y-113998098D01*
X147274470Y-113994921D01*
X147242775Y-113988617D01*
X147207089Y-113973835D01*
X147206330Y-113973328D01*
X147174949Y-113952359D01*
X147147640Y-113925050D01*
X147126163Y-113892908D01*
X147111382Y-113857222D01*
X147101902Y-113809561D01*
X147100000Y-113790248D01*
X147100000Y-113032400D01*
X147118907Y-112974209D01*
X147128996Y-112962396D01*
X147462396Y-112628996D01*
X147516913Y-112601219D01*
X147532400Y-112600000D01*
X148238560Y-112600000D01*
X148251761Y-112600884D01*
G37*
%TD.AperFunction*%
%TD*%
%TA.AperFunction,Conductor*%
%TO.N,Net-(U6-C1+)*%
G36*
X152609561Y-121101902D02*
G01*
X152657222Y-121111382D01*
X152692908Y-121126163D01*
X152725050Y-121147640D01*
X152752359Y-121174949D01*
X152773328Y-121206330D01*
X152773835Y-121207089D01*
X152788616Y-121242775D01*
X152798097Y-121290436D01*
X152800000Y-121309751D01*
X152800000Y-122390248D01*
X152798097Y-122409563D01*
X152788616Y-122457224D01*
X152773835Y-122492910D01*
X152752362Y-122525047D01*
X152725047Y-122552362D01*
X152692910Y-122573835D01*
X152657222Y-122588617D01*
X152632215Y-122593591D01*
X152608049Y-122595374D01*
X152590248Y-122594500D01*
X151536443Y-122594500D01*
X151536441Y-122594500D01*
X151528181Y-122594665D01*
X151520233Y-122594985D01*
X151511982Y-122595484D01*
X151498566Y-122596565D01*
X151491858Y-122597106D01*
X151475461Y-122599093D01*
X151459778Y-122601637D01*
X151443561Y-122604942D01*
X151423981Y-122609760D01*
X151415968Y-122611903D01*
X151408377Y-122614099D01*
X151400507Y-122616548D01*
X151400488Y-122616554D01*
X151400473Y-122616559D01*
X151181893Y-122689420D01*
X151150586Y-122694500D01*
X150903841Y-122694500D01*
X150844193Y-122703348D01*
X150844190Y-122703349D01*
X150789188Y-122720034D01*
X150789186Y-122720034D01*
X150789182Y-122720036D01*
X150789179Y-122720037D01*
X150734671Y-122745819D01*
X150734664Y-122745823D01*
X150723455Y-122753314D01*
X150668452Y-122770000D01*
X150304000Y-122770000D01*
X150245809Y-122751093D01*
X150209845Y-122701593D01*
X150205000Y-122671000D01*
X150205000Y-122574500D01*
X150223907Y-122516309D01*
X150273407Y-122480345D01*
X150304000Y-122475500D01*
X150719747Y-122475500D01*
X150719748Y-122475500D01*
X150778231Y-122463867D01*
X150844552Y-122419552D01*
X150888867Y-122353231D01*
X150900500Y-122294748D01*
X150900500Y-122005252D01*
X150899661Y-122001036D01*
X150890350Y-121954226D01*
X150888867Y-121946769D01*
X150844552Y-121880448D01*
X150839217Y-121876883D01*
X150778233Y-121836134D01*
X150778231Y-121836133D01*
X150778228Y-121836132D01*
X150778227Y-121836132D01*
X150719758Y-121824501D01*
X150719748Y-121824500D01*
X150719747Y-121824500D01*
X150508256Y-121824500D01*
X150450065Y-121805593D01*
X150414101Y-121756093D01*
X150414101Y-121694907D01*
X150450027Y-121645435D01*
X150911592Y-121309751D01*
X151141104Y-121142833D01*
X151154343Y-121134712D01*
X151189211Y-121116930D01*
X151218680Y-121107347D01*
X151257345Y-121101219D01*
X151272831Y-121100000D01*
X152590248Y-121100000D01*
X152609561Y-121101902D01*
G37*
%TD.AperFunction*%
%TD*%
%TA.AperFunction,Conductor*%
%TO.N,Net-(U6-VIN)*%
G36*
X145766159Y-122400446D02*
G01*
X145789909Y-122402712D01*
X145808367Y-122406268D01*
X145831243Y-122412980D01*
X145840139Y-122416056D01*
X145946447Y-122458579D01*
X146050000Y-122500000D01*
X146300000Y-122600000D01*
X147460413Y-122600000D01*
X147518604Y-122618907D01*
X147521564Y-122621144D01*
X147571106Y-122660070D01*
X147571903Y-122660694D01*
X147573397Y-122661856D01*
X147574471Y-122662686D01*
X147574573Y-122662764D01*
X147575484Y-122663463D01*
X147576194Y-122664004D01*
X147577330Y-122664866D01*
X147578171Y-122665501D01*
X147916991Y-122919618D01*
X147930576Y-122928977D01*
X147930588Y-122928984D01*
X147930593Y-122928988D01*
X147944045Y-122937479D01*
X147958357Y-122945728D01*
X147993811Y-122964305D01*
X148024197Y-122977231D01*
X148054287Y-122987262D01*
X148086362Y-122995157D01*
X148114038Y-122999648D01*
X148125869Y-123001568D01*
X148125872Y-123001568D01*
X148125876Y-123001569D01*
X148142282Y-123003558D01*
X148158138Y-123004836D01*
X148169144Y-123005278D01*
X148174647Y-123005500D01*
X148174648Y-123005500D01*
X148690228Y-123005500D01*
X148690248Y-123005500D01*
X148691122Y-123005457D01*
X148691193Y-123005476D01*
X148691449Y-123005470D01*
X148691450Y-123005500D01*
X148691463Y-123005500D01*
X148691463Y-123005549D01*
X148750171Y-123021472D01*
X148788532Y-123069139D01*
X148795000Y-123104336D01*
X148795000Y-123115385D01*
X148793097Y-123134702D01*
X148788616Y-123157226D01*
X148773835Y-123192910D01*
X148752362Y-123225047D01*
X148725068Y-123252347D01*
X148723639Y-123253302D01*
X148668619Y-123270000D01*
X148322799Y-123270000D01*
X148279594Y-123260075D01*
X148265630Y-123253302D01*
X148254718Y-123248009D01*
X148254715Y-123248008D01*
X148254711Y-123248006D01*
X148203597Y-123231399D01*
X148175658Y-123224443D01*
X148175655Y-123224443D01*
X148136509Y-123226422D01*
X148084312Y-123229061D01*
X148084310Y-123229061D01*
X148025435Y-123245667D01*
X147967041Y-123272588D01*
X147967032Y-123272593D01*
X147960786Y-123276767D01*
X147960781Y-123276771D01*
X147960776Y-123276774D01*
X147960773Y-123276777D01*
X147932477Y-123300000D01*
X147900000Y-123300000D01*
X147900000Y-123332476D01*
X147876780Y-123360770D01*
X147855296Y-123392921D01*
X147836300Y-123428458D01*
X147821523Y-123464136D01*
X147821520Y-123464146D01*
X147809830Y-123502683D01*
X147809830Y-123502685D01*
X147800350Y-123550343D01*
X147797393Y-123570275D01*
X147797389Y-123570309D01*
X147795489Y-123589602D01*
X147795489Y-123589603D01*
X147794500Y-123609755D01*
X147794500Y-123698500D01*
X147775593Y-123756691D01*
X147774700Y-123757900D01*
X147626950Y-123954900D01*
X147576910Y-123990108D01*
X147547750Y-123994500D01*
X146767832Y-123994500D01*
X146752770Y-123995052D01*
X146738272Y-123996119D01*
X146723251Y-123997782D01*
X146686997Y-124003149D01*
X146657527Y-124009755D01*
X146629798Y-124018151D01*
X146629791Y-124018153D01*
X146601645Y-124028990D01*
X146601641Y-124028992D01*
X146601637Y-124028993D01*
X146601634Y-124028995D01*
X146592300Y-124033400D01*
X146568464Y-124044651D01*
X146555057Y-124051593D01*
X146542421Y-124058736D01*
X146529567Y-124066641D01*
X146385241Y-124162857D01*
X146365142Y-124178118D01*
X146346755Y-124193949D01*
X146328693Y-124211544D01*
X146328689Y-124211549D01*
X146288193Y-124256158D01*
X146259160Y-124297326D01*
X146235004Y-124342465D01*
X146233672Y-124341752D01*
X146198548Y-124380870D01*
X146053244Y-124468053D01*
X146041345Y-124474140D01*
X146010357Y-124487436D01*
X145984657Y-124494555D01*
X145961982Y-124497637D01*
X145951237Y-124499098D01*
X145937904Y-124500000D01*
X144509752Y-124500000D01*
X144490438Y-124498098D01*
X144472626Y-124494555D01*
X144442775Y-124488617D01*
X144407089Y-124473835D01*
X144398436Y-124468053D01*
X144374949Y-124452359D01*
X144347640Y-124425050D01*
X144326163Y-124392908D01*
X144311382Y-124357222D01*
X144301902Y-124309561D01*
X144300000Y-124290248D01*
X144300000Y-122904901D01*
X144318907Y-122846710D01*
X144328996Y-122834897D01*
X144734897Y-122428996D01*
X144789414Y-122401219D01*
X144804901Y-122400000D01*
X145756775Y-122400000D01*
X145766159Y-122400446D01*
G37*
%TD.AperFunction*%
%TD*%
%TA.AperFunction,Conductor*%
%TO.N,Net-(U2-VIN)*%
G36*
X149176081Y-115619019D02*
G01*
X149300000Y-115650000D01*
X149334316Y-115658579D01*
X149476101Y-115694026D01*
X149476108Y-115694027D01*
X149476114Y-115694029D01*
X149476118Y-115694029D01*
X149476122Y-115694030D01*
X149500000Y-115700000D01*
X151090248Y-115700000D01*
X151109561Y-115701902D01*
X151157222Y-115711382D01*
X151192908Y-115726163D01*
X151225050Y-115747640D01*
X151252359Y-115774949D01*
X151269098Y-115800000D01*
X151273835Y-115807089D01*
X151288616Y-115842775D01*
X151298097Y-115890436D01*
X151300000Y-115909751D01*
X151300000Y-117090248D01*
X151298097Y-117109563D01*
X151288616Y-117157224D01*
X151273835Y-117192910D01*
X151252362Y-117225047D01*
X151225047Y-117252362D01*
X151192910Y-117273835D01*
X151157224Y-117288616D01*
X151109563Y-117298097D01*
X151090248Y-117300000D01*
X150000000Y-117300000D01*
X149966831Y-117459207D01*
X149966831Y-117459208D01*
X149966830Y-117459211D01*
X149535476Y-119529713D01*
X149528422Y-119551059D01*
X149504925Y-119601895D01*
X149477518Y-119637169D01*
X149443076Y-119665175D01*
X149402954Y-119684811D01*
X149348392Y-119697447D01*
X149326056Y-119700000D01*
X146377464Y-119700000D01*
X146354808Y-119697372D01*
X146327668Y-119690991D01*
X146299526Y-119684375D01*
X146258961Y-119664185D01*
X146224337Y-119635450D01*
X146197015Y-119599297D01*
X146174053Y-119547357D01*
X146167295Y-119525573D01*
X145749643Y-117298097D01*
X145646452Y-116747744D01*
X145654311Y-116687066D01*
X145696336Y-116642596D01*
X145743756Y-116630500D01*
X146500500Y-116630500D01*
X146558691Y-116649407D01*
X146594655Y-116698907D01*
X146599500Y-116729500D01*
X146599500Y-116799746D01*
X146599501Y-116799758D01*
X146611132Y-116858227D01*
X146611133Y-116858231D01*
X146655448Y-116924552D01*
X146721769Y-116968867D01*
X146766231Y-116977711D01*
X146780241Y-116980498D01*
X146780246Y-116980498D01*
X146780252Y-116980500D01*
X147939687Y-116980500D01*
X147997878Y-116999407D01*
X148022002Y-117024498D01*
X148055448Y-117074552D01*
X148121769Y-117118867D01*
X148166231Y-117127711D01*
X148180241Y-117130498D01*
X148180246Y-117130498D01*
X148180252Y-117130500D01*
X148180253Y-117130500D01*
X149069747Y-117130500D01*
X149069748Y-117130500D01*
X149128231Y-117118867D01*
X149194552Y-117074552D01*
X149238867Y-117008231D01*
X149250500Y-116949748D01*
X149250500Y-116610252D01*
X149238867Y-116551769D01*
X149238379Y-116549315D01*
X149238379Y-116510685D01*
X149250498Y-116449758D01*
X149250500Y-116449746D01*
X149250500Y-116110253D01*
X149250498Y-116110241D01*
X149247711Y-116096231D01*
X149238867Y-116051769D01*
X149194552Y-115985448D01*
X149161994Y-115963693D01*
X149128233Y-115941134D01*
X149128231Y-115941133D01*
X149128228Y-115941132D01*
X149128227Y-115941132D01*
X149069758Y-115929501D01*
X149069748Y-115929500D01*
X149069747Y-115929500D01*
X148299500Y-115929500D01*
X148241309Y-115910593D01*
X148205345Y-115861093D01*
X148200500Y-115830500D01*
X148200500Y-115807237D01*
X148202402Y-115787924D01*
X148208239Y-115758579D01*
X148211382Y-115742775D01*
X148226163Y-115707090D01*
X148247640Y-115674949D01*
X148275038Y-115647581D01*
X148275719Y-115647127D01*
X148330634Y-115630500D01*
X149069747Y-115630500D01*
X149069748Y-115630500D01*
X149128231Y-115618867D01*
X149128232Y-115618865D01*
X149132757Y-115617966D01*
X149176081Y-115619019D01*
G37*
%TD.AperFunction*%
%TD*%
%TA.AperFunction,Conductor*%
%TO.N,+5V*%
G36*
X147409561Y-120101902D02*
G01*
X147457222Y-120111382D01*
X147492908Y-120126163D01*
X147525050Y-120147640D01*
X147552359Y-120174949D01*
X147573328Y-120206330D01*
X147573835Y-120207089D01*
X147588616Y-120242775D01*
X147598097Y-120290436D01*
X147600000Y-120309751D01*
X147600000Y-120921458D01*
X147599999Y-120921458D01*
X147600000Y-120921463D01*
X147600000Y-121000000D01*
X147653438Y-121057549D01*
X147653439Y-121057550D01*
X147653440Y-121057551D01*
X148238145Y-121687233D01*
X148263885Y-121742741D01*
X148252084Y-121802777D01*
X148220601Y-121836913D01*
X148155449Y-121880447D01*
X148155445Y-121880451D01*
X148111134Y-121946766D01*
X148111132Y-121946772D01*
X148099501Y-122005241D01*
X148099500Y-122005253D01*
X148099500Y-122294746D01*
X148099501Y-122294758D01*
X148111132Y-122353227D01*
X148111133Y-122353231D01*
X148155448Y-122419552D01*
X148221769Y-122463867D01*
X148266231Y-122472711D01*
X148280241Y-122475498D01*
X148280246Y-122475498D01*
X148280252Y-122475500D01*
X148280253Y-122475500D01*
X148750500Y-122475500D01*
X148808691Y-122494407D01*
X148844655Y-122543907D01*
X148849500Y-122574500D01*
X148849500Y-122683106D01*
X148830593Y-122741297D01*
X148805501Y-122765422D01*
X148792910Y-122773835D01*
X148757224Y-122788616D01*
X148709563Y-122798097D01*
X148690248Y-122800000D01*
X148174648Y-122800000D01*
X148158792Y-122798722D01*
X148134635Y-122794802D01*
X148119278Y-122792310D01*
X148089188Y-122782279D01*
X148053734Y-122763702D01*
X148040282Y-122755211D01*
X147702003Y-122501501D01*
X147701581Y-122501183D01*
X147700447Y-122500323D01*
X147699562Y-122499644D01*
X147698525Y-122498839D01*
X147698068Y-122498482D01*
X146385279Y-121467005D01*
X146369377Y-121451303D01*
X146334422Y-121407955D01*
X146315010Y-121368014D01*
X146302522Y-121313750D01*
X146300000Y-121291547D01*
X146300000Y-120309751D01*
X146301902Y-120290438D01*
X146311382Y-120242777D01*
X146326162Y-120207092D01*
X146347642Y-120174946D01*
X146374946Y-120147642D01*
X146407092Y-120126162D01*
X146442775Y-120111382D01*
X146468021Y-120106360D01*
X146490439Y-120101902D01*
X146509752Y-120100000D01*
X147390248Y-120100000D01*
X147409561Y-120101902D01*
G37*
%TD.AperFunction*%
%TD*%
%TA.AperFunction,Conductor*%
%TO.N,Net-(U2-LX2)*%
G36*
X145009561Y-114101902D02*
G01*
X145057222Y-114111382D01*
X145092908Y-114126163D01*
X145125050Y-114147640D01*
X145152359Y-114174949D01*
X145173328Y-114206330D01*
X145173835Y-114207089D01*
X145188616Y-114242775D01*
X145198097Y-114290436D01*
X145200000Y-114309751D01*
X145200000Y-115000000D01*
X145502717Y-115000000D01*
X145560908Y-115018907D01*
X145585032Y-115043998D01*
X145605448Y-115074552D01*
X145671769Y-115118867D01*
X145716231Y-115127711D01*
X145730241Y-115130498D01*
X145730246Y-115130498D01*
X145730252Y-115130500D01*
X146500500Y-115130500D01*
X146558691Y-115149407D01*
X146594655Y-115198907D01*
X146599500Y-115229500D01*
X146599500Y-115330500D01*
X146580593Y-115388691D01*
X146531093Y-115424655D01*
X146500500Y-115429500D01*
X145730252Y-115429500D01*
X145730251Y-115429500D01*
X145730241Y-115429501D01*
X145671772Y-115441132D01*
X145671766Y-115441134D01*
X145605451Y-115485445D01*
X145605445Y-115485451D01*
X145561134Y-115551766D01*
X145561132Y-115551772D01*
X145549501Y-115610241D01*
X145549024Y-115615088D01*
X145547723Y-115614959D01*
X145530593Y-115667683D01*
X145520503Y-115679496D01*
X145465470Y-115734528D01*
X145450468Y-115746840D01*
X145410067Y-115773835D01*
X145374381Y-115788616D01*
X145326720Y-115798097D01*
X145307405Y-115800000D01*
X143409752Y-115800000D01*
X143390438Y-115798098D01*
X143374470Y-115794921D01*
X143342775Y-115788617D01*
X143307089Y-115773835D01*
X143306330Y-115773328D01*
X143274949Y-115752359D01*
X143247640Y-115725050D01*
X143226163Y-115692908D01*
X143211382Y-115657222D01*
X143201902Y-115609561D01*
X143200000Y-115590248D01*
X143200000Y-114309751D01*
X143201902Y-114290438D01*
X143211382Y-114242777D01*
X143226162Y-114207092D01*
X143247642Y-114174946D01*
X143274946Y-114147642D01*
X143307092Y-114126162D01*
X143342775Y-114111382D01*
X143368021Y-114106360D01*
X143390439Y-114101902D01*
X143409752Y-114100000D01*
X144990248Y-114100000D01*
X145009561Y-114101902D01*
G37*
%TD.AperFunction*%
%TD*%
%TA.AperFunction,Conductor*%
%TO.N,GND*%
G36*
X148995742Y-120103444D02*
G01*
X149058110Y-120120343D01*
X149102806Y-120146483D01*
X149148107Y-120192552D01*
X149163804Y-120213429D01*
X149914162Y-121547400D01*
X149971204Y-121648807D01*
X149976693Y-121660219D01*
X149988691Y-121689887D01*
X149995100Y-121714352D01*
X149999189Y-121746092D01*
X150000000Y-121758741D01*
X150000000Y-121995310D01*
X149999524Y-122005009D01*
X149999500Y-122005252D01*
X149999500Y-122294744D01*
X149999523Y-122294978D01*
X150000000Y-122304687D01*
X150000000Y-122495310D01*
X149999524Y-122505009D01*
X149999500Y-122505252D01*
X149999500Y-122794744D01*
X149999523Y-122794978D01*
X150000000Y-122804687D01*
X150000000Y-122995310D01*
X149999524Y-123005009D01*
X149999500Y-123005252D01*
X149999500Y-123294744D01*
X149999523Y-123294978D01*
X150000000Y-123304687D01*
X150000000Y-123495310D01*
X149999524Y-123505009D01*
X149999500Y-123505252D01*
X149999500Y-123692761D01*
X149997598Y-123712076D01*
X149988617Y-123757224D01*
X149973835Y-123792910D01*
X149952362Y-123825047D01*
X149925047Y-123852362D01*
X149892910Y-123873835D01*
X149857224Y-123888616D01*
X149809563Y-123898097D01*
X149790248Y-123900000D01*
X149300000Y-123900000D01*
X149240288Y-123967673D01*
X149240286Y-123967675D01*
X147866678Y-125524430D01*
X147851238Y-125538580D01*
X147809153Y-125569645D01*
X147771186Y-125586778D01*
X147720041Y-125597784D01*
X147699214Y-125600000D01*
X146609752Y-125600000D01*
X146590438Y-125598098D01*
X146574470Y-125594921D01*
X146542775Y-125588617D01*
X146507089Y-125573835D01*
X146500818Y-125569645D01*
X146474949Y-125552359D01*
X146447640Y-125525050D01*
X146426163Y-125492908D01*
X146411382Y-125457222D01*
X146401902Y-125409561D01*
X146400000Y-125390248D01*
X146400000Y-124519261D01*
X146402973Y-124495182D01*
X146417626Y-124436746D01*
X146440349Y-124394285D01*
X146480850Y-124349670D01*
X146499224Y-124333850D01*
X146643557Y-124237628D01*
X146656190Y-124230486D01*
X146689352Y-124214833D01*
X146717087Y-124206436D01*
X146753354Y-124201066D01*
X146767843Y-124200000D01*
X147599996Y-124200000D01*
X147600000Y-124200000D01*
X147700000Y-124200000D01*
X148000000Y-123800000D01*
X148000000Y-123609751D01*
X148001902Y-123590438D01*
X148011382Y-123542777D01*
X148026162Y-123507092D01*
X148047642Y-123474946D01*
X148074946Y-123447642D01*
X148081215Y-123443453D01*
X148140101Y-123426844D01*
X148191217Y-123443452D01*
X148221769Y-123463867D01*
X148266231Y-123472711D01*
X148280241Y-123475498D01*
X148280246Y-123475498D01*
X148280252Y-123475500D01*
X148280253Y-123475500D01*
X148819747Y-123475500D01*
X148819748Y-123475500D01*
X148878231Y-123463867D01*
X148944552Y-123419552D01*
X148988867Y-123353231D01*
X149000500Y-123294748D01*
X149000500Y-123005252D01*
X148988867Y-122946769D01*
X148988863Y-122946764D01*
X148988392Y-122945624D01*
X148988230Y-122943566D01*
X148986965Y-122937207D01*
X148987717Y-122937057D01*
X148983591Y-122884628D01*
X148994867Y-122856964D01*
X149026036Y-122804799D01*
X149044943Y-122746608D01*
X149055000Y-122683106D01*
X149055000Y-122574500D01*
X149052470Y-122542356D01*
X149047625Y-122511763D01*
X149047616Y-122511706D01*
X149046853Y-122507218D01*
X149046852Y-122507213D01*
X149010910Y-122423122D01*
X149010908Y-122423117D01*
X149008147Y-122419317D01*
X148989236Y-122361130D01*
X148991138Y-122341811D01*
X148998523Y-122304687D01*
X149000499Y-122294755D01*
X149000500Y-122294746D01*
X149000500Y-122005253D01*
X149000498Y-122005241D01*
X148997711Y-121991231D01*
X148988867Y-121946769D01*
X148944552Y-121880448D01*
X148944548Y-121880445D01*
X148878233Y-121836134D01*
X148878231Y-121836133D01*
X148878228Y-121836132D01*
X148878227Y-121836132D01*
X148819758Y-121824501D01*
X148819748Y-121824500D01*
X148819747Y-121824500D01*
X148566272Y-121824500D01*
X148508081Y-121805593D01*
X148472117Y-121756093D01*
X148469443Y-121746118D01*
X148457470Y-121689887D01*
X148450316Y-121656290D01*
X148424576Y-121600782D01*
X148388734Y-121547400D01*
X147916038Y-121038342D01*
X147831953Y-120947788D01*
X147806213Y-120892280D01*
X147805500Y-120880423D01*
X147805500Y-120309765D01*
X147805500Y-120309751D01*
X147804510Y-120289602D01*
X147802607Y-120270287D01*
X147799648Y-120250342D01*
X147794014Y-120222021D01*
X147801204Y-120161262D01*
X147842735Y-120116331D01*
X147871796Y-120105609D01*
X147890443Y-120101901D01*
X147909752Y-120100000D01*
X148969858Y-120100000D01*
X148995742Y-120103444D01*
G37*
%TD.AperFunction*%
%TD*%
%TA.AperFunction,Conductor*%
%TO.N,Net-(U6-C1-)*%
G36*
X152609561Y-122801902D02*
G01*
X152657222Y-122811382D01*
X152692908Y-122826163D01*
X152725050Y-122847640D01*
X152752359Y-122874949D01*
X152762241Y-122889737D01*
X152773835Y-122907089D01*
X152788616Y-122942775D01*
X152798097Y-122990436D01*
X152800000Y-123009751D01*
X152800000Y-123890248D01*
X152798097Y-123909563D01*
X152788616Y-123957224D01*
X152773835Y-123992910D01*
X152752362Y-124025047D01*
X152725047Y-124052362D01*
X152692910Y-124073835D01*
X152657224Y-124088616D01*
X152609563Y-124098097D01*
X152590248Y-124100000D01*
X151009752Y-124100000D01*
X150990438Y-124098098D01*
X150974470Y-124094921D01*
X150942775Y-124088617D01*
X150907089Y-124073835D01*
X150906330Y-124073328D01*
X150874949Y-124052359D01*
X150847354Y-124024620D01*
X150847317Y-124024564D01*
X150831014Y-123965591D01*
X150847599Y-123914990D01*
X150888867Y-123853231D01*
X150900500Y-123794748D01*
X150900500Y-123505252D01*
X150888867Y-123446769D01*
X150844552Y-123380448D01*
X150844548Y-123380445D01*
X150778233Y-123336134D01*
X150778231Y-123336133D01*
X150778228Y-123336132D01*
X150778227Y-123336132D01*
X150719758Y-123324501D01*
X150719748Y-123324500D01*
X150719747Y-123324500D01*
X150304000Y-123324500D01*
X150245809Y-123305593D01*
X150209845Y-123256093D01*
X150205000Y-123225500D01*
X150205000Y-123074500D01*
X150223907Y-123016309D01*
X150273407Y-122980345D01*
X150304000Y-122975500D01*
X150719747Y-122975500D01*
X150719748Y-122975500D01*
X150778231Y-122963867D01*
X150844552Y-122919552D01*
X150844551Y-122919552D01*
X150848843Y-122916685D01*
X150903845Y-122900000D01*
X151167544Y-122900000D01*
X151200000Y-122900000D01*
X151230786Y-122889737D01*
X151230790Y-122889737D01*
X151350000Y-122850000D01*
X151465458Y-122811513D01*
X151473063Y-122809314D01*
X151492683Y-122804486D01*
X151508366Y-122801942D01*
X151520627Y-122800953D01*
X151528492Y-122800320D01*
X151536443Y-122800000D01*
X152590248Y-122800000D01*
X152609561Y-122801902D01*
G37*
%TD.AperFunction*%
%TD*%
M02*
